<?xml version="1.0" encoding="UTF-8"?>
<svg id="Layer_2" data-name="Layer 2" xmlns="http://www.w3.org/2000/svg" viewBox="0 0 1000 487.13">
  <defs>
    <style>
      .cls-1 {
        fill: #fff;
      }

      .cls-2 {
        font-family: Fredoka-Medium, Fredoka;
        font-size: 121.78px;
        font-variation-settings: 'wght' 500, 'wdth' 100;
        font-weight: 500;
      }

      .cls-3 {
        fill: none;
        stroke: #00a3f5;
        stroke-miterlimit: 10;
        stroke-width: 10px;
      }

      .cls-4, .cls-5 {
        fill: #00a3f5;
      }

      .cls-5 {
        letter-spacing: 0em;
      }
    </style>
  </defs>
  <g id="Combinations">
    <g id="Layer_13" data-name="Layer 13">
      <rect class="cls-1" width="1000" height="487.13"/>
      <g>
        <g id="cites_sounds" data-name="cites+sounds">
          <text class="cls-2" transform="translate(423.19 315.37)"><tspan x="0" y="0" xml:space="preserve"> sounds</tspan></text>
          <text id="cites_" data-name="cites+" class="cls-2" transform="translate(423.19 243.37)"><tspan x="0" y="0">cites</tspan><tspan class="cls-5" x="259.26" y="0">+</tspan></text>
        </g>
        <g>
          <g>
            <path class="cls-1" d="M276.82,359.16c-22.17,0-46.45-7.8-68.39-21.96-22-14.2-39.14-33.21-48.27-53.53l-.05-.11c-11.28-25.33-11.65-52-1.06-77.15,13.05-30.99,42.52-57.51,78.83-70.94l.17-.06c13.75-5.01,26.18-7.44,38.02-7.44,28.8,0,51.86,14.54,64.95,40.94l.14.29c18.14,37.47,21.01,87.07,7.5,129.46-14.94,47.45-44.7,59.02-67.04,60.37l-.59.03c-1.39.06-2.8.09-4.21.09Z"/>
            <path class="cls-3" d="M276.82,359.16c-22.17,0-46.45-7.8-68.39-21.96-22-14.2-39.14-33.21-48.27-53.53l-.05-.11c-11.28-25.33-11.65-52-1.06-77.15,13.05-30.99,42.52-57.51,78.83-70.94l.17-.06c13.75-5.01,26.18-7.44,38.02-7.44,28.8,0,51.86,14.54,64.95,40.94l.14.29c18.14,37.47,21.01,87.07,7.5,129.46-14.94,47.45-44.7,59.02-67.04,60.37l-.59.03c-1.39.06-2.8.09-4.21.09Z"/>
          </g>
          <path class="cls-4" d="M266.39,316.05c-5.26,0-11.12-.84-17.59-2.53-6.47-1.68-12.98-4.35-19.51-7.99-6.54-3.64-12.54-8.36-18-14.15-5.46-5.79-9.84-12.74-13.14-20.83-3.3-8.09-4.95-17.46-4.95-28.11s1.65-19.27,4.95-27.09c3.3-7.82,7.65-14.56,13.04-20.22,5.39-5.66,11.35-10.24,17.89-13.75,6.54-3.5,13.11-6.1,19.71-7.78,6.6-1.68,12.67-2.53,18.2-2.53,6.87,0,12.94.84,18.2,2.53,5.26,1.69,9.53,3.44,12.84,5.26,3.3,1.82,5.36,3,6.17,3.54,2.69,1.75,5.22,3.67,7.58,5.76,2.36,2.09,3.54,4.89,3.54,8.39,0,1.75-.37,3.57-1.11,5.46-.74,1.89-1.85,3.84-3.34,5.86-2.7,3.78-5.23,6.54-7.58,8.29-2.36,1.75-4.69,2.63-6.98,2.63-1.75,0-3.44-.4-5.05-1.21s-3.57-1.95-5.86-3.44c-.94-.67-2.16-1.45-3.64-2.33-1.48-.88-3.51-1.68-6.07-2.43-2.56-.74-5.93-1.11-10.11-1.11-3.51,0-7.31.64-11.42,1.92-4.11,1.28-7.99,3.3-11.63,6.07-3.64,2.76-6.61,6.4-8.9,10.92-2.29,4.52-3.44,9.94-3.44,16.28s1.18,11.93,3.54,16.38c2.36,4.45,5.36,8.06,9,10.82,3.64,2.76,7.51,4.79,11.63,6.07,4.11,1.28,7.85,1.92,11.22,1.92s6.47-.3,8.9-.91c2.43-.61,4.62-1.45,6.57-2.53,1.95-1.08,3.74-2.15,5.36-3.24,1.48-1.08,3.1-2.02,4.85-2.83,1.75-.81,3.5-1.21,5.26-1.21,2.29,0,4.58.94,6.87,2.83,2.29,1.89,4.72,4.79,7.28,8.69,1.48,2.29,2.59,4.42,3.34,6.37.74,1.96,1.11,3.74,1.11,5.36,0,3.37-1.18,6.07-3.54,8.09-2.36,2.02-4.89,3.84-7.58,5.46-.94.54-2.97,1.75-6.07,3.64-3.1,1.89-7.28,3.64-12.54,5.26-5.26,1.62-11.59,2.43-19.01,2.43Z"/>
          <path class="cls-4" d="M267.78,261.48c-1.19,0-2.47-.13-3.84-.39-1.38-.26-2.7-.64-3.98-1.14-1.28-.5-2.38-1.09-3.31-1.78-.92-.69-1.53-1.46-1.81-2.31-.14-.47-.2-.94-.18-1.39.02-.45.17-.92.43-1.42.26-.5.6-1.01,1.03-1.53.43-.52.88-.82,1.35-.89.47-.07,1.04.08,1.71.46.66.24,1.36.55,2.1.92.73.38,1.49.76,2.28,1.14.78.38,1.59.69,2.42.92.83.24,1.65.36,2.45.36,1.75,0,3.14-.3,4.16-.89,1.02-.59,1.53-1.43,1.53-2.52,0-.62-.15-1.15-.46-1.6-.31-.45-.75-.84-1.32-1.17-.57-.33-1.21-.62-1.92-.85-.71-.24-1.49-.47-2.35-.71-.85-.24-1.71-.47-2.56-.71-1.23-.33-2.43-.73-3.59-1.21-1.16-.47-2.22-1.09-3.16-1.85-.95-.76-1.71-1.72-2.28-2.88-.57-1.16-.85-2.6-.85-4.3,0-2.13.52-3.95,1.56-5.44,1.04-1.49,2.54-2.64,4.48-3.45,1.94-.81,4.29-1.21,7.04-1.21.95,0,1.86.07,2.74.21.88.14,1.73.34,2.56.6.83.26,1.64.58,2.42.96.78.38,1.53.81,2.24,1.28,1.18.66,1.8,1.43,1.85,2.31.05.88-.28,1.81-1,2.81-.52.71-1.04,1.2-1.56,1.46-.52.26-1.07.25-1.64-.04-.76-.38-1.58-.78-2.45-1.21-.88-.43-1.78-.81-2.7-1.14-.92-.33-1.88-.5-2.88-.5s-1.8.14-2.56.43c-.76.28-1.33.69-1.71,1.21-.38.52-.57,1.11-.57,1.78s.19,1.21.57,1.64c.38.43.88.78,1.49,1.07.62.28,1.35.53,2.2.75.85.21,1.75.42,2.7.6,1.33.28,2.68.64,4.05,1.07,1.37.43,2.64,1.02,3.8,1.78,1.16.76,2.1,1.77,2.81,3.02.71,1.26,1.07,2.88,1.07,4.87,0,3.46-1.27,6.14-3.8,8.04-2.54,1.9-6.06,2.84-10.56,2.84Z"/>
        </g>
      </g>
    </g>
  </g>
</svg>