<?xml version="1.0" encoding="UTF-8"?>
<svg xmlns="http://www.w3.org/2000/svg" version="1.1" xmlns:xlink="http://www.w3.org/1999/xlink" viewBox="0 0 1000 1000">
  <!-- Generator: Adobe Illustrator 29.7.0, SVG Export Plug-In . SVG Version: 2.1.1 Build 138)  -->
  <defs>
    <style>
      .st0 {
        display: none;
      }
    </style>
  </defs>
  <g id="Layer_2" class="st0">
    <image width="4000" height="6000" transform="translate(-3.7 -336.3) scale(.3)" xlink:href="C:\Users\lukec\Pictures\2025\September\Headshots\Headshot05.jpg"/>
  </g>
  <g id="Layer_3" class="st0">
    <path d="M66.3,1002.9c2.3-40,6.3-80,12.3-119.6,5.1-33.7,11-68.5,27.4-98.9,16.5-30.6,43.7-52,72.7-70.2,30.6-19.1,62.7-35.8,96-49.7,37.6-15.8,76.7-28.1,116.5-36.9,5.7-1.3,3.3-9.9-2.4-8.7-72.7,16.1-142.8,44-206.5,82.5-29.2,17.7-58.1,37.9-77.1,66.9-19.4,29.5-27.4,64.7-33.1,99-7.3,44.9-12.1,90.2-14.7,135.6s8.7,5.8,9,0h0Z"/>
    <path d="M388.3,617.9c3,31.1,6.4,62.9,19.5,91.6,12.8,28.1,35.6,48.4,63.5,60.8s28.5,10.7,43.3,14.4,32.6,7.9,49.1,10.1c16.9,2.3,34,1.3,49.3-6.9,13.1-7,23.6-17.9,32.3-29.8,22.2-30,37.6-68.6,31.8-106.3-.9-5.7-9.6-3.3-8.7,2.4,4.9,31.9-7.7,63.9-24.7,90.4-7.7,12-16.9,23.5-28.8,31.6-13.4,9.1-28.7,11.7-44.7,10.3-15.6-1.4-31.2-5.3-46.4-8.8-13.7-3.2-27.4-7-40.5-12.1-26.8-10.4-50.1-27.3-64-53s-19-62.7-22.1-94.7-9.6-5.8-9,0h0Z"/>
    <path d="M672.6,650.8c53.7,45.8,129.3,49.5,185.7,90.9,58.8,43.3,91.9,112.6,108.7,181.9s16,92.3,20.2,138.9c.5,5.7,9.5,5.8,9,0-7.2-80-16.8-162.4-54.8-234.6-16.1-30.6-37.1-59-63.2-81.8s-57.9-37.9-91-50c-37.5-13.7-77.3-25.4-108.3-51.8-4.4-3.7-10.8,2.6-6.4,6.4h0Z"/>
    <path d="M355.5,621.8c16,71.4,57.2,140.6,124.1,174.5,32.4,16.5,69.7,24.6,105.9,20.4,34.3-4,66.1-18.9,90.6-43.4s43.5-63.1,42.3-101c-.2-5.8-9.2-5.8-9,0,2.1,66-51.9,122.6-115,134.1-70.5,12.8-141.1-23.8-182.6-79.8s-39.1-68.7-47.7-107.2c-1.3-5.6-9.9-3.3-8.7,2.4h0Z"/>
    <path d="M703,349.5c4.9,39.7,10.2,81.4-1.1,120.5-9,31.2-29.3,60.9-60.6,72.7s-36.8,7.6-55.5,6.2c-19.4-1.4-38.7-5-57.5-10.2-19.3-5.3-38-12.4-55.9-21.3-16.2-8-32.6-17.5-42-33.5s-11-32.3-11-49.2c0-18.8,2.6-37.6,6.5-55.9,8.1-38.1,22.7-74.6,40.5-109.2,16.8-32.7,36.5-64.8,69-84.1s65.5-23.5,98.6-13.9c31.8,9.2,59.4,31.7,73.1,62.1,16.6,36.5,13,78.4,5.6,116.7-1.9,10-4.1,20-6.3,30s7.4,8.1,8.7,2.4c9-41.3,18-84.1,8.8-126.2-7.8-36-30.3-66.4-62.9-83.7s-69-19.2-102.9-7.7c-36.8,12.5-63.9,38.9-83.8,71.6s-38.6,73.4-50.2,112.7c-5.8,19.6-9.9,39.7-12.1,60-2,18.7-2.6,37.9,1.8,56.3s13.8,32.8,28.2,43.9,34.6,20.3,52.8,27.4c19.8,7.7,40.4,13.5,61.4,17.1,19.5,3.4,39.6,5.5,59.4,3.4,18.8-2,37-7.9,52.2-19.4s24-23.5,31.8-38.4c19-36.2,19.9-77.7,16.2-117.6-1-11-2.3-21.9-3.7-32.8s-9.7-5.7-9,0h0Z"/>
    <path d="M553.8,241.2c-12.8-3.7-25.8-7.5-39.2-8.2s-22.7.4-29.9,9c-7.2,8.5-7.3,21-9.2,31.5s-4.2,23.7.9,34.7c9,19.4,36.6,29.7,56.7,28.4s41.5-19.9,48.2-41.6c7.1-22.8-3.7-50.6-29.6-53.6-5.7-.7-5.7,8.3,0,9,18.8,2.2,25.7,23.8,21.6,39.8s-19.3,35.3-38.6,37.3-38.8-5.6-48.4-19.9c-5.8-8.6-4.3-19.4-2.6-29s1.9-17.9,5.1-25.9,17.3-11.3,27.7-10.5c11.9.9,23.5,4.4,35,7.7s7.9-7.1,2.4-8.7h0Z"/>
    <path d="M582.3,283.1c12.1-7.8,27.5-4.6,35.2,7.7s10.8.4,7.8-4.5c-10.1-16.3-31.2-21.4-47.5-10.9-4.9,3.1-.3,10.9,4.5,7.8h0Z"/>
    <path d="M698.1,277.4c-12.7-3-25.5-5.3-38.5-6.9s-22.8-3.4-31.4,4.3c-7.6,6.9-10.1,18.7-12.3,28.3-2.7,11.5-2.5,22.7,2.8,33.4,9.3,18.5,30.2,34.7,51.6,33.7,22.3-1,40.1-16.8,48.4-36.8,4.4-10.7,7.6-23.9,2.6-35s-15.8-16.4-26-21.1-9.8,5.4-4.5,7.8c7.2,3.3,15.4,6.8,20.3,13.4,5.8,7.8,3.9,18,1.2,26.6-5.5,17.2-18.6,32.1-36.9,35.6s-35.7-8.5-45.6-23.2-7.7-16.9-6.2-26.6c1.3-8.4,3.5-19.1,8.3-26.4s18.7-6.2,27.9-5,24.2,3.8,36.1,6.6,8-7.3,2.4-8.7h0Z"/>
    <path d="M553.6,327.2c-4.3,7.7-8.6,15.4-12.9,23.2s-5.8,12.4-.3,17.5,13.3,5.3,19.4,6.8,13.5,4.4,19-.3c4.3-3.6,4.7-10.4,2.1-15.1-3.1-5.6-9.8-8.5-15.8-9.9s-14.2.6-14.9,8,7.4,9.9,13.3,9.5,5.8-9.4,0-9c.4,0-5.6.3-3.7,0s4.2.5,6,1.1,6.2,2.2,7.3,4.8c2,4.7-2.6,4.2-5.7,3.5s-7.7-2-11.5-2.9-6.6-1-8.6-2.6,1.2-7,2.5-9.4c3.8-6.9,7.7-13.8,11.5-20.7s-4.9-9.6-7.8-4.5h0Z"/>
    <path d="M571.3,375.9c2.1,2.8,4.6,4.5,8.2,4.9s8.3-1.8,12.4-.7c8,2.1,14.2,10.3,23.3,6,8.2-3.9,8.3-13.3,7.5-21.1s-2.3-21.8-3.5-32.7-9.6-5.8-9,0,1.7,15.2,2.5,22.8.8,7.3,1.2,10.9,1.3,8.3-1.2,11c-4,4.3-12.8-3.6-16.8-5.1s-5.5-1.3-8.5-1-6.9,2.1-8.2.4c-3.4-4.6-11.3,0-7.8,4.5h0Z"/>
    <path d="M610.4,362.8c-2.7-2.5-6.1-4.5-9.9-4.3s-7,2.6-8.1,6.1c-2.5,7.8,7.3,12.8,13.1,15.2s4.9-1,5.5-3.1-.9-4.6-3.1-5.5-2.6-1.3-3.8-2-3.3-2.6-3.2-2.6c0,0,.3,1.3.1,1s.4.3-.1,0c.3.2,1.1.2,1.5.4.6.3,1.2.8,1.7,1.3,4.3,3.9,10.7-2.5,6.4-6.4h0Z"/>
    <path d="M515.3,409.3c35.7,16.1,74,25.4,113.2,27.2,5.8.3,5.8-8.7,0-9-37.5-1.8-74.4-10.5-108.6-26-5.2-2.4-9.8,5.4-4.5,7.8h0Z"/>
    <path d="M503.4,383.1c-11,3.2-18.6,13-19.1,24.4s8.7,5.8,9,0,5.5-13.7,12.5-15.7,3.2-10.3-2.4-8.7h0Z"/>
    <path d="M516.6,384.1c-8.7,2.2-15.7,9.4-17.4,18.2s7.6,8.1,8.7,2.4c1.1-5.9,5.3-10.5,11.2-12s3.2-10.1-2.4-8.7h0Z"/>
    <path d="M536.7,379.8c-7.4,5.6-12.8,12.6-16.2,21.3s6.6,7.7,8.7,2.4,6.7-11.8,12.1-15.9,0-11.3-4.5-7.8h0Z"/>
    <path d="M561.1,385.8l-13.7,14.4c-4,4.2,2.4,10.6,6.4,6.4s9.2-9.6,13.7-14.4c4-4.2-2.4-10.6-6.4-6.4h0Z"/>
    <path d="M591,391.4c-5.9,3.6-10.8,8.3-14.6,14.1s4.5,9.3,7.8,4.5,6.8-8.1,11.4-10.8.4-10.8-4.5-7.8h0Z"/>
    <path d="M597.4,404c1.2,4.2.4,8.5-2.5,11.7-3.9,4.3,2.5,10.7,6.4,6.4s7-13.2,4.8-20.5c-1.6-5.5-10.3-3.2-8.7,2.4h0Z"/>
    <path d="M608.5,410.6c3,3.9,4.1,8,3.5,12.9s2.3,4.5,4.5,4.5,4.2-2.1,4.5-4.5c.8-6.2-1-12.5-4.8-17.4s-3.9-2.9-6.2-1.6-3.1,4.2-1.6,6.2h0Z"/>
    <path d="M625.7,421.7c3.2,2.7,5.3,6.2,5.5,10.4s9.4,5.8,9,0-3.2-12.6-8.2-16.8-10.8,2.6-6.4,6.4h0Z"/>
    <path d="M639.8,431c4.6,5.5,7.5,12,8.9,19s9.8,3.3,8.7-2.4c-1.7-8.6-5.6-16.3-11.2-23s-10.1,2-6.4,6.4h0Z"/>
    <path d="M425.4,355.4c.4,24.9-7.7,49.6-23.1,69.2-3.6,4.5,2.8,10.9,6.4,6.4,17-21.5,26.2-48.1,25.8-75.5s-9.1-5.8-9,0h0Z"/>
    <path d="M426.4,390.6c-2,15-3.9,30-5.9,45s8.3,5.7,9,0c2-15,3.9-30,5.9-45s-8.3-5.7-9,0h0Z"/>
    <path d="M435.2,419.9c-4.1,18.7-8.2,37.3-12.3,56s7.4,8.1,8.7,2.4c4.1-18.7,8.2-37.3,12.3-56s-7.4-8.1-8.7-2.4h0Z"/>
    <path d="M451.7,449.3c0,15.6-2.9,30.9-8.2,45.6s6.7,7.8,8.7,2.4c5.6-15.4,8.4-31.6,8.5-47.9s-9-5.8-9,0h0Z"/>
    <path d="M467.1,454.8c-1.4,18.1-3.6,36.2-6.5,54.1s7.8,8.1,8.7,2.4c3-18.7,5.3-37.6,6.8-56.5s-8.5-5.7-9,0h0Z"/>
    <path d="M500.2,493.5c-.7,14.4-1.4,28.7-2.1,43.1s2.2,4.5,4.5,4.5,3.8-.9,5.3-2.9c3.4-4.7-4.4-9.2-7.8-4.5l-.5.7,3.9-2.2h-.9c1.5,1.5,3,3,4.5,4.5.7-14.4,1.4-28.7,2.1-43.1s-8.7-5.8-9,0h0Z"/>
    <path d="M509.9,499c-.5,10.1-.3,20.1.6,30.2s9.5,5.8,9,0c-.9-10-1.1-20.1-.6-30.2s-8.7-5.8-9,0h0Z"/>
    <path d="M534.9,500.2c1.2,9.1,3,18.1,5.8,26.9s4.1,15.5,11.6,16.8,8.1-7.7,2.4-8.7c-3.9-.7-5.9-12.4-6.8-15.7-1.8-6.3-3.1-12.8-3.9-19.3s-9.7-5.7-9,0h0Z"/>
    <path d="M489.9,475.5c-.9,9.8-2,19.7-3.4,29.4s-2.5,16.5-8.5,22.3,2.2,10.4,6.4,6.4c6.7-6.6,9.1-15.6,10.5-24.6s3-22.3,4-33.5-8.5-5.7-9,0h0Z"/>
    <path d="M488.8,488.8c.7,12.5-4.4,23.9-14.1,31.8-4.5,3.7,1.9,10,6.4,6.4,11.3-9.2,17.6-23.6,16.7-38.1s-9.3-5.8-9,0h0Z"/>
    <path d="M536.2,497.8l2.1,48.1c.2,5.8,9.2,5.8,9,0l-2.1-48.1c-.2-5.8-9.2-5.8-9,0h0Z"/>
    <path d="M554.2,517.8c3.1,19.8,7.3,39.4,12.5,58.7,1.5,5.6,10.2,3.2,8.7-2.4-5.2-19.3-9.4-38.9-12.5-58.7-.9-5.7-9.6-3.3-8.7,2.4h0Z"/>
    <path d="M571.5,521.3c2.5,8.4,5.5,16.6,8.9,24.7,2.7,6.4,5.4,13.8,12.8,15.8,5.6,1.5,8-7.1,2.4-8.7-4.9-1.4-7.5-11.7-9.1-15.8-2.4-6.1-4.5-12.2-6.4-18.4-1.7-5.5-10.4-3.2-8.7,2.4h0Z"/>
    <path d="M593.6,513.5c2.7,12.2,5.9,24.4,9.5,36.4,1.7,5.5,10.4,3.2,8.7-2.4-3.7-12-6.8-24.1-9.5-36.4s-9.9-3.3-8.7,2.4h0Z"/>
    <path d="M612.1,511.5c2.5,11.9,7.5,23.1,14.8,32.8,3.4,4.6,11.2.1,7.8-4.5-6.9-9.2-11.5-19.4-13.9-30.7-1.2-5.7-9.9-3.3-8.7,2.4h0Z"/>
    <path d="M626.9,510c.4,7.6.8,15.1,1.2,22.7s9.3,5.8,9,0-.8-15.1-1.2-22.7-9.3-5.8-9,0h0Z"/>
    <path d="M637.1,497c8.6,15,16.2,30.6,22.7,46.6,2.1,5.3,10.9,3,8.7-2.4-6.8-16.8-14.6-33.1-23.6-48.8-2.9-5-10.6-.5-7.8,4.5h0Z"/>
    <path d="M659.1,503.7c3.2,9.9,6.3,19.9,9.5,29.8,1.7,5.5,10.4,3.2,8.7-2.4-3.2-9.9-6.3-19.9-9.5-29.8-1.7-5.5-10.4-3.2-8.7,2.4h0Z"/>
    <path d="M673.2,502.9c2.4,7.7,6.5,14.5,12.3,20.1,4.2,4,10.5-2.3,6.4-6.4s-8.1-9.9-10-16.2c-1.7-5.5-10.4-3.2-8.7,2.4h0Z"/>
    <path d="M683.8,478.3c.8,5.7,1.6,11.5,2.4,17.2s3.4,3.7,5.5,3.1,3.5-3.1,3.1-5.5c-.8-5.7-1.6-11.5-2.4-17.2s-3.4-3.7-5.5-3.1-3.5,3.1-3.1,5.5h0Z"/>
    <path d="M694.5,453.3c3.6,10.1,7.8,20,12.8,29.6,2.7,5.2,10.4.6,7.8-4.5-4.6-8.9-8.5-18-11.9-27.4-1.9-5.4-10.6-3.1-8.7,2.4h0Z"/>
    <path d="M631.9,443.4c-.4,6.9,0,13.6,1.2,20.4s9.6,3.3,8.7-2.4c-1-6-1.2-12-.9-18s-8.7-5.8-9,0h0Z"/>
    <path d="M628.7,453.2c-.5,6.7-1.8,13.2-3.6,19.6-1.6,5.6,7.1,8,8.7,2.4,2-7.2,3.3-14.5,3.9-22s-8.5-5.7-9,0h0Z"/>
    <path d="M622.1,475.4c1.8,5,1.1,10.3-2.5,14.3s2.5,10.7,6.4,6.4c5.7-6.3,7.7-15,4.8-23.1-1.9-5.4-10.6-3.1-8.7,2.4h0Z"/>
    <path d="M481.2,418.7l-5.8,20.9c-1.6,5.6,7.1,8,8.7,2.4l5.8-20.9c1.6-5.6-7.1-8-8.7-2.4h0Z"/>
    <path d="M483.5,430.5c-.8,7.2,3,17.9-2.8,23.7-4.1,4.1,2.3,10.5,6.4,6.4,8.4-8.4,4.3-19.6,5.5-30s-8.4-5.7-9,0h0Z"/>
    <path d="M502.1,463c-1.6,5.3-3.6,10.4-6.2,15.4s5.1,9.7,7.8,4.5,5.3-11.5,7.1-17.5c1.7-5.6-7-7.9-8.7-2.4h0Z"/>
    <path d="M513.1,470.4c-.8,3.1-1.6,6.3-2.3,9.4-1.4,5.6,7.3,8,8.7,2.4s1.6-6.3,2.3-9.4c1.4-5.6-7.3-8-8.7-2.4h0Z"/>
    <path d="M526.3,468.9l-.9,11.7c-.2,2.4,2.2,4.5,4.5,4.5s4.3-2.1,4.5-4.5l.9-11.7c.2-2.4-2.2-4.5-4.5-4.5s-4.3,2.1-4.5,4.5h0Z"/>
    <path d="M545.1,471.6c-1.2,6.2-1.7,12.5-1.3,18.8s9.3,5.8,9,0,0-11,1-16.4-7.6-8.1-8.7-2.4h0Z"/>
    <path d="M556.3,480.2c-.4,4.6.2,9.3,1.6,13.7s10.5,3.1,8.7-2.4-1.6-7.4-1.3-11.3-2.2-4.5-4.5-4.5-4.3,2.1-4.5,4.5h0Z"/>
    <path d="M578.6,479.4c-1.1,6-.8,12,1.2,17.8s10.6,3.1,8.7-2.4-2-8.6-1.2-13-7.7-8.1-8.7-2.4h0Z"/>
    <path d="M588.9,486.5c.8,7.8,5.1,14.7,12.2,18.2,5.2,2.5,9.7-5.2,4.5-7.8s-7.3-5.7-7.7-10.4-1.9-4.5-4.5-4.5-4.8,2.1-4.5,4.5h0Z"/>
    <path d="M573.4,500.3c3.8,9.3,5.4,18.9,4.8,28.9s8.7,5.8,9,0c.6-10.7-1.1-21.3-5.1-31.3-2.2-5.3-10.9-3-8.7,2.4h0Z"/>
    <path d="M567.1,499.4c.8,3.6,1.4,7.2,1.8,10.9s1.4,7.8.3,8.4c-5.2,2.5-.7,10.3,4.5,7.8s4.8-6.4,4.6-10.5c-.3-6.3-1.3-12.7-2.6-18.9-1.2-5.7-9.9-3.3-8.7,2.4h0Z"/>
    <path d="M551.7,499.8c1.1,5.2.5,10.1-1.5,15-2.2,5.4,6.5,7.7,8.7,2.4,2.6-6.3,2.9-13.1,1.5-19.7s-9.9-3.3-8.7,2.4h0Z"/>
    <path d="M532,490.4c-.3,5.7-3.1,11-7.7,14.3s-.2,11.2,4.5,7.8c7.3-5.3,11.7-13,12.2-22.1s-8.7-5.8-9,0h0Z"/>
    <path d="M511,488.8c-1.7,7-7,11.9-14,13.3-5.7,1.1-3.3,9.8,2.4,8.7,9.9-1.9,18-9.8,20.3-19.6s-7.3-8-8.7-2.4h0Z"/>
    <path d="M461.9,432.1c.7,13.4-4.2,26.1-13.7,35.6-4.1,4.1,2.2,10.4,6.4,6.4,11.2-11,17.2-26.2,16.4-42s-9.3-5.8-9,0h0Z"/>
    <path d="M450.2,418.3c-2.1,15.2-8.4,29.2-18.5,40.7s2.5,10.7,6.4,6.4c11.2-12.6,18.5-28,20.8-44.7s-7.9-8.1-8.7-2.4h0Z"/>
    <path d="M432.3,393.6c-6.3,15.2-11.9,30.6-16.9,46.3s6.9,7.9,8.7,2.4c5-15.7,10.6-31.1,16.9-46.3s-6.5-7.7-8.7-2.4h0Z"/>
    <path d="M633.7,472.3c6.3,12.5,10.5,26.1,12.3,40s9.7,5.7,9,0c-2-15.6-6.4-30.5-13.5-44.6s-10.4-.6-7.8,4.5h0Z"/>
    <path d="M655.7,473.6c.6,11,.4,21.9-.5,32.9-.5,5.8,8.5,5.7,9,0,.9-10.9,1-21.9.5-32.9s-9.3-5.8-9,0h0Z"/>
    <path d="M677.1,466.5v27.4c0,5.8,9,5.8,9,0v-27.4c0-5.8-9-5.8-9,0h0Z"/>
    <path d="M693.1,451.6c-1,9.6-3,19-5.9,28.2-1.7,5.5,7,7.9,8.7,2.4,3.1-10,5.1-20.2,6.2-30.6s-8.4-5.7-9,0h0Z"/>
    <path d="M677.7,459.1c1.1,9.1,1.5,18.2,1.1,27.4s8.8,5.8,9,0c.4-9.2,0-18.3-1.1-27.4s-9.7-5.7-9,0h0Z"/>
    <path d="M699.6,434c-2.4,19.2-3.2,38.6-2.4,57.9.2,5.8,9.2,5.8,9,0-.8-19.4,0-38.7,2.4-57.9.7-5.7-8.3-5.7-9,0h0Z"/>
    <path d="M482.3,250.7c-7.1-9.7-17.4,2.3-22.5,8.1-7.6,8.6-13.4,18.3-17.8,28.8s6.5,7.7,8.7,2.4,6.3-12.8,10.5-18.6,4.3-5.5,6.7-8.1,7.7-6.5,6.6-8c3.4,4.6,11.2.1,7.8-4.5h0Z"/>
    <path d="M723.2,317.5c6.7-2.2,2.2,11.7,1.5,14.2-1.7,5.9-3.3,11.8-4.9,17.7-3.1,11.9-5.7,23.8-8.1,35.9-1.1,5.7,7.6,8.1,8.7,2.4,3.3-17.1,7.4-34,12.2-50.8s5.1-14.1,2.4-20.9-8.3-9.1-14.1-7.1-3.1,10.5,2.4,8.7h0Z"/>
    <path d="M703.3,472c0,4.8.2,9.5.3,14.3s.4,3.4-2.2,4.4-3,1.3-4.2,2.6c-5.1,5.7-1,14.3,5.2,17s13.9-.4,16.1-7-3.3-14.1-10.6-14.7-5.7,8.5,0,9,2.7,3.3.7,4.4-5.6-.5-4.7-2.5,2.6-1.1,3.1-1.4c1.5-.7,2.7-1.5,3.8-2.9,2-2.6,1.8-5.9,1.8-9,0-4.8-.2-9.5-.3-14.3s-9.1-5.8-9,0h0Z"/>
    <path d="M697.3,494.8c-5.6-.2-8.3,6.2-4.7,10.4,3.9,4.5,13.6,2.9,18.7,2.2s13.4-2.4,13.8-8.8-7-8-11.8-6.6-3.2,10.3,2.4,8.7c1.5,0,1.7-.3.6-.8l.5-3.5c-1.5,3.2-16.3,3.8-18.7,1.9l2.1,2.7v.2c-.8.9-1.5,1.8-2.2,2.7h-.6c5.8.2,5.8-8.8,0-8.9h0Z"/>
    <path d="M419.1,340.4c-19.5,23.4-22,56.4-5.5,82.2s10.9.4,7.8-4.5c-14.2-22.2-12.9-50.9,4.1-71.3,3.7-4.4-2.7-10.8-6.4-6.4h0Z"/>
    <path d="M710.3,412.2c.6,14,1.6,28.2,1.6,42.2s-15.4,16.8-13.9,29.7,9.7,5.8,9,0,5.4-10.7,9-15.4,4.9-8.9,4.9-14.3c0-14-1.1-28.2-1.6-42.2-.2-5.8-9.2-5.8-9,0h0Z"/>
    <path d="M482.8,153.1c-22.3,18.8-48.3,32.9-76.1,41.6s-3.2,10.4,2.4,8.7c29.4-9.1,56.5-24,80.1-43.9,4.4-3.7-2-10.1-6.4-6.4h0Z"/>
    <path d="M498.4,171.1c-27.1,16.6-57.1,27.4-88.5,32.1-5.7.8-3.3,9.5,2.4,8.7,32.1-4.8,62.9-16,90.6-33s.4-10.8-4.5-7.8h0Z"/>
    <path d="M480.9,199.1c-24.2,1.4-51.7,3.8-68.5,23.7s-8.2,47.7,2.8,69.8,10.3.6,7.8-4.5c-9.5-19.2-19.5-43.1-2.3-61.1,15.5-16.2,39.2-17.7,60.2-18.9s5.8-9.3,0-9h0Z"/>
    <path d="M470.2,222.2c-29.7,14.8-57.9,32.4-84.3,52.4-4.6,3.5,0,11.3,4.5,7.8,26.4-20,54.6-37.6,84.3-52.4,5.2-2.6.6-10.4-4.5-7.8h0Z"/>
    <path d="M455.4,247.7c-17.5,11-32.7,25.3-44.8,42s-26.7,37.8-10.9,52.5c4.2,3.9,10.6-2.4,6.4-6.4-7.1-6.6-2.4-16.7,1.3-23.8s8.8-15.1,14.2-22c10.7-13.7,23.7-25.3,38.4-34.6s.4-10.9-4.5-7.8h0Z"/>
    <path d="M439.1,268.5c-11.8,15.9-18.6,34.7-20.2,54.4s8.5,5.7,9,0c1.5-18.2,8.1-35.2,18.9-49.8s-4.4-9.1-7.8-4.5h0Z"/>
    <path d="M444.7,282l-8.4,33.4c-1.4,5.6,7.3,8,8.7,2.4l8.4-33.4c1.4-5.6-7.3-8-8.7-2.4h0Z"/>
    <path d="M607.2,143.4c-6.2-12.2-13.3-25.3-26.5-31.1-12-5.3-24.9-2.7-32.9,7.9s-14.5,27.1-19.5,40.9c-4.4,12.3-7.3,26.3,1.6,37.2,3.7,4.5,10-1.9,6.4-6.4-6.8-8.4-1.9-21.3,1.4-30.2,4.2-11.3,9-23,15.4-33.3s6.5-8.6,11.9-9.7,10.3.5,14.7,3c9.7,5.6,14.9,16.5,19.8,26.1s10.4.6,7.8-4.5h0Z"/>
    <path d="M577.1,112.1c-14.9-1.6-29.3,3.1-42.5,9.6s-24.9,13.1-34.2,23.1c-21.4,23-15.9,55.6-9.8,83.4s9.9,3.3,8.7-2.4c-5.5-25-11.5-55.5,8.6-75.8s19.7-14.8,30.5-20.1,25.1-10.3,38.8-8.8,5.7-8.4,0-9h0Z"/>
    <path d="M613.7,148c-5.5-35.3-48.1-47.7-78.8-48.2-16.3-.3-31.8,5-42.2,18.1-9.6,12.2-13.8,27.7-14.7,43.1s3.7,40.8,13.4,58.7,10.6.5,7.8-4.5c-13.6-25-18.2-59.4-3.8-85.1,7.2-12.7,19-20.1,33.7-21s31.2,2.2,45.1,7.6,28.2,17.4,30.8,33.9c.9,5.7,9.6,3.3,8.7-2.4h0Z"/>
    <path d="M570.5,120.4c-23.9-3.3-53.4-5.1-69.3,17.2-15.9,22.3-1.8,49.7,10.2,69.9,3,5,10.8.4,7.8-4.5-10.1-16.9-23.7-40.3-11.1-59.6,12.8-19.4,40.1-17,59.9-14.3,5.7.8,8.1-7.9,2.4-8.7h0Z"/>
    <path d="M581.2,135.3c-26.5-3.2-53.9,9.7-68.3,32.1-15,23.3-14,55.2,1.4,78s11,.3,7.8-4.5c-13.8-20.3-14.8-48.1-1.4-68.9,12.8-20,37.2-30.5,60.5-27.7s5.7-8.3,0-9h0Z"/>
    <path d="M649.4,147.5c8.8-7.9,12.2-20.2,9.9-31.7s-13-26.5-24.4-17.4-8.9,10.3-12.4,15.5-6.9,11.8-9.5,18.1c-5.2,12.4-8.3,25.6-9.3,39.1s1,31.3,6.2,46c1.9,5.4,10.6,3.1,8.7-2.4-9.1-26-7.9-55,3.1-80.2,2.7-6.3,6-12.3,9.9-17.9s3.7-5.1,5.7-7.6,2.8-4.3,5.4-3.7,2.8,2.2,3.6,3.2c7.7,9.7,5.6,24.7-3.3,32.7s2.1,10.2,6.4,6.4h0Z"/>
    <path d="M638.4,170.5c0-17.9,8.3-35.7,23-46.3s15.4-8.6,24.1-10.2,9.4-1.1,14.1-.6,12.4,3,8.1,7.3,2.3,10.5,6.4,6.4,4.3-8.7,2.3-13.3-7.7-8-13.2-8.9c-12.3-2-25.4.7-36.5,5.9-22.9,10.7-37.2,34.7-37.2,59.8s9,5.8,9,0h0Z"/>
    <path d="M659.4,176.1c1-20.4,15.9-38.8,36.8-40.9,20.1-2,38.9,12.7,40,33.3s9.3,5.8,9,0c-1.3-25.3-23.8-44.6-49-42.3s-44.5,24.3-45.8,49.9,8.7,5.8,9,0h0Z"/>
    <path d="M672.4,184.2c2.8-6.3,6.3-13.4,12.8-16.7,7.1-3.5,13.8-.4,15.8,7.1,1.9,7.1,1.4,15.2.8,22.5s-2.4,16.1-4.8,23.8c-4,13.1-9.1,27.5-1.9,40.5,5.7,10.3,17.3,16.8,29,16.2s5.8-9.3,0-9-13.2-2.2-17.9-7.2c-5.6-5.9-6.7-13.8-5.3-21.6s4.9-16.4,6.9-24.7,3-16.5,3.2-24.8c.3-12.3-.6-29.6-15.4-32.9-15.2-3.4-25.5,10.1-31,22.1s5.4,9.8,7.8,4.5h0Z"/>
    <path d="M664,166.3c17.9-1.6,36.6.8,51.9,10.8,13.6,8.9,23.7,24.5,23.8,41.1,0,18.9-12.3,35.2-16.2,53.2s-.5,32.1,12.8,41.8c4.7,3.4,9.2-4.4,4.5-7.8-11.9-8.5-10.9-25.1-7.1-37.6,4.4-14.4,12.4-27.6,14.4-42.7,3.5-26.5-14.3-50.9-37.9-61.3-14.5-6.4-30.5-8.1-46.2-6.6s-5.8,9.5,0,9h0Z"/>
    <path d="M702.2,203.6c16.4,4.2,35.6,9.8,43.9,26.1s1.3,36.2-2.3,53c-3.5,16.1-5.2,34,4.5,48.4,8.5,12.6,22.7,19.7,36.8,24.2s7.9-6.9,2.4-8.7c-14.8-4.7-30.7-13-35.7-28.8-5.5-17.4,2-35.8,5.2-52.9,3.1-16.4,3.1-33.7-8.1-47.2s-28.1-18.7-44.3-22.9-8,7.2-2.4,8.7h0Z"/>
    <path d="M695.6,221.3c14.8,4.1,30.5,8.3,42.7,18.1s9.9,9.5,12.9,15.6,3.7,15,3.5,22.9c-.4,14.4.2,27.6,9.8,39.2s19.8,15.3,32.2,15.7,5.8-8.8,0-9c-12.9-.4-25-8.5-30.4-20.4-6.3-13.9-.3-29.9-4.1-44.4-7.5-28.9-38.7-39.4-64.2-46.4s-8,7.1-2.4,8.7h0Z"/>
    <path d="M705.7,274.1c16.1,18.8,33,38.4,38.9,63.1s-5.4,47.7-18.1,69.1,4.8,9.5,7.8,4.5c6.7-11.3,13.4-22.9,17.5-35.4,4.1-12.7,4.7-25.9,1.9-38.9-5.7-26.9-24.1-48.5-41.6-68.8s-10.1,2-6.4,6.4h0Z"/>
    <path d="M731,315.5c6.5,13.6,13.5,28.2,13,43.7-.4,12.2-6.1,24.5-17.5,29.9s-.7,10.2,4.5,7.8c13.4-6.4,20.5-20.6,21.8-34.9s-6.6-35.2-14.1-51c-2.5-5.2-10.2-.7-7.8,4.5h0Z"/>
    <path d="M747.1,290.6c4.9,18.4,7.9,37.1,8.9,56.1.5,9.2.5,18.4,0,27.6s-.5,8.9-1,13.3c-.4,3.7,0,13.8-5.5,14s-5.8,9.2,0,9c10.6-.4,13.1-10.4,14.1-19.2,1.3-11.7,1.8-23.4,1.6-35.2-.4-22.9-3.7-45.8-9.5-68-1.5-5.6-10.2-3.2-8.7,2.4h0Z"/>
    <path d="M722.1,366.2c.8,11.8,1.6,23.7,1.3,35.5-.1,5.8-.4,11.7-1.3,17.5s-1.9,11.8-7.6,13.5-3.2,10.3,2.4,8.7c13-3.8,14.2-18.7,15-30.1,1.1-15,.1-30.1-.9-45.1s-9.4-5.8-9,0h0Z"/>
    <path d="M423.8,497c-1.5,23.2-3.1,46.4-6.7,69.4s-9.3,41.5-29.6,48c-5.5,1.8-3.1,10.4,2.4,8.7,21.6-6.9,31.3-28.4,35-49.2s6.2-51.3,7.8-76.9-8.6-5.8-9,0h0Z"/>
    <path d="M650.4,546.4l-3.5,34.9c-1.1,11.4-2.9,22.9-2.8,34.4.1,17.2,7.9,37.2,26.8,40.7,5.7,1,8.1-7.6,2.4-8.7-18.9-3.4-21-25.5-19.9-40.9,1.5-20.1,3.9-40.2,6-60.3s-8.4-5.7-9,0h0Z"/>
    <path d="M140.2,973.6l-5.3,111.5c-.3,5.8,8.7,5.8,9,0l5.3-111.5c.3-5.8-8.7-5.8-9,0h0Z"/>
    <path d="M146.3,980.7c1.2-6.7,8-9.5,13.9-11.2,8.9-2.6,18.2-4.2,27.4-5.2,4.3-.4,18.9-3.6,20.5,2.9s-13.5,10.9-18.4,12.9-11.8,7.3-12.5,14.2,5.2,12.6,10.6,17c6.2,5,13.2,10,17.1,17.1s4.3,15.3-2.2,20.3c-7.1,5.4-18.3,6.5-26.8,8.3s-21.4,4-32.3,5.2-5.8,9.7,0,9c11.3-1.3,22.6-3,33.7-5.3s19.8-3.5,28.1-8.3c17.5-10.1,11.7-31.6-.3-43.5s-7.1-6.2-10.8-9.2-10.2-6.9-7.1-12.1,8-5.1,12.1-6.5,8.7-3.1,12.2-6.2c5.8-5.2,8.2-14.8,2.3-20.9s-16.4-4.9-24.2-4.2c-11.6,1.1-23.9,2.7-34.9,6.7s-15.4,7.8-17,16.5,7.6,8.1,8.7,2.4h0Z"/>
    <path d="M240.1,971.4c5.8,34.1,11.6,68.1,17.3,102.2,1,5.7,9.6,3.3,8.7-2.4-5.8-34.1-11.6-68.1-17.3-102.2s-9.6-3.3-8.7,2.4h0Z"/>
    <path d="M284.1,986.4c12.9,33.6,20.9,68.8,23.6,104.6.4,5.7,9.4,5.8,9,0-2.8-36.7-10.7-72.7-24-107s-10.8-3-8.7,2.4h0Z"/>
    <path d="M298.7,999.1c23.1-8.1,46.3-16.2,69.4-24.3s3.1-10.6-2.4-8.7c-23.1,8.1-46.3,16.2-69.4,24.3s-3.1,10.6,2.4,8.7h0Z"/>
    <path d="M302.2,1031c16.4-5.1,32.8-10.2,49.3-15.4,5.5-1.7,3.2-10.4-2.4-8.7-16.4,5.1-32.8,10.2-49.3,15.4-5.5,1.7-3.2,10.4,2.4,8.7h0Z"/>
    <path d="M369.1,1000.6c-1.7,25-1.6,50.1.2,75.1s9.4,5.8,9,0c-1.8-25-1.9-50.1-.2-75.1s-8.6-5.8-9,0h0Z"/>
    <path d="M383.2,1008.8c15-14.5,31.6-27.1,49.7-37.5s.5-10.7-4.5-7.8c-18.7,10.8-36,23.9-51.5,38.9s2.2,10.4,6.4,6.4h0Z"/>
    <path d="M372.2,1043.6c20.4-16.2,44.4-27.1,69.8-32.4,5.7-1.2,3.3-9.8-2.4-8.7-27,5.6-52.2,17.5-73.8,34.7s1.9,9.9,6.4,6.4h0Z"/>
    <path d="M429.6,983c12.4,24.3,24.8,48.7,37.1,73s10.4.6,7.8-4.5c-12.4-24.3-24.8-48.7-37.1-73s-10.4-.6-7.8,4.5h0Z"/>
    <path d="M496.3,985.4c-9.9,39.4-23.3,77.9-40,114.9-2.4,5.2,5.4,9.8,7.8,4.5,17.1-37.7,30.8-76.9,40.9-117,1.4-5.6-7.3-8-8.7-2.4h0Z"/>
    <path d="M593.3,969.2c-23.1,16-42.1,38.1-53.4,63.9-2.7,6.2-4.7,12.8-1.6,19.3s8.3,9.9,13.7,13.2c12.7,7.7,27.8,10.9,42.5,9.2,5.7-.6,5.8-9.6,0-9-12.4,1.4-24.8-.7-35.8-6.7-4.6-2.5-11.1-6.1-12.7-11.5-1.8-5.9,3.2-13.6,5.9-18.6,10.8-20.8,26.7-38.7,45.9-52,4.7-3.3.2-11.1-4.5-7.8h0Z"/>
    <path d="M615.8,975.2c-2.3,13.8-4.6,27.6-6.8,41.3-1.2,7.2-2.4,14.4-3.6,21.6-1,5.7-2.5,11.8-2.2,17.7,1.4,24.3,37.7,21,53.9,18.1,5.7-1,3.3-9.7-2.4-8.7-9.9,1.8-20.9,2.4-30.8.3s-7.7-2-10-5.1c-3.1-4.2-1.4-10.4-.6-15,3.7-22.6,7.5-45.3,11.2-67.9.9-5.7-7.7-8.1-8.7-2.4h0Z"/>
    <path d="M657.7,975.8c10.6,18.7,22.8,36.4,36.6,52.9,3.7,4.4,10.1-1.9,6.4-6.4-13.3-15.9-25.1-33-35.2-51.1-2.8-5-10.6-.5-7.8,4.5h0Z"/>
    <path d="M712.1,983c-6.6,34.5-18.2,67.7-34.4,98.9-2.7,5.1,5.1,9.7,7.8,4.5,16.6-31.8,28.5-65.8,35.3-101,1.1-5.7-7.6-8.1-8.7-2.4h0Z"/>
    <path d="M723.2,999.4c11.6,25.2,19.6,51.9,23.9,79.4.9,5.7,9.5,3.2,8.7-2.4-2.8-20.1-6.9-40-12.3-59.6-2.6-9.3-6.2-18.5-8-28-1.5-7.9-1.4-18.8,6.1-23.9,7.3-5,15.8-.9,16,7.9s-6,17.6-10.7,24.4c-7.5,11-28.7,26.5-13,39.8s17.6,13.5,26.4,20.2,19,14.5,28.5,21.7c4.6,3.5,9.1-4.3,4.5-7.8-9.2-7-18.4-14.1-27.7-21.1s-9-6.8-13.4-10.3-10.1-6.5-13.6-10.7,1-9.1,4.1-12.4,6.6-7.4,9.5-11.5c5.6-7.6,11.6-16.6,13.7-25.9s.4-16.1-5.6-21.5-15.3-5.3-22.1-1.5c-17.5,9.7-12.5,32.7-7.7,48.1,7.5,24.3,13.1,49.2,16.7,74.4l8.7-2.4c-4.4-28.2-12.8-55.6-24.8-81.5-2.4-5.3-10.2-.7-7.8,4.5h0Z"/>
    <path d="M824.2,973c-19.6,7.9-27.3,28.7-26.6,48.7.8,19.9,6.7,44.2,26.4,53.4,19.4,9.1,38.4-4.1,45.4-22.5s4.6-40.2-3.7-57.9c-4.5-9.6-11.1-18.5-19.1-25.4s-8.5-7-14-6-8,4.6-7.9,9.3,9,5.8,9,0,8.6,4.9,9.4,5.6c2.6,2.5,5.1,5.2,7.2,8.1,4.3,5.7,7.7,12.1,10.1,18.8,4.7,13.4,5.7,28.3,1.4,42-4.6,14.6-18.9,27.6-34.6,19.6s-19-25.5-20.3-40.5c-1.5-16.6,2.3-37.4,19.7-44.5,5.3-2.1,3-10.9-2.4-8.7h0Z"/>
    <path d="M653.3,174.1c11.3,2.6,20.1,10.8,23.1,22s.3,25.1-.6,37.5c-.8,11.2-.2,23.4,6.2,33s14.6,14.4,24.9,13.8,5.8-9.4,0-9c-11.3.7-19.1-9.3-21.4-19.4s.3-25.2,1.1-37.6c.7-10.9-.3-22.4-6.4-31.8-5.6-8.7-14.5-14.8-24.5-17.1s-8,7.4-2.4,8.7h0Z"/>
    <path d="M602.3,153.7c-10.2-26.9-39.7-34.1-65.6-35.2s-61.4-2.5-69.2,27.5,7.2,8,8.7,2.4c6.5-25,40.9-21.7,60.5-20.9s48.4,5.9,57,28.6c2,5.4,10.7,3,8.7-2.4h0Z"/>
    <path d="M584.7,160.3c-1.6-13.5-15-19-26.7-22.1s-26.8-4.3-40.2-2.7c-26.9,3.2-52.3,15.8-70.3,36.1-3.8,4.3,2.5,10.7,6.4,6.4,15.4-17.5,36.5-28.8,59.4-32.8,11.1-2,22.8-2.1,33.9-.2s27.3,4.4,28.6,15.2,9.7,5.8,9,0h0Z"/>
    <path d="M1890.5,427.6c5.8,0,5.8-9,0-9s-5.8,9,0,9h0Z"/>
    <path d="M2172.2,305.5c5.8,0,5.8-9,0-9s-5.8,9,0,9h0Z"/>
    <path d="M2064.2,366.5c5.8,0,5.8-9,0-9s-5.8,9,0,9h0Z"/>
  </g>
  <g id="Layer_4" class="st0">
    <image width="903" height="898" transform="translate(-3.5 -7.7) scale(1.1)" xlink:href="computer-1.png"/>
  </g>
  <g id="Layer_5">
    <path d="M503.8,446.7c-10.5-10.4-26.5-11.1-39.6-5.5s-24.3,20.5-31.3,34.5-17,36.6-25.4,54.9-18.9,35-13.4,53.4,17.1,23,30,28.7c13.9,6.1,30.9,13.1,46.3,10.3,17.7-3.2,24.5-22.2,31.4-36.5s16.1-35.6,22.9-54c3.9-10.4,7.4-21,10.7-31.6s8.3-22,7.2-32.8c-.8-8.7-6.9-15.4-14.7-18.9s-20.8-2.7-31.2-1-3.3,9.6,2.4,8.7c8.2-1.3,17.5-3,25.3.6s10.3,11,8.4,19.6c-3.6,15.9-9.2,31.6-14.6,46.9-5.7,15.9-12.1,31.6-19.1,47s-7.1,15.1-10.9,22.5-6.1,13.1-11.7,17.3c-11.5,8.6-28.8,1.4-40.6-2.9-11.1-4.1-24-9.7-30.5-20.2s-.2-31,6.1-44.5,14.6-31.8,22-47.7c6.6-14.4,13-30.2,25.5-40.6s27.9-12.1,38.4-1.7c4.1,4.1,10.5-2.3,6.4-6.4h0Z"/>
    <path d="M500.7,535.3c4.1-7.8,8.2-15.6,12.4-23.4s4.9-8.9,8.3-4.9-.3,8.9-1.6,11.9c-2.4,5.2,5.4,9.8,7.8,4.5s5.2-12.3,2.7-18.8c-2-5-6.7-8.6-12.3-8s-10.2,6.1-13.1,11.4c-4.1,7.5-8,15.1-12,22.7s5.1,9.7,7.8,4.5h0Z"/>
    <path d="M479,534.4c-4.1,8.9-8.2,17.9-12.3,26.8s-8.3,16.7-11.4,25.3-2.4,14,2.4,19.8,10.3,7.8,14.5,12.7c3.8,4.4,10.1-2,6.4-6.4s-8.5-6.7-12.4-10.4c-5.9-5.7-2.9-12.2,0-18.7,6.8-14.9,13.6-29.8,20.4-44.6s-5.4-9.8-7.8-4.5h0Z"/>
    <path d="M482.1,541.1c7.7,5.1,14.7,10.9,21.2,17.3s10.5-2.3,6.4-6.4c-7-7-14.7-13.3-23-18.7s-9.4,4.6-4.5,7.8h0Z"/>
    <path d="M493.5,442.8c-16.7,6.7-26,21.6-32.4,37.7s-12.5,37.1-16.5,56.2c-2,9.7-3.7,19.5-5,29.4s-2,17.3-.6,25.9c2.4,14.8,14.4,29.8,30.9,28s5.8-9.6,0-9c-16.1,1.8-22.6-15.7-22.6-28.9s3.6-32.8,7.2-48.5,8.3-31.9,14-47.3c5.2-13.9,12.8-28.9,27.4-34.7s3-10.8-2.4-8.7h0Z"/>
    <path d="M482.8,440.9c-28.7,18.9-40.8,51.8-50.5,83.2-9.4,30.3-17.7,67.9,7.5,93.3,4.1,4.1,10.5-2.2,6.4-6.4-23.2-23.3-13.2-58.9-4.6-86.3s19.9-58.9,45.8-76,.3-11-4.5-7.8h0Z"/>
    <path d="M480.6,352.1c10.1,5.4,19.2,12.4,26.8,21,3.9,4.3,7.3,9,10.3,13.9s6.4,10.5,7.2,16.2-4.6,9.2-9.4,12.7-6.8,6.4-8.6,10.8c-3.7,9.1-2.1,19,3.9,26.7s9.9-1.9,6.4-6.4c-3.2-4.1-4-9.8-2.7-14.8s5-8.2,9.5-11.2,8.2-6.3,9.5-11.5-.3-11.1-2.4-16c-9.1-21-26-38.5-46.1-49.2s-9.7,5-4.5,7.8h0Z"/>
    <path d="M393.5,280.8c33.7,9.9,65.4,25.9,93.4,47.2,13.9,10.5,27.6,22.3,37,37.2,8.4,13.3,13.8,28.6,15.5,44.2,2,17.7-.4,35.4-7.2,51.9-2.2,5.4,6.5,7.7,8.7,2.4,12.6-30.7,10.4-66.5-5-95.8s-21.4-29.1-35.4-40.6c-14.5-11.8-30-22.3-46.5-31.3s-38-18-58.1-23.9-7.9,7-2.4,8.7h0Z"/>
    <path d="M395.8,273c-39.4-9.7-80.5-10.9-120.4-3.6s-75.8,20.2-103.9,46c-15,13.8-26,31.6-37.1,48.6-10.1,15.6-23.2,32.7-25.6,51.6s5,33.1,21.5,37.4c15.7,4.1,32.2-6.3,34.9-22.4s-2.3-19.3-4.4-28.9,1-19.6,7.7-27.5c13.2-15.6,33.2-23.1,45.5-39.7s-4.4-9.2-7.8-4.5c-9.8,13.3-25.5,20.3-37.6,31.2s-19.4,23.4-17.2,38.9c2,14.4,12.3,34.2-5.7,43.1s-16.4,1.8-22-3.9-6.9-13.4-6.4-20.8,4.8-17.2,9.1-24.8,9.6-15.8,14.6-23.6c10.1-15.6,20.1-32.1,33.4-45.3,25-24.8,60.4-37.7,94.2-45,41-8.8,83.8-8.1,124.5,1.9s8-7.3,2.4-8.7h0Z"/>
    <path d="M126.2,448.9c-.3,19.2.1,38.4,1.3,57.5s.6,9.2,1,13.9.3,9.1,1.8,13.2,7.9,9.7,13.8,7.2,6.7-9.8,7-15.5c.4-9.2-1-18.3-2.3-27.3-2.3-15.9-4.5-33.4,5.2-47.5s-4.5-9.3-7.8-4.5c-16.6,24.1-2.9,52.9-4.1,79.3s0,3.4-.5,5-.4,2.9-2.3,1.2-1.5-8.8-1.7-11.1c-.6-7.9-1.1-15.8-1.5-23.8-.8-15.9-1-31.7-.8-47.6s-8.9-5.8-9,0h0Z"/>
    <path d="M143.5,533.4l5.8,32.4c1.6,9.2,2.3,19.7,7,28,8.9,15.6,28,11.8,42,6.7,3.7-1.3,4.4-6,1.1-8.2-23.6-15.5-30.1-42.8-31.1-69.4s2.2-55.7-7.6-82.1c-2-5.4-10.7-3-8.7,2.4,10.6,28.3,5.5,58.6,7.8,87.9s11.3,53.3,35.1,68.9l1.1-8.2c-6.4,2.3-13.2,4.7-20.1,4.3s-12.1-5.7-14.1-13-3.1-16.4-4.6-24.6-3.3-18.3-4.9-27.5-9.7-3.3-8.7,2.4h0Z"/>
    <path d="M197.8,598.9c6-2.3,12-4.7,18-7s4.4-3.9,2.7-6.6c-27.2-43.5-47.1-91.1-59.1-141-1.3-5.6-10-3.2-8.7,2.4,12.1,50.6,32.4,99.1,60,143.2l2.7-6.6c-6,2.3-12,4.7-18,7-5.3,2.1-3,10.8,2.4,8.7h0Z"/>
    <path d="M211.7,587.6c6.2,34,7.2,68.6,3.2,102.9s2.3,4.5,4.5,4.5c64.5-.9,129,2.5,193,10.3,2.4.3,4.5-2.3,4.5-4.5-.2-31.5,6.9-62.6,20.9-90.8s-5.2-9.7-7.8-4.5c-14.7,29.7-22.3,62.3-22.1,95.4l4.5-4.5c-64-7.8-128.5-11.2-193-10.3l4.5,4.5c4.1-35.1,2.9-70.5-3.5-105.3s-9.7-3.3-8.7,2.4h0Z"/>
    <path d="M215.7,687.6c-23.3,25.3-52.5,45.1-84.7,57.1s-33.6,9.9-51,12.4c-18.4,2.6-37,4.7-54.1,12.4-15.9,7.1-29.6,19-36,35.5s6.6,7.7,8.7,2.4c13.3-34.2,56.6-37.5,87.5-42.1,33.4-5,65.3-16.6,93.5-35.2,15.6-10.2,29.9-22.4,42.5-36.1s-2.4-10.6-6.4-6.4h0Z"/>
    <path d="M411.3,702.8c12.6,5.9,26.2,12.3,32.1,25.9s4.5,14,8.9,20c3.8,5.1,8.9,8.9,14.6,11.7,14.5,6.9,31.2,10,46.6,14.3,17.5,4.9,35.1,9.8,52.6,14.7,16.7,4.7,33.9,8.7,49.8,15.7,13.5,6,25.8,14.3,36.3,24.7,22.1,21.7,33.5,49.8,40.9,79.4,8.4,33.9,13,69,29.3,100.3,2.7,5.1,10.4.6,7.8-4.5-14.7-28.3-19.5-60.1-26.6-90.8-6.9-29.7-16.8-58.7-36.9-82.2s-20.7-20.6-33.1-28c-14.1-8.3-29.6-13.4-45.3-17.8-35-9.9-70.3-19.1-105.2-29.5-7.3-2.2-15.1-4.8-20.7-10.3s-7.6-14.3-10.8-21.7c-6.6-15.2-21.2-23-35.5-29.6s-9.8,5.3-4.5,7.8h0Z"/>
    <path d="M106.8,756c-12.3,7.5-19.9,19.5-25.2,32.7-6,15-9.6,31.1-12.6,47-6.6,35-8.1,70.9-4.3,106.3.6,5.7,9.6,5.8,9,0-3.5-33.4-2.6-67.2,3.3-100.2,2.7-15.2,6.1-30.4,11.2-45s11.2-25.6,23.2-33,.4-10.8-4.5-7.8h0Z"/>
    <path d="M28.4,957c-4.9-37.4-8.6-76.3.5-113.5,7.4-30.1,23.3-59,49.3-76.8,4.8-3.3.3-11.1-4.5-7.8-27.1,18.5-44.4,47.8-52.7,79.1-10.2,38.8-6.7,79.6-1.5,118.8.7,5.7,9.8,5.7,9,0h0Z"/>
    <path d="M511,768.8c-17.9,66.2-23.6,135.4-16.8,203.7s9.6,5.8,9,0c-6.7-67.5-1.2-135.8,16.5-201.3,1.5-5.6-7.2-8-8.7-2.4h0Z"/>
    <path d="M533.9,777c16.2,67.5,22.7,137.1,19.4,206.4-.3,5.8,8.7,5.8,9,0,3.3-70.1-3.4-140.5-19.7-208.8-1.3-5.6-10-3.2-8.7,2.4h0Z"/>
    <path d="M180.1,729.5c29.7,16.3,63.5,21.3,96.8,23.2,37.4,2.1,75,2.3,112.5,1.4s43.4-1.6,65.1-3.3,5.8-9.5,0-9c-37.4,2.9-75,3.9-112.5,3.6-34.5-.3-69.8,0-103.8-5.9-18.7-3.2-36.9-8.7-53.5-17.8-5.1-2.8-9.6,5-4.5,7.8h0Z"/>
    <path d="M-10.7,964.5c103.1-7,206.6-8.7,310-5.2,103.9,3.6,207.6,12.5,310.6,26.9,57.6,8,115,17.7,172.1,29,5.7,1.1,8.1-7.6,2.4-8.7-101.8-20.2-204.6-35.2-308-44.9-103.6-9.7-207.7-14.1-311.7-13s-117,2.9-175.4,6.8c-5.7.4-5.8,9.4,0,9h0Z"/>
    <path d="M535.8,371.6c53.9-.8,107.8-.3,161.6,1.3,26.6.8,53.2,1.8,79.8,3.4s11.2.5,15.2,4.5c3.5,3.4,4.7,8.6,5.2,13.2,1.3,11.5.2,23.5,0,35.1-1.1,52.2-4.1,104.5-12.5,156-1.1,6.4-2.2,12.8-3.4,19.2s-1.7,10.7-4.2,15.2c-5.9,10.5-22.4,6.2-32.2,5.5-26.7-2-53.5-4.1-80.2-6.1-59.8-4.6-119.5-9.1-179.3-13.7-5.8-.4-5.7,8.6,0,9,56.1,4.3,112.3,8.6,168.4,12.9,28.4,2.2,56.8,4.3,85.2,6.5,11.2.9,25.3,4.2,36.1-.4,10-4.3,12.7-14.8,14.6-24.5,10.6-54,14.7-109,16.3-163.9.4-13.9.7-27.8.8-41.6,0-9.3-.7-19.8-6.9-27.2-7.6-9-20.1-8.4-30.9-9-14-.7-27.9-1.3-41.9-1.9-63.8-2.5-127.7-3.3-191.5-2.4s-5.8,9.1,0,9h0Z"/>
    <path d="M502.5,587.2c51.8,5.9,103.8,10.8,155.8,14.7,26,2,52,3.7,78.1,5.2s20.2,1.8,29.4-2.1c9-3.8,13.5-12,14.8-21.4,1.6-11.2.9-22.7,1.3-34s1.4-25.3,2.6-37.9c2.4-25.8,6.1-51.5,11.2-76.9,3.8-19.3,8-46.2-13.5-57.1-9.7-4.9-20.8-4.5-31.4-4.5-12.6,0-25.1.1-37.7.2-58.9.3-117.7.5-176.6.8s-5.8,9,0,9c48.9-.2,97.9-.4,146.8-.7,24.3-.1,48.7-.4,73-.3s22.2.5,28.7,9.7c6.4,9.1,5.5,21,3.6,31.3-4.2,23.3-8.6,46.5-11.4,70-2.8,23.9-4.5,47.9-5,71.9-.2,8.8,1.4,21.4-5.4,28.3-6.6,6.8-18.2,5.3-26.7,4.8-24.4-1.4-48.8-2.9-73.2-4.7-55-4-109.9-9.2-164.7-15.4s-5.7,8.4,0,9h0Z"/>
    <path d="M824.5,371.7c-15.9,58.4-9.5,119.4-19.2,178.7-2.4,14.7-6.4,28.7-10.5,43s-5.3,25.6,4.3,34.9c4.2,4.1,9.6,6.4,15,8.5,7.2,2.8,14.6,5.5,21.8,8.3,15.5,5.9,30.9,11.7,46.4,17.6,34.7,13.2,69.3,26.3,104,39.5,5.4,2.1,7.8-6.6,2.4-8.7-29.4-11.2-58.8-22.3-88.2-33.5-14.5-5.5-29.1-11-43.6-16.6s-29.4-10.3-43.5-16.6-10.3-5.7-11.9-11.8.3-13.1,2-19.2c4-13.7,7.9-27.1,10.2-41.2,4.7-27.9,5.9-56.3,7.3-84.5,1.6-32.3,3.7-64.6,12.2-95.9,1.5-5.6-7.2-8-8.7-2.4h0Z"/>
    <path d="M982,701.5c14.8,6.8,29.6,13.7,44.3,20.5,5.2,2.4,9.8-5.3,4.5-7.8-14.8-6.8-29.6-13.7-44.3-20.5-5.2-2.4-9.8,5.3-4.5,7.8h0Z"/>
    <path d="M824.5,381.9c67.7,9.5,135.5,18.9,203.2,28.4,5.7.8,8.1-7.9,2.4-8.7-67.7-9.5-135.5-18.9-203.2-28.4-5.7-.8-8.1,7.9-2.4,8.7h0Z"/>
    <path d="M828.3,391.3c-5,60.7-10,121.5-15,182.2-.6,7.3-1.2,14.5-1.8,21.8s-1.5,12.9,2.3,18.4,7.6,6.3,12.1,8.1c7.3,2.8,14.7,5.3,22,7.9,28.8,10.4,57.5,20.7,86.3,31.1s65,23.4,97.5,35.1c5.5,2,7.8-6.7,2.4-8.7-55-19.8-110-39.7-165-59.5-13.6-4.9-27.3-9.4-40.7-14.7s-6-2.3-7.5-5.1-.8-6-.6-8.8c.5-7.3,1.2-14.5,1.8-21.8,2.4-29.1,4.8-58.1,7.2-87.2,2.7-33,5.4-66,8.2-99,.5-5.8-8.5-5.7-9,0h0Z"/>
    <path d="M834.8,398c66.3,16.3,134.1,25.9,202.2,28.7,5.8.2,5.8-8.8,0-9-67.4-2.8-134.3-12.3-199.8-28.4-5.6-1.4-8,7.3-2.4,8.7h0Z"/>
    <path d="M188.6,359.9c-14.8,14.5-30.6,30.2-36.6,50.6s-2.5,37.4,10.9,50.2c4.2,4,10.6-2.4,6.4-6.4-11.9-11.3-12.9-29.3-7.7-44.1,6.2-17.6,20.4-31.2,33.4-43.9s-2.2-10.4-6.4-6.4h0Z"/>
    <path d="M200.3,378.5c-32,19.4-46.7,58.3-35.5,94,1.7,5.5,10.4,3.2,8.7-2.4-10-31.9,2.7-66.5,31.3-83.9,4.9-3,.4-10.8-4.5-7.8h0Z"/>
    <path d="M203.6,415.2c-21.2,28.2-27.9,65.9-18,99.6,1.6,5.5,10.3,3.2,8.7-2.4-9.3-31.7-2.8-66.3,17.1-92.7,3.5-4.6-4.3-9.1-7.8-4.5h0Z"/>
    <path d="M195.9,477.1c-2.3,28.9-9,57.2-19.6,84.2s6.6,7.7,8.7,2.4c10.9-27.8,17.5-56.9,19.9-86.6s-8.5-5.7-9,0h0Z"/>
    <path d="M201.6,480.6c-3.8,19.7-6.2,39.8-7,59.9-.6,16-3.1,36.2,7.5,49.5,3.6,4.5,9.9-1.9,6.4-6.4s-4.9-13.8-5.1-20.9,0-17.4.4-26.2c.9-18,3.1-35.9,6.5-53.6s-7.6-8.1-8.7-2.4h0Z"/>
    <path d="M225,521.7c2.9,24.7.1,49.4-8.3,72.8-2,5.5,6.7,7.8,8.7,2.4,8.6-24,11.6-49.8,8.6-75.1s-9.7-5.7-9,0h0Z"/>
    <path d="M225.2,558.1c-1.3,29.5.5,59,5.4,88.1s9.6,3.3,8.7-2.4c-4.7-28.3-6.3-57-5.1-85.7s-8.7-5.8-9,0h0Z"/>
    <path d="M263.6,580.4c0,21.5,0,43,0,64.6s9,5.8,9,0c0-21.5,0-43,0-64.6s-9-5.8-9,0h0Z"/>
    <path d="M275.2,587.5c2.3,24.6,2.9,49.3,1.8,74s8.8,5.8,9,0c1.1-24.7.4-49.4-1.8-74s-9.5-5.8-9,0h0Z"/>
    <path d="M243.5,588.6l7.6,65.7c.7,5.7,9.7,5.8,9,0l-7.6-65.7c-.7-5.7-9.7-5.8-9,0h0Z"/>
    <path d="M240,494.7c2.5,27.7,3.5,55.5,3,83.3s8.9,5.8,9,0c.5-27.8-.5-55.6-3-83.3s-9.5-5.8-9,0h0Z"/>
    <path d="M211.2,452.4l1,86.9c0,5.8,9.1,5.8,9,0l-1-86.9c0-5.8-9.1-5.8-9,0h0Z"/>
    <path d="M205.4,387.7c-2.9,19.3-1.8,38.8,3.5,57.6s10.3,3.2,8.7-2.4c-4.8-17.2-6.1-35.1-3.5-52.8s-7.8-8.1-8.7-2.4h0Z"/>
    <path d="M207.9,353.9c-3,30.5-5.9,61-8.9,91.5s8.4,5.7,9,0c3-30.5,5.9-61,8.9-91.5.6-5.8-8.4-5.7-9,0h0Z"/>
    <path d="M237.4,384.6c11.1,34.1,15.1,69.9,11.7,105.6s8.5,5.7,9,0c3.5-36.4-.6-73.2-12-108s-10.5-3.1-8.7,2.4h0Z"/>
    <path d="M285.3,411.3c15.3,25.5,18.8,56.5,9.7,84.8-1.8,5.5,6.9,7.9,8.7,2.4,9.8-30.5,5.8-64.3-10.6-91.7s-10.8-.4-7.8,4.5h0Z"/>
    <path d="M268.9,446.6c-11.1,43.9-12,89.7-3,134.1s9.8,3.3,8.7-2.4c-8.7-42.7-7.7-87,3-129.3,1.4-5.6-7.3-8-8.7-2.4h0Z"/>
    <path d="M275.5,540.5c8.9,28.4,15.7,57.4,20.1,86.8s9.5,3.3,8.7-2.4c-4.5-29.4-11.2-58.4-20.1-86.8s-10.4-3.2-8.7,2.4h0Z"/>
    <path d="M295.7,555.8c-3.9,28.9-4,58.1-.4,87s9.7,5.7,9,0c-3.6-28.9-3.5-58.1.4-87s-8.2-5.7-9,0h0Z"/>
    <path d="M304.2,555.7c.7,16.9,3.5,33.7,8.5,49.9s5.3,15.9,8.9,23.4,6.8,10.7,13.5,10.5,5.8-9.1,0-9-8.1-11.5-9.5-15.1c-2.4-6.3-4.5-12.7-6.3-19.2-3.6-13.2-5.6-26.8-6.2-40.5s-9.3-5.8-9,0h0Z"/>
    <path d="M321.1,538.3c-6.7,28.2,3.4,59,26,77.3,4.5,3.6,10.9-2.7,6.4-6.4-20.1-16.2-29.7-43.2-23.7-68.5s-7.3-8-8.7-2.4h0Z"/>
    <path d="M357.3,554.5c-1.8,21.5-1.3,43.1,1.5,64.6s9.7,5.7,9,0c-2.7-21.4-3.2-43-1.5-64.6s-8.5-5.7-9,0h0Z"/>
    <path d="M313.4,451.2c7.9,27.7,15.9,55.5,23.8,83.2s10.3,3.2,8.7-2.4c-7.9-27.7-15.9-55.5-23.8-83.2s-10.3-3.2-8.7,2.4h0Z"/>
    <path d="M349.7,463.1c12.3,16,17.5,36.5,13.5,56.4s7.5,8.1,8.7,2.4c4.5-22.1-.5-45.4-14.4-63.3s-11.3,0-7.8,4.5h0Z"/>
    <path d="M360.4,473.6c11.7,23.9,19,49.7,21.6,76.2s9.6,5.8,9,0c-2.8-28.1-10.4-55.3-22.8-80.8s-10.3-.6-7.8,4.5h0Z"/>
    <path d="M339.2,495.8c3.4,15.8,6.9,31.5,10.3,47.3s3.4,15.3,5,22.9,2.4,12.9-1.5,18.4c-3.4,4.7,4.4,9.2,7.8,4.5,8.6-11.9,1.5-29.7-1.3-42.5-3.9-17.7-7.7-35.4-11.6-53.1s-9.9-3.3-8.7,2.4h0Z"/>
    <path d="M289.4,523c5.1,14.1,10.2,28.2,15.3,42.3s10.7,3.1,8.7-2.4c-5.1-14.1-10.2-28.2-15.3-42.3s-10.7-3.1-8.7,2.4h0Z"/>
    <path d="M314.4,507.6c7.5,42.3,20.6,83.3,38.8,122.2,2.5,5.2,10.2.7,7.8-4.5-17.9-38.1-30.5-78.5-37.8-120-1-5.7-9.7-3.3-8.7,2.4h0Z"/>
    <path d="M371.6,506.5c8,21.7,14.1,44,18.2,66.8,1,5.7,9.7,3.3,8.7-2.4-4.1-22.8-10.2-45.1-18.2-66.8-2-5.4-10.7-3.1-8.7,2.4h0Z"/>
    <path d="M399.4,491c4.7,11,7.9,22.5,9.9,34.2s9.6,3.3,8.7-2.4c-2.1-12.6-5.7-24.7-10.8-36.4s-10-.7-7.8,4.5h0Z"/>
    <path d="M408.4,468.9c6.4,14.7,8.7,31.1,6.5,47s7.9,8.1,8.7,2.4c2.6-18.6.1-36.8-7.4-54-2.3-5.3-10.1-.7-7.8,4.5h0Z"/>
    <path d="M419.2,463.3c5,15.5,3.4,32.1-4.6,46.3s4.9,9.6,7.8,4.5c9.2-16.2,11.2-35.5,5.5-53.3s-10.5-3.1-8.7,2.4h0Z"/>
    <path d="M364,437.1c11.9,15.9,21.7,33.2,28.9,51.7s10.8,3,8.7-2.4c-7.6-19.2-17.5-37.3-29.9-53.9s-11.2-.1-7.8,4.5h0Z"/>
    <path d="M342.3,382.1c5.1,18.8,12.4,36.8,21.8,53.8s10.6.5,7.8-4.5c-9-16.4-16-33.6-20.9-51.7s-10.2-3.2-8.7,2.4h0Z"/>
    <path d="M267.2,341c4,11.4,7.8,23,11.3,34.6s3.2,11,4.7,16.6,5.1,13.9-.9,15.7-3.2,10.3,2.4,8.7c14.8-4.2,8.6-22,5.7-32.3-4.3-15.4-9.2-30.6-14.5-45.6s-10.6-3.1-8.7,2.4h0Z"/>
    <path d="M296.1,353.4c12.3,7.2,22.8,17.1,30.3,29.2s7.2,12.6,8.7,19.6-.8,18.7-10.1,16.7-8.1,7.5-2.4,8.7c8.6,1.8,16.8-3.1,20.3-11.1s.6-20.1-3.5-28.9c-8.1-17.6-21.9-32.3-38.6-42-5-2.9-9.6,4.9-4.5,7.8h0Z"/>
    <path d="M339.1,354.3c11.3,9.6,23.1,20.8,26.8,35.7s-.4,26.5-11.6,33.1-.5,10.7,4.5,7.8c13.6-7.9,18.8-24.2,16.5-39.2-2.7-18.1-16.5-32.4-29.9-43.7-4.4-3.7-10.8,2.6-6.4,6.4h0Z"/>
    <path d="M383.3,397.5c12.1,25.1,24.2,50.1,36.4,75.2s10.3.7,7.8-4.5c-12.1-25.1-24.2-50.1-36.4-75.2s-10.3-.7-7.8,4.5h0Z"/>
    <path d="M428,404.4c3.3,9.4.3,20.1-8.1,25.7s-.3,11,4.5,7.8c11.6-7.7,17-22.5,12.3-35.8s-10.6-3.1-8.7,2.4h0Z"/>
    <path d="M379.6,314c15,2.6,28.2,12.4,34.1,26.6s10.9,3,8.7-2.4c-7-17-22-29.8-40.4-32.9s-8.1,7.7-2.4,8.7h0Z"/>
    <path d="M339.7,316c-5-15.8,44-9.9,51.4-8.6s19,4.5,28,8.3,18,7.2,18.3,15.8,9.2,5.8,9,0c-.4-11.1-9.7-17.7-19-21.9s-25.6-9.7-39.2-11.7-26.3-2.4-39.3-.5-21.8,9.1-18,21,10.4,3.1,8.7-2.4h0Z"/>
    <path d="M381.1,329.3c15.6,6.4,32.1,13.1,43.8,25.8,10.2,11,16,28.3,8.7,42.3s5.1,9.7,7.8,4.5c8.5-16.5,3.8-35.8-7.3-49.9s-32.3-24-50.6-31.5-7.7,6.5-2.4,8.7h0Z"/>
    <path d="M399.2,373.3c24.4,10.1,39.1,37.1,35.8,63.1s8.3,5.7,9,0c3.9-30.3-14.5-60.2-42.4-71.8-5.3-2.2-7.7,6.5-2.4,8.7h0Z"/>
    <path d="M453.6,380c8.9,6.5,18.6,14.5,21.9,25.5s0,19.6-8.7,23.9-.7,10.3,4.5,7.8c11.6-5.6,15.8-19.5,13.5-31.5-2.9-14.6-15.2-25-26.6-33.4s-9.2,4.4-4.5,7.8h0Z"/>
    <path d="M474.1,381c6.8,9.4,4.1,23.4-6.1,29.2s-.5,10.6,4.5,7.8c14.2-8,19-28.2,9.3-41.5s-11.2-.2-7.8,4.5h0Z"/>
    <path d="M266.5,332.8c-5.6,21.5-15.8,41.6-30,58.7-3.7,4.4,2.7,10.8,6.4,6.4,15.2-18.3,26.3-39.6,32.3-62.7s-7.2-8-8.7-2.4h0Z"/>
    <path d="M283.4,303.6c-22.6.5-44.5,13.7-54.5,34.3-10.5,21.6-7,47.6,7.8,66.2,3.6,4.5,9.9-1.9,6.4-6.4-12.4-15.7-15-38.8-5.7-56.6s27-28.1,46.1-28.5,5.8-9.1,0-9h0Z"/>
    <path d="M227.9,315.2c-16,21.3-24.8,47.3-25.5,73.9s8.8,5.8,9,0c.7-25.1,9.2-49.2,24.3-69.3,3.5-4.6-4.3-9.1-7.8-4.5h0Z"/>
    <path d="M249.5,297.3c-16.5-.3-35.5,2.6-47.2,15.5-9.7,10.8-13.6,27.8-5,40.4s11,.3,7.8-4.5c-6.9-10.1-3-23.5,5.5-31.4s25.6-11.2,38.9-11,5.8-8.9,0-9h0Z"/>
    <path d="M291.5,303.8c-18.4-7-40.6-14.2-59.2-3.7s-22.3,26.5-18.7,43.1,9.9,3.3,8.7-2.4c-3-13.7,4.4-28.7,17.4-34.3,15.9-6.8,34.3.2,49.4,6s7.8-6.6,2.4-8.7h0Z"/>
    <path d="M282.9,281.5c-7.6-6.8-18.3-9.1-27.9-5.2s-3,10.9,2.4,8.7,13.7-1.9,19.1,2.9,10.7-2.5,6.4-6.4h0Z"/>
    <path d="M305.1,321.3c-5.5-4.2-6.6-12-5-18.4s7.5-13,14.2-16.6c16.6-9,36.8-6.7,54.8-10.6s3.3-9.9-2.4-8.7c-21.9,4.8-47.2,1.3-65.3,17.3-13,11.6-15.6,33.5-.8,44.7s9.1-4.3,4.5-7.8h0Z"/>
    <path d="M295.3,321.6c19.9-9.4,41.3-15.6,63.2-18.1s21.3-1.6,31.9-1.2,10.6.6,15.9,1.3,5.5.6,8.2,1.2,2,.3,2.9.7c1.3.7,1.6,1.7,1.9,1.5-4.8,3.2-.3,11,4.5,7.8s5.4-7.3,3.4-11.7-8.2-6.7-13.5-7.5c-13.9-2.1-27.9-2.9-41.9-2.2-28.1,1.4-55.6,8.4-81,20.4-5.2,2.5-.7,10.2,4.5,7.8h0Z"/>
    <path d="M308,335.3c25.4-3.8,51.4-2,76.1,4.9s23.1,7.3,33.3,13.5,19.1,17.2,13.3,28.8,5.2,9.7,7.8,4.5c5.8-11.5,2-24.8-6.9-33.6s-23.8-14.9-36.5-19.2c-28.8-9.7-59.5-12-89.5-7.6s-3.3,9.5,2.4,8.7h0Z"/>
    <path d="M296.6,338.2c36.1,31.1,69.5,65.3,100,102,3.7,4.5,10-1.9,6.4-6.4-30.4-36.7-63.9-70.8-100-102-4.4-3.8-10.8,2.6-6.4,6.4h0Z"/>
    <path d="M292.6,322.7c-19.3-8.2-43.4-17.1-62.2-2.7-19.2,14.7-13.4,40.7-4.7,59.5s10.2.7,7.8-4.5c-6.9-15-13-37.9,3.8-48.9,15.7-10.2,35.4-2.2,50.7,4.4s9.9-5.5,4.5-7.8h0Z"/>
    <path d="M277.5,346.8c-32.4.4-63.7,15.1-84.5,40-3.7,4.4,2.7,10.8,6.4,6.4,19.3-23.2,47.9-37,78.1-37.4s5.8-9.1,0-9h0Z"/>
    <path d="M554.2,616.8c.2,18.8.5,37.6.7,56.4s9.1,5.8,9,0c-.2-18.8-.5-37.6-.7-56.4s-9.1-5.8-9,0h0Z"/>
    <path d="M627.7,619.1c.5,18.6-1.6,37-6.2,55.1-1.4,5.6,7.2,8,8.7,2.4,4.8-18.8,7-38.1,6.5-57.4s-9.1-5.8-9,0h0Z"/>
    <path d="M994.2,704.3c-6,6.3-7.3,14.7-8.5,22.9s-2.8,18.3-14,17.9-11.9-1.5-17.8-1.7-13.8.2-20.7,1.1c-11.1,1.5-22.8,4.2-32.5,10s-15.2,13.1-15.8,23.2c-.6,10.6,5.9,20.1,13.4,27,18.1,16.5,43.5,24.2,66.5,30.6,13.1,3.6,27.9,9.1,41.6,5.9,10.8-2.5,20.4-12.1,19.7-23.7s-9.4-5.8-9,0c.7,11.3-11.5,16-21,15.6-11.4-.5-23.1-4.8-34-7.9-20-5.7-42.5-12.8-58-27.4s-13.3-16.2-8.7-25.8,13.5-12.4,21.6-14.9c11.3-3.5,23.1-5.1,34.9-4.9,9.7.2,21.7,4.4,30.7-.4,16-8.4,7.1-29.9,17.9-41.3s-2.4-10.6-6.4-6.4h0Z"/>
    <path d="M436.1,662.4c126.2,5.3,252.1,17.8,376.8,37.6,15.6,2.5,31.1,5,46.6,7.7s12.9,1.6,17.1,6.1,5.4,14.7,6.5,21.4c2.6,15.5,4.3,31.2,5.2,46.8.3,5.6,1.2,12-.9,17.4s-9.3,8.3-15.8,8.4c-14.1.2-28.7-2.8-42.7-4.5-15.5-1.8-30.9-3.7-46.4-5.5-31.6-3.8-63.2-7.7-94.7-11.7-71.3-9.1-142.5-18.9-213.4-30s-8.1,7.8-2.4,8.7c65.9,10.4,131.9,19.6,198.1,28.1,33.2,4.3,66.4,8.4,99.7,12.4,16.5,2,32.9,3.9,49.4,5.9,16,1.9,32.1,4.6,48.2,5.5,11.3.6,23.7-2,28.3-13.6s2.2-12.1,1.9-18.2-1.1-16.1-1.9-24.1c-.9-8.1-1.9-16.2-3.2-24.2s-1.9-14.7-4.6-21.4c-5.6-13.8-19.8-15.2-32.8-17.4-65.1-11.1-130.6-20.3-196.2-27.5-65.9-7.3-132-12.5-198.3-15.8-8.2-.4-16.4-.8-24.6-1.1s-5.8,8.8,0,9h0Z"/>
    <path d="M849.1,723.6c0,19.6-1.4,39.2-4.2,58.7s7.9,8.1,8.7,2.4c2.9-20.2,4.5-40.6,4.5-61.1s-9-5.8-9,0h0Z"/>
    <path d="M834.2,714.2c-3.5,23.3-5.1,46.9-4.7,70.5s9.1,5.8,9,0c-.4-22.8,1-45.5,4.3-68.1.8-5.7-7.8-8.1-8.7-2.4h0Z"/>
    <path d="M800,716.6c.4,9.9.5,19.7.2,29.6-.2,4.8-.4,9.5-.8,14.3s-.2,10.9-5.1,10.8-5.8,8.9,0,9c12.4.1,13.7-13.3,14.3-22.7.9-13.7,1-27.4.4-41s-9.3-5.8-9,0h0Z"/>
    <path d="M770.1,731.9l-4.5,52.8c-.5,5.8,8.5,5.7,9,0l4.5-52.8c.5-5.8-8.5-5.7-9,0h0Z"/>
    <path d="M741.7,718.9l-1,52.8c-.1,5.8,8.9,5.8,9,0l1-52.8c.1-5.8-8.9-5.8-9,0h0Z"/>
    <path d="M720.1,710.7c-1.1,22.2-3.9,44.1-8.7,65.8s7.4,8.1,8.7,2.4c4.9-22.4,7.9-45.2,9-68.2.3-5.8-8.7-5.8-9,0h0Z"/>
    <path d="M699.2,709.5c-.7,20-4.2,39.7-10.5,58.7-1.8,5.5,6.9,7.9,8.7,2.4,6.5-19.7,10.1-40.3,10.8-61.1.2-5.8-8.8-5.8-9,0h0Z"/>
    <path d="M687.6,700.1c-3.2,19.5-8.9,38.5-17.3,56.4-2.4,5.2,5.3,9.8,7.8,4.5,8.7-18.6,14.9-38.2,18.2-58.5.9-5.7-7.8-8.1-8.7-2.4h0Z"/>
    <path d="M659.3,708.3c-3,21.6-8.1,42.8-15,63.4-1.9,5.5,6.8,7.9,8.7,2.4,7-20.7,12-41.9,15-63.4.8-5.7-7.9-8.1-8.7-2.4h0Z"/>
    <path d="M627.2,709.6c-2.4,16.8-4.9,33.6-7.3,50.4-.8,5.7,7.9,8.1,8.7,2.4l7.3-50.4c.8-5.7-7.9-8.1-8.7-2.4h0Z"/>
    <path d="M607.6,708.3c1.1,15.7-1.3,31.4-7.5,45.9s5.5,9.9,7.8,4.5c6.9-16,10-33,8.7-50.4s-9.4-5.8-9,0h0Z"/>
    <path d="M592.1,698.9c-1.5,22-8,43.3-18.9,62.4s4.9,9.6,7.8,4.5c11.7-20.6,18.5-43.4,20.1-67,.4-5.8-8.6-5.8-9,0h0Z"/>
    <path d="M558.6,706c2.1,14.6.7,29.3-3.7,43.4-1.7,5.5,6.9,7.9,8.7,2.4,4.9-15.7,6-31.9,3.7-48.2-.8-5.7-9.5-3.3-8.7,2.4h0Z"/>
    <path d="M544.9,695.3c-4.3,20.5-10,40.7-17.2,60.3-2,5.4,6.7,7.8,8.7,2.4,7.2-19.7,12.9-39.8,17.2-60.3,1.2-5.7-7.5-8.1-8.7-2.4h0Z"/>
    <path d="M516.1,691.9c.4,17.8-2.8,35.1-9.4,51.6-2.1,5.4,6.6,7.7,8.7,2.4,6.8-17.2,10.1-35.5,9.7-54s-9.1-5.8-9,0h0Z"/>
    <path d="M493.5,687.1c-3.7,17.3-10.1,33.7-19.2,48.9-3,5,4.8,9.5,7.8,4.5,9.5-15.8,16.3-33,20.2-51.1s-7.5-8.1-8.7-2.4h0Z"/>
    <path d="M475.4,684.9c-5.4,12.1-10.9,24.3-16.3,36.4-2.3,5.2,5.4,9.8,7.8,4.5,5.4-12.1,10.9-24.3,16.3-36.4,2.3-5.2-5.4-9.8-7.8-4.5h0Z"/>
    <path d="M451.9,680.2c-5.1,9.4-10.3,18.7-15.4,28.1-2.8,5.1,5,9.6,7.8,4.5l15.4-28.1c2.8-5.1-5-9.6-7.8-4.5h0Z"/>
    <path d="M427.7,677.9c116.1,12.7,232.3,25.4,348.4,38.1l99,10.8c5.7.6,5.7-8.4,0-9-116.1-12.7-232.3-25.4-348.4-38.1-33-3.6-66-7.2-99-10.8s-5.7,8.4,0,9h0Z"/>
    <path d="M831.8,718.9v22.3c0,5.8,9,5.8,9,0v-22.3c0-5.8-9-5.8-9,0h0Z"/>
    <path d="M809.3,710.7c-.4,12.1-.7,24.3-1.1,36.4s8.8,5.8,9,0c.4-12.1.7-24.3,1.1-36.4s-8.8-5.8-9,0h0Z"/>
    <path d="M785,721.3c1.4,5.9,1.4,11.7,0,17.6s7.4,8,8.7,2.4,1.7-14.9,0-22.3c-1.3-5.6-10-3.3-8.7,2.4h0Z"/>
    <path d="M754.3,714.2l2.3,20c.7,5.7,9.7,5.8,9,0l-2.3-20c-.7-5.7-9.7-5.8-9,0h0Z"/>
    <path d="M740.3,711.9c-.7,7.4-1.4,14.9-2.1,22.3s8.5,5.7,9,0,1.4-14.9,2.1-22.3-8.5-5.7-9,0h0Z"/>
    <path d="M687.1,707.2l-1.1,20c-.3,5.8,8.7,5.8,9,0l1.1-20c.3-5.8-8.7-5.8-9,0h0Z"/>
    <path d="M705.9,708.3c-.4,7.8-.7,15.7-1.1,23.5s8.7,5.8,9,0,.7-15.7,1.1-23.5-8.7-5.8-9,0h0Z"/>
    <path d="M634.7,696.6c-2,8.6-3.9,17.2-5.9,25.8-1.3,5.6,7.4,8,8.7,2.4,2-8.6,3.9-17.2,5.9-25.8,1.3-5.6-7.4-8-8.7-2.4h0Z"/>
    <path d="M616,697.8c-1.6,6.7-3.1,13.3-4.7,20-1.3,5.6,7.4,8,8.7,2.4,1.6-6.7,3.1-13.3,4.7-20,1.3-5.6-7.4-8-8.7-2.4h0Z"/>
    <path d="M582.9,703.7v10.6c0,5.8,9,5.8,9,0v-10.6c0-5.8-9-5.8-9,0h0Z"/>
    <path d="M572.9,689.6c-3.5,7.4-7,14.9-10.5,22.3s5.3,9.8,7.8,4.5c3.5-7.4,7-14.9,10.5-22.3s-5.3-9.8-7.8-4.5h0Z"/>
    <path d="M555,687.2c-2.7,7.4-5.5,14.9-8.2,22.3-2,5.4,6.7,7.8,8.7,2.4s5.5-14.9,8.2-22.3c2-5.4-6.7-7.8-8.7-2.4h0Z"/>
    <path d="M517.4,687.2c-2.7,8.2-5.5,16.4-8.2,24.7-1.8,5.5,6.9,7.9,8.7,2.4,2.7-8.2,5.5-16.4,8.2-24.7,1.8-5.5-6.9-7.9-8.7-2.4h0Z"/>
    <path d="M502.1,677c-6,7.7-12,15.5-18,23.2s2.8,10.9,6.4,6.4c6-7.7,12-15.5,18-23.2,3.5-4.5-2.8-10.9-6.4-6.4h0Z"/>
    <path d="M463.5,683.7l-7.1,21.1c-1.8,5.5,6.9,7.9,8.7,2.4s4.7-14.1,7.1-21.1-6.9-7.9-8.7-2.4h0Z"/>
    <path d="M448.5,682.6l-9.4,16.4c-2.9,5,4.9,9.6,7.8,4.5s6.3-11,9.4-16.4-4.9-9.6-7.8-4.5h0Z"/>
    <path d="M429.3,681.3l-5.9,14.1c-.9,2.2,1,4.9,3.1,5.5s4.6-.9,5.5-3.1l5.9-14.1c.9-2.2-1-4.9-3.1-5.5s-4.6.9-5.5,3.1h0Z"/>
    <path d="M-5.6,203.5c52.1,6.5,104.7,8,157.1,4.3s5.7-4.6,3.2-7.7c-13.1-15.5-33-24.3-53.3-23.7s-5.8,9.2,0,9c18.1-.6,35.2,7.2,46.9,21l3.2-7.7c-52.4,3.7-105,2.3-157.1-4.3s-5.7,8.3,0,9h0Z"/>
    <path d="M143.7,196.5c2,47.4,4,94.7,6,142.1.2,5.8,9.2,5.8,9,0-2-47.4-4-94.7-6-142.1s-9.2-5.8-9,0h0Z"/>
    <path d="M-3,487c43.1,8.3,87.8,2.7,127.6-16,5.2-2.5.7-10.2-4.5-7.8-37.4,17.5-80.1,22.9-120.6,15.1s-8.1,7.6-2.4,8.7h0Z"/>
    <path d="M67.4,306.1c-25.5-3.1-52.6,11.1-63.6,34.6s-5.9,54.3,13.7,72.1c19,17.3,48.5,21.4,71.3,9.3s36.1-42.5,27.8-69.4c-9.5-30.7-40.3-48.4-71.4-48.1-5.8,0-5.8,9.1,0,9,23.4-.2,47.4,10.7,58.8,31.9,11.4,21.4,7.4,48.3-11.8,63.6s-43.7,14.2-62.4,1.8-26.9-37.7-20.5-59.3,33.2-39.7,58.2-36.6,5.7-8.3,0-9h0Z"/>
    <path d="M66.2,236.9c-14.2-5.2-31.6-1.4-39.7,12.1s-5.1,27.3,6.5,35.2,26.4,4.9,33.3-7.1,1.3-30.5-10.3-40.2c-4.4-3.7-10.8,2.6-6.4,6.4,7.9,6.6,14.1,16.9,9.8,27.3s-14.1,11.6-22,5.9-7.7-16.7-2.5-24.1,18.9-10.4,28.8-6.8,7.8-6.7,2.4-8.7h0Z"/>
    <path d="M99.1,178.1c-36-.2-72-.4-108-.6-5.8,0-5.8,9,0,9,36,.2,72,.4,108,.6,5.8,0,5.8-9,0-9h0Z"/>
    <path d="M842.9-10.2c-1.3,43.7-1.7,87.4-1.2,131.1,0,2.6,2.1,4.2,4.5,4.5,56.8,5.8,114.1,5.3,170.8-1.6s5.7-9.7,0-9c-56.7,6.9-114,7.4-170.8,1.6l4.5,4.5c-.5-43.7,0-87.4,1.2-131.1.2-5.8-8.8-5.8-9,0h0Z"/>
    <path d="M546.5,224.7c-.1,43.8-.2,87.6-.3,131.5,0,5.8,9,5.8,9,0,.1-43.8.2-87.6.3-131.5,0-5.8-9-5.8-9,0h0Z"/>
    <path d="M548.7,227.7c43.5,2.6,87.1,5.1,130.6,7.7,21.6,1.3,43.2,2.5,64.8,3.8s10-.2,14.3,1.4,4.6,7.5,4.1,12.2c-1.2,10.7-2.6,21.4-3.9,32-2.9,24.1-5.9,48.2-8.8,72.3s8.3,5.7,9,0c2.8-22.8,5.6-45.6,8.3-68.4,1.4-11.7,3-23.4,4.3-35.2s0-16.7-8.2-20.7-8.1-2-12.2-2.3c-6.3-.4-12.6-.7-18.9-1.1l-33.9-2c-23.3-1.4-46.5-2.7-69.8-4.1s-53.2-3.1-79.8-4.7-5.8,8.7,0,9h0Z"/>
    <path d="M138-.5c2.9,42.2,6.1,84.4,9.6,126.6s1.8,21.1,2.7,31.6,1.1,17.8,3.2,26.3,4.9,13.5,10.6,17.8,15.6,5.7,23.9,5.6c21.2-.1,42.4-.5,63.5-.8,16.1-.2,33,.6,48.7-3.9s25.9-13.3,29.4-28.1c2.1-8.7,1.4-17.7.6-26.6s-2.1-21-3.2-31.5c-4.9-47.8-9.8-95.6-14.7-143.4-.6-5.7-9.6-5.8-9,0,4,39.2,8,78.4,12,117.7s4,38.7,5.9,58.1c1.5,15.8,1.3,32.8-14.2,41.4s-27.1,6.9-40.6,7.1c-19.6.2-39.2.5-58.7.7s-19.1,1-28.3,0c-8.2-1-13.6-5.4-16.2-13.2s-2.8-15.6-3.5-23.3-1.7-19.8-2.5-29.7c-3.7-44.2-7.1-88.4-10.1-132.6s-9.4-5.8-9,0h0Z"/>
    <path d="M139,40c62.6-.7,125.2-1.4,187.8-2.1s5.8-9.1,0-9c-62.6.7-125.2,1.4-187.8,2.1s-5.8,9.1,0,9h0Z"/>
    <path d="M148.4,71.6c56-2.5,111.9-4.9,167.9-7.4,5.8-.3,5.8-9.3,0-9-56,2.5-111.9,4.9-167.9,7.4-5.8.3-5.8,9.3,0,9h0Z"/>
    <path d="M153.1,104.5c57.9,1.6,115.9.5,173.7-3.2,5.8-.4,5.8-9.4,0-9-57.8,3.7-115.8,4.8-173.7,3.2s-5.8,8.8,0,9h0Z"/>
    <path d="M162.5,136.9c57.9-.6,115.8-1.2,173.7-1.9s5.8-9.1,0-9c-57.9.6-115.8,1.2-173.7,1.9s-5.8,9.1,0,9h0Z"/>
    <path d="M154.3,170.3c58.3,4.4,116.8,4.3,175-.3s5.8-9.5,0-9c-58.2,4.6-116.8,4.7-175,.3s-5.7,8.6,0,9h0Z"/>
    <path d="M169.2-4.2c-1.3,67.6,3.4,135.3,13.9,202.1.9,5.7,9.6,3.3,8.7-2.4-10.4-66-14.9-132.9-13.6-199.7.1-5.8-8.9-5.8-9,0h0Z"/>
    <path d="M188.8.7c5.6,64.5,11.2,129,16.7,193.6.5,5.7,9.5,5.8,9,0-5.6-64.5-11.2-129-16.7-193.6s-9.5-5.8-9,0h0Z"/>
    <path d="M217.3,6.2c5.9,64.7,11.8,129.3,17.6,194,.3,3.2,3.7,5.9,6.8,3.9s4.7-2.9,7-4.4c4.9-3.1.4-10.9-4.5-7.8s-4.7,2.9-7,4.4l6.8,3.9c-5.9-64.7-11.8-129.3-17.6-194s-9.5-5.8-9,0h0Z"/>
    <path d="M252.7,12.2c1.8,57.4,6.7,114.6,14.7,171.4.8,5.7,9.5,3.3,8.7-2.4-7.9-56-12.6-112.5-14.4-169s-9.2-5.8-9,0h0Z"/>
    <path d="M286.8,1.7c-5.4,68.5-.4,137.7,14.7,204.7s10,3.3,8.7-2.4c-14.9-66.3-19.7-134.6-14.4-202.3s-8.5-5.7-9,0h0Z"/>
    <path d="M546.3,262.9c75.3-.1,150.6,4,225.5,12.3s5.7-8.4,0-9c-74.9-8.3-150.2-12.4-225.5-12.3-5.8,0-5.8,9,0,9h0Z"/>
    <path d="M544,297.8c74.7,3.3,149.4,6.6,224.1,9.9,5.8.3,5.8-8.7,0-9-74.7-3.3-149.4-6.6-224.1-9.9-5.8-.3-5.8,8.7,0,9h0Z"/>
    <path d="M551,330.4c66.5,2.1,133.1,4.3,199.6,6.4s5.8-8.8,0-9c-66.5-2.1-133.1-4.3-199.6-6.4s-5.8,8.8,0,9h0Z"/>
    <path d="M578.9,227.6c-13,39.3-14.1,82-3.3,122,1.5,5.6,10.2,3.2,8.7-2.4-10.4-38.5-9.2-79.3,3.3-117.2,1.8-5.5-6.9-7.9-8.7-2.4h0Z"/>
    <path d="M618.6,222.4c-2.3,47.4-1.2,94.9,3.2,142.1.5,5.7,9.5,5.8,9,0-4.4-47.2-5.5-94.7-3.2-142.1.3-5.8-8.7-5.8-9,0h0Z"/>
    <path d="M647.2,228c4.1,43,6.9,86.2,8.4,129.4s9.2,5.8,9,0c-1.4-43.2-4.2-86.3-8.4-129.4-.5-5.7-9.6-5.8-9,0h0Z"/>
    <path d="M689.4,232.8c7.1,39.5,8.5,79.8,4.4,119.7-.6,5.8,8.4,5.7,9,0,4.2-40.8,2.5-81.8-4.7-122.1-1-5.7-9.7-3.3-8.7,2.4h0Z"/>
    <path d="M728.3,235.2c-2.7,43.1-5.4,86.2-8.1,129.3-.2,2.9,3,5.2,5.7,4.3,1.2-.4,2.5-.8,3.7-1.2,5.5-1.7,3.2-10.4-2.4-8.7-1.2.4-2.5.8-3.7,1.2l5.7,4.3c2.7-43.1,5.4-86.2,8.1-129.3.4-5.8-8.6-5.8-9,0h0Z"/>
    <path d="M853.9,80.7c43.1,2.8,86.4,1.5,129.3-4.1s5.7-9.8,0-9c-42.8,5.6-86.1,7-129.3,4.1-5.8-.4-5.8,8.6,0,9h0Z"/>
    <path d="M846.9,37.8c68.4,4.1,136.9,5.4,205.4,3.9,5.8-.1,5.8-9.1,0-9-68.5,1.5-137,.2-205.4-3.9-5.8-.3-5.8,8.7,0,9h0Z"/>
    <path d="M873.5-5.4c3.5,39.8,3.9,79.9,1.3,119.8-.4,5.8,8.6,5.8,9,0,2.6-39.9,2.2-79.9-1.3-119.8-.5-5.7-9.5-5.8-9,0h0Z"/>
    <path d="M920.2-3c-.8,44.3-1.6,88.5-2.4,132.8,0,2.5,2.1,4.4,4.5,4.5,1.1,0,2.1,0,3.2.1,5.8.2,5.8-8.8,0-9-1.1,0-2.1,0-3.2-.1l4.5,4.5c.8-44.3,1.6-88.5,2.4-132.8.1-5.8-8.9-5.8-9,0h0Z"/>
    <path d="M957.1,7.3c10.5,38.8,10.3,79.7-.6,118.4-1.6,5.6,7.1,8,8.7,2.4,11.3-40.2,11.4-82.9.6-123.2-1.5-5.6-10.2-3.2-8.7,2.4h0Z"/>
  </g>
</svg>