<?xml version="1.0" encoding="UTF-8"?>
<svg xmlns="http://www.w3.org/2000/svg" version="1.1" xmlns:xlink="http://www.w3.org/1999/xlink" viewBox="0 0 1000 1000">
  <!-- Generator: Adobe Illustrator 29.7.0, SVG Export Plug-In . SVG Version: 2.1.1 Build 138)  -->
  <defs>
    <style>
      .st0 {
        display: none;
      }
    </style>
  </defs>
  <g id="Layer_2" class="st0">
    <image width="4000" height="6000" transform="translate(-3.7 -336.3) scale(.3)" xlink:href="C:\Users\lukec\Pictures\2025\September\Headshots\Headshot05.jpg"/>
  </g>
  <g id="Layer_3">
    <path d="M66.3,1002.9c2.3-40,6.3-80,12.3-119.6,5.1-33.7,11-68.5,27.4-98.9,16.5-30.6,43.7-52,72.7-70.2,30.6-19.1,62.7-35.8,96-49.7,37.6-15.8,76.7-28.1,116.5-36.9,5.7-1.3,3.3-9.9-2.4-8.7-72.7,16.1-142.8,44-206.5,82.5-29.2,17.7-58.1,37.9-77.1,66.9-19.4,29.5-27.4,64.7-33.1,99-7.3,44.9-12.1,90.2-14.7,135.6s8.7,5.8,9,0h0Z"/>
    <path d="M388.3,617.9c3,31.1,6.4,62.9,19.5,91.6,12.8,28.1,35.6,48.4,63.5,60.8s28.5,10.7,43.3,14.4,32.6,7.9,49.1,10.1c16.9,2.3,34,1.3,49.3-6.9,13.1-7,23.6-17.9,32.3-29.8,22.2-30,37.6-68.6,31.8-106.3-.9-5.7-9.6-3.3-8.7,2.4,4.9,31.9-7.7,63.9-24.7,90.4-7.7,12-16.9,23.5-28.8,31.6-13.4,9.1-28.7,11.7-44.7,10.3-15.6-1.4-31.2-5.3-46.4-8.8-13.7-3.2-27.4-7-40.5-12.1-26.8-10.4-50.1-27.3-64-53s-19-62.7-22.1-94.7-9.6-5.8-9,0h0Z"/>
    <path d="M672.6,650.8c53.7,45.8,129.3,49.5,185.7,90.9,58.8,43.3,91.9,112.6,108.7,181.9s16,92.3,20.2,138.9c.5,5.7,9.5,5.8,9,0-7.2-80-16.8-162.4-54.8-234.6-16.1-30.6-37.1-59-63.2-81.8s-57.9-37.9-91-50c-37.5-13.7-77.3-25.4-108.3-51.8-4.4-3.7-10.8,2.6-6.4,6.4h0Z"/>
    <path d="M355.5,621.8c16,71.4,57.2,140.6,124.1,174.5,32.4,16.5,69.7,24.6,105.9,20.4,34.3-4,66.1-18.9,90.6-43.4s43.5-63.1,42.3-101c-.2-5.8-9.2-5.8-9,0,2.1,66-51.9,122.6-115,134.1-70.5,12.8-141.1-23.8-182.6-79.8s-39.1-68.7-47.7-107.2c-1.3-5.6-9.9-3.3-8.7,2.4h0Z"/>
    <path d="M703,349.5c4.9,39.7,10.2,81.4-1.1,120.5-9,31.2-29.3,60.9-60.6,72.7s-36.8,7.6-55.5,6.2c-19.4-1.4-38.7-5-57.5-10.2-19.3-5.3-38-12.4-55.9-21.3-16.2-8-32.6-17.5-42-33.5s-11-32.3-11-49.2c0-18.8,2.6-37.6,6.5-55.9,8.1-38.1,22.7-74.6,40.5-109.2,16.8-32.7,36.5-64.8,69-84.1s65.5-23.5,98.6-13.9c31.8,9.2,59.4,31.7,73.1,62.1,16.6,36.5,13,78.4,5.6,116.7-1.9,10-4.1,20-6.3,30s7.4,8.1,8.7,2.4c9-41.3,18-84.1,8.8-126.2-7.8-36-30.3-66.4-62.9-83.7s-69-19.2-102.9-7.7c-36.8,12.5-63.9,38.9-83.8,71.6s-38.6,73.4-50.2,112.7c-5.8,19.6-9.9,39.7-12.1,60-2,18.7-2.6,37.9,1.8,56.3s13.8,32.8,28.2,43.9,34.6,20.3,52.8,27.4c19.8,7.7,40.4,13.5,61.4,17.1,19.5,3.4,39.6,5.5,59.4,3.4,18.8-2,37-7.9,52.2-19.4s24-23.5,31.8-38.4c19-36.2,19.9-77.7,16.2-117.6-1-11-2.3-21.9-3.7-32.8s-9.7-5.7-9,0h0Z"/>
    <path d="M553.8,241.2c-12.8-3.7-25.8-7.5-39.2-8.2s-22.7.4-29.9,9c-7.2,8.5-7.3,21-9.2,31.5s-4.2,23.7.9,34.7c9,19.4,36.6,29.7,56.7,28.4s41.5-19.9,48.2-41.6c7.1-22.8-3.7-50.6-29.6-53.6-5.7-.7-5.7,8.3,0,9,18.8,2.2,25.7,23.8,21.6,39.8s-19.3,35.3-38.6,37.3-38.8-5.6-48.4-19.9c-5.8-8.6-4.3-19.4-2.6-29s1.9-17.9,5.1-25.9,17.3-11.3,27.7-10.5c11.9.9,23.5,4.4,35,7.7s7.9-7.1,2.4-8.7h0Z"/>
    <path d="M582.3,283.1c12.1-7.8,27.5-4.6,35.2,7.7s10.8.4,7.8-4.5c-10.1-16.3-31.2-21.4-47.5-10.9-4.9,3.1-.3,10.9,4.5,7.8h0Z"/>
    <path d="M698.1,277.4c-12.7-3-25.5-5.3-38.5-6.9s-22.8-3.4-31.4,4.3c-7.6,6.9-10.1,18.7-12.3,28.3-2.7,11.5-2.5,22.7,2.8,33.4,9.3,18.5,30.2,34.7,51.6,33.7,22.3-1,40.1-16.8,48.4-36.8,4.4-10.7,7.6-23.9,2.6-35s-15.8-16.4-26-21.1-9.8,5.4-4.5,7.8c7.2,3.3,15.4,6.8,20.3,13.4,5.8,7.8,3.9,18,1.2,26.6-5.5,17.2-18.6,32.1-36.9,35.6s-35.7-8.5-45.6-23.2-7.7-16.9-6.2-26.6c1.3-8.4,3.5-19.1,8.3-26.4s18.7-6.2,27.9-5,24.2,3.8,36.1,6.6,8-7.3,2.4-8.7h0Z"/>
    <path d="M553.6,327.2c-4.3,7.7-8.6,15.4-12.9,23.2s-5.8,12.4-.3,17.5,13.3,5.3,19.4,6.8,13.5,4.4,19-.3c4.3-3.6,4.7-10.4,2.1-15.1-3.1-5.6-9.8-8.5-15.8-9.9s-14.2.6-14.9,8,7.4,9.9,13.3,9.5,5.8-9.4,0-9c.4,0-5.6.3-3.7,0s4.2.5,6,1.1,6.2,2.2,7.3,4.8c2,4.7-2.6,4.2-5.7,3.5s-7.7-2-11.5-2.9-6.6-1-8.6-2.6,1.2-7,2.5-9.4c3.8-6.9,7.7-13.8,11.5-20.7s-4.9-9.6-7.8-4.5h0Z"/>
    <path d="M571.3,375.9c2.1,2.8,4.6,4.5,8.2,4.9s8.3-1.8,12.4-.7c8,2.1,14.2,10.3,23.3,6,8.2-3.9,8.3-13.3,7.5-21.1s-2.3-21.8-3.5-32.7-9.6-5.8-9,0,1.7,15.2,2.5,22.8.8,7.3,1.2,10.9,1.3,8.3-1.2,11c-4,4.3-12.8-3.6-16.8-5.1s-5.5-1.3-8.5-1-6.9,2.1-8.2.4c-3.4-4.6-11.3,0-7.8,4.5h0Z"/>
    <path d="M610.4,362.8c-2.7-2.5-6.1-4.5-9.9-4.3s-7,2.6-8.1,6.1c-2.5,7.8,7.3,12.8,13.1,15.2s4.9-1,5.5-3.1-.9-4.6-3.1-5.5-2.6-1.3-3.8-2-3.3-2.6-3.2-2.6c0,0,.3,1.3.1,1s.4.3-.1,0c.3.2,1.1.2,1.5.4.6.3,1.2.8,1.7,1.3,4.3,3.9,10.7-2.5,6.4-6.4h0Z"/>
    <path d="M515.3,409.3c35.7,16.1,74,25.4,113.2,27.2,5.8.3,5.8-8.7,0-9-37.5-1.8-74.4-10.5-108.6-26-5.2-2.4-9.8,5.4-4.5,7.8h0Z"/>
    <path d="M503.4,383.1c-11,3.2-18.6,13-19.1,24.4s8.7,5.8,9,0,5.5-13.7,12.5-15.7,3.2-10.3-2.4-8.7h0Z"/>
    <path d="M516.6,384.1c-8.7,2.2-15.7,9.4-17.4,18.2s7.6,8.1,8.7,2.4c1.1-5.9,5.3-10.5,11.2-12s3.2-10.1-2.4-8.7h0Z"/>
    <path d="M536.7,379.8c-7.4,5.6-12.8,12.6-16.2,21.3s6.6,7.7,8.7,2.4,6.7-11.8,12.1-15.9,0-11.3-4.5-7.8h0Z"/>
    <path d="M561.1,385.8l-13.7,14.4c-4,4.2,2.4,10.6,6.4,6.4s9.2-9.6,13.7-14.4c4-4.2-2.4-10.6-6.4-6.4h0Z"/>
    <path d="M591,391.4c-5.9,3.6-10.8,8.3-14.6,14.1s4.5,9.3,7.8,4.5,6.8-8.1,11.4-10.8.4-10.8-4.5-7.8h0Z"/>
    <path d="M597.4,404c1.2,4.2.4,8.5-2.5,11.7-3.9,4.3,2.5,10.7,6.4,6.4s7-13.2,4.8-20.5c-1.6-5.5-10.3-3.2-8.7,2.4h0Z"/>
    <path d="M608.5,410.6c3,3.9,4.1,8,3.5,12.9s2.3,4.5,4.5,4.5,4.2-2.1,4.5-4.5c.8-6.2-1-12.5-4.8-17.4s-3.9-2.9-6.2-1.6-3.1,4.2-1.6,6.2h0Z"/>
    <path d="M625.7,421.7c3.2,2.7,5.3,6.2,5.5,10.4s9.4,5.8,9,0-3.2-12.6-8.2-16.8-10.8,2.6-6.4,6.4h0Z"/>
    <path d="M639.8,431c4.6,5.5,7.5,12,8.9,19s9.8,3.3,8.7-2.4c-1.7-8.6-5.6-16.3-11.2-23s-10.1,2-6.4,6.4h0Z"/>
    <path d="M425.4,355.4c.4,24.9-7.7,49.6-23.1,69.2-3.6,4.5,2.8,10.9,6.4,6.4,17-21.5,26.2-48.1,25.8-75.5s-9.1-5.8-9,0h0Z"/>
    <path d="M426.4,390.6c-2,15-3.9,30-5.9,45s8.3,5.7,9,0c2-15,3.9-30,5.9-45s-8.3-5.7-9,0h0Z"/>
    <path d="M435.2,419.9c-4.1,18.7-8.2,37.3-12.3,56s7.4,8.1,8.7,2.4c4.1-18.7,8.2-37.3,12.3-56s-7.4-8.1-8.7-2.4h0Z"/>
    <path d="M451.7,449.3c0,15.6-2.9,30.9-8.2,45.6s6.7,7.8,8.7,2.4c5.6-15.4,8.4-31.6,8.5-47.9s-9-5.8-9,0h0Z"/>
    <path d="M467.1,454.8c-1.4,18.1-3.6,36.2-6.5,54.1s7.8,8.1,8.7,2.4c3-18.7,5.3-37.6,6.8-56.5s-8.5-5.7-9,0h0Z"/>
    <path d="M500.2,493.5c-.7,14.4-1.4,28.7-2.1,43.1s2.2,4.5,4.5,4.5,3.8-.9,5.3-2.9c3.4-4.7-4.4-9.2-7.8-4.5l-.5.7,3.9-2.2h-.9c1.5,1.5,3,3,4.5,4.5.7-14.4,1.4-28.7,2.1-43.1s-8.7-5.8-9,0h0Z"/>
    <path d="M509.9,499c-.5,10.1-.3,20.1.6,30.2s9.5,5.8,9,0c-.9-10-1.1-20.1-.6-30.2s-8.7-5.8-9,0h0Z"/>
    <path d="M534.9,500.2c1.2,9.1,3,18.1,5.8,26.9s4.1,15.5,11.6,16.8,8.1-7.7,2.4-8.7c-3.9-.7-5.9-12.4-6.8-15.7-1.8-6.3-3.1-12.8-3.9-19.3s-9.7-5.7-9,0h0Z"/>
    <path d="M489.9,475.5c-.9,9.8-2,19.7-3.4,29.4s-2.5,16.5-8.5,22.3,2.2,10.4,6.4,6.4c6.7-6.6,9.1-15.6,10.5-24.6s3-22.3,4-33.5-8.5-5.7-9,0h0Z"/>
    <path d="M488.8,488.8c.7,12.5-4.4,23.9-14.1,31.8-4.5,3.7,1.9,10,6.4,6.4,11.3-9.2,17.6-23.6,16.7-38.1s-9.3-5.8-9,0h0Z"/>
    <path d="M536.2,497.8l2.1,48.1c.2,5.8,9.2,5.8,9,0l-2.1-48.1c-.2-5.8-9.2-5.8-9,0h0Z"/>
    <path d="M554.2,517.8c3.1,19.8,7.3,39.4,12.5,58.7,1.5,5.6,10.2,3.2,8.7-2.4-5.2-19.3-9.4-38.9-12.5-58.7-.9-5.7-9.6-3.3-8.7,2.4h0Z"/>
    <path d="M571.5,521.3c2.5,8.4,5.5,16.6,8.9,24.7,2.7,6.4,5.4,13.8,12.8,15.8,5.6,1.5,8-7.1,2.4-8.7-4.9-1.4-7.5-11.7-9.1-15.8-2.4-6.1-4.5-12.2-6.4-18.4-1.7-5.5-10.4-3.2-8.7,2.4h0Z"/>
    <path d="M593.6,513.5c2.7,12.2,5.9,24.4,9.5,36.4,1.7,5.5,10.4,3.2,8.7-2.4-3.7-12-6.8-24.1-9.5-36.4s-9.9-3.3-8.7,2.4h0Z"/>
    <path d="M612.1,511.5c2.5,11.9,7.5,23.1,14.8,32.8,3.4,4.6,11.2.1,7.8-4.5-6.9-9.2-11.5-19.4-13.9-30.7-1.2-5.7-9.9-3.3-8.7,2.4h0Z"/>
    <path d="M626.9,510c.4,7.6.8,15.1,1.2,22.7s9.3,5.8,9,0-.8-15.1-1.2-22.7-9.3-5.8-9,0h0Z"/>
    <path d="M637.1,497c8.6,15,16.2,30.6,22.7,46.6,2.1,5.3,10.9,3,8.7-2.4-6.8-16.8-14.6-33.1-23.6-48.8-2.9-5-10.6-.5-7.8,4.5h0Z"/>
    <path d="M659.1,503.7c3.2,9.9,6.3,19.9,9.5,29.8,1.7,5.5,10.4,3.2,8.7-2.4-3.2-9.9-6.3-19.9-9.5-29.8-1.7-5.5-10.4-3.2-8.7,2.4h0Z"/>
    <path d="M673.2,502.9c2.4,7.7,6.5,14.5,12.3,20.1,4.2,4,10.5-2.3,6.4-6.4s-8.1-9.9-10-16.2c-1.7-5.5-10.4-3.2-8.7,2.4h0Z"/>
    <path d="M683.8,478.3c.8,5.7,1.6,11.5,2.4,17.2s3.4,3.7,5.5,3.1,3.5-3.1,3.1-5.5c-.8-5.7-1.6-11.5-2.4-17.2s-3.4-3.7-5.5-3.1-3.5,3.1-3.1,5.5h0Z"/>
    <path d="M694.5,453.3c3.6,10.1,7.8,20,12.8,29.6,2.7,5.2,10.4.6,7.8-4.5-4.6-8.9-8.5-18-11.9-27.4-1.9-5.4-10.6-3.1-8.7,2.4h0Z"/>
    <path d="M631.9,443.4c-.4,6.9,0,13.6,1.2,20.4s9.6,3.3,8.7-2.4c-1-6-1.2-12-.9-18s-8.7-5.8-9,0h0Z"/>
    <path d="M628.7,453.2c-.5,6.7-1.8,13.2-3.6,19.6-1.6,5.6,7.1,8,8.7,2.4,2-7.2,3.3-14.5,3.9-22s-8.5-5.7-9,0h0Z"/>
    <path d="M622.1,475.4c1.8,5,1.1,10.3-2.5,14.3s2.5,10.7,6.4,6.4c5.7-6.3,7.7-15,4.8-23.1-1.9-5.4-10.6-3.1-8.7,2.4h0Z"/>
    <path d="M481.2,418.7l-5.8,20.9c-1.6,5.6,7.1,8,8.7,2.4l5.8-20.9c1.6-5.6-7.1-8-8.7-2.4h0Z"/>
    <path d="M483.5,430.5c-.8,7.2,3,17.9-2.8,23.7-4.1,4.1,2.3,10.5,6.4,6.4,8.4-8.4,4.3-19.6,5.5-30s-8.4-5.7-9,0h0Z"/>
    <path d="M502.1,463c-1.6,5.3-3.6,10.4-6.2,15.4s5.1,9.7,7.8,4.5,5.3-11.5,7.1-17.5c1.7-5.6-7-7.9-8.7-2.4h0Z"/>
    <path d="M513.1,470.4c-.8,3.1-1.6,6.3-2.3,9.4-1.4,5.6,7.3,8,8.7,2.4s1.6-6.3,2.3-9.4c1.4-5.6-7.3-8-8.7-2.4h0Z"/>
    <path d="M526.3,468.9l-.9,11.7c-.2,2.4,2.2,4.5,4.5,4.5s4.3-2.1,4.5-4.5l.9-11.7c.2-2.4-2.2-4.5-4.5-4.5s-4.3,2.1-4.5,4.5h0Z"/>
    <path d="M545.1,471.6c-1.2,6.2-1.7,12.5-1.3,18.8s9.3,5.8,9,0,0-11,1-16.4-7.6-8.1-8.7-2.4h0Z"/>
    <path d="M556.3,480.2c-.4,4.6.2,9.3,1.6,13.7s10.5,3.1,8.7-2.4-1.6-7.4-1.3-11.3-2.2-4.5-4.5-4.5-4.3,2.1-4.5,4.5h0Z"/>
    <path d="M578.6,479.4c-1.1,6-.8,12,1.2,17.8s10.6,3.1,8.7-2.4-2-8.6-1.2-13-7.7-8.1-8.7-2.4h0Z"/>
    <path d="M588.9,486.5c.8,7.8,5.1,14.7,12.2,18.2,5.2,2.5,9.7-5.2,4.5-7.8s-7.3-5.7-7.7-10.4-1.9-4.5-4.5-4.5-4.8,2.1-4.5,4.5h0Z"/>
    <path d="M573.4,500.3c3.8,9.3,5.4,18.9,4.8,28.9s8.7,5.8,9,0c.6-10.7-1.1-21.3-5.1-31.3-2.2-5.3-10.9-3-8.7,2.4h0Z"/>
    <path d="M567.1,499.4c.8,3.6,1.4,7.2,1.8,10.9s1.4,7.8.3,8.4c-5.2,2.5-.7,10.3,4.5,7.8s4.8-6.4,4.6-10.5c-.3-6.3-1.3-12.7-2.6-18.9-1.2-5.7-9.9-3.3-8.7,2.4h0Z"/>
    <path d="M551.7,499.8c1.1,5.2.5,10.1-1.5,15-2.2,5.4,6.5,7.7,8.7,2.4,2.6-6.3,2.9-13.1,1.5-19.7s-9.9-3.3-8.7,2.4h0Z"/>
    <path d="M532,490.4c-.3,5.7-3.1,11-7.7,14.3s-.2,11.2,4.5,7.8c7.3-5.3,11.7-13,12.2-22.1s-8.7-5.8-9,0h0Z"/>
    <path d="M511,488.8c-1.7,7-7,11.9-14,13.3-5.7,1.1-3.3,9.8,2.4,8.7,9.9-1.9,18-9.8,20.3-19.6s-7.3-8-8.7-2.4h0Z"/>
    <path d="M461.9,432.1c.7,13.4-4.2,26.1-13.7,35.6-4.1,4.1,2.2,10.4,6.4,6.4,11.2-11,17.2-26.2,16.4-42s-9.3-5.8-9,0h0Z"/>
    <path d="M450.2,418.3c-2.1,15.2-8.4,29.2-18.5,40.7s2.5,10.7,6.4,6.4c11.2-12.6,18.5-28,20.8-44.7s-7.9-8.1-8.7-2.4h0Z"/>
    <path d="M432.3,393.6c-6.3,15.2-11.9,30.6-16.9,46.3s6.9,7.9,8.7,2.4c5-15.7,10.6-31.1,16.9-46.3s-6.5-7.7-8.7-2.4h0Z"/>
    <path d="M633.7,472.3c6.3,12.5,10.5,26.1,12.3,40s9.7,5.7,9,0c-2-15.6-6.4-30.5-13.5-44.6s-10.4-.6-7.8,4.5h0Z"/>
    <path d="M655.7,473.6c.6,11,.4,21.9-.5,32.9-.5,5.8,8.5,5.7,9,0,.9-10.9,1-21.9.5-32.9s-9.3-5.8-9,0h0Z"/>
    <path d="M677.1,466.5v27.4c0,5.8,9,5.8,9,0v-27.4c0-5.8-9-5.8-9,0h0Z"/>
    <path d="M693.1,451.6c-1,9.6-3,19-5.9,28.2-1.7,5.5,7,7.9,8.7,2.4,3.1-10,5.1-20.2,6.2-30.6s-8.4-5.7-9,0h0Z"/>
    <path d="M677.7,459.1c1.1,9.1,1.5,18.2,1.1,27.4s8.8,5.8,9,0c.4-9.2,0-18.3-1.1-27.4s-9.7-5.7-9,0h0Z"/>
    <path d="M699.6,434c-2.4,19.2-3.2,38.6-2.4,57.9.2,5.8,9.2,5.8,9,0-.8-19.4,0-38.7,2.4-57.9.7-5.7-8.3-5.7-9,0h0Z"/>
    <path d="M482.3,250.7c-7.1-9.7-17.4,2.3-22.5,8.1-7.6,8.6-13.4,18.3-17.8,28.8s6.5,7.7,8.7,2.4,6.3-12.8,10.5-18.6,4.3-5.5,6.7-8.1,7.7-6.5,6.6-8c3.4,4.6,11.2.1,7.8-4.5h0Z"/>
    <path d="M723.2,317.5c6.7-2.2,2.2,11.7,1.5,14.2-1.7,5.9-3.3,11.8-4.9,17.7-3.1,11.9-5.7,23.8-8.1,35.9-1.1,5.7,7.6,8.1,8.7,2.4,3.3-17.1,7.4-34,12.2-50.8s5.1-14.1,2.4-20.9-8.3-9.1-14.1-7.1-3.1,10.5,2.4,8.7h0Z"/>
    <path d="M703.3,472c0,4.8.2,9.5.3,14.3s.4,3.4-2.2,4.4-3,1.3-4.2,2.6c-5.1,5.7-1,14.3,5.2,17s13.9-.4,16.1-7-3.3-14.1-10.6-14.7-5.7,8.5,0,9,2.7,3.3.7,4.4-5.6-.5-4.7-2.5,2.6-1.1,3.1-1.4c1.5-.7,2.7-1.5,3.8-2.9,2-2.6,1.8-5.9,1.8-9,0-4.8-.2-9.5-.3-14.3s-9.1-5.8-9,0h0Z"/>
    <path d="M697.3,494.8c-5.6-.2-8.3,6.2-4.7,10.4,3.9,4.5,13.6,2.9,18.7,2.2s13.4-2.4,13.8-8.8-7-8-11.8-6.6-3.2,10.3,2.4,8.7c1.5,0,1.7-.3.6-.8l.5-3.5c-1.5,3.2-16.3,3.8-18.7,1.9l2.1,2.7v.2c-.8.9-1.5,1.8-2.2,2.7h-.6c5.8.2,5.8-8.8,0-8.9h0Z"/>
    <path d="M419.1,340.4c-19.5,23.4-22,56.4-5.5,82.2s10.9.4,7.8-4.5c-14.2-22.2-12.9-50.9,4.1-71.3,3.7-4.4-2.7-10.8-6.4-6.4h0Z"/>
    <path d="M710.3,412.2c.6,14,1.6,28.2,1.6,42.2s-15.4,16.8-13.9,29.7,9.7,5.8,9,0,5.4-10.7,9-15.4,4.9-8.9,4.9-14.3c0-14-1.1-28.2-1.6-42.2-.2-5.8-9.2-5.8-9,0h0Z"/>
    <path d="M482.8,153.1c-22.3,18.8-48.3,32.9-76.1,41.6s-3.2,10.4,2.4,8.7c29.4-9.1,56.5-24,80.1-43.9,4.4-3.7-2-10.1-6.4-6.4h0Z"/>
    <path d="M498.4,171.1c-27.1,16.6-57.1,27.4-88.5,32.1-5.7.8-3.3,9.5,2.4,8.7,32.1-4.8,62.9-16,90.6-33s.4-10.8-4.5-7.8h0Z"/>
    <path d="M480.9,199.1c-24.2,1.4-51.7,3.8-68.5,23.7s-8.2,47.7,2.8,69.8,10.3.6,7.8-4.5c-9.5-19.2-19.5-43.1-2.3-61.1,15.5-16.2,39.2-17.7,60.2-18.9s5.8-9.3,0-9h0Z"/>
    <path d="M470.2,222.2c-29.7,14.8-57.9,32.4-84.3,52.4-4.6,3.5,0,11.3,4.5,7.8,26.4-20,54.6-37.6,84.3-52.4,5.2-2.6.6-10.4-4.5-7.8h0Z"/>
    <path d="M455.4,247.7c-17.5,11-32.7,25.3-44.8,42s-26.7,37.8-10.9,52.5c4.2,3.9,10.6-2.4,6.4-6.4-7.1-6.6-2.4-16.7,1.3-23.8s8.8-15.1,14.2-22c10.7-13.7,23.7-25.3,38.4-34.6s.4-10.9-4.5-7.8h0Z"/>
    <path d="M439.1,268.5c-11.8,15.9-18.6,34.7-20.2,54.4s8.5,5.7,9,0c1.5-18.2,8.1-35.2,18.9-49.8s-4.4-9.1-7.8-4.5h0Z"/>
    <path d="M444.7,282l-8.4,33.4c-1.4,5.6,7.3,8,8.7,2.4l8.4-33.4c1.4-5.6-7.3-8-8.7-2.4h0Z"/>
    <path d="M607.2,143.4c-6.2-12.2-13.3-25.3-26.5-31.1-12-5.3-24.9-2.7-32.9,7.9s-14.5,27.1-19.5,40.9c-4.4,12.3-7.3,26.3,1.6,37.2,3.7,4.5,10-1.9,6.4-6.4-6.8-8.4-1.9-21.3,1.4-30.2,4.2-11.3,9-23,15.4-33.3s6.5-8.6,11.9-9.7,10.3.5,14.7,3c9.7,5.6,14.9,16.5,19.8,26.1s10.4.6,7.8-4.5h0Z"/>
    <path d="M577.1,112.1c-14.9-1.6-29.3,3.1-42.5,9.6s-24.9,13.1-34.2,23.1c-21.4,23-15.9,55.6-9.8,83.4s9.9,3.3,8.7-2.4c-5.5-25-11.5-55.5,8.6-75.8s19.7-14.8,30.5-20.1,25.1-10.3,38.8-8.8,5.7-8.4,0-9h0Z"/>
    <path d="M613.7,148c-5.5-35.3-48.1-47.7-78.8-48.2-16.3-.3-31.8,5-42.2,18.1-9.6,12.2-13.8,27.7-14.7,43.1s3.7,40.8,13.4,58.7,10.6.5,7.8-4.5c-13.6-25-18.2-59.4-3.8-85.1,7.2-12.7,19-20.1,33.7-21s31.2,2.2,45.1,7.6,28.2,17.4,30.8,33.9c.9,5.7,9.6,3.3,8.7-2.4h0Z"/>
    <path d="M570.5,120.4c-23.9-3.3-53.4-5.1-69.3,17.2-15.9,22.3-1.8,49.7,10.2,69.9,3,5,10.8.4,7.8-4.5-10.1-16.9-23.7-40.3-11.1-59.6,12.8-19.4,40.1-17,59.9-14.3,5.7.8,8.1-7.9,2.4-8.7h0Z"/>
    <path d="M581.2,135.3c-26.5-3.2-53.9,9.7-68.3,32.1-15,23.3-14,55.2,1.4,78s11,.3,7.8-4.5c-13.8-20.3-14.8-48.1-1.4-68.9,12.8-20,37.2-30.5,60.5-27.7s5.7-8.3,0-9h0Z"/>
    <path d="M649.4,147.5c8.8-7.9,12.2-20.2,9.9-31.7s-13-26.5-24.4-17.4-8.9,10.3-12.4,15.5-6.9,11.8-9.5,18.1c-5.2,12.4-8.3,25.6-9.3,39.1s1,31.3,6.2,46c1.9,5.4,10.6,3.1,8.7-2.4-9.1-26-7.9-55,3.1-80.2,2.7-6.3,6-12.3,9.9-17.9s3.7-5.1,5.7-7.6,2.8-4.3,5.4-3.7,2.8,2.2,3.6,3.2c7.7,9.7,5.6,24.7-3.3,32.7s2.1,10.2,6.4,6.4h0Z"/>
    <path d="M638.4,170.5c0-17.9,8.3-35.7,23-46.3s15.4-8.6,24.1-10.2,9.4-1.1,14.1-.6,12.4,3,8.1,7.3,2.3,10.5,6.4,6.4,4.3-8.7,2.3-13.3-7.7-8-13.2-8.9c-12.3-2-25.4.7-36.5,5.9-22.9,10.7-37.2,34.7-37.2,59.8s9,5.8,9,0h0Z"/>
    <path d="M659.4,176.1c1-20.4,15.9-38.8,36.8-40.9,20.1-2,38.9,12.7,40,33.3s9.3,5.8,9,0c-1.3-25.3-23.8-44.6-49-42.3s-44.5,24.3-45.8,49.9,8.7,5.8,9,0h0Z"/>
    <path d="M672.4,184.2c2.8-6.3,6.3-13.4,12.8-16.7,7.1-3.5,13.8-.4,15.8,7.1,1.9,7.1,1.4,15.2.8,22.5s-2.4,16.1-4.8,23.8c-4,13.1-9.1,27.5-1.9,40.5,5.7,10.3,17.3,16.8,29,16.2s5.8-9.3,0-9-13.2-2.2-17.9-7.2c-5.6-5.9-6.7-13.8-5.3-21.6s4.9-16.4,6.9-24.7,3-16.5,3.2-24.8c.3-12.3-.6-29.6-15.4-32.9-15.2-3.4-25.5,10.1-31,22.1s5.4,9.8,7.8,4.5h0Z"/>
    <path d="M664,166.3c17.9-1.6,36.6.8,51.9,10.8,13.6,8.9,23.7,24.5,23.8,41.1,0,18.9-12.3,35.2-16.2,53.2s-.5,32.1,12.8,41.8c4.7,3.4,9.2-4.4,4.5-7.8-11.9-8.5-10.9-25.1-7.1-37.6,4.4-14.4,12.4-27.6,14.4-42.7,3.5-26.5-14.3-50.9-37.9-61.3-14.5-6.4-30.5-8.1-46.2-6.6s-5.8,9.5,0,9h0Z"/>
    <path d="M702.2,203.6c16.4,4.2,35.6,9.8,43.9,26.1s1.3,36.2-2.3,53c-3.5,16.1-5.2,34,4.5,48.4,8.5,12.6,22.7,19.7,36.8,24.2s7.9-6.9,2.4-8.7c-14.8-4.7-30.7-13-35.7-28.8-5.5-17.4,2-35.8,5.2-52.9,3.1-16.4,3.1-33.7-8.1-47.2s-28.1-18.7-44.3-22.9-8,7.2-2.4,8.7h0Z"/>
    <path d="M695.6,221.3c14.8,4.1,30.5,8.3,42.7,18.1s9.9,9.5,12.9,15.6,3.7,15,3.5,22.9c-.4,14.4.2,27.6,9.8,39.2s19.8,15.3,32.2,15.7,5.8-8.8,0-9c-12.9-.4-25-8.5-30.4-20.4-6.3-13.9-.3-29.9-4.1-44.4-7.5-28.9-38.7-39.4-64.2-46.4s-8,7.1-2.4,8.7h0Z"/>
    <path d="M705.7,274.1c16.1,18.8,33,38.4,38.9,63.1s-5.4,47.7-18.1,69.1,4.8,9.5,7.8,4.5c6.7-11.3,13.4-22.9,17.5-35.4,4.1-12.7,4.7-25.9,1.9-38.9-5.7-26.9-24.1-48.5-41.6-68.8s-10.1,2-6.4,6.4h0Z"/>
    <path d="M731,315.5c6.5,13.6,13.5,28.2,13,43.7-.4,12.2-6.1,24.5-17.5,29.9s-.7,10.2,4.5,7.8c13.4-6.4,20.5-20.6,21.8-34.9s-6.6-35.2-14.1-51c-2.5-5.2-10.2-.7-7.8,4.5h0Z"/>
    <path d="M747.1,290.6c4.9,18.4,7.9,37.1,8.9,56.1.5,9.2.5,18.4,0,27.6s-.5,8.9-1,13.3c-.4,3.7,0,13.8-5.5,14s-5.8,9.2,0,9c10.6-.4,13.1-10.4,14.1-19.2,1.3-11.7,1.8-23.4,1.6-35.2-.4-22.9-3.7-45.8-9.5-68-1.5-5.6-10.2-3.2-8.7,2.4h0Z"/>
    <path d="M722.1,366.2c.8,11.8,1.6,23.7,1.3,35.5-.1,5.8-.4,11.7-1.3,17.5s-1.9,11.8-7.6,13.5-3.2,10.3,2.4,8.7c13-3.8,14.2-18.7,15-30.1,1.1-15,.1-30.1-.9-45.1s-9.4-5.8-9,0h0Z"/>
    <path d="M423.8,497c-1.5,23.2-3.1,46.4-6.7,69.4s-9.3,41.5-29.6,48c-5.5,1.8-3.1,10.4,2.4,8.7,21.6-6.9,31.3-28.4,35-49.2s6.2-51.3,7.8-76.9-8.6-5.8-9,0h0Z"/>
    <path d="M650.4,546.4l-3.5,34.9c-1.1,11.4-2.9,22.9-2.8,34.4.1,17.2,7.9,37.2,26.8,40.7,5.7,1,8.1-7.6,2.4-8.7-18.9-3.4-21-25.5-19.9-40.9,1.5-20.1,3.9-40.2,6-60.3s-8.4-5.7-9,0h0Z"/>
    <path d="M140.2,973.6l-5.3,111.5c-.3,5.8,8.7,5.8,9,0l5.3-111.5c.3-5.8-8.7-5.8-9,0h0Z"/>
    <path d="M146.3,980.7c1.2-6.7,8-9.5,13.9-11.2,8.9-2.6,18.2-4.2,27.4-5.2,4.3-.4,18.9-3.6,20.5,2.9s-13.5,10.9-18.4,12.9-11.8,7.3-12.5,14.2,5.2,12.6,10.6,17c6.2,5,13.2,10,17.1,17.1s4.3,15.3-2.2,20.3c-7.1,5.4-18.3,6.5-26.8,8.3s-21.4,4-32.3,5.2-5.8,9.7,0,9c11.3-1.3,22.6-3,33.7-5.3s19.8-3.5,28.1-8.3c17.5-10.1,11.7-31.6-.3-43.5s-7.1-6.2-10.8-9.2-10.2-6.9-7.1-12.1,8-5.1,12.1-6.5,8.7-3.1,12.2-6.2c5.8-5.2,8.2-14.8,2.3-20.9s-16.4-4.9-24.2-4.2c-11.6,1.1-23.9,2.7-34.9,6.7s-15.4,7.8-17,16.5,7.6,8.1,8.7,2.4h0Z"/>
    <path d="M240.1,971.4c5.8,34.1,11.6,68.1,17.3,102.2,1,5.7,9.6,3.3,8.7-2.4-5.8-34.1-11.6-68.1-17.3-102.2s-9.6-3.3-8.7,2.4h0Z"/>
    <path d="M284.1,986.4c12.9,33.6,20.9,68.8,23.6,104.6.4,5.7,9.4,5.8,9,0-2.8-36.7-10.7-72.7-24-107s-10.8-3-8.7,2.4h0Z"/>
    <path d="M298.7,999.1c23.1-8.1,46.3-16.2,69.4-24.3s3.1-10.6-2.4-8.7c-23.1,8.1-46.3,16.2-69.4,24.3s-3.1,10.6,2.4,8.7h0Z"/>
    <path d="M302.2,1031c16.4-5.1,32.8-10.2,49.3-15.4,5.5-1.7,3.2-10.4-2.4-8.7-16.4,5.1-32.8,10.2-49.3,15.4-5.5,1.7-3.2,10.4,2.4,8.7h0Z"/>
    <path d="M369.1,1000.6c-1.7,25-1.6,50.1.2,75.1s9.4,5.8,9,0c-1.8-25-1.9-50.1-.2-75.1s-8.6-5.8-9,0h0Z"/>
    <path d="M383.2,1008.8c15-14.5,31.6-27.1,49.7-37.5s.5-10.7-4.5-7.8c-18.7,10.8-36,23.9-51.5,38.9s2.2,10.4,6.4,6.4h0Z"/>
    <path d="M372.2,1043.6c20.4-16.2,44.4-27.1,69.8-32.4,5.7-1.2,3.3-9.8-2.4-8.7-27,5.6-52.2,17.5-73.8,34.7s1.9,9.9,6.4,6.4h0Z"/>
    <path d="M429.6,983c12.4,24.3,24.8,48.7,37.1,73s10.4.6,7.8-4.5c-12.4-24.3-24.8-48.7-37.1-73s-10.4-.6-7.8,4.5h0Z"/>
    <path d="M496.3,985.4c-9.9,39.4-23.3,77.9-40,114.9-2.4,5.2,5.4,9.8,7.8,4.5,17.1-37.7,30.8-76.9,40.9-117,1.4-5.6-7.3-8-8.7-2.4h0Z"/>
    <path d="M593.3,969.2c-23.1,16-42.1,38.1-53.4,63.9-2.7,6.2-4.7,12.8-1.6,19.3s8.3,9.9,13.7,13.2c12.7,7.7,27.8,10.9,42.5,9.2,5.7-.6,5.8-9.6,0-9-12.4,1.4-24.8-.7-35.8-6.7-4.6-2.5-11.1-6.1-12.7-11.5-1.8-5.9,3.2-13.6,5.9-18.6,10.8-20.8,26.7-38.7,45.9-52,4.7-3.3.2-11.1-4.5-7.8h0Z"/>
    <path d="M615.8,975.2c-2.3,13.8-4.6,27.6-6.8,41.3-1.2,7.2-2.4,14.4-3.6,21.6-1,5.7-2.5,11.8-2.2,17.7,1.4,24.3,37.7,21,53.9,18.1,5.7-1,3.3-9.7-2.4-8.7-9.9,1.8-20.9,2.4-30.8.3s-7.7-2-10-5.1c-3.1-4.2-1.4-10.4-.6-15,3.7-22.6,7.5-45.3,11.2-67.9.9-5.7-7.7-8.1-8.7-2.4h0Z"/>
    <path d="M657.7,975.8c10.6,18.7,22.8,36.4,36.6,52.9,3.7,4.4,10.1-1.9,6.4-6.4-13.3-15.9-25.1-33-35.2-51.1-2.8-5-10.6-.5-7.8,4.5h0Z"/>
    <path d="M712.1,983c-6.6,34.5-18.2,67.7-34.4,98.9-2.7,5.1,5.1,9.7,7.8,4.5,16.6-31.8,28.5-65.8,35.3-101,1.1-5.7-7.6-8.1-8.7-2.4h0Z"/>
    <path d="M723.2,999.4c11.6,25.2,19.6,51.9,23.9,79.4.9,5.7,9.5,3.2,8.7-2.4-2.8-20.1-6.9-40-12.3-59.6-2.6-9.3-6.2-18.5-8-28-1.5-7.9-1.4-18.8,6.1-23.9,7.3-5,15.8-.9,16,7.9s-6,17.6-10.7,24.4c-7.5,11-28.7,26.5-13,39.8s17.6,13.5,26.4,20.2,19,14.5,28.5,21.7c4.6,3.5,9.1-4.3,4.5-7.8-9.2-7-18.4-14.1-27.7-21.1s-9-6.8-13.4-10.3-10.1-6.5-13.6-10.7,1-9.1,4.1-12.4,6.6-7.4,9.5-11.5c5.6-7.6,11.6-16.6,13.7-25.9s.4-16.1-5.6-21.5-15.3-5.3-22.1-1.5c-17.5,9.7-12.5,32.7-7.7,48.1,7.5,24.3,13.1,49.2,16.7,74.4l8.7-2.4c-4.4-28.2-12.8-55.6-24.8-81.5-2.4-5.3-10.2-.7-7.8,4.5h0Z"/>
    <path d="M824.2,973c-19.6,7.9-27.3,28.7-26.6,48.7.8,19.9,6.7,44.2,26.4,53.4,19.4,9.1,38.4-4.1,45.4-22.5s4.6-40.2-3.7-57.9c-4.5-9.6-11.1-18.5-19.1-25.4s-8.5-7-14-6-8,4.6-7.9,9.3,9,5.8,9,0,8.6,4.9,9.4,5.6c2.6,2.5,5.1,5.2,7.2,8.1,4.3,5.7,7.7,12.1,10.1,18.8,4.7,13.4,5.7,28.3,1.4,42-4.6,14.6-18.9,27.6-34.6,19.6s-19-25.5-20.3-40.5c-1.5-16.6,2.3-37.4,19.7-44.5,5.3-2.1,3-10.9-2.4-8.7h0Z"/>
    <path d="M653.3,174.1c11.3,2.6,20.1,10.8,23.1,22s.3,25.1-.6,37.5c-.8,11.2-.2,23.4,6.2,33s14.6,14.4,24.9,13.8,5.8-9.4,0-9c-11.3.7-19.1-9.3-21.4-19.4s.3-25.2,1.1-37.6c.7-10.9-.3-22.4-6.4-31.8-5.6-8.7-14.5-14.8-24.5-17.1s-8,7.4-2.4,8.7h0Z"/>
    <path d="M602.3,153.7c-10.2-26.9-39.7-34.1-65.6-35.2s-61.4-2.5-69.2,27.5,7.2,8,8.7,2.4c6.5-25,40.9-21.7,60.5-20.9s48.4,5.9,57,28.6c2,5.4,10.7,3,8.7-2.4h0Z"/>
    <path d="M584.7,160.3c-1.6-13.5-15-19-26.7-22.1s-26.8-4.3-40.2-2.7c-26.9,3.2-52.3,15.8-70.3,36.1-3.8,4.3,2.5,10.7,6.4,6.4,15.4-17.5,36.5-28.8,59.4-32.8,11.1-2,22.8-2.1,33.9-.2s27.3,4.4,28.6,15.2,9.7,5.8,9,0h0Z"/>
    <path d="M1890.5,427.6c5.8,0,5.8-9,0-9s-5.8,9,0,9h0Z"/>
    <path d="M2172.2,305.5c5.8,0,5.8-9,0-9s-5.8,9,0,9h0Z"/>
    <path d="M2064.2,366.5c5.8,0,5.8-9,0-9s-5.8,9,0,9h0Z"/>
  </g>
</svg>