<?xml version="1.0" encoding="UTF-8"?>
<svg id="Layer_1" xmlns="http://www.w3.org/2000/svg" version="1.1" viewBox="0 0 1584 1280">
  <!-- Generator: Adobe Illustrator 29.7.0, SVG Export Plug-In . SVG Version: 2.1.1 Build 138)  -->
  <defs>
    <style>
      .st0 {
        fill: #010101;
      }

      .st1 {
        fill: #fcfcfc;
      }

      .st2 {
        fill: #d7d7d7;
      }

      .st3 {
        fill: #121212;
      }

      .st4 {
        fill: #272727;
      }

      .st5 {
        fill: #020202;
      }

      .st6 {
        fill: #090909;
      }

      .st7 {
        fill: #8d8d8d;
      }

      .st8 {
        fill: #1c1c1c;
      }

      .st9 {
        fill: #f2f2f2;
      }

      .st10 {
        fill: #030303;
      }

      .st11 {
        fill: #0d0d0d;
      }

      .st12 {
        fill: #c5c5c5;
      }

      .st13 {
        fill: #efefef;
      }

      .st14 {
        fill: #e4e4e4;
      }

      .st15 {
        fill: #fefefe;
      }

      .st16 {
        fill: #040404;
      }

      .st17 {
        fill: #070707;
      }

      .st18 {
        fill: #eaeaea;
      }

      .st19 {
        fill: #f8f8f8;
      }

      .st20 {
        fill: #161616;
      }
    </style>
  </defs>
  <path d="M270.8,1168c20.9-5.3,42.2-21.9,62.5-23-7,9.1-21.4,16.4-30.2,24.7-54.3,21-67.1,101.2-122.9,112.3-272.1,6.3-166.3-7.5,9.8-81.5"/>
  <path d="M203.7,1198.1c20.6-8,41.9-14.8,61.3-25.4"/>
  <path d="M299.8,934.6c8.3,1.3,8.4,4.6.4,6.3"/>
  <path class="st0" d="M1144.9,674.6c-4.4-9.4,6.8-37.7,15.5-40.2,6,1.8,6.8,32.7,12.5,40,14.4,24.5,38.4,31,63.7,34.4,50.5,5.5,12.7-69.4,20.1-99,1.2-40.7,8.7,16.2,8.2,30.8-2.5,88.4,48.3,76.6,85.5,133.1,13,21.2,46.5,25.7,53.6-1.4,5.8-27.6-21.6-46.5-31.8-69.6-20.1-36.6-13.5-81.2-7.5-120.7,8.7-15.6,1.2,31.5.4,38.9-3,29.1-1.1,63.1,20.3,85.1,23,12.8,79.1,59.5,77.6,5.5.9-28.4-10.9-85.5,23.9-88.2,21.7-11.6,37.3-40.2,61.1-45.5,5.1.9,9.6,7.9,13.8,10.1,8.1,4.2,13.3-.6,16.4,11.4,1.5,5.8,8.1,18.1,3.4,22.9-10.3,2.4-17.2-11.6-25.9-15-9.2-.5,7.8,14.9,10.7,17,51.8,196.7,3.4,432.6,19,642.1-.2,14.5-11.9,19.7-25.1,18.7-30.5-.1-61.3.3-91.9-.2-42.9,4.6-17.6-75.2-57.5-59-21.5,10.7-29.2-39.8-46.7-21.3-20-39.2-41.2-86-52.3-132.2-28.6-69.7-86.8-120.4-126.6-183.7-49.4-40.8,20.9-79,55-87.7,26.8-55.4-70.9-87.6-95.4-126.4M1276.1,720.4c-50.7-23.5-26.2,43,.9,51.3,24.5-9.4,18.1-38.7-.7-51.1M1429.6,753.2c5.6,10.1,4.5-3.6-.1-6.3-3.8-2.5-1,4.4,0,6M1271.2,789.7c-.7-1.2-7.8-.7-7.8,1.6,1.1,1.8,7.3,0,7.8-1.6Z"/>
  <path class="st16" d="M391.2,1061.5c4.3,5.8-4.9,13.1,8.4,22.2,10.3,6.7,8.9,18.5,23.8,16.3,4.9.7-3.3,12.4,7.5,4.5,10.7-23.8,35.2-32,47.5-52.9,34.8-39.2,24.7-33.3,75.2-40.1,13.4-2.5,11.4-1.8,13,10.8,6.4,1.9,13.7-29.8,20.7-24.4-17.1,57.6,31.3-62.2,46.9-11.6-6.1,29.4-5.7,31.2-31.4,35.8-15.7,6.3-22.1,2.8-36,20-7.1-6.7-39.6-6.5-21.9,7.7,28.4,30.6,125.8,6.8,148.3,22.6-23.2.8-47.4-2.3-70.6,1.1-44.9,2.4-24.4,18.1-42.3,15-24.8-5.4-102.8,37.1-64.7,61.1,11.9,19.4,18.5,6.9,20.8,30.5,8.1,2.5,16.2-8.8,20.7,3.8,7.6,7.2,12.3,18.4,18.7,26.3,3.5,1.1.5-8.4,8-3.8,5.9,2.6,12.8,2.1,18.8,2.8,8.2,3.7,16.1,7.5,25.7,7.4,31.3-2.1,22.9,15.4,33,2.3,3.8-1.2,6.2,6.5,9.2,8.4,42.2,43.1,15-43.2,36.6,8.8,4.5,9.7,16.4,30,22.9,12.1,5.2-5.2,14-.2,9.7-11.7-4.5-12.8,4.7,1.2,9.4.3,3.8-4.2-7.1-15.3-9-19.9,5.1-.8,15.2,3.2,18.2,8,5.2,12.6,15.6,34.3,17,6.9.2-10.4-4.1-28,12.8-20.8,10.3,2.4,17,7.7,20.8-5.6,5.1-2.6,5.5-8,9.9-11.4-18.1-15.5-1.9-4.9,2-24.4,7.8-22.4,54.6,3.5,27.2-23.3-12.5-15.4-12.9-36-23.9-52.6-14.1-22.5-33.5-18.6-8.1-43.7,7.4-12.3,9.6-34.8,19.9-10.3,5.6,7.4,12.4-4.9,16.6,4.1,33.9,43.8,8.7,94.8,37.1,116.2,51.4,36.1,19.2,5.1,9.3,46.4-6.5,20.5-18.4,38.3-11.9,60.4-23.5,31.3-106,9.5-145.4,15.5-93-4.9-196.3,4.7-293.8-.5-27.3-7.3-46.2-47.3-63.5-69.4-14.3-29.4-40.5-60.6-43.2-92.5,3.3-22.8-6.8-45.1-10.5-67.1-17.2-33.2-7.6-71.1-16.2-106,5.4-37.8,26.6-18.4,28.1,8.6,15.9,26.4,11.8,57.4,14.9,84.3,12.6-1.2,8.4,3.5,10.7,11.6,25.2-8.8,6.1,4.2,23.4,9.7M852.1,1072.2c11.1-7.9-6.1-1.4-.2,0M830.8,1274.8c16.8,4,.5-14.5-6.8-6.9-.7,2,4.4,5.7,6.6,6.8M554.4,1028.4c-4.8-8.5-8.3-1.7-6.5,4.6,3,15,15.8,6.7,6.6-4.5M830.3,1161.8c-9.2,9.5,13,33.6,14.5,12.6,15-9.1-4.7-25-14.4-12.7M850.1,1131.5c5.3-9.6-15.3-24.2-16.3-9.5,0,7.8,11,21.6,16.2,9.7M869.7,1129.2c4.2-11.4-22-25.2-21.3-14,13.2,9.2,7.2,20.7,1.1,32.1,4.7,18.3,20.1-9.5,20.2-17.9M443.8,1105c3.3,18.6,22.2,6.3,16.3-7.7-3.7-12.1-18.2-2-16.3,7.5M836.6,1254.2c-8.4-41.1-38.9-29.4,0,0M869.8,1161c-18.6,22,20,26.8,0,0M814.5,1171.2c2.7,4.3,9.5,14.5,15.1,13.8,4.7-6.3-15.5-23.5-15.1-14M883.1,1202.7c3.2-5.3.7-19.6-4.4-23.2-3.1,4.9-2,22.6,4.4,23.3M857.2,1098.1c-6,3.7-3.6,12.1,2.7,13.8,10.7,2,7-20.3-2.6-13.9M442.6,1119.5c-.4-14.8-21.6,12.9-10,12.3,4.8-1.5,9.8-7,10-12.1M742.2,1267.7c-5.2-30.5-22.7-10,0,0M333.8,1005.6c-9.7-6.5-7.8,4.4-1.4,8.2,8.8,6.5,7.5-4.6,1.6-8M889.8,1181.8c-2-5.5-13.1-17.3-7.9-4.1,2.6,8.4,17.1,24.1,8.1,4.4M808.4,1235c-2-3-5.8-7.7-9.6-7.7-6.8,4.2,15.4,20.3,9.7,7.9M696.7,1250.3c1.5,1.7,3.8,3.2,6,3.5,11.5-3-14.1-18.6-6.1-3.7M897.1,1183.2c7,.4-1-15.2-5.1-12.1-1.4,3.6,1.7,10.4,5,12M862.1,1251.9c2.3,1.1,5.6,2.2,6.9-.3,1.1-9.6-19.9-7.8-7.1.2M709,1269.4c2.8,9.8,3.5-8.7,2.5-10.6-2.4-7.1-3.6,8-2.5,10.4M753.9,1249.1c-1.6-1.1-4.2-1.8-6.1-1.4-8.5,5.4,13.5,10.6,6.3,1.5M863.7,1183.1c-1.3-7.5-10.4-10.3-7-.4,2.6,7.2,10.1,9.3,7.1.6M773,1238.6c-3,16.5,15.2,3.8.1,0M780.7,1216.8c-2.4,16.9,17.5,3.7.1,0M525.5,1103.1c13.3,10.5,5.9-12.2,0-.2M876.3,1274.6c5.9-6.3-9.1-3.8-8.5.4,1.5,2.5,6.4,1.1,8.3-.3M567.5,1195.9c-21.6-10.8,4.1,13.8.2.2M879.2,1213.1c-5.1-9.9-6,1.6-3.1,5.9,4.3,6.1,5.2-2.1,3.2-5.6M469.3,1093.6c-1.3,1.7-3.9,9.2-.6,9.8,4.3,0,6.1-14.3.7-9.9M834.9,1200.9c.5-3.2-2.9-8.7-6.7-7.1-4,3,5.2,12.4,6.7,7.3M774.8,1264.3c-4.4,14.7,13.7,10.3.1,0M656.8,1272.4c3.2-15.9-10-8.5,0,0M846.2,1088.9c15.4-9.4-.5-13.5-.1,0M826.4,1260.2c1.1,2.8,10.9,6.9,7.6.8-.9-1.9-9.6-5.6-7.6-1M857.9,1208.6c5.5,7,3.1-4.3,0-6.4-4.2-3.7-1.8,4.5-.2,6.2M828.8,1046c-4.3,15.2,5,14.9,0,0M861.6,1193.4c-4,4,7,4,7.4.9-.6-2.6-5.5-2.2-7.3-1M864,1205.3c.3,1.8.7,4.4,2.5,4.8,4.6-2.2-2.5-15.5-2.6-5.1M822.7,1053.9c.6-11.2-15.1-1.3,0,0M818.2,1265.4c6.1-12.4-11.8-7-.1,0M616.5,977.5c-2.3-.3-5.6,3.6-3.3,5.3,3.2,2.1,9-4.5,3.3-5.3Z"/>
  <path class="st5" d="M1069.3,1277.8c.5-24.4,30.1-49.9,47.9-65.5,36.1-18.4,15,15.2,75.1-9,22.3,10.6,15.3,53.1,4.4,71.5-36.2,13.5-90.4,10-127.4,3.1M1151.5,1228.2c-13.2-17.4-17.5,24.9-1.7,11.2,2.8-2.8,3.8-7.9,1.7-11.2Z"/>
  <path class="st5" d="M994.3,1277.9c4.7-54.5,40.2-59.3,25.2-134.4,13.4-21,59.8,48.2,46.2,62.2-17.1,36-14,98.5-71.4,72.3Z"/>
  <path class="st10" d="M1232.2,1277.1c-5.4-22.2,17.6-52.4,42.1-41.7,22.7,15.4-22,57.2-42.1,41.7Z"/>
  <path class="st9" d="M1584.9,643c-9.7-6.1-28.8-19.2-33.9-29.7,7.5-10.7,36.6,24.2,33.9,29.7Z"/>
  <path class="st14" d="M712,1280.2c-1.5-3.2,4.6-17.4,8.2-14.9.1,5-3.2,14.4-8.2,14.9Z"/>
  <path class="st13" d="M858.8,1279.9c-2.3-1.4-4.8-5.8-3.3-8.4,3.8-2.9,10,10.1,3.3,8.4Z"/>
  <path class="st10" d="M913.9,251.5c15.9,28.2,42.6,56.6,46.9,90.4-5.6-18.7-78-104.2-79-81.9,29.4,19.1,69.3,218.1,74.5,183.9-5-37.6-19.7-74.6-29.2-110.9,19.8.7,29.1,112.3,38.8,100.4-11.4-90.5,22.9,87,27.8,110.5-20.7,8.5-50.4-49.7-48.6-72.7-6.6-31.9-28.7-64.2-16.8-94.1-15.1-51.3-51.3-142.3-105-148.5,19.4,8.9,114.9,138.1,62.9,107.7-22.1,4.8-27.7-16.7-49.8-12.4-10,2.8-10.1,9.7-15.8-2-17.2-30.2-63.2-21.9-78.6-50.9-5.2-14.3-8.7,4-18.2,3.9-8.8,2.6-17.3-5.5-25.8-.6-21.9,17-16-13.7-40.1,4.8-24,14.3-37.5,1.6-63.5,21.9-14.8,9.4-42-.4-49.9,18.5,1.1,7.3-38.9,39.6-37.5,29.1,55.2-41.9-5.9-30.6-12.4,5.1-41.5,17.4,10.1,21.4-56.8,69.2-12.1,10.4-27,18.1-24.3,36-3.4,22-48.3,86.6-4.6,81.4,8,4.4-28.5,29.6-31.1,39.5-9.2,23.5-39.8,4.9-54.6,19.6-3.9,3.7,3,6.9,6.4,5.6,66.2-29.8-5.4,131.6,76.7,180.6,18.1,15.9,43.6,23.9,66,30-3.2,2.7-31-4.6-40.1-9.9-105.8-35.8-62.2-210.3-89.9-175-17.9,32.7-14.2,73.9-30.6,106.7-16.6,16.9-14.1-20-10.7-29,10.2-36.1-22.2-48.1-27.8-81.6-11.5-10.2-2.6,37.1-4.1,41.4-10.1,17.3-8.5-35-14.8-42.4-6.8-15.8-11.7,2.1-15.3-24.5-.3-3.8-1-8.9,1.7-7.7,28.6,19.9-.5-24-5.9-32-16.6-29.8-13.5-62.9-18.7-95.3-.7-27.9,16.7-56.9.3-81.8,3.1-3.1,11-2.1,15-6.6,10.5-10.7,14.1-23.9,27.6-32.7,40.4-30-12.7-20.6,10.1-28.9,4-1.1,27.4-13.6,14.5-16.2-12.6,2.8-44.5-21-19-27.1,10.6-3,23.9,11.3,34,2.4,24.8-58.6,64.8-104.6,126.1-128.3,20.9-13.6,25-19.4,50.4-25.2,10.8-5.1-4.6-4.3-4.3-8.4,8.5-5.1,20.4-4.3,30.1-6.8,24.6-6.4,51.4,4.2,73.7,13.7-20.9,4.7-48-14.1-70.8-4.6-11.6,3.8,98.4,10.9,72.6,24.2-21.9-3.8-47-10.9-69.9-7-23.7,8.4,66,10.4,74.2,25.6,11.5,7.3,31.7,16.7,25.5,27.3,5.5,4.1,33.6,36.7,37.8,25.6,4.8-14,10.4-1.5,19.7-1.2,12.8-3.6-3.3-29.4-7.3-36.3-32.7-109.8,50.7-2.7,22.1-105.6,1.3-9,0-15.4,2-25.6.7-8,20.3-34.5,9-11.1-2.5,6.3-4.5,14.3-3.1,20.9,2.3,5,4.8-15.7,17.7-7.3,5.6,28,2.7,60.3,13.5,87.9,12,8.3,19.1,24.7,29.3,36.4,17.9,16.8,30.5,4.5,17.6-15.7-24.2-35.9-34.9-106.5,16-57.8,10.3,8.1,37.6,24.2,32.4,38.9-44.3,29.4,11.2,41.8,39,45,16.1,3.9-12.3,2.9-6.6,7.9,38.2,18.7,97.9,35,107.6,81.8,22.5,52.7-60-78.2-39-18.9M543.5,199.3c10.9,4.9-4.2-8.5-7.8-7.2-1.1,1.6,6,6.4,7.6,7M383.7,229.3c3.1-1.6,7.1-6.7,6.1-10.5-2.4-3.2-11.5,11.2-6.2,10.5M337.6,244.8c-12.9,27.7-31.6,63.5-22.1,94,1.7-64,43.4-114.1,86-158.6,6.8-17.8,113.9-47.2,70.3-42.7-19.3.3-118.4,49.9-102.2,52.6,70.2-44-23.4,26.7-31.9,54.5M367.1,324.1c8.9,6.3,18.6-26.9,13.8-28-10.2,8.2-53.7,49.9-13.9,28M311.5,440.1c1.3,6.7.2,21.2,5.3,25.5,1-18.7,5.6-36.4,29-36.8,19.3-7.5-40-7.5-34.3,11.1M313.6,353.6c18.7,12.3-11.1-22.1-7.4-32-2.3-5.7,6.9-28.9-2.7-25.5-14.1,14.8-4,45.2,9.9,57.4M606.5,220c-51.5-74.3-27.5-5.9-63.5-38.8-.5,10.9,26.6,30.3,35.3,43,5.3,4.8,6.4-4.6,12.4-3.2,4.8.8,19.2,10.9,15.9-.9M256.2,527.9c-14.1-11.6,10.1,38,12.2,44.6,2.1,6.8-12.6-9.3-13.7-9.9-5.7-5,1.9,11.5,3.5,14.6,31.7,59.8,11.1,28.8,55.5,27.7,10.4-20.1-45.7-58.6-57.4-76.8M310.5,462.7c-13.9-52.5-.1,45.8,11.7,57.3,8.9-1.1-13.1-43.9-11.7-57.1M776.7,207.1c-21.6,5,22.3,19.8,28.5,19.1,14.6-10.9-18.4-21.6-28.3-19.1M337.3,280.9c5.3-8.1,63.8-59.7,30.8-53.7,2,20.7-30.3,38.8-30.9,53.7M327.5,373.2c-1.3,4.9-7.9,18.5-3.6,20,4-12.1,18.5-38.8,20.1-50.4-5.3,2-13.6,24.1-16.5,30.2M234.7,506.6c-6.5,16.9,32.5.5,18.7-10.1-9-5.5-14.8,2.1-18.6,9.9M362.2,265.3c35.5-21.3,8.5-38.4,0,0M348.5,327.7c4.5-17.6-29.2,32.2-22.6,32.9,8.7-8.5,17.3-21.8,22.5-32.7M958.9,481.2c-3.6,4.2-7.1,38.4.7,23.7,1.7-3.4,8.3-39.3-.6-23.9M374.2,293.3c-16.8,16.2,1.4,7,9.2-1.4,23.7-21.2,1.2-10-9,1.2M344.6,360.1c-1.4,2.1-10.2,19.7-7.8,19.9,10.4-6.1,26.8-49,8-20.2M664.5,158.5c1.9-5.8-10.8-27.7-10.1-11.8.1,3.7,6.9,19.5,10.1,12M326.1,370.4c5.2-5.8-16.4-22.1-16.2-12.3.7,6.8,10,19,16.1,12.4M938.8,452.1c7.3-31.3-16.1-30.5,0,0M261.2,426.3c19.2.7-7.5-8.7-12.6-8.2-15.9-.3,6.7,9,12.4,8.2M317.3,381.1c-3.3,3.1-9.3,33.3-2.4,21.8,1.4-4.3,8.3-24.9,2.5-21.9M360.9,312.9c13.6-20.2-11-.2-11.1,9.7.8,3,9.9-7.8,10.9-9.4M340.4,211.7c-6.6,15.1,17.9-7.1,15.5-12.5-5-.7-13,8.3-15.4,12.3M560.7,216.1c12.6,16.6,7.7-7.5-2.2-9.4-4.7-.9.7,7.3,2,9.2M591.2,290.9c-16.1,10.2,5.2,8.5,10.8,1.1,5.3-6.1-7.7-3.1-10.5-1.2M424.6,417c-13,22.8,21.9-4.1.2-.1M565.1,235.9c-.7-1.9-6.8-10.9-8.5-8-1.6,7.5,15.4,24.5,8.6,8.3M388.9,510.1c7.1.7,17.1-20.3,4.1-9.6-1.3,1-9,10.8-4.2,9.7M288.9,426.1c-4.5-3.8-15.9-7.6-7.7,1.3,4.9,5,20.7,8.8,7.9-1.1M529.7,184.4c2.1.8,8.4,1,6.9-2.3-3.7-5.8-19.7-2.4-7.1,2.3M322.6,410c-.2-28-11.4,31,0,.3M550.4,221.3c9.9,6.6,4.9-7-.6-9.9-8.4-4.8-4.2,7.7.4,9.7M330.6,497.1c-.2-22.9-15.7-14.6,0,0M521.1,188.4c.6,4.5,22,20.7,13.8,8.9-2.2-2.2-12.6-13.2-13.8-9M314.9,608.8c1.4-4.3-4.4-7.7-6.7-3.6-2.4,4.9,4.6,10.5,6.7,3.8M379.5,212c23.8-10.7-.6-13.2-.1,0M405,273.6c-11.5-10.3-12.3,14.8,0,.2M553.3,234.8c-4-13.5-16.6-9.4,0,0M272.7,406c-10.8-15.7-2.1,17.9,0,.2M336.5,504c-11.5-18.7-1.1,17.8,0,.3M333.7,387.2c-.5,1.3-1.5,7,.7,6.8,3.7-1.8,3-14.8-.6-7M801.8,133.8c-1.6-.3-4.4.1-5.8,1.1-5.9,6.6,12.4,3,6-1M856.5,231.2c-7.4-1,8,12,7.6,6.6-1.1-2.7-4.7-5.6-7.4-6.5M544.8,234.6c-.8-12.1-15.2-5.5,0,0M357.7,339.9c-1.9,1.9-4,5.3-3.8,7.9,2.8,4,12.6-15.2,3.9-8.1M304.5,292.7c1.4-3.6-6-6.8-7.3-3.3.2,2.6,5.4,6.6,7.2,3.5M894.6,226.8c8.4,2.3-2.5-8.3-6.1-6.5-.9,2.1,4.1,5.7,5.9,6.4M691.9,119.5c1-1.1,1.3-3.3.3-4.5-3.9-2.7-4.9,8.2-.3,4.5Z"/>
  <path class="st17" d="M885.1,147.1c-14.7,10.5-15.5,13.5,3.3,15.7,3.6,2.4-9.5,3.4-11.3,4.5-6.8,2.3,10.6,3.1,12,3,14.8.7,30.8-.7,45.3,2.9,6.2,17.9,18.8,40.2,36.4,54.5,13,13.8,11.7,33.7,19.3,50.5,1.3,5.8-9.2-6.8-7,.9,7.4,12.3,27.2,60.2,3.3,20.6-41.6-121.9-194-126.8-156.3-145.2,24.5-12.8,15.3-39,39.4-12.4,3.5,2.3,18.8-1.3,15.6,4.9M876.2,158.2c7.2-4.9-10.6-6.5-12.8-4.8-7.8,5,9.5,7.4,12.7,4.9M856.2,159.7c-2.8-2.2-12.1-4.1-14.3-.6,0,5.5,22.6,8.1,14.5.7M851.3,171c2,1.3,6.2,1,8.5.2,5.7-2.9-10.9-3.7-8.5-.2Z"/>
  <path class="st6" d="M459.2,664.5c-57.3,23.8,3.1-47.3,32.6-41.3,56.7-19,117.1,58.1,40.4,13-27-13.1-78-12-88,21.5.3,2,3.5,1.9,5.8,1.3,8.9-4.9,64.3-18.1,44.7,2.4-8.3,3.3-16.7,5.8-5.6,13.6,32.5,52.1-40.3,23.7-64.1,20.1,13.1-9.1,38.5-7.3,34.2-30.6M482.4,699.8c-3.7-2.2-8.3,2.1-3.9,4.7,5.2,3.1,10.3-1.7,3.9-4.7Z"/>
  <path class="st6" d="M425.4,542.2c43-28,135.7-33.2,162.8,18.6-51.5-20.6-108-29.7-162.8-18.6M567.9,546.2c4-3.1-7.7-7.8-8.1-4.1.3,3.2,5.3,5.9,8.1,4.1Z"/>
  <path class="st16" d="M771.9,710.9c61.5-81.3,84.2,8.9,27.4,9.8-8,1.9-27.7-.7-27.4-9.8Z"/>
  <path class="st6" d="M576.9,762.7c-9.6,15.7-24.8-2.6-37.8,1-35.9-1,59.9-67.4,53-32.2,9.7,26.3-37.4,11.8-15.2,31.2Z"/>
  <path class="st3" d="M628.7,684c-2.5,13.1-5.4,31.4-12,41.9,4.8-31.9,14.7-66.3,7.3-99.1-5.5-17.4-10.1-36.8,2.1-9.1,4,8,2-7.1,9.2-.9,7.8,4.6,95.6,4.9,52.9,9.2-55.7-6.4-47.6,5.9-50.8,52.5-2.2,5.2-3.2-1.3-3.4-4.1-.9-18.4-3.9-1.2-5.2,9.4M635.6,649c2.9.1,2.4-7.7.1-8.9-2.6-.9-1.9,8.4-.1,8.9Z"/>
  <path class="st11" d="M878.6,1234.7c13-8.2,33.9-47.9,46.4-21.3,8.6,25.7,18.7,19.9-11.3,40-8.4,4.4-23.1,15.6-17.5.4.7-13.9-30.8-5.2-17.7-19M916,1222.2c-5.5-3.9-21.5,2.7-17.6,10.5,6.1,4.7,24.1-1.3,17.8-10.4M919,1235.6c-.8-11.1-14,2.4-12.4,7.6,1.8,7.1,12.3-3.3,12.4-7.4M900.7,1236.5c-2.1.2-5,1.3-6.3,2.8-3.9,8.8,19.4-2.8,6.3-2.8Z"/>
  <path class="st3" d="M1026.5,662.3c6.2-1.5,10.3.2,3.8,4-26,65-40,169.8-130.3,176.5,105-31.3,93.3-104.1,126.5-180.5Z"/>
  <path class="st11" d="M651,960.9c-23.1,4.9-52.5,1.6-63.7-22.5-2.3-3.2-13.2-23.3-3.7-14.6,13.4,28.1,61.6,16.7,67.4,37Z"/>
  <path class="st11" d="M601.8,107.5c10,3.5,34.8,42.1,9.7,27.3-20.7-8.2-56.5-51.5-9.7-27.3Z"/>
  <path class="st18" d="M498.3,357c-21.8-19.5,61.4-63.6,35-25.9-4.9,6.5-13.9,6.5-19.9,11-3.5,4.9-7.4,13.9-15,14.9M530.4,331.7c2.2-5.9-8.2-6.5-11.4-3.5-3.3,5,8.8,6.9,11.4,3.5Z"/>
  <path class="st8" d="M741.9,660.5c-6.9,50.7,2.8,105.7,37.7,144.9-32.7-20.7-54.2-103.8-40-153.3,3.6-15.3,2.7,2.8,2.3,8.5Z"/>
  <path class="st17" d="M1017.2,475.1c3.9-9.9,14.1,5,21.6,9.1,44.4,30.6-28.4,23.6-21.6-9.1Z"/>
  <path class="st11" d="M316.1,880.2c4.8,8.6,19.3,13.9,16.7,24.6-1.2,4.8-8.6,25.1-14.4,13.4-3.4-12.6-25.1-74.5-2.4-38Z"/>
  <path class="st3" d="M463.6,545.3c-16.6,9.9-30.1,0-35.4,20.8-77.4,8.7,15.6-28.5,35.4-20.8Z"/>
  <path class="st20" d="M924.8,1219c.3-20.2,12.1-39.8,21-56.5,7.1,8.3-1,26.4-7.8,33.9-.4,5.5-7.2,41-13.2,22.6Z"/>
  <path class="st3" d="M377.7,158.6c-23.1,6.4-82.1,98.5-64.4,65,14.6-26.2,35.6-48.6,59-67,10.1-7.9,24.7-12.8,5.6,1.8h-.2Z"/>
  <path class="st3" d="M580.9,107c-11.9,6.5-31.3-5.7-41.4-12.6,7.6-12.6,45.1-1.9,41.4,12.6Z"/>
  <path class="st20" d="M751.5,624.9c16.9-27,48.1-46.3,79-50.7-27,8-66.9,31.4-84.2,62.7-2.2.8,2.8-8.4,5.2-12Z"/>
  <path class="st3" d="M553.1,709.7c39.4,6.6-23,54-9.5,9.3-3-7.3,3.2-9.5,9.3-9.3M550.8,730.6c7.6,3.2,9.9-12,4.2-15.2-6.6-1.6-9.4,12.3-4.2,15.2Z"/>
  <path class="st11" d="M913.5,289.7c-5.7,8.1,12.7,32,3.3,31.9-3.5-6.3-31.9-57.1-18.1-50.7,5.1,4.4,14.3,12.2,14.8,18.8Z"/>
  <path class="st11" d="M801.8,46c-5.3-3.4-29.1-26.6-11.2-24.3,14.3,1.5,35.7,47.1,11.2,24.3Z"/>
  <path class="st8" d="M715.9,49.4c-17,50.6-6.8-33.6,11.1-45,4.7,6.6-9,33.1-11,44.8M715.4,36.6c2.2-.5,7-9.9,2.8-9.1-1.5.6-6.5,8.5-2.8,9.1Z"/>
  <path class="st6" d="M635.2,933.6c-13.5,6.4-33.3-7.9-11.3-13,12.5-2.4,35.8,7.5,11.3,13Z"/>
  <path class="st11" d="M818.4,665.6c-6.9,2.9-42.1,32.1-37.6,20.6,5.5-11.6,65.3-45.2,37.6-20.6Z"/>
  <path class="st11" d="M920.2,693.3c35.2,14.3-10.7,36.3-5.9,12.8,1.8-4.6-1.5-13.6,5.9-12.8Z"/>
  <path class="st0" d="M1143,677.1c-13.9-5.3-29.8-20-45.7-23.5-4-2.2-19.7-2.8-16-8.9,20.3,1.9,51,13.9,61.6,32.3Z"/>
  <path class="st11" d="M908.5,688.3c4.3,10.4-38.9-8.2-32.5-14.9,11-4.8,25.5,7.5,32.5,14.9Z"/>
  <path class="st3" d="M598.1,691.7c-4.4-40.8,19.4,12.9,4.6,23.2-4.9,1.3-4.2-19.2-4.6-23.2Z"/>
  <path class="st6" d="M765.7,9.2c4.7.3,13.4,2.4,17.6,5,17.9,18.9-43.4,0-17.6-5Z"/>
  <path class="st3" d="M574.1,651.7c2.2,13.5,1.3,34.6-1.2,48.8-3.6-1.1-4.1-53.4,1.2-48.8Z"/>
  <path class="st11" d="M1036.7,414.4c-2.6-2.7-13.8-17.7-8.7-17,8,10.2,28.2,19.3,31.6,30.8-8,2.7-17.3-8.5-22.9-13.8Z"/>
  <path class="st11" d="M1024,664.7c-9.8,1.2-25-7.8-21.5-18.6,7-.3,45.7,15.3,21.5,18.6Z"/>
  <path class="st3" d="M507.7,656c-4.2-21.3,16.6-4.8,23.7,2.1,4.7,9.8-22.6,5.6-23.7-2.1Z"/>
  <path class="st3" d="M951.6,1194.6c21.2-23.9-2.9,26.6-11.6,23.9-2-6.1,7.7-18.9,11.6-23.9Z"/>
  <path class="st11" d="M312.5,744.5c10.6-.3.4,20.5-4.7,22.6-11.1,1.9-1.5-20.8,4.7-22.6Z"/>
  <path class="st8" d="M920.5,1210.9c-11.6,1.9-8-21.3,1.8-21.4,7.7,1.9,4.6,19-1.8,21.4Z"/>
  <path class="st8" d="M622.5,740c8.8-14.2,19.4-34.2,26.1-48.4,7.7-1.1-24.7,57.1-26.1,48.4Z"/>
  <path class="st3" d="M960.5,1161.4c6,5.4-3.1,20.6-6.1,26.7-14.1,27.6-.9-28.4,6.1-26.7Z"/>
  <path class="st7" d="M59.4,1249.6c-.6,0-1.3,0-1.9,0"/>
  <path class="st20" d="M616.7,160.9c-5.9,3-30-23.2-27.6-25.4,9.6,3,27.1,15.6,27.6,25.4Z"/>
  <path class="st8" d="M975,602.3c-14.9-4.3-36.1-14-49.6-21.2,14.6,2.2,39.7,10.9,49.6,21.2Z"/>
  <path class="st8" d="M881,576.2c-13.2-5.8,31.1-.5,35.1,1.8,17.2,7-29-.7-35.1-1.8Z"/>
  <path class="st8" d="M1011.1,1122.1c-.3-2.1.4-16.6,2.9-15.6,5,7-.9,38.4-2.9,15.6Z"/>
  <path class="st3" d="M230.3,585.3c3.1,4.2,10.8,21.3,8.8,26.4-7,1.5-17.3-30.2-8.8-26.4Z"/>
  <path class="st3" d="M944.4,184.9c-1.9-11.9,27.9,19.5,23.5,22.2-8.1-4.8-18.8-14.4-23.5-22.2Z"/>
  <path class="st4" d="M1172.3,560.5c-2.4,19.6-2.7,42.2-6.9,61.5-1.2-19.5-.6-43.1,6.9-61.5Z"/>
  <path class="st3" d="M748,40c-1.2,2.8-3,5.2-4.8,6.7-27.2,7.7,15.6-40.7,4.8-6.7Z"/>
  <path class="st20" d="M896.8,1203.6c-1.5-5.4,12.8-25.2,14.1-12.7.3,5.4-8.6,23.1-14.1,12.7Z"/>
  <path class="st11" d="M563.1,676.9c3,15.7-20.8-8.4-15.2-13.2,7-1.6,13.3,7.5,15.2,13.2Z"/>
  <path class="st20" d="M306.5,241.2c-.1,8.4-5.9,28.8-8.4,36.1-6.9,5.3,3.3-34.4,8.4-36.1Z"/>
  <path class="st20" d="M899.2,1139.4c1.4,5.4,2.4,14.6-3.1,17.7-9.8-5.2-5.8-39.7,3.1-17.7Z"/>
  <path class="st19" d="M599.6,178.7c4.3-1.1,18.5,15.1,16,19.8-4,3.1-18.9-16.4-16-19.8Z"/>
  <path class="st20" d="M620.6,150.2c-5.1-2.2-23.1-16.3-7.2-10.1,12.8,4.2,35.1,25.4,7.2,10.1Z"/>
  <path class="st8" d="M1005.4,635.1c-13.8-21.1,21.6,12.8,22.9,14.3-9.1.4-18.2-6.6-22.9-14.3Z"/>
  <path class="st3" d="M427.5,680.9c.9-8.2,13.4-18.9,11.2-4-1.1,8.1-13.6,18.7-11.2,4Z"/>
  <path class="st8" d="M875,645.7c9.2.3,31.3,7,35.6,12.9-10.1-4.5-29.9-8.3-35.6-12.9Z"/>
  <path class="st3" d="M584,715.3c-3.6,2.7-20.7-.8-13.7-6.8,4.2-3.4,19.4.7,13.7,6.8Z"/>
  <path class="st4" d="M1014.1,359.1c4.8,0,9.2,20.3,11.6,26.5,3.8,21.5-12.6-22.6-11.6-26.5Z"/>
  <path class="st18" d="M889.8,210.8c-.3,5.3-18,2.6-19.6-1.1,2.8-4.8,17.2-3.6,19.6,1.1Z"/>
  <path class="st20" d="M790.7,1211.1c-4.2-2.7-8.8-21.9.6-14.8,4.5,2.7,9.2,20.2-.6,14.8Z"/>
  <path class="st20" d="M726.4,632.7c-2.7-.3-20.6-6.7-16.4-10,4.8-2.3,33.2,11.5,16.4,10Z"/>
  <path class="st8" d="M875.3,1071.2c4.7,25.8-14-8.8-6.5-14.6,3.4.5,5.9,10.9,6.5,14.6Z"/>
  <path class="st3" d="M793.9,1014c4.6-4,11.8,14.9,12,19.7-1.6,9.9-11.8-16.3-12-19.7Z"/>
  <path class="st8" d="M.9,1278.1c-.3,0-.6,0-.9,0"/>
  <path class="st8" d="M919.5,665.9c5.9,3.4,17.4,17.7,17,24.4-3.3-1.6-18.2-21.1-17-24.4Z"/>
  <path class="st8" d="M818.3,117.3c0-4,9.3-24.9,11.7-14.9,1,4.8-13.3,28.1-11.7,14.9Z"/>
  <path class="st2" d="M819.9,230.6c-11.4-10.4,4.2-10.7,9.6-2.6,5.9,8.3-5.5,7.5-9.6,2.6Z"/>
  <path class="st8" d="M923.7,168.6c-2.3,2.2-19.6,1.4-21.4-1.8,4.7-4.2,17.1-1.9,21.4,1.8Z"/>
  <path class="st20" d="M455.1,425.1c-8.3-3.3,8.1-10,12.1-9.3,12.2,2.2-7.8,11.3-12.1,9.3Z"/>
  <path class="st20" d="M758.6,1004.4c-9.5-10.3,9-7.3,9.6.5-1.1,2.7-7.3,1.9-9.6-.5Z"/>
  <path class="st4" d="M948.8,1154.3c-5.3.5-10-14-1.7-11.2,11.7-2.8,10.4,5.6,1.7,11.2Z"/>
  <path class="st3" d="M713.3,1230.9c1.9,2.3,7.2,10.2,4.9,12.8-5.7,1-15.3-23.1-4.9-12.8Z"/>
  <path class="st3" d="M908.7,1170.3c-7.8,4.7-8.1-18.7-1-12,2,3,3,9.1,1,12Z"/>
  <path class="st4" d="M946.2,241.4c5.7,2.6,10.1,12.4,13.4,18.4,5.1,13.1-15-17-13.4-18.4Z"/>
  <path class="st20" d="M210.1,365.1c-1-17.2,8.6,3.9,4.4,10-2.6,1.4-4.1-7.9-4.4-10Z"/>
  <path class="st4" d="M1017.7,440.2c2.4,1.8,16.5,20.9,8.8,18.1-3.2-2.8-14.2-16.9-8.8-18.1Z"/>
  <path class="st4" d="M548.5,138.7c4.9,3.8-14,7.5-15.4,3.4,2.9-3.2,11.4-4.6,15.4-3.4Z"/>
  <path class="st20" d="M835.4,699.5c4.3-6.9,3.1,9.8,1.9,11.7-3.8,9.1-4-9-1.9-11.7Z"/>
  <path class="st8" d="M581.5,758.3c1.5-3.6,12.4-1.7,13.1,2.3.9,10.3-15,6.8-13.1-2.3Z"/>
  <path class="st3" d="M924.4,1155c-2.1,4.7-15.2,3.2-11-3.1,2.3-3.4,13-1.6,11,3.1Z"/>
  <path class="st4" d="M601.8,581.8c-1.7-1-12.1-10.9-10.1-12,5.9.2,27.1,24.4,10.1,12Z"/>
  <path class="st4" d="M473.7,103.2c.1,2-17.1,6.3-15.8,3,1.4-2.2,14.9-5.9,15.8-3Z"/>
  <path class="st20" d="M747.9,933.9c-1.9,2.1-14.9-1.7-13.8-5.3,3.3-3.7,14.9.9,13.8,5.3Z"/>
  <path class="st8" d="M806.1,24.2c-7.7-.6-10.7-9.6-.8-6.6,6.3,1.9,10,9,.8,6.6Z"/>
  <path class="st20" d="M601.3,1197.5c-14.4,2.6-.8-13.1,4.3-6,.2,2.6-1.9,5.2-4.3,6Z"/>
  <path class="st3" d="M417.2,576.4c1.3-5.2,11.2-3.3,10.8,1.9-.4,5.6-11.6,3.3-10.8-1.9Z"/>
  <path class="st20" d="M862.2,1037.6c.2,13.3-10.9,3.7-7.2-4.1,2.3-4.3,7.2.6,7.2,4.1Z"/>
  <path class="st8" d="M918.4,1174c-8.6,2.3,6.7-21.7,7.3-12.7-.9,4.1-3.9,10.4-7.3,12.7Z"/>
  <path class="st4" d="M966.8,1167.2c2.7-.1,4.4,17.8.6,15.6-2.5-1.7-4-14.9-.6-15.6Z"/>
  <path class="st18" d="M576.1,1205.1c4-5.2,7.3,6.5,5.7,8.8-3.6,4.8-8.1-5.6-5.7-8.8Z"/>
  <path class="st4" d="M617.2,173.9c11.7,15.3-11.1-3.6-12.5-10.2,2.2-.9,10.8,8.1,12.5,10.2Z"/>
  <path class="st20" d="M889.5,203.8c3.7-1,10.5.5,14,2.6,7.2,6.7-19.3,2.2-14-2.6Z"/>
  <path class="st8" d="M530.2,1147c-4.6.4-11.5-7.8-9.4-10.9,2-.5,12.1,9.5,9.4,10.9Z"/>
  <path class="st20" d="M903.5,1122.1c-4.9-9.8,3.8-7.1,6.8.4,3.8,9.7-5,6.5-6.8-.4Z"/>
  <path class="st20" d="M417.1,476.1c1.9-1.1,4.8,0,6.5,1.4,9.2,8.6-17.1,6.8-6.5-1.4Z"/>
  <path class="st3" d="M865.5,355.7c4.5-.9,11.9,4.3,4,5.5-5.4,1.2-13.6-5.1-4-5.5Z"/>
  <path class="st8" d="M480.1,369.4c.3-2.7,11-16.4,9.1-8-.5,2.6-6.8,12.9-9.1,8Z"/>
  <path class="st8" d="M409.9,136.5c11.9-3.4-6.2,9.8-10.1,7.3-.8-2.9,7.8-6.4,10.1-7.3Z"/>
  <path class="st20" d="M927.7,1135.8c2.4,14-16.8-5.1-6.1-4.7,2.7,0,5.7,1.8,6.1,4.7Z"/>
  <path class="st11" d="M935.2,1157.2c.1-3.6,10.5-4.1,11,0-.5,3.9-10,3.1-11,0Z"/>
  <path class="st4" d="M1557.4,581.7c-6.2-13.3,7.6-6.3,7.3,1.8-.2,4.7-6.2.7-7.3-1.8Z"/>
  <path class="st4" d="M966,1131.6c.2,1.7.1,10.8-2.4,10.3-4.1-2.6.4-21.1,2.4-10.3Z"/>
  <path class="st20" d="M995.2,1072.7c-1.7-1.1-3.3-4.2-3.7-6.2-1-11.9,13.5,8.5,3.7,6.2Z"/>
  <path class="st4" d="M685.2,1202.9c-1,2.8-10.1,1.5-12.5,1.2-6.2-2.4,11.1-2.8,12.5-1.2Z"/>
  <path class="st20" d="M917.9,293.9c3.6-1,12.1,9.5,6.9,10.8-3.6-.9-10.9-7.8-6.9-10.8Z"/>
  <path class="st4" d="M247.5,638.1c2-.7,8.4,15,5,14.4-2.8-1.1-7.6-12.1-5-14.4Z"/>
  <path class="st8" d="M406.4,1242.9c2.3-.8,8.5,8.9,8.4,11.2-2.8,3.8-11.7-7.6-8.4-11.2Z"/>
  <path class="st4" d="M391.6,1253.4c-2.6-2-2.4-10.9,2.5-8.9,4.5,1.6,3.2,12-2.5,8.9Z"/>
  <path class="st8" d="M975.9,333c4.2,17.3-9.5-7.6-5.3-10.9,2.6,2.5,4.3,7.2,5.3,10.9Z"/>
  <path class="st8" d="M515.7,753.7c3.3-2.1,13.3,3.3,9.1,7.2-3.1,1.2-12.3-3.2-9.1-7.2Z"/>
  <path class="st8" d="M888,137.3c.4,4.1-9.4,5.2-10.4,2.1-.7-3.8,8.9-4.7,10.4-2.1Z"/>
  <path class="st2" d="M395,1057.4c1.7,2.7-4.2,12-7.5,10.3-2.2-2.6,4.3-13,7.5-10.3Z"/>
  <path class="st12" d="M1151.4,535.9c-18.5-1,10.9-2.2,14-.7-3.7,1.2-9.7.7-14,.7Z"/>
  <path class="st4" d="M881.5,1094.7c-3.6,2.7-1.8-8.7-.9-10.5,3.6-6.8,2.5,8.6.9,10.5Z"/>
  <path class="st4" d="M901.8,1140.6c-1.9-1.2-2.8-3.8-2.8-6.1.5-12.6,12.9,8.9,2.8,6.1Z"/>
  <path class="st11" d="M628.2,1205.6c-4.8,2.2-9.6-6.4-4.4-8.7,4.4-1.9,7.1,6.2,4.4,8.7Z"/>
  <path class="st11" d="M492.2,370.4c3.1,1.5,0,13.1-3.5,12.6-2.1-1.4.9-12.7,3.5-12.6Z"/>
  <path class="st8" d="M841.9,332.9c-3.1-1-5.2-6.3-.6-6.2,6.7-.1,8.2,8.6.6,6.2Z"/>
  <path class="st4" d="M519,720c6.8,5.5,3.6,12.9-3.1,5.2-2.2-2.7-1.6-10.1,3.1-5.2Z"/>
  <path class="st4" d="M578.6,914.1c-1.8-2.4-.5-14.3,1.4-16.4,2.6-1.5,0,16.3-1.4,16.4Z"/>
  <path class="st20" d="M913.1,371.7c-1.9-2.6.2-13,4-7.4,2.4,2.8,0,12.7-4,7.4Z"/>
  <path class="st8" d="M619,110.8c7.1,9.9-2.5,6.5-5.3-.6-3.5-7.4,3-3.1,5.3.6Z"/>
  <path class="st12" d="M577.9,157.6c-2.2.8-12.6-4-7.6-5.9,1.9-.6,11.6,3.3,7.6,5.9Z"/>
  <path class="st2" d="M768.2,1228.5c-.2-5.5,14.6-6.1,9.6-.1-1.9,1.7-8.7,2.8-9.6.1Z"/>
  <path class="st8" d="M577.7,784.3c1.5-3.5,9.8-12.8,13.7-11.7-.4,2.4-11.6,12.5-13.7,11.7Z"/>
  <path class="st4" d="M528.7,1002.4c-.9,2.6-4.2,5.3-7,5.4-6.5-1.4,9.5-13.5,7-5.4Z"/>
  <path class="st20" d="M605.9,733.8c7.9-3,1.3,14-2.3,7.8-.8-2.5,0-6.4,2.3-7.8Z"/>
  <path class="st8" d="M931.9,1152.3c-3.3-1.1-7.7-9.2-3-11.2,7.1-2.5,7.8,8.9,3,11.2Z"/>
  <path class="st8" d="M617.6,745.1c1,1.9-10.5,10.8-10.5,6.7.2-2.8,8.3-9.4,10.5-6.7Z"/>
  <path class="st4" d="M1060.3,571.4c3.3.8,5.3,7.4.7,7.6-6.4,1-7.1-8.3-.7-7.6Z"/>
  <path class="st8" d="M974.2,1116.8c-2-3.6,3.1-9.2,5.5-4.5,1.7,3-3.4,8.2-5.5,4.5Z"/>
  <path class="st4" d="M782.7,1023.7c-1.8-1.6-2.9-8.9,1-7.9,2.6,1,3.1,10.7-1,7.9Z"/>
  <path class="st8" d="M1372.2,743.6c2.9.4,10,7.9,7.1,10.5-3.2-1.3-8-7.1-7.1-10.5Z"/>
  <path class="st10" d="M643.2,149.4c-2.9.7-9.6-11.6-6.9-13.2,2.6.5,9.1,11.1,6.9,13.2Z"/>
  <path class="st8" d="M916.3,218.7c-2.1.9-13-4-7.8-5.8,2.3-.5,11.2,2.8,7.8,5.8Z"/>
  <path class="st20" d="M222.3,362.5c-2.6,0-6.7-3.5-2.9-4.1,4.4-1.1,12.5,5.3,2.9,4.1Z"/>
  <path class="st4" d="M911.9,253.5c3.5-.5,8.9,6.2,10.4,10-2.8,2.3-9.7-7.1-10.4-10Z"/>
  <path class="st8" d="M931.3,1164.7c-1.1-3.7,4.2-5.7,5.6-2,1.9,5.4-3.8,7.3-5.6,2Z"/>
  <path class="st4" d="M814.1,667c1.7-2.1,10.7-2.7,8.2,1.5-1.5,2.5-13.3,4-8.2-1.5Z"/>
  <path class="st4" d="M943.9,1129.6c-1-2.5,5.7-13.6,6.6-7.6.6,2.7-4.4,14.4-6.6,7.6Z"/>
  <path class="st8" d="M741.2.7c1.7,3.5-6.8,5.7-7.1,2.6.2-2.3,5.6-4.1,7.1-2.6Z"/>
  <path class="st3" d="M533.4,651.4c-7.5-.7-.3-7.4,4-5,4.4,2.1-1.1,5.5-4,5Z"/>
  <path class="st4" d="M863,1037.5c2.4-1.5,6.5,2.1,6.2,4.8-.9,5-7.5-2.5-6.2-4.8Z"/>
  <path class="st8" d="M825,86.7c-3.2-.4-5.2-11,0-7.7,1.9,1.5,2.9,6.9,0,7.7Z"/>
  <path class="st4" d="M438.2,135.8c-4.1,3.1-11.4.3-4.2-3.1,5.2-2.3,11.7-.8,4.2,3.1Z"/>
  <path class="st20" d="M928.4,1187.7c-6.4-.1,1.4-11.8,3.6-5.9.3,2.2-1.5,5.3-3.6,5.9Z"/>
  <path class="st8" d="M876.5,1057.9c.4-6.7,6.1,1.7,5.3,4.7-1.6,4.3-5.9-2.3-5.3-4.7Z"/>
  <path class="st20" d="M580.2,774c.7,2.6-2,6.8-5,5.9-4.1-2.2,2.5-12.1,5-5.9Z"/>
  <path class="st8" d="M566.5,784.5c-3.6-2.4,2.8-8.9,5.4-6.9,1.8,2-3,7.7-5.4,6.9Z"/>
  <path class="st8" d="M594.2,758.7c0-2.6,4.5-11.2,7.3-9.7.2,2.5-5.5,10.4-7.3,9.7Z"/>
  <path class="st4" d="M653.7,177.7c3,1.2,8.9,9.2,6.4,11.8-2-.2-11.6-10.3-6.4-11.8Z"/>
  <path class="st8" d="M997.2,648.5c-2.4-.5-9.6-5.9-8-8.4,3.2,1.1,8.2,5.4,8,8.4Z"/>
  <path class="st8" d="M975.4,211.1c1.3,1.5,1.9,4,.9,5.7-4.2,3.6-7.4-11.6-.9-5.7Z"/>
  <path class="st4" d="M848.7,1020.4c1.2-1.5,3.5-2.3,5.3-1.4,6.7,4.3-9.9,7.7-5.3,1.4Z"/>
  <path class="st4" d="M985.6,498.2c-1.1-2-2.1-6-.3-7.8,3-.4,4.9,14,.3,7.8Z"/>
  <path class="st8" d="M924.6,1155.3c0-2.2,3.8-3.9,5.6-2.8,2.5,2.7-4.7,7.4-5.6,2.8Z"/>
  <path class="st16" d="M804.3,1197c-1.8,0-7.1-4-5.3-5.7,2.3.3,5.8,3.7,5.3,5.7Z"/>
  <path class="st13" d="M456.3,123.8c-5.3,2.6,0-5.6,2.4-4.6,1.1,1.5-1.1,3.8-2.4,4.6Z"/>
  <path class="st4" d="M987.9,502.7c.3-.7,1.2-1.6,2-1.5,1.8.5-2.5,3.6-2,1.5Z"/>
  <path class="st16" d="M781.4,1205.2c-1.3.2-4.1-4.6-1.4-3.7,1,.5,2.7,3,1.4,3.7Z"/>
  <path class="st0" d="M1579.1,607.4c-.1-.9.6-2.2,1.4-2.6,1,.2-.6,4.3-1.4,2.6Z"/>
  <path class="st13" d="M462.8,120.2c.6.2,0,1.2-.5,1.3-1.6.6-.3-1.5.5-1.3Z"/>
  <path class="st13" d="M856.5,328.9c-.2-.1,1.8.2,1.8.3-.5,0-1.3-.1-1.8-.3Z"/>
  <path class="st12" d="M579.8,99.2c-.7.2-1.8-1.5-1.1-1.9.8-.5,1.7,1.3,1.1,1.9Z"/>
  <path class="st5" d="M1207,1222.7c-.3-.5.6-2.3,1.4-2.2.8.5-.7,2.5-1.4,2.2Z"/>
  <path class="st11" d="M600.6,103.9c-.7,0-2.7-1.6-2-2.3.5-.6,3.1,2,2,2.3Z"/>
  <path class="st8" d="M997.4,647.8c.8-.1,1.8,1,1.4,1.8-.8.9-3-1.5-1.4-1.8Z"/>
  <path class="st8" d="M1372.2,743.7c0,.4-1.9.8-2.1.1.3-.6,1.7-.6,2.1-.1Z"/>
  <path class="st8" d="M974.9,602.5c.5,0,1.3.7,1.2,1.1-.6.8-2.8-.8-1.2-1.1Z"/>
  <path class="st0" d="M1364.4,571.9c-.6-.2-1.2-2-.6-2.3.7-.1,1.7,2.2.6,2.3Z"/>
  <path class="st8" d="M917.9,665.6c-1-.5-1.8-2.7-.2-1.3.3.3.9,1.4.2,1.3Z"/>
  <path class="st16" d="M608.1,1024.9c.4,0,1,.7.8,1-.7.8-2.2-.9-.8-1Z"/>
  <path class="st16" d="M805.3,1197.9c-1.2.3-1.7-1.6-.2-1.3.7.2.8,1.1.2,1.3Z"/>
  <path class="st6" d="M424.8,543.2c.3.3,0,.1,0,0h0Z"/>
  <path class="st4" d="M1173,560.5c.2-.1,1-.2.8,0-.2.3-1.1.3-.8,0Z"/>
  <path class="st8" d="M999,649.4c.5,0,1.2.8.4.8-.5,0-1.2-.8-.4-.8Z"/>
  <path class="st10" d="M911.9,245.5c.4,0,.8.2.8.4,0,.9-2.1-.2-.8-.4Z"/>
  <path class="st4" d="M551.7,143.3s0,0,0,0Z"/>
  <path class="st8" d="M577.8,784.2c.1.1.1.7,0,.8-.3.2-.3-.9,0-.8Z"/>
  <path class="st16" d="M781.9,1204.4c.9-.2,1.4,1.2.4,1.4-1,.3-1.3-1.2-.4-1.4Z"/>
  <path class="st8" d="M919,666.6c-1,.3-1.6-1.3-.4-1.4.8,0,1.2,1.2.4,1.4Z"/>
  <path class="st1" d="M1276.5,720.6c26.8,10.3,15.8,70.3-10.8,42.7-25.4-16.2-27.5-64.1,10.8-42.7Z"/>
  <path class="st14" d="M1556.2,611.8c-2.1,1.6-10.9-4-10-6.8,2.3-2.6,12,3.5,10,6.8Z"/>
  <path class="st2" d="M1429.3,752.5c-1.5-2.3-3.1-9,1-4.9,4.7,4,4,15.3-1,4.9Z"/>
  <path class="st9" d="M1271.2,790c-.2,1.3-7.2,3.3-7.9,1.1.5-2.1,6.9-2.5,7.9-1.1Z"/>
  <path class="st13" d="M443.8,1104.6c-1.3-7.6,8.9-17.9,15-10.1,9.7,13.7-11.3,31.4-15,10.1Z"/>
  <path class="st9" d="M864.3,1130.5c6,2.9-1.2,12.2-2.5,16.9-17.4,23.3-17.3-20.9,2.5-16.9Z"/>
  <path class="st9" d="M848.8,1133.8c-7.7,10.2-21.1-13.1-12-17.5,8.8-2.3,17.7,9.6,12,17.5Z"/>
  <path class="st13" d="M836.3,1254.2c-6.7-.9-27.2-27.1-15-27.3,4.9,6.2,18.6,21.3,15,27.3Z"/>
  <path class="st18" d="M866.7,1129.8c-4.6,1.4-26.5-13.9-18.4-17.8,9.6-3.6,25,8.7,18.4,17.8Z"/>
  <path class="st9" d="M870,1161.1c5.9,2.3,7.6,18.9.4,19.8-6.4-3.2-8-18.1-.4-19.8Z"/>
  <path class="st18" d="M814.4,1170.9c.3-9.1,19.8,8,15.2,14.2-5.7.5-12.6-9.7-15.2-14.2Z"/>
  <path class="st18" d="M835.9,1167c4.3,3.5,11.3,11.1,9,16.7-7.1,1.7-25.9-28.4-9-16.7Z"/>
  <path class="st13" d="M883,1203.1c-6.3-.8-7.5-18.9-4.3-23.7,5,3.8,7.7,18.3,4.3,23.7Z"/>
  <path class="st9" d="M837.8,1167c-10.7-20.1,17.6-2.1,11.8,6-4.4.5-9-2.7-11.8-6Z"/>
  <path class="st13" d="M857.7,1097.9c9.5-5.6,12.5,15.5,2.6,14.1-6.8-1.5-9.3-10.6-2.6-14.1Z"/>
  <path class="st13" d="M789.7,1211.9c0-10.9,19.4-5.7,18.3,2.7-1.9,4.9-17.3,1.7-18.3-2.7Z"/>
  <path class="st13" d="M442.6,1120.1c.8,7.8-17.8,19-12.2,4.8,1.6-5.3,12.7-16,12.2-4.8Z"/>
  <path class="st13" d="M742,1267.9c-5.8.1-11.1-10-11.2-15.7,4.2-4.8,13.3,11.8,11.2,15.7Z"/>
  <path class="st14" d="M334.4,1005.9c2.3,1.8,4.3,4.8,4.7,7.4-4.4,10.8-22.1-18.3-4.7-7.4Z"/>
  <path class="st13" d="M890.2,1182.5c9.1,21.2-10.7-1.5-9.7-10.5,2-3,8.8,8.3,9.7,10.5Z"/>
  <path class="st13" d="M808.7,1235.5c4.1,9.9-9.1.4-10.2-3.5-4-10.2,9-1,10.2,3.5Z"/>
  <path class="st18" d="M696.2,1249.8c-4.4-6,2.6-8.1,6.4-3.9,7.3,7.8-2,10.5-6.4,3.9Z"/>
  <path class="st18" d="M896.8,1183c-2.9-1.4-7.9-10.7-3.6-12.4,4.3.2,10.5,13.1,3.6,12.4Z"/>
  <path class="st9" d="M861.5,1251.6c-6.1-3.5-4.4-8.2,2.3-6.3,8.3,3.2,6.3,11.3-2.3,6.3Z"/>
  <path class="st13" d="M551.7,1034.9c4.4-10.3,9,.7,4.5,5.6-3.5,3.2-6.1-2.3-4.5-5.6Z"/>
  <path class="st2" d="M708.9,1268.7c-.4-3.6-1-9.7,1.5-12.4,2.9,1,1.3,24.6-1.5,12.4Z"/>
  <path class="st14" d="M754.3,1249.3c6.5,9.4-15.5,3-6.2-1.7,1.9-.3,4.7.5,6.2,1.7Z"/>
  <path class="st18" d="M863.9,1183.8c2.9,9.7-6.4,4.3-7.6-2.3-2-10.2,7.1-3.8,7.6,2.3Z"/>
  <path class="st14" d="M773.4,1238.4c3.3-1.6,7.3,6.3,4.9,8.6-3.6,2.3-8-6.3-4.9-8.6Z"/>
  <path class="st13" d="M781,1216.5c3.8-1.5,8.7,5.8,6,8.9-2.9,2.1-10.2-6-6-8.9Z"/>
  <path class="st13" d="M549.6,1035c-5.5,0-.7-10.6,1.9-11.3,5.1-.7,1.2,10.2-1.9,11.3Z"/>
  <path class="st18" d="M830,1271.8c-1.6-10.1,15.2-.8,7.3,3.2-2.6.7-6.4-.5-7.3-3.2Z"/>
  <path class="st14" d="M525.2,1102.8c-.3-4.3,7.9-3.7,8.4.2-.2,4.2-7.8,3.5-8.4-.2Z"/>
  <path class="st18" d="M875.7,1275c-1.5,1.3-8.6,2.7-7.9-.7,1.4-4.1,14.6-5.3,7.9.7Z"/>
  <path class="st18" d="M567.9,1196.2c4,6.1-7.8,2.9-8.8,0-2.8-5.6,7.3-2.5,8.8,0Z"/>
  <path class="st14" d="M879.5,1213.7c1.1,2.5,2,10.1-2.4,6.6-4.5-4.1-2.9-18.2,2.4-6.6Z"/>
  <path class="st18" d="M469.6,1093.2c5.2-3.2,3.2,9.2-.3,10-4.3,1.2-1.3-8.7.3-10Z"/>
  <path class="st18" d="M835,1201.4c-1.7,4.1-9.2-3.1-7.7-6.5,3-4.5,8.9,2.9,7.7,6.5Z"/>
  <path class="st18" d="M775.1,1264.5c2.9,0,6.5,8.6,3.8,10.3-3.3.7-6.9-9.2-3.8-10.3Z"/>
  <path class="st14" d="M656.4,1272.6c-3.1-1.2-3.8-7.3-2.5-10.2,2.4-2.7,4.5,9.7,2.5,10.2Z"/>
  <path class="st13" d="M846,1089c-1.9-2.7,3.7-9.9,7-9.5,1.2,2.2-4.5,9.9-7,9.5Z"/>
  <path class="st14" d="M826.2,1259.8c-.5-4.5,7.6-.4,8.3,2.1,1.5,5.4-7.9.2-8.3-2.1Z"/>
  <path class="st2" d="M857.6,1208c-.8-1.3-3.4-6.4-1.2-6.9,4.6.9,7.5,15.7,1.2,6.9Z"/>
  <path class="st14" d="M881.4,1234.7c2.5,1.5,1.8,6.8-1.4,7-6.1.1-3.4-8.5,1.4-7Z"/>
  <path class="st14" d="M829.1,1045.9c1.6.7,1.6,13.1-.3,13.2-1.2-1.9-1.4-11.8.3-13.2Z"/>
  <path class="st14" d="M862.1,1193.2c1.7-1.6,9.7-.7,6,2.3-1.8,1.9-10.7,1-6-2.3Z"/>
  <path class="st18" d="M863.9,1204.6c.6-8.8,6,1.7,3.5,4.9-2.2,2.3-3.5-3.2-3.5-4.9Z"/>
  <path class="st2" d="M822.6,1054.2c-1.9,1.2-7.4-2.6-6.5-4.9,1.6-2.8,9.2,1.6,6.5,4.9Z"/>
  <path class="st14" d="M829.5,1272.5c-2.5,5.8-8.6-7.9-3.4-6.2,1.8,1.1,3.5,4.2,3.4,6.2Z"/>
  <path class="st18" d="M817.8,1265.3c-3.2.4-4.9-7.4-1.6-8.1,3,0,4.7,7.1,1.6,8.1Z"/>
  <path class="st19" d="M617,977.6c6.2,2-5,9.2-4.6,3.3.4-1.9,2.6-3.6,4.6-3.3Z"/>
  <path class="st15" d="M850.9,1071.4c.4-1.6,2.9-3.4,4.6-3.7,2.8.5-3.7,5.5-4.6,3.7Z"/>
  <path class="st15" d="M851.4,1071.6c0,.4-.8,1.2-.9.5-.2-.6.8-1.4.9-.5Z"/>
  <path class="st15" d="M354.6,1041.5c0,.1-.8,0-1-.2-.4-.4.9-.1,1,.2Z"/>
  <path class="st9" d="M1151.9,1228.7c1.9,3.4.6,8.3-2.2,11-16.4,13-10.7-29.6,2.2-11Z"/>
  <path class="st19" d="M257.7,535.9c5.8-9,72.4,65,55.7,68.8-13,0-22.1-1.1-28,10-12.4,1-35.8-49.2-31.4-53.5.9.4,16,17.3,14.2,10.7-5.7-11.3-10.4-23.2-10.5-36.1Z"/>
  <path class="st9" d="M400.3,174.4c-11.9,2-27.3,15.8-38,20.3,7-14.9,39-26.4,56.1-35.8,18.9-15.8,114.3-32.8,39.3-8.7-50.5,11.5-73.2,54.8-107.6,87-32.5,12.3,43.5-56.3,50.2-62.8Z"/>
  <path class="st9" d="M604.2,219.9c8.8,15.9-13.9-5.1-18.6,3-1.8,1.6-3.5,3.9-5.9,2.1-8.3-11.2-39.1-34.2-36.9-43.6,35,32.6,15.7-35.7,61.4,38.3M578.6,213.4c1.2-.9-.3-8.2-2.4-6.5-1.8,1.1.1,7.7,2.4,6.5Z"/>
  <path class="st9" d="M341.9,247.7c-14.5,15.4-24.6,111.7-27.1,87.7-5.8-17.2,15.4-96.3,27.1-87.7Z"/>
  <path class="st9" d="M367.9,594.1c-7.8,8.5-26.7.2-33.4,12-41.3-10.6,24.3-30.4,33.4-12Z"/>
  <path class="st9" d="M546.4,137.4c-9.1,9.1-28.1,6.2-40.7,5.9-46-6.4,34.2-15,40.7-5.9Z"/>
  <path class="st13" d="M310.7,463.3c-1.4,13.1,20.5,55.6,11.6,56.7-12.2-12.5-25.4-109.5-11.6-56.7Z"/>
  <path class="st9" d="M777.5,207c9.8-4,46.6,13.5,25.1,19.1-6.4-.6-48.2-14.9-25.1-19.1Z"/>
  <path class="st13" d="M311.3,348.8c-14.8-6.2-22.1-48.1-3.5-53.6,3.4,3.7-1.6,19.9-.9,25.9-1.2,8,8.7,22.3,4.3,27.7Z"/>
  <path class="st13" d="M337.1,281c1.4-15.7,32.7-32.8,31-53.8,32.9-5.9-25.3,45.4-31,53.8Z"/>
  <path class="st13" d="M315.3,436.7c-14.8-7.9,29-14,34.4-10,2.3,6.9-27.5,7.8-34.4,10Z"/>
  <path class="st18" d="M327.8,372.6c2.9-6.1,11-27.8,16.2-29.8-1.6,11.7-16.1,38.2-20.1,50.4-4.4-.2,2.6-16.5,3.9-20.6Z"/>
  <path class="st13" d="M371.7,316c-4.9,4-17.8,19.5-21.4,14.9,5.8-9.8,21.2-26.9,30.5-33.8,8.2-.3-5.7,15.6-9.2,18.9Z"/>
  <path class="st9" d="M234.9,506.3c2.5-4.8,6.3-11.3,11.8-11.6,29.3,2.6-17,33.5-11.9,11.7M251,502.9c.1,0,.6.3.7.1,0-.1-.6-.4-.7-.1Z"/>
  <path class="st9" d="M362,265.4c-2.7-5.7,11-23.7,17.4-24.1,2.8,7.5-9.6,22.6-17.4,24.1Z"/>
  <path class="st18" d="M348.3,328.2c-4.8,8.5-15.8,30.4-23.7,32-.3-5.4,27.6-49.5,23.7-32Z"/>
  <path class="st18" d="M959.1,480.7c9.3-17.9,1.8,38.6-4,26.4-1.5-7.7,1.1-19.4,4-26.4Z"/>
  <path class="st18" d="M317.9,437.4c7.2-.7,6,30.7.5,29.6-4.5-7.7-6.9-22.9-.5-29.6Z"/>
  <path class="st14" d="M374.7,292.8c12.7-13.5,30.8-19.5,7.4.2-9.7,9.9-23.2,14.3-7.4-.2Z"/>
  <path class="st18" d="M345,359.4c20.5-31.4.6,16.4-8.3,20.6-2.2-.6,6.8-18.4,8.3-20.6Z"/>
  <path class="st18" d="M664.5,158.9c-4.5,7.1-14.5-15.8-8.5-18.4,5.2,1.8,8.9,13.4,8.5,18.4Z"/>
  <path class="st14" d="M325.9,370.7c-6.6,6.5-16-7.1-16-13.5,1.7-7.7,21.6,7.8,16,13.5Z"/>
  <path class="st13" d="M938.6,452c-4.4-2.5-7.6-22.5-2.7-24.2,3,1.9,6.8,23.7,2.7,24.2Z"/>
  <path class="st9" d="M260.5,426.3c-6,.7-28-8.8-11.5-8.1,6.5-.4,30.5,9.3,11.5,8.1Z"/>
  <path class="st18" d="M317.5,380.8c5.8-1.4-1.5,18.9-3.3,23.7-6.4,6.1.4-20.6,3.3-23.7Z"/>
  <path class="st13" d="M360.5,313.5c-1,1.5-10,12.3-10.7,9.1.4-10.5,24.8-29.6,10.7-9.1Z"/>
  <path class="st18" d="M340.7,211.2c2.1-3.6,10.9-13.2,15.3-12,2.1,5.6-22.8,27.8-15.3,12Z"/>
  <path class="st9" d="M560.2,215.5c-10.3-15.3,7.7-6,8.4,3.6,1,7.8-6.5-.5-8.4-3.6Z"/>
  <path class="st9" d="M591.9,290.4c5.2-3.4,17.3-2.9,7.7,3.4-7.9,7.2-22.7,4.5-7.7-3.4Z"/>
  <path class="st8" d="M342.6,252.1c-8.9,5.4-2-12.1,1.1-14.2,9.5-7.5,2.8,12.1-1.1,14.2Z"/>
  <path class="st18" d="M425,416.7c7.7-4,8.5,6.9,1.5,8.7-7.6,2.7-6-6.1-1.5-8.7Z"/>
  <path class="st14" d="M257.2,540.7c-5.1-.6-7.7-12.7-3.7-16.1,4.8-.4,6.7,13.8,3.7,16.1Z"/>
  <path class="st18" d="M565.4,236.5c6.1,15.3-6.3,2.1-8-4.1-3.6-10.7,6.9-.6,8,4.1Z"/>
  <path class="st14" d="M388.5,510.1c-4.4.8,3.4-9.1,5.3-10.5,12.5-8.7.9,11.8-5.3,10.5Z"/>
  <path class="st18" d="M289.5,426.6c12.9,10.4-8.8,4.5-10.8-2.3-3.3-6.9,8.9,1,10.8,2.3Z"/>
  <path class="st13" d="M373.3,316.1c8.1-3,1.3,9.1-2.4,10.3-8.3,3.9-1.1-9.1,2.4-10.3Z"/>
  <path class="st18" d="M529,184.2c-13.2-5.3,7.1-8,7.8-.9-1.4,2.4-5.4,1.7-7.8.9Z"/>
  <path class="st13" d="M311.5,347.7c3.5-2.2,12.4,4.4,10.9,8.6-3.1,2.4-11.9-5.2-10.9-8.6Z"/>
  <path class="st14" d="M322.5,410.8c-.6,2.9-1.8,6.1-3.3,8.2-7.9.5,7.1-32.7,3.3-8.2Z"/>
  <path class="st13" d="M549.9,220.9c-4.4-2.2-8.4-14.5.2-9.3,5.8,3.3,10,16.8-.2,9.3Z"/>
  <path class="st14" d="M330.5,497.5c-3,.4-7.9-12.8-6.6-15.5,4.1-.6,8.6,12.3,6.6,15.5Z"/>
  <path class="st14" d="M521,188.1c2.2-3.4,11.6,7,14,9.3,8.6,12.7-14.1-5.4-14-9.3Z"/>
  <path class="st9" d="M314.8,609.4c-2.1,6-8.7.9-6.7-3.9,2.4-4.7,8.7-.6,6.7,3.9Z"/>
  <path class="st18" d="M379.2,212c-3.4-1.2,5.6-8.5,7.2-8.9,9.8-3.1-3.2,10.3-7.2,8.9Z"/>
  <path class="st9" d="M404.8,274c-.4,4.2-9.3,6-9.5,1,.7-3.6,10-5.7,9.5-1Z"/>
  <path class="st14" d="M910.1,238.1c-1.7,1.2-12-6.9-12.2-9.2,3.3-2.2,11.9,5.8,12.2,9.2Z"/>
  <path class="st14" d="M553.1,235c-1.2.8-11.4-9.7-8.3-9.8,2.2.2,10,7.9,8.3,9.8Z"/>
  <path class="st2" d="M272.9,406.7c1.5,5-4,5.9-5.4,1.2-1.6-7,3.1-8.4,5.4-1.2Z"/>
  <path class="st14" d="M336.7,504.7c1.2,9.2-7,.3-6.2-3.9.2-5.9,6.3,1.1,6.2,3.9Z"/>
  <path class="st14" d="M595.9,209.5c1.6-12.5,14.6,12.7,2.2,4.5-1.2-1.2-1.9-2.9-2.2-4.5Z"/>
  <path class="st13" d="M383.1,227.8c-1.1-2.4,4.6-12.8,6.9-8.3.4,2.9-3.4,10.1-6.9,8.3Z"/>
  <path class="st2" d="M333.9,386.6c3.6-6.9,3.9,6.1.3,7.5-2.2-.2-1-6-.3-7.5Z"/>
  <path class="st18" d="M802.2,133.9c4,2.7-4.9,6.4-7,3.9-2.4-3.5,4.8-4.8,7-3.9Z"/>
  <path class="st13" d="M857,231.4c2.6,1.1,7.2,4.4,7.2,7.5-2.7,2.2-14.8-9.2-7.2-7.5Z"/>
  <path class="st14" d="M544.4,234.7c-1.7,1.1-9.9-7.1-5.9-7.5,2.3-.1,8,5.3,5.9,7.5Z"/>
  <path class="st14" d="M358.2,339.5c7.3-5.2,0,8.2-2.4,8.6-4.9,2,.5-7.8,2.4-8.6Z"/>
  <path class="st2" d="M304.2,293.1c-2.1,2.5-6.7-1.1-6.9-3.7.6-3.5,9.5-.1,6.9,3.7Z"/>
  <path class="st18" d="M894,226.6c-2-.5-8.8-6.9-3.7-6.2,4.2.2,12.1,9.3,3.7,6.2Z"/>
  <path class="st13" d="M691.4,119.8c-4.7,2.5-2.5-7.9.9-4.8.9,1.4.3,3.8-.9,4.8Z"/>
  <path class="st15" d="M821.4,230.2c11.4,10.3-10.7-.3-5-2.4,1.7.1,3.6,1.2,5,2.4Z"/>
  <path class="st14" d="M542.6,197.5c-2,.7-8.9-3.4-6.4-5.4,2.5-.2,7.3,3.3,6.4,5.4Z"/>
  <path class="st15" d="M326.5,235.6c-.5-1.7,3.8-6.9,5-4.1,0,2.1-3.6,5.3-5,4.1Z"/>
  <path class="st14" d="M542.9,196.8c1.4-.8,6.9,3.2,3.7,3.6-1.3,0-4.7-2.6-3.7-3.6Z"/>
  <path class="st9" d="M347.7,243.6c-.4,0,0-2.2.3-2.3.5-.4,0,2.2-.3,2.3Z"/>
  <path class="st13" d="M383.2,228c0,.6-1.1,1.4-1.6,1.2-.5-.6,1.4-2.4,1.6-1.2Z"/>
  <path class="st9" d="M340.9,241.9c.2,0,0,1.6-.4,1.4-.3,0,0-1.7.4-1.4Z"/>
  <path class="st15" d="M327.2,236.1c.4,1-1,1.6-1.4.5-.4-1.1,1.1-1.5,1.4-.5Z"/>
  <path class="st19" d="M598.8,178.8c-.4,0-.7-1.1,0-1,.6,0,.8,1.2,0,1Z"/>
  <path class="st15" d="M875.7,158.5c-3.5,1.3-15.1,1.7-14.2-3.9,2.1-3.8,23.2-1,14.2,3.9Z"/>
  <path class="st18" d="M856.7,160.1c6.9,7.2-13.8,4.4-14.8-.6,2.5-4.3,11.5-1.8,14.8.6Z"/>
  <path class="st19" d="M851,170.9c0-3,7.5-2.4,9.9-1.4,1.4,2.9-8.4,2.9-9.9,1.4Z"/>
  <path class="st9" d="M482.9,700c7.2,4.2-3.2,7.9-5.8,3.1-2-3.6,3.3-4.8,5.8-3.1Z"/>
  <path class="st15" d="M464.9,658.6c0-.4.3-.9.6-.9,1.1.2-.3,2.7-.6.9Z"/>
  <path class="st2" d="M567.4,546.5c-3.2,2.3-11.5-5-5.3-5.7,2.8,0,9.4,3.2,5.3,5.7Z"/>
  <path class="st2" d="M635.3,648.8c-1.5-.8-2-8.6.2-8.6,2.5,1.1,3.1,8.6-.2,8.6Z"/>
  <path class="st18" d="M916.2,1222.4c5.9,9.2-11.7,15-17.9,10.3-3.9-7.8,12.5-14.7,17.9-10.3Z"/>
  <path class="st13" d="M918.9,1236c-.1,4.1-10.6,14.3-12.4,7.2-1.6-5.5,12.3-18.9,12.4-7.2Z"/>
  <path class="st14" d="M901.2,1236.3c8.3.3-1.3,7.1-5,6.3-7-.9,1.8-6.8,5-6.3Z"/>
  <path class="st12" d="M581,108.3c-2-.8-2.5-7.1-.7-8.3,2.9-.8,5.2,8.7.7,8.3Z"/>
  <path class="st20" d="M530.1,331.9c-3,2.6-11.1,1.5-12-2.2.9-5.2,15.7-4.1,12,2.2Z"/>
  <path class="st9" d="M550.4,730.3c-5-3.1-1.7-16.8,4.8-14.6,5.6,3.4,2.6,18.9-4.8,14.6Z"/>
  <path class="st14" d="M715.1,36.9c-3.2-.6,1.9-10.1,4-9.8,2.2,2.4-1.5,8.6-4,9.8Z"/>
  <path class="st16" d="M845.9,1130.1c-.4,0-.7-.3-.8-.5-.6-1.4,2.5.2.8.5Z"/>
  <path class="st10" d="M406.4,170.4c0-.1.8.2.9.4.3.4-.9-.1-.9-.4Z"/>
  <path class="st10" d="M578.1,213.3c-2.2.6-3.5-5.2-1.6-6.6,1.9-.8,2.9,5.9,1.6,6.6Z"/>
  <path class="st10" d="M598.2,213.3c.1-.3,1.4,0,1.3.4,0,.4-1.5,0-1.3-.4Z"/>
  <path class="st10" d="M599.3,214.4c.1-.3,1.4,0,1.3.4,0,.4-1.6,0-1.3-.4Z"/>
  <path class="st10" d="M597.2,212.2c.1-.3,1.4,0,1.3.4,0,.4-1.5,0-1.3-.4Z"/>
  <path class="st10" d="M596.2,211.1c0-.3,1.8.2,1,.5-.4,0-1,0-1-.5Z"/>
  <path class="st10" d="M251.3,502.6c.1,0,.6.4.4.5,0,.1-.7-.4-.4-.5Z"/>
</svg>