<?xml version="1.0" encoding="UTF-8"?>
<svg xmlns="http://www.w3.org/2000/svg" version="1.1" xmlns:xlink="http://www.w3.org/1999/xlink" viewBox="0 0 1000 1000">
  <!-- Generator: Adobe Illustrator 29.7.0, SVG Export Plug-In . SVG Version: 2.1.1 Build 138)  -->
  <defs>
    <style>
      .st0 {
        display: none;
      }

      .st0, .st1 {
        opacity: .4;
      }
    </style>
  </defs>
  <g id="Layer_4" class="st0">
    <image width="6000" height="4000" transform="translate(0 272.8) scale(.2 .2)" xlink:href="C:\Users\lukec\Downloads\Adobe Express - file.png"/>
    <g class="st1">
      <path d="M1212,421.1c1.9,0,1.9-3,0-3s-1.9,3,0,3h0Z"/>
    </g>
  </g>
  <g id="Layer_2">
    <path d="M86.5,1003.2c23.3-24.5,50.9-43.8,80.3-60.4,31-17.6,63.1-33.5,94.7-49.9,5.1-2.7.6-10.4-4.5-7.8-32.1,16.7-64.7,32.8-96.2,50.8-29.4,16.8-57.2,36.4-80.6,61-4,4.2,2.4,10.6,6.4,6.4h0Z"/>
    <path d="M224.3,645c-12.6,22.2-3.8,46.8,1.9,69.7,6.5,26.2,4.8,53.3,7.2,80,2.2,25.4,7.7,50.5,16.6,74.4,8.4,22.9,19.4,45.4,35,64.4,16.3,19.8,38.7,35.3,64.5,38.9,5.7.8,8.1-7.9,2.4-8.7-47.3-6.7-75.2-50.9-91.2-91.9-8.7-22.4-14.7-46-17.5-69.9-2.8-24.6-1.6-49.5-5.1-74-3.6-24.9-19.6-54.1-5.8-78.4s-4.9-9.6-7.8-4.5h0Z"/>
    <path d="M601.7,692.3c-1.5,65.8-10.2,132.6-29,195.8-4.2,14-9.4,27.7-17.6,39.9-7.6,11.2-17.8,20.3-29.5,27-23.3,13.5-50.7,18.1-77.3,19.2-37.3,1.5-74.5-3.3-110.2-14.1s-7.9,7-2.4,8.7c32.8,9.9,67,14.9,101.3,14.7,28.3-.2,57.3-3.7,83.2-15.6,26.8-12.2,44.9-33.6,55.5-60.8s9.5-30.1,13.2-45.3c4.1-17.2,7.7-34.6,10.6-52,6.6-38.8,10.3-78.1,11.2-117.4.1-5.8-8.9-5.8-9,0h0Z"/>
    <path d="M344.2,564.6c-17.9-.2-36.4-.2-52.9,7.7s-24.6,20.9-28.5,37c-7.8,31.7-3.9,71.5,21.3,94.6s58.6,19.8,83.4,2.3c25.6-18.1,39-50.6,39.9-81.4.5-17.4-4.2-35.5-18.4-46.7-13.7-10.8-31.8-12.9-48.6-14.7-5.8-.6-5.7,8.4,0,9,13,1.4,26.8,2.9,38.3,9.5,12.5,7.2,18.5,20.2,19.6,34.2,2,26.8-7.9,56.6-27.3,75.5-18.9,18.4-50.2,25.9-73.5,11.1s-31.3-51-28-79.5c1.9-16.2,7.5-32.2,22.2-41s34.9-9,52.6-8.8c5.8,0,5.8-8.9,0-9h0Z"/>
    <path d="M403.2,627.1c16.6-11.3,38.7-11.3,55.2.1s9.3-4.5,4.5-7.8c-19-13.1-45.3-13.1-64.3-.1s-.3,11,4.5,7.8h0Z"/>
    <path d="M532.7,584.2c-15.4.5-31.4,1.3-45.8,7s-25.6,16.6-31.3,31.5c-11,28.6-3.8,63.7,15.6,86.9,18.5,22.1,49.1,31,76.6,22.4s25.5-12.8,33.5-24.8c9.4-14.1,13.1-31.1,16.5-47.4s4.1-20.7,2.2-31-6.1-16.1-12.2-22.1c-14.3-14.2-34.5-18.1-53.7-21.3-5.7-.9-8.1,7.7-2.4,8.7,15.3,2.6,31.6,5.1,44.4,14.5,13.4,9.7,17.3,23.7,14.8,39.6-4.2,26.9-11.1,59.2-37.9,72.2-22.4,10.9-50.7,6.5-68.9-10.3s-27.9-46.4-23.3-72.1,11.4-30.4,27-37.4,29.9-6.9,45-7.4c5.8-.2,5.8-9.2,0-9h0Z"/>
    <path d="M595.4,637.2l15.7-.8c5.8-.3,5.8-9.3,0-9l-15.7.8c-5.8.3-5.8,9.3,0,9h0Z"/>
    <path d="M267.2,599.2c-6-1.5-12-3-18-4.5s-8,7.3-2.4,8.7c6,1.5,12,3,18,4.5s8-7.3,2.4-8.7h0Z"/>
    <path d="M236.2,671.4c-21.4-29.8-35.6-64.3-41.4-100.6-1.5-9.2-2.3-18.4-2.6-27.7s-.5-18.7,1.4-27.8,2.7-8.9,5-13.1,4.1-7.3,4.5-11.5c.6-6.3-3-13.3-9.7-14.4v8.7c13-5,23.8-13.3,31.9-24.6s-4.4-9.2-7.8-4.5c-6.6,9.2-15.8,16.4-26.5,20.4-3.6,1.4-4.9,7.9,0,8.7,8.4,1.3-2.9,17.4-4.3,21.3-2.8,7.9-3.4,16.5-3.6,24.7-.3,16.9,1.3,33.8,4.5,50.4,6.6,33.9,20.7,66.3,40.8,94.3,3.4,4.7,11.2.2,7.8-4.5h0Z"/>
    <path d="M228.8,446c-11.7-3.4-21.4-11-27.5-21.6l-5.1,6.6c14.4,2.1,31,4,43.5-5.3s11.4-12.8,16.4-19.5,11.4-15.2,17.1-22.8c20.1-26.5,43.3-54.1,76.4-63.9,17.8-5.2,37.1-5,53.6,4.1,3.8,2.1,8.7-2.3,6.2-6.2-20-30.2-57-46.2-92.7-40.3-5.7.9-3.3,9.6,2.4,8.7,31.5-5.2,65,9.6,82.6,36.2l6.2-6.2c-28.7-15.9-64.3-8.5-90.4,9.3-28.9,19.7-48.9,49.7-69.5,77.3-5.9,7.9-11.2,17-21.2,19.9s-18.8,1.4-28,0-7.2,2.9-5.1,6.6c7.2,12.6,18.9,21.7,32.8,25.7s8-7.1,2.4-8.7h0Z"/>
    <path d="M424.3,323.6c-8.3-4,1.9-12.9,5.9-15.6,7-4.6,14.5-8.5,22.4-11.4,13.4-5,32.2-10.9,42.5,2.6s6.5,12,8.8,18.3,6,16.5,5.5,25.3c-.8,15.6-12.9,27.7-23.2,38.1-4.1,4.1,2.3,10.5,6.4,6.4,10.3-10.5,21.4-22.1,24.8-36.8s-2.9-32.1-9.1-46.2-16.5-22.9-32.1-22.3-32.4,7.5-46,15.5-14.1,8.5-16.8,16.1c-2.3,6.6-.1,14.6,6.4,17.8,5.2,2.5,9.8-5.2,4.5-7.8h0Z"/>
    <path d="M464.2,368.7c-1.8-6.3-5.4-11.5-9.3-16.6-4.2-5.4-9.5-11.5-9.5-18.7s6.7-10.5,13-12.2,14.8-3.3,22.3-2.7,13.3,2.9,17.9,7.7,6.5,13.2,2.2,18.9-9.6,6.7-14.5,9.1-9.4,5.5-12.8,10.2,4.4,9.2,7.8,4.5c6.8-9.2,20.7-9.4,27.3-19.3s2.8-25.2-6.9-32.8-25.4-8.5-38.4-6-25.2,6.6-26.6,20.3,15,25.4,19,39.9,10.2,3.2,8.7-2.4h0Z"/>
    <path d="M428.8,420.7c-2-30.9-26.8-54.4-55.2-62.9-16.7-5-34.5-5.5-51.7-3.7-15.8,1.7-34.2,4.1-45.3,16.8-10,11.5-10.5,31.7,5,39s9.8-5.3,4.5-7.8c-7.5-3.5-9.7-12.4-6.4-19.8s10.8-12.2,18.3-14.7c16.7-5.7,36.5-6.6,53.8-4.9,31.5,3,65.8,23.3,68,58s9.4,5.8,9,0h0Z"/>
    <path d="M409.8,416.6c-11.4-21.9-31.7-38.8-55.5-45.6-25.7-7.4-54.3-2.4-76.3,12.7s-.2,11.1,4.5,7.8c20.1-13.8,45.7-18.6,69.3-11.8s39.7,21.6,50.1,41.4,10.4.6,7.8-4.5h0Z"/>
    <path d="M370.9,427.8c-7.2-14-18.4-25.8-32.1-33.7s-35-17.1-39.5,1.1,7.3,8,8.7,2.4c2.6-10.4,27.9,5,32.6,8.4,9.6,6.8,17.2,16,22.6,26.4s10.4.6,7.8-4.5h0Z"/>
    <path d="M343.9,436.9c-23.6-19.5-59.2-16.4-81.5,3.6s-30.6,58.1-22.2,88.7c5.2,19.1,15.5,36.4,28,51.7,3.7,4.5,10-1.9,6.4-6.4-18.8-23-32.3-52.5-28.4-82.8,3.5-27.2,21.3-52.4,49.3-58.1,14.6-2.9,30.6,0,42.2,9.5s10.8-2.7,6.4-6.4h0Z"/>
    <path d="M437,412.5c13.9-11.5,33.1-2.4,44.7,7.8s24.6,25.7,35.6,39.3c22.2,27.5,41.1,58.2,51.2,92.3,1.6,5.5,10.3,3.2,8.7-2.4-8.7-29.5-23.8-56.6-41.9-81.3s-18.9-24.2-29.1-35.6c-9.9-11.1-20.3-23.2-33.9-29.8s-29.7-6.6-41.5,3.2,1.9,10,6.4,6.4h0Z"/>
    <path d="M573.3,534.3c-3.3,17.8,1.3,36,13.7,49.4,7.6,8.2,29.7,24.6,39.9,12s-2.7-10.9-6.4-6.4-11.9-.6-15.5-2.7c-5.3-3-10-7-13.8-11.8-8.5-10.7-11.7-24.8-9.2-38.2,1.1-5.7-7.6-8.1-8.7-2.4h0Z"/>
    <path d="M823.7,1000c-.3-19.8-12.3-35.7-24.6-50.1-6.4-7.6-13.1-15-18-23.7-5.3-9.3-8.2-19.6-11.1-29.8-5.4-19.2-12.5-37.5-22.3-55-9.8-17.4-21.5-33.6-34-49.2s-29.8-33.6-37.2-54.9l-3.1,5.5c34.1-4.9,65.9-20.6,91.1-44,4.2-4-2.1-10.3-6.4-6.4-24.1,22.4-54.5,37-87.1,41.7-2.3.3-3.9,3.5-3.1,5.5,6.4,18.1,18.2,33,30.4,47.7,12.8,15.4,25.1,31.1,35.6,48.1,10.5,16.8,19.1,34.7,24.8,53.7,2.9,9.7,5.2,19.7,8.9,29.1,3.5,9,8.3,17,14.2,24.6,13.3,17.1,32.6,33.6,33,57,0,5.8,9.1,5.8,9,0h0Z"/>
    <path d="M727.3,707c-10.3-19.6-26.5-34.9-44.1-48.1-9-6.7-18.5-12.9-28-19-9.3-6-19.7-12.2-31.1-8.6s-9.5,4.8-14.4,6.7-10.4.6-15.9.3c-9.5-.6-18.2,5.3-16.3,15.8,2.1,11.5,13.6,14.9,23,18.7s19.3,9.3,27.9,15.6c19.6,14.2,34.9,33.9,44.3,56.1s10,.7,7.8-4.5c-14.7-34.6-43.4-62.4-78.3-76.1-4.5-1.8-10.1-3.2-13.6-6.9s-2.6-3.8-2.3-6.1c.4-3.3,3.3-3.7,6.1-3.7,4.2,0,8.3,1.2,12.5,1s8.9-2,13-4.1,8.6-5,13.7-4.9,11.5,3.6,16.3,6.7c8.6,5.4,17.2,11.1,25.5,17,18.4,13.1,35.5,28.4,46.1,48.6,2.7,5.1,10.5.6,7.8-4.5h0Z"/>
    <path d="M612.2,627.2c-10.2-2.4-22.9-5.1-27.7-15.6-4.8-10.5,4.7-18.3,14.6-18.8s25.3,6,36.7,10,25.2,8.8,37.8,13.2c5.5,1.9,7.8-6.8,2.4-8.7-16.4-5.7-32.7-11.5-49.1-17.2s-27.6-9.9-40.8-3c-10.8,5.7-14.7,18-9.3,28.9s20.3,16.8,33,19.8,8-7.4,2.4-8.7h0Z"/>
    <path d="M723.8,586.2c-7.2-10.7-16.8-22.8-31.2-20.8s-17.5,15.4-18.7,27c-2.8,26.1,3.3,53.1,16.1,76,7.3,13.2,17,25,28.4,34.8,4.4,3.8,10.8-2.6,6.4-6.4-21.3-18.3-35.5-43.5-40.6-71.1-2.4-12.9-3.4-27.9,0-40.8s6.6-12.3,14.5-10.4,13.1,9.7,17.4,16.2c3.2,4.8,11,.3,7.8-4.5h0Z"/>
    <path d="M718,591c-4.6,30.9,6.8,60.2,20.8,87.3,6.3,12.2,12.6,27.5,23.5,36.5s22.9,9.4,31.7.3,9.1-21.6,5.6-32.4c-2.3-7.1-5.9-13.6-9.3-20.2s-6.5-14.5-8.6-22.2c-2.1-7.7-3.4-15.5-3.8-23.5-.4-7.7.3-15.2.4-22.9,0-13.1-3.3-26-15-33.3-11-6.9-25.8-6.6-35.9,1.8-9.9,8.3-13.9,22.9-9.4,35,2,5.4,10.7,3,8.7-2.4-3.4-9-1-19.6,6.5-25.9s18.8-5.7,26.6-.1,9.7,20.6,9.2,31.8c-.5,12.3,0,24.5,2.7,36.6s7.5,23.3,13.2,34.3c4.9,9.6,10.5,20.8,6,31.7-4.6,11.3-16.8,10.7-24.7,3-8.4-8.1-13.5-20.7-18.9-30.9-13.1-25-25-53.1-20.8-82,.8-5.7-7.8-8.1-8.7-2.4h0Z"/>
    <path d="M796.5,697c1.5,12.5,14.7,19.3,26,13.8,13.3-6.5,15.5-22.5,12.6-35.6-1.8-7.8-5.7-15-7.5-22.8-2-8.9,4.7-12.7,8.9-19.5,7.6-12.3,5.6-27.6,3.6-41.2-.8-5.7-9.5-3.3-8.7,2.4,1.6,10.8,3.5,23.7-2.3,33.6-2.6,4.5-6.9,7.7-9.3,12.4s-2.1,10.3-.8,15.5c3.1,11.5,10.3,22.9,7.8,35.3-1,5.1-4.1,10.3-9.2,12.2-4.7,1.8-11.6-.4-12.2-6.1s-9.7-5.8-9,0h0Z"/>
    <path d="M834.8,619.8c9.6-.7,17-6.2,23.8-12.7s14.8-16.5,25.2-15.1,8.1-7.9,2.4-8.7c-10.1-1.4-18.5,3.1-26,9.6s-14.6,16.9-25.4,17.8-5.8,9.4,0,9h0Z"/>
    <path d="M776.6,595.7c9.7-2.9,11.4-12.1,14.4-20.5s5.5-8.2,11.6-8.1c5.4,0,10.9,1.6,16.2,2.7,24.2,5,48.4,10,72.7,15,5.7,1.2,8.1-7.5,2.4-8.7-25.5-5.3-51-10.5-76.5-15.8s-19.6-4.5-27.7,1.4-6.1,7.3-7.6,11.9-2.4,11.8-7.9,13.4c-5.5,1.7-3.2,10.3,2.4,8.7h0Z"/>
    <path d="M381.5,710.7c-2,11.6-3.6,23.3-4.6,35s-2.8,22.1,1.1,31.9c8.3,20.6,33.3,11.7,48.5,20.9,5,3,9.5-4.8,4.5-7.8-7.4-4.5-15.7-5.1-24.1-6s-17.8-2.6-20.9-11-.9-20.1-.1-29c.9-10.6,2.3-21.1,4.2-31.6,1-5.7-7.7-8.1-8.7-2.4h0Z"/>
    <path d="M425.6,786.8c-7-10.8-22.1-25.1-36.3-19.8s-10.1,7.6-9.1,13.8,7,10.5,13.4,9.4,3.3-9.7-2.4-8.7c-1.7.3-2.3-2-2-3.2s1.9-2.4,3.1-2.9c3.5-1.4,7.6.2,10.6,1.9,6.2,3.3,11.2,8.2,15,14.1s10.9.3,7.8-4.5h0Z"/>
    <path d="M350.4,858.6c46-4.7,92.3-6.2,138.5-4.5,5.8.2,5.8-8.8,0-9-46.2-1.7-92.5-.2-138.5,4.5s-5.8,9.6,0,9h0Z"/>
    <path d="M356,852.7c20.6.4,36.5-14,55.7-18.8,11.2-2.8,23.3-.6,34.5,1.2s21.1,4.5,29.8,11.2,9.1-4.3,4.5-7.8c-8.6-6.6-19-9.8-29.6-11.7-11.5-2-24-4.3-35.7-2.8-20.9,2.8-37.8,20-59.3,19.6-5.8-.1-5.8,8.9,0,9h0Z"/>
    <path d="M355.5,862.5c25.5,7.7,51.9,12.3,78.5,13.6,19.5.9,42.1.2,54.8-17s-4.4-9.2-7.8-4.5c-11.4,15.5-35.9,13.3-52.7,12.2-23.9-1.6-47.5-6-70.4-12.9s-7.9,7-2.4,8.7h0Z"/>
    <path d="M336.9,861c-13.1,6.7-12.9,25.2-4.5,35.5,11.7,14.3,34.6,16.8,51.4,20.5,21.5,4.7,43.5,8.2,65.5,7.2,18.4-.8,40.2-4,54.7-16.4,12.8-11.1,16.3-33.8.3-43.8s-9.5,4.7-4.5,7.8c12.4,7.7,5.1,24.7-4.2,31.3s-30.9,11.5-46.2,12.2c-17.5.8-34.9-1.3-52-4.6-8.4-1.6-16.7-3.5-25-5.4s-15.1-3.3-22.1-6.5-12.4-7.3-14.3-14.4-.4-12.5,5.4-15.4.6-10.4-4.5-7.8h0Z"/>
    <path d="M248.7,660.4c-2.5,37.7,2.3,75.9,13.8,111.9,5.6,17.6,12.9,34.8,21.7,51.1,4.6,8.5,9.5,16.8,14.9,24.8s9.3,11.1,17.6,7.1c8.8-4.2,17.1-10,25.5-14.8,8.9-5.1,18-10,27.3-14.4,18.2-8.6,37.7-15.1,57.9-16.3,20.6-1.2,39,3.9,57,13.4s32,19,50.2,20.6,18.1-1.4,24.3-8.1,10-17.2,15.7-25.1c12.2-16.8,27.8-33.4,23.8-55.9-1-5.7-9.7-3.3-8.7,2.4,3.3,18.6-11.8,34-21.9,47.6-5.1,6.9-8.4,14.7-13.2,21.9-5,7.6-13.4,9.3-22,8-16.9-2.5-31.9-13.1-46.8-20.8-15.9-8.2-32.6-13.2-50.6-13.3-37.2-.3-71.1,16.7-102.5,34.9-3.7,2.1-7.3,4.3-11,6.5s-9.8,7.6-12.8,5.1-5-7.4-6.9-10.4-4.7-7.7-7-11.7c-8.6-15.2-15.9-31.2-21.6-47.7-13.1-37.5-18.5-77.2-15.9-116.8.4-5.8-8.6-5.8-9,0h0Z"/>
    <path d="M311.3,656.3c9.1-10.5,22.2-20.1,36.9-18.2s24.9,13.2,34.3,22.9,10.4-2.2,6.4-6.4c-11.3-11.6-24-23.8-40.8-25.5-17-1.8-32.5,8.5-43.1,20.8-3.8,4.4,2.6,10.7,6.4,6.4h0Z"/>
    <path d="M305.5,657.8c24.7,11.1,52.3,13.3,78.4,6s3.2-10.3-2.4-8.7c-23.6,6.7-49.1,5-71.5-5.1s-9.8,5.4-4.5,7.8h0Z"/>
    <path d="M323,634.3c-7.7,9.1-4.1,22.6,7.5,26,5.6,1.6,8-7.1,2.4-8.7-4.8-1.4-7-7-3.6-11s-2.6-10.8-6.4-6.4h0Z"/>
    <path d="M332.9,638.2c10.1,5.8,10.7,18.7,1.9,26s1.9,10.1,6.4,6.4c13.3-11.1,11-31.6-3.7-40.2s-9.6,4.9-4.5,7.8h0Z"/>
    <path d="M305.6,638c19.7-12.7,45.2-14.4,66.3-3.9,5.2,2.6,9.7-5.2,4.5-7.8-23.9-11.9-52.9-10.6-75.4,3.9-4.9,3.1-.3,10.9,4.5,7.8h0Z"/>
    <path d="M474.1,659.2c12-11,25.1-21.9,41.5-25.1s31.4,2.2,37.3,16.7c2.1,5.3,10.9,3,8.7-2.4-6.8-16.8-24.4-25.6-42.1-23.9-20.6,1.9-37.1,14.8-51.8,28.4-4.3,3.9,2.1,10.3,6.4,6.4h0Z"/>
    <path d="M468.6,661.6c29.3,11,62.4,20.8,90.4,1.1,4.7-3.3.2-11.1-4.5-7.8-26,18.3-56.4,8.2-83.5-2-5.4-2-7.8,6.7-2.4,8.7h0Z"/>
    <path d="M475.8,664.4c10.9-6.6,23.1-10.9,35.7-12.2,9.2-1,25.5-2.4,31.6,6.4s11.1.2,7.8-4.5c-7.9-11.3-23.4-12-35.9-11.2-15.5,1-30.4,5.7-43.7,13.7s-.4,10.8,4.5,7.8h0Z"/>
    <path d="M490.2,649.6c-4.4,7.5-2,16.8,4.9,21.8,4.7,3.4,9.2-4.4,4.5-7.8-3-2.1-3.5-6.5-1.7-9.5,2.9-5-4.9-9.5-7.8-4.5h0Z"/>
    <path d="M506,654.3c6.3,4.6,5.3,13.4-1.2,17.1-5,2.9-.5,10.7,4.5,7.8,12.7-7.4,12.8-24.2,1.2-32.7s-9.2,4.4-4.5,7.8h0Z"/>
    <path d="M314.3,514.1c35.6-11.8,72.4-.2,107.9,5.5,37.4,5.9,74.8,2.8,112.3-.8s5.8-9.6,0-9c-38.6,3.7-77.1,6.8-115.5.1-35.3-6.1-71.8-16.2-107.1-4.5-5.5,1.8-3.1,10.5,2.4,8.7h0Z"/>
    <path d="M306.9,539.5c30.4-13.7,64,.2,94.7,5.2s64.3-.6,96.4-3.7c18.2-1.7,36.6-2.5,54.7.7,5.7,1,8.1-7.7,2.4-8.7-33.3-5.8-66.4.6-99.6,3.6-17.2,1.6-34.5,2.1-51.6-.6s-33.4-7.7-50.4-10c-17.4-2.3-35-1.6-51.2,5.7s-.7,10.1,4.5,7.8h0Z"/>
    <path d="M425.5,673.5c.5,31.3.3,62.6-.5,93.9s8.8,5.8,9,0c.9-31.3,1.1-62.6.5-93.9s-9.1-5.8-9,0h0Z"/>
    <path d="M433.4,795.5c4.3-.2,7.9-1.9,11.1-4.7s6-8.6,10.3-10.5,4.4-1.2,4.5.5-4.5,1.9-5.2,1.9c-4.5.3-8.7.2-12.7,2.8s-.3,11,4.5,7.8,6.7-1.4,10.1-1.7,5.9-1.2,8.2-3c4.6-3.6,5.3-10.2,1-14.4s-10.4-4.4-15.3-1.6-9.8,13.6-16.7,13.9-5.8,9.3,0,9h0Z"/>
    <path d="M464,789.6c9.7-.5,17-8.3,18.2-17.8s-5.3-22.1-10.7-32c-5.6-10.3-6.2-20.7-6.9-32.1-.6-10.3-1.8-20.6-7.7-29.4-3.2-4.8-11-.3-7.8,4.5,9.8,14.5,4.8,33.5,9.5,49.6s8.4,16.4,12.2,24.8,4.9,22.7-6.8,23.3-5.8,9.3,0,9h0Z"/>
    <path d="M517.2,352.1c22.8,13.2,48.8,20.3,75.1,20.2s27.7-4.3,31.7,8.9c1.6,5.1,1.3,11.1,1,16.4s-1.1,12-6,15.4-.2,11.1,4.5,7.8c10.6-7.4,11.1-21.6,10.4-33.4s-1.8-12.7-6.2-17.5-10.4-6.5-16.6-6.9-13.8.4-20.6.4-16.5-.9-24.6-2.4c-15.6-3-30.4-8.6-44.2-16.5-5-2.9-9.6,4.9-4.5,7.8h0Z"/>
    <path d="M581.8,390.9c16-4.2,27.7,13.3,18.6,26.8s4.5,9.3,7.8,4.5c6.2-9.2,6.2-22-.7-30.9-6.5-8.5-17.8-11.8-28.1-9.1s-3.2,10.2,2.4,8.7h0Z"/>
    <path d="M576,389.6c20.7,47.9,54.2,89.4,96.4,120,4.7,3.4,9.2-4.4,4.5-7.8-40.9-29.7-73.1-70.4-93.2-116.8-2.3-5.3-10-.7-7.8,4.5h0Z"/>
    <path d="M506.5,392.5c16.6-7.7,33.4,5.1,41.6,18.8,9.3,15.7,12.1,34.1,19,50.8,11.4,27.5,34.7,48.4,62.4,58.8s32.6,8,49.1,5.9c5.7-.7,5.7-9.7,0-9-30.7,3.9-61.9-7.5-83.6-29.5s-19.1-26.3-24.2-42.2c-5.3-16.7-9.7-34.2-21.2-48s-30.7-21.2-47.7-13.3c-5.3,2.4-.7,10.2,4.5,7.8h0Z"/>
    <path d="M506.4,420.2c13,4,24.6,11.3,33.8,21.2s15.2,24,19.5,38c4.4,14.2,9.3,27.7,18.6,39.6,8.6,11,19.5,20.1,31.4,27.2s31.6,15,48.4,19.8c5.6,1.6,8-7.1,2.4-8.7-28.8-8.2-58.4-20.8-76.6-45.7-9.3-12.7-13-27.5-17.9-42.2s-10.5-24.9-19.9-34.9c-10.2-10.8-23.1-18.7-37.3-23s-7.9,7-2.4,8.7h0Z"/>
    <path d="M234.2,603.1c-16.3-11.2-23.1-31.7-22.8-50.8.3-24.1,11-46.8,21-68.2,2.4-5.2-5.3-9.8-7.8-4.5-11,23.7-22.8,48.9-22.2,75.6.5,21.6,9.1,43.2,27.3,55.7s9.3-4.5,4.5-7.8h0Z"/>
    <path d="M234,692.3c1.5,15.2-4.7,29.6-16.7,39.1s1.9,9.9,6.4,6.4c13.6-10.7,21-28.2,19.3-45.4s-9.6-5.8-9,0h0Z"/>
    <path d="M245.3,728.7c-2.7,13.8-1.1,27.8-2.9,41.7-1.4,10.8-5.6,22.2-15.5,27.9-5,2.9-.5,10.7,4.5,7.8,26.7-15.6,17.6-49.9,22.5-75s-7.6-8.1-8.7-2.4h0Z"/>
    <path d="M257.9,803.2c4,28,2.4,56.5-4.5,83.9s7.3,8,8.7,2.4c7.3-29.1,8.8-59,4.5-88.7s-9.5-3.3-8.7,2.4h0Z"/>
    <path d="M269.5,874.3c7.7,27.7,11.8,56.2,12.2,84.9,0,5.8,9.1,5.8,9,0-.4-29.5-4.6-58.9-12.6-87.3s-10.2-3.2-8.7,2.4h0Z"/>
    <path d="M307.1,910.8c11.3,17.7,18.6,37.6,21.1,58.4s9.7,5.7,9,0c-2.7-22.5-10.1-43.9-22.4-63s-10.9-.4-7.8,4.5h0Z"/>
    <path d="M380.7,934.5c5.7,14.6,11.4,29.2,17.1,43.9s10.8,3,8.7-2.4c-5.7-14.6-11.4-29.2-17.1-43.9s-10.8-3-8.7,2.4h0Z"/>
    <path d="M434.4,939.4c14.6,23.3,38.7,39.7,65.8,44.2,5.7.9,8.1-7.7,2.4-8.7-24.9-4.1-47-18.6-60.4-40s-10.9-.4-7.8,4.5h0Z"/>
    <path d="M514.1,943.5c10.2,6.5,20.3,13,30.5,19.6,4.9,3.1,9.4-4.7,4.5-7.8-10.2-6.5-20.3-13-30.5-19.6-4.9-3.1-9.4,4.7-4.5,7.8h0Z"/>
    <path d="M545.5,903.5c6.8,14.2,16.9,26.1,29.6,35.5,4.7,3.4,9.2-4.4,4.5-7.8-11.4-8.4-20.3-19.5-26.3-32.2s-10.3-.7-7.8,4.5h0Z"/>
    <path d="M575.3,831.4c-6.5,22.8,2.6,47.6,21.8,61.3,4.7,3.4,9.2-4.4,4.5-7.8-15.9-11.3-23-32.4-17.6-51.1,1.6-5.6-7.1-8-8.7-2.4h0Z"/>
    <path d="M511.7,862.1c5.8,6,11.5,12,17.3,18s10.4-2.2,6.4-6.4c-5.8-6-11.5-12-17.3-18s-10.4,2.2-6.4,6.4h0Z"/>
    <path d="M473.5,826.7c5,7,10,14,15,21,3.3,4.7,11.2.2,7.8-4.5-5-7-10-14-15-21s-11.2-.2-7.8,4.5h0Z"/>
    <path d="M457.6,823.8c2.1,3.7,4.1,7.3,6.2,11s10.6.5,7.8-4.5-4.1-7.3-6.2-11-10.6-.5-7.8,4.5h0Z"/>
    <path d="M429.1,817.9c-1.3,3.7-2.6,7.3-3.9,11s.9,4.9,3.1,5.5,4.7-.8,5.5-3.1l3.9-11c.8-2.3-.9-4.9-3.1-5.5s-4.7.8-5.5,3.1h0Z"/>
    <path d="M408.6,820.7c-.8,6.2-.2,12.4,1.5,18.4s10.3,3.2,8.7-2.4c-1.5-5.3-1.9-10.6-1.2-16s-2.3-4.5-4.5-4.5-4.2,2.1-4.5,4.5h0Z"/>
    <path d="M378.7,827.8c-2.5,3.8-6,6.6-10.1,8.6s-2.8,4.2-1.6,6.2,4,2.7,6.2,1.6c5.5-2.6,10-6.7,13.4-11.8s-4.6-9.3-7.8-4.5h0Z"/>
    <path d="M345.8,836.4c-5.5,13-15.9,23.1-29.4,27.7-5.5,1.8-3.1,10.5,2.4,8.7,15.5-5.3,28.3-16.7,34.7-31.8,2.2-5.3-5.5-9.9-7.8-4.5h0Z"/>
    <path d="M595.4,637.3c11.5.8,22.9-.3,34.1-3.1,5.6-1.4,3.2-10.1-2.4-8.7-10.4,2.6-21,3.5-31.7,2.7-5.8-.4-5.8,8.6,0,9h0Z"/>
    <path d="M460.1,601.8c24.6-8.8,49.8-15.4,75.6-19.6,5.7-.9,3.3-9.6-2.4-8.7-25.7,4.2-51,10.8-75.6,19.6-5.4,1.9-3.1,10.6,2.4,8.7h0Z"/>
    <path d="M309.7,557.2c23.9-.2,47.8,2,71.2,6.7,11.3,2.3,22.5,5.1,33.5,8.5s31.1,7.2,24.4,16.4,4.4,9.2,7.8,4.5c7.3-10-2.7-19.9-11.6-23.5-13.1-5.2-27-9-40.7-12.2-27.7-6.5-56.1-9.6-84.6-9.5s-5.8,9,0,9h0Z"/>
    <path d="M1104.1,350.2c1.9,0,1.9-3,0-3s-1.9,3,0,3h0Z"/>
    <path d="M883.6,584.5c10.3,27,20.7,54.2,26.3,82.6s5.8,58.1,6.7,87.2c1.8,55.5,10.1,110.5,26.5,163.7,9,28.9,20.2,57.1,33.6,84.3,2.6,5.2,10.3.6,7.8-4.5-24.1-48.7-40.8-100.9-50.2-154.5s-7.5-55.3-8.5-83.1-1-57.6-5.6-86c-5.1-31.8-16.5-62.1-28-92.1-2-5.4-10.8-3-8.7,2.4h0Z"/>
    <path d="M572.3,912.5c62.3,26.6,132.2,28.6,193.9,56.7,16.6,7.6,32.4,17,46.2,28.9,4.4,3.8,10.8-2.6,6.4-6.4-51.3-44.1-120.2-52.6-183.5-68.3-19.9-4.9-39.6-10.7-58.5-18.7-5.3-2.2-9.9,5.5-4.5,7.8h0Z"/>
    <path d="M765.2,868c-.3-10.4,11.9-12.4,19.3-8.5,7.5,3.9,13.4,11.8,14.6,20.2,1.1,7.3-2.2,15.6-9.1,19s-15.4-.2-17.3-7.6c-1.4-5.6-10.1-3.2-8.7,2.4,2.9,11.4,15.8,18.1,26.9,14.5,12-3.9,18.6-17,17-29s-12.5-26.8-26.1-29.9-26.2,5.4-25.8,19,9.2,5.8,9,0h0Z"/>
    <path d="M761.9,853.2c-9.3-4.7-14.6-15.2-13.3-25.6,1.3-10.8,10.2-18.2,20.8-19.3,10.3-1.1,20.4,4,24.1,14s.8,21.6-7.5,28.3.3,9.2,4.4,7.5c11-4.4,22.6-6.6,34.5-6.3s21.7,1.5,28,9.1c6.5,8,.4,18.6-7.2,23.2s-23.7,3.8-34.7,2.1c-4.8-.8-8.1,5.4-3.5,8.2,7.8,4.7,16.1,9.5,21.4,17.1s7.2,16.9,1.4,24c-12.2,14.7-32.4,3.1-40.7-9.3-3.2-4.8-11-.3-7.8,4.5,6.3,9.4,15.5,17.7,26.9,19.9s21-1,27.9-8.8c7.5-8.5,7.4-20.3,2.7-30.2s-16.8-18.6-27.4-25l-3.5,8.2c14,2.2,30.3,4.7,42.8-3.8,9.5-6.4,16.2-18.6,11.8-30-4.6-11.7-17.8-16-29.2-17.5-15.6-2.1-31.5,0-46.1,5.8l4.4,7.5c17.4-14.3,14.9-45.3-6.1-54.8-21-9.5-46.9,4.7-46.8,28.5,0,12.4,6.8,24.6,18,30.2,5.2,2.6,9.7-5.2,4.5-7.8h0Z"/>
    <path d="M899.8,639.4c-17.8,2.6-31,22.2-26,39.7,4.8,17,25.2,27,41.7,20.8,5.4-2,3-10.7-2.4-8.7-11.9,4.5-27-1.9-30.6-14.5s6.8-26.7,19.7-28.6c5.7-.8,3.3-9.5-2.4-8.7h0Z"/>
    <path d="M911.4,702.6c-.5,16.9-21.4,25.9-33.4,13.2-5.3-5.7-6.6-14.6-3.3-21.6s4-6.1,3.9-10-1.8-6.3-4-8.8c-9.2-10.6-23.5-24.4-14.4-39.7,4.4-7.4,13.6-8.5,21.2-6,8.3,2.7,14.8,9,21,14.9,4.2,4,10.6-2.4,6.4-6.4-11.5-10.8-26.6-23.2-43.6-17.4-14.3,4.9-19.4,21.5-15.1,35s7.3,14.5,12.8,20.5,7.6,5.9,6,10.1-3.6,6.6-4.4,10.6c-2.8,15,6.5,30,21.7,33.2,17.6,3.7,33.6-9.8,34.2-27.6s-8.8-5.8-9,0h0Z"/>
    <path d="M229.5,906.5c10.4,34.8,18.6,70.2,24.5,106s9.6,3.3,8.7-2.4c-5.9-35.8-14-71.2-24.5-106s-10.4-3.2-8.7,2.4h0Z"/>
    <path d="M595.3,919.6c.2,31.8-2.2,63.5-7.3,94.9-.9,5.7,7.8,8.1,8.7,2.4,5.2-32.2,7.8-64.7,7.6-97.3s-9-5.8-9,0h0Z"/>
    <path d="M1233.1,472.2c5.8,0,5.8-9,0-9s-5.8,9,0,9h0Z"/>
  </g>
</svg>