<?xml version="1.0" encoding="UTF-8"?>
<svg xmlns="http://www.w3.org/2000/svg" version="1.1" xmlns:xlink="http://www.w3.org/1999/xlink" viewBox="0 0 1000 1000">
  <!-- Generator: Adobe Illustrator 29.7.0, SVG Export Plug-In . SVG Version: 2.1.1 Build 138)  -->
  <defs>
    <style>
      .st0, .st1 {
        display: none;
      }

      .st0, .st2 {
        opacity: .4;
      }
    </style>
  </defs>
  <g id="Layer_3" class="st1">
    <g id="Layer_4" class="st0">
      <image width="6000" height="4000" transform="translate(0 272.8) scale(.2 .2)" xlink:href="C:\Users\lukec\Downloads\Adobe Express - file.png"/>
      <g class="st2">
        <path d="M1212,421.1c1.9,0,1.9-3,0-3s-1.9,3,0,3h0Z"/>
      </g>
    </g>
    <g id="Layer_2" class="st1">
      <path d="M86.5,1003.2c23.3-24.5,50.9-43.8,80.3-60.4,31-17.6,63.1-33.5,94.7-49.9,5.1-2.7.6-10.4-4.5-7.8-32.1,16.7-64.7,32.8-96.2,50.8-29.4,16.8-57.2,36.4-80.6,61-4,4.2,2.4,10.6,6.4,6.4h0Z"/>
      <path d="M224.3,645c-12.6,22.2-3.8,46.8,1.9,69.7,6.5,26.2,4.8,53.3,7.2,80,2.2,25.4,7.7,50.5,16.6,74.4,8.4,22.9,19.4,45.4,35,64.4,16.3,19.8,38.7,35.3,64.5,38.9,5.7.8,8.1-7.9,2.4-8.7-47.3-6.7-75.2-50.9-91.2-91.9-8.7-22.4-14.7-46-17.5-69.9-2.8-24.6-1.6-49.5-5.1-74-3.6-24.9-19.6-54.1-5.8-78.4s-4.9-9.6-7.8-4.5h0Z"/>
      <path d="M601.7,692.3c-1.5,65.8-10.2,132.6-29,195.8-4.2,14-9.4,27.7-17.6,39.9-7.6,11.2-17.8,20.3-29.5,27-23.3,13.5-50.7,18.1-77.3,19.2-37.3,1.5-74.5-3.3-110.2-14.1s-7.9,7-2.4,8.7c32.8,9.9,67,14.9,101.3,14.7,28.3-.2,57.3-3.7,83.2-15.6,26.8-12.2,44.9-33.6,55.5-60.8s9.5-30.1,13.2-45.3c4.1-17.2,7.7-34.6,10.6-52,6.6-38.8,10.3-78.1,11.2-117.4.1-5.8-8.9-5.8-9,0h0Z"/>
      <path d="M344.2,564.6c-17.9-.2-36.4-.2-52.9,7.7s-24.6,20.9-28.5,37c-7.8,31.7-3.9,71.5,21.3,94.6s58.6,19.8,83.4,2.3c25.6-18.1,39-50.6,39.9-81.4.5-17.4-4.2-35.5-18.4-46.7-13.7-10.8-31.8-12.9-48.6-14.7-5.8-.6-5.7,8.4,0,9,13,1.4,26.8,2.9,38.3,9.5,12.5,7.2,18.5,20.2,19.6,34.2,2,26.8-7.9,56.6-27.3,75.5-18.9,18.4-50.2,25.9-73.5,11.1s-31.3-51-28-79.5c1.9-16.2,7.5-32.2,22.2-41s34.9-9,52.6-8.8c5.8,0,5.8-8.9,0-9h0Z"/>
      <path d="M403.2,627.1c16.6-11.3,38.7-11.3,55.2.1s9.3-4.5,4.5-7.8c-19-13.1-45.3-13.1-64.3-.1s-.3,11,4.5,7.8h0Z"/>
      <path d="M532.7,584.2c-15.4.5-31.4,1.3-45.8,7s-25.6,16.6-31.3,31.5c-11,28.6-3.8,63.7,15.6,86.9,18.5,22.1,49.1,31,76.6,22.4s25.5-12.8,33.5-24.8c9.4-14.1,13.1-31.1,16.5-47.4s4.1-20.7,2.2-31-6.1-16.1-12.2-22.1c-14.3-14.2-34.5-18.1-53.7-21.3-5.7-.9-8.1,7.7-2.4,8.7,15.3,2.6,31.6,5.1,44.4,14.5,13.4,9.7,17.3,23.7,14.8,39.6-4.2,26.9-11.1,59.2-37.9,72.2-22.4,10.9-50.7,6.5-68.9-10.3s-27.9-46.4-23.3-72.1,11.4-30.4,27-37.4,29.9-6.9,45-7.4c5.8-.2,5.8-9.2,0-9h0Z"/>
      <path d="M595.4,637.2l15.7-.8c5.8-.3,5.8-9.3,0-9l-15.7.8c-5.8.3-5.8,9.3,0,9h0Z"/>
      <path d="M267.2,599.2c-6-1.5-12-3-18-4.5s-8,7.3-2.4,8.7c6,1.5,12,3,18,4.5s8-7.3,2.4-8.7h0Z"/>
      <path d="M236.2,671.4c-21.4-29.8-35.6-64.3-41.4-100.6-1.5-9.2-2.3-18.4-2.6-27.7s-.5-18.7,1.4-27.8,2.7-8.9,5-13.1,4.1-7.3,4.5-11.5c.6-6.3-3-13.3-9.7-14.4v8.7c13-5,23.8-13.3,31.9-24.6s-4.4-9.2-7.8-4.5c-6.6,9.2-15.8,16.4-26.5,20.4-3.6,1.4-4.9,7.9,0,8.7,8.4,1.3-2.9,17.4-4.3,21.3-2.8,7.9-3.4,16.5-3.6,24.7-.3,16.9,1.3,33.8,4.5,50.4,6.6,33.9,20.7,66.3,40.8,94.3,3.4,4.7,11.2.2,7.8-4.5h0Z"/>
      <path d="M228.8,446c-11.7-3.4-21.4-11-27.5-21.6l-5.1,6.6c14.4,2.1,31,4,43.5-5.3s11.4-12.8,16.4-19.5,11.4-15.2,17.1-22.8c20.1-26.5,43.3-54.1,76.4-63.9,17.8-5.2,37.1-5,53.6,4.1,3.8,2.1,8.7-2.3,6.2-6.2-20-30.2-57-46.2-92.7-40.3-5.7.9-3.3,9.6,2.4,8.7,31.5-5.2,65,9.6,82.6,36.2l6.2-6.2c-28.7-15.9-64.3-8.5-90.4,9.3-28.9,19.7-48.9,49.7-69.5,77.3-5.9,7.9-11.2,17-21.2,19.9s-18.8,1.4-28,0-7.2,2.9-5.1,6.6c7.2,12.6,18.9,21.7,32.8,25.7s8-7.1,2.4-8.7h0Z"/>
      <path d="M424.3,323.6c-8.3-4,1.9-12.9,5.9-15.6,7-4.6,14.5-8.5,22.4-11.4,13.4-5,32.2-10.9,42.5,2.6s6.5,12,8.8,18.3,6,16.5,5.5,25.3c-.8,15.6-12.9,27.7-23.2,38.1-4.1,4.1,2.3,10.5,6.4,6.4,10.3-10.5,21.4-22.1,24.8-36.8s-2.9-32.1-9.1-46.2-16.5-22.9-32.1-22.3-32.4,7.5-46,15.5-14.1,8.5-16.8,16.1c-2.3,6.6-.1,14.6,6.4,17.8,5.2,2.5,9.8-5.2,4.5-7.8h0Z"/>
      <path d="M464.2,368.7c-1.8-6.3-5.4-11.5-9.3-16.6-4.2-5.4-9.5-11.5-9.5-18.7s6.7-10.5,13-12.2,14.8-3.3,22.3-2.7,13.3,2.9,17.9,7.7,6.5,13.2,2.2,18.9-9.6,6.7-14.5,9.1-9.4,5.5-12.8,10.2,4.4,9.2,7.8,4.5c6.8-9.2,20.7-9.4,27.3-19.3s2.8-25.2-6.9-32.8-25.4-8.5-38.4-6-25.2,6.6-26.6,20.3,15,25.4,19,39.9,10.2,3.2,8.7-2.4h0Z"/>
      <path d="M428.8,420.7c-2-30.9-26.8-54.4-55.2-62.9-16.7-5-34.5-5.5-51.7-3.7-15.8,1.7-34.2,4.1-45.3,16.8-10,11.5-10.5,31.7,5,39s9.8-5.3,4.5-7.8c-7.5-3.5-9.7-12.4-6.4-19.8s10.8-12.2,18.3-14.7c16.7-5.7,36.5-6.6,53.8-4.9,31.5,3,65.8,23.3,68,58s9.4,5.8,9,0h0Z"/>
      <path d="M409.8,416.6c-11.4-21.9-31.7-38.8-55.5-45.6-25.7-7.4-54.3-2.4-76.3,12.7s-.2,11.1,4.5,7.8c20.1-13.8,45.7-18.6,69.3-11.8s39.7,21.6,50.1,41.4,10.4.6,7.8-4.5h0Z"/>
      <path d="M370.9,427.8c-7.2-14-18.4-25.8-32.1-33.7s-35-17.1-39.5,1.1,7.3,8,8.7,2.4c2.6-10.4,27.9,5,32.6,8.4,9.6,6.8,17.2,16,22.6,26.4s10.4.6,7.8-4.5h0Z"/>
      <path d="M343.9,436.9c-23.6-19.5-59.2-16.4-81.5,3.6s-30.6,58.1-22.2,88.7c5.2,19.1,15.5,36.4,28,51.7,3.7,4.5,10-1.9,6.4-6.4-18.8-23-32.3-52.5-28.4-82.8,3.5-27.2,21.3-52.4,49.3-58.1,14.6-2.9,30.6,0,42.2,9.5s10.8-2.7,6.4-6.4h0Z"/>
      <path d="M437,412.5c13.9-11.5,33.1-2.4,44.7,7.8s24.6,25.7,35.6,39.3c22.2,27.5,41.1,58.2,51.2,92.3,1.6,5.5,10.3,3.2,8.7-2.4-8.7-29.5-23.8-56.6-41.9-81.3s-18.9-24.2-29.1-35.6c-9.9-11.1-20.3-23.2-33.9-29.8s-29.7-6.6-41.5,3.2,1.9,10,6.4,6.4h0Z"/>
      <path d="M573.3,534.3c-3.3,17.8,1.3,36,13.7,49.4,7.6,8.2,29.7,24.6,39.9,12s-2.7-10.9-6.4-6.4-11.9-.6-15.5-2.7c-5.3-3-10-7-13.8-11.8-8.5-10.7-11.7-24.8-9.2-38.2,1.1-5.7-7.6-8.1-8.7-2.4h0Z"/>
      <path d="M823.7,1000c-.3-19.8-12.3-35.7-24.6-50.1-6.4-7.6-13.1-15-18-23.7-5.3-9.3-8.2-19.6-11.1-29.8-5.4-19.2-12.5-37.5-22.3-55-9.8-17.4-21.5-33.6-34-49.2s-29.8-33.6-37.2-54.9l-3.1,5.5c34.1-4.9,65.9-20.6,91.1-44,4.2-4-2.1-10.3-6.4-6.4-24.1,22.4-54.5,37-87.1,41.7-2.3.3-3.9,3.5-3.1,5.5,6.4,18.1,18.2,33,30.4,47.7,12.8,15.4,25.1,31.1,35.6,48.1,10.5,16.8,19.1,34.7,24.8,53.7,2.9,9.7,5.2,19.7,8.9,29.1,3.5,9,8.3,17,14.2,24.6,13.3,17.1,32.6,33.6,33,57,0,5.8,9.1,5.8,9,0h0Z"/>
      <path d="M727.3,707c-10.3-19.6-26.5-34.9-44.1-48.1-9-6.7-18.5-12.9-28-19-9.3-6-19.7-12.2-31.1-8.6s-9.5,4.8-14.4,6.7-10.4.6-15.9.3c-9.5-.6-18.2,5.3-16.3,15.8,2.1,11.5,13.6,14.9,23,18.7s19.3,9.3,27.9,15.6c19.6,14.2,34.9,33.9,44.3,56.1s10,.7,7.8-4.5c-14.7-34.6-43.4-62.4-78.3-76.1-4.5-1.8-10.1-3.2-13.6-6.9s-2.6-3.8-2.3-6.1c.4-3.3,3.3-3.7,6.1-3.7,4.2,0,8.3,1.2,12.5,1s8.9-2,13-4.1,8.6-5,13.7-4.9,11.5,3.6,16.3,6.7c8.6,5.4,17.2,11.1,25.5,17,18.4,13.1,35.5,28.4,46.1,48.6,2.7,5.1,10.5.6,7.8-4.5h0Z"/>
      <path d="M612.2,627.2c-10.2-2.4-22.9-5.1-27.7-15.6-4.8-10.5,4.7-18.3,14.6-18.8s25.3,6,36.7,10,25.2,8.8,37.8,13.2c5.5,1.9,7.8-6.8,2.4-8.7-16.4-5.7-32.7-11.5-49.1-17.2s-27.6-9.9-40.8-3c-10.8,5.7-14.7,18-9.3,28.9s20.3,16.8,33,19.8,8-7.4,2.4-8.7h0Z"/>
      <path d="M723.8,586.2c-7.2-10.7-16.8-22.8-31.2-20.8s-17.5,15.4-18.7,27c-2.8,26.1,3.3,53.1,16.1,76,7.3,13.2,17,25,28.4,34.8,4.4,3.8,10.8-2.6,6.4-6.4-21.3-18.3-35.5-43.5-40.6-71.1-2.4-12.9-3.4-27.9,0-40.8s6.6-12.3,14.5-10.4,13.1,9.7,17.4,16.2c3.2,4.8,11,.3,7.8-4.5h0Z"/>
      <path d="M718,591c-4.6,30.9,6.8,60.2,20.8,87.3,6.3,12.2,12.6,27.5,23.5,36.5s22.9,9.4,31.7.3,9.1-21.6,5.6-32.4c-2.3-7.1-5.9-13.6-9.3-20.2s-6.5-14.5-8.6-22.2c-2.1-7.7-3.4-15.5-3.8-23.5-.4-7.7.3-15.2.4-22.9,0-13.1-3.3-26-15-33.3-11-6.9-25.8-6.6-35.9,1.8-9.9,8.3-13.9,22.9-9.4,35,2,5.4,10.7,3,8.7-2.4-3.4-9-1-19.6,6.5-25.9s18.8-5.7,26.6-.1,9.7,20.6,9.2,31.8c-.5,12.3,0,24.5,2.7,36.6s7.5,23.3,13.2,34.3c4.9,9.6,10.5,20.8,6,31.7-4.6,11.3-16.8,10.7-24.7,3-8.4-8.1-13.5-20.7-18.9-30.9-13.1-25-25-53.1-20.8-82,.8-5.7-7.8-8.1-8.7-2.4h0Z"/>
      <path d="M796.5,697c1.5,12.5,14.7,19.3,26,13.8,13.3-6.5,15.5-22.5,12.6-35.6-1.8-7.8-5.7-15-7.5-22.8-2-8.9,4.7-12.7,8.9-19.5,7.6-12.3,5.6-27.6,3.6-41.2-.8-5.7-9.5-3.3-8.7,2.4,1.6,10.8,3.5,23.7-2.3,33.6-2.6,4.5-6.9,7.7-9.3,12.4s-2.1,10.3-.8,15.5c3.1,11.5,10.3,22.9,7.8,35.3-1,5.1-4.1,10.3-9.2,12.2-4.7,1.8-11.6-.4-12.2-6.1s-9.7-5.8-9,0h0Z"/>
      <path d="M834.8,619.8c9.6-.7,17-6.2,23.8-12.7s14.8-16.5,25.2-15.1,8.1-7.9,2.4-8.7c-10.1-1.4-18.5,3.1-26,9.6s-14.6,16.9-25.4,17.8-5.8,9.4,0,9h0Z"/>
      <path d="M776.6,595.7c9.7-2.9,11.4-12.1,14.4-20.5s5.5-8.2,11.6-8.1c5.4,0,10.9,1.6,16.2,2.7,24.2,5,48.4,10,72.7,15,5.7,1.2,8.1-7.5,2.4-8.7-25.5-5.3-51-10.5-76.5-15.8s-19.6-4.5-27.7,1.4-6.1,7.3-7.6,11.9-2.4,11.8-7.9,13.4c-5.5,1.7-3.2,10.3,2.4,8.7h0Z"/>
      <path d="M381.5,710.7c-2,11.6-3.6,23.3-4.6,35s-2.8,22.1,1.1,31.9c8.3,20.6,33.3,11.7,48.5,20.9,5,3,9.5-4.8,4.5-7.8-7.4-4.5-15.7-5.1-24.1-6s-17.8-2.6-20.9-11-.9-20.1-.1-29c.9-10.6,2.3-21.1,4.2-31.6,1-5.7-7.7-8.1-8.7-2.4h0Z"/>
      <path d="M425.6,786.8c-7-10.8-22.1-25.1-36.3-19.8s-10.1,7.6-9.1,13.8,7,10.5,13.4,9.4,3.3-9.7-2.4-8.7c-1.7.3-2.3-2-2-3.2s1.9-2.4,3.1-2.9c3.5-1.4,7.6.2,10.6,1.9,6.2,3.3,11.2,8.2,15,14.1s10.9.3,7.8-4.5h0Z"/>
      <path d="M350.4,858.6c46-4.7,92.3-6.2,138.5-4.5,5.8.2,5.8-8.8,0-9-46.2-1.7-92.5-.2-138.5,4.5s-5.8,9.6,0,9h0Z"/>
      <path d="M356,852.7c20.6.4,36.5-14,55.7-18.8,11.2-2.8,23.3-.6,34.5,1.2s21.1,4.5,29.8,11.2,9.1-4.3,4.5-7.8c-8.6-6.6-19-9.8-29.6-11.7-11.5-2-24-4.3-35.7-2.8-20.9,2.8-37.8,20-59.3,19.6-5.8-.1-5.8,8.9,0,9h0Z"/>
      <path d="M355.5,862.5c25.5,7.7,51.9,12.3,78.5,13.6,19.5.9,42.1.2,54.8-17s-4.4-9.2-7.8-4.5c-11.4,15.5-35.9,13.3-52.7,12.2-23.9-1.6-47.5-6-70.4-12.9s-7.9,7-2.4,8.7h0Z"/>
      <path d="M336.9,861c-13.1,6.7-12.9,25.2-4.5,35.5,11.7,14.3,34.6,16.8,51.4,20.5,21.5,4.7,43.5,8.2,65.5,7.2,18.4-.8,40.2-4,54.7-16.4,12.8-11.1,16.3-33.8.3-43.8s-9.5,4.7-4.5,7.8c12.4,7.7,5.1,24.7-4.2,31.3s-30.9,11.5-46.2,12.2c-17.5.8-34.9-1.3-52-4.6-8.4-1.6-16.7-3.5-25-5.4s-15.1-3.3-22.1-6.5-12.4-7.3-14.3-14.4-.4-12.5,5.4-15.4.6-10.4-4.5-7.8h0Z"/>
      <path d="M248.7,660.4c-2.5,37.7,2.3,75.9,13.8,111.9,5.6,17.6,12.9,34.8,21.7,51.1,4.6,8.5,9.5,16.8,14.9,24.8s9.3,11.1,17.6,7.1c8.8-4.2,17.1-10,25.5-14.8,8.9-5.1,18-10,27.3-14.4,18.2-8.6,37.7-15.1,57.9-16.3,20.6-1.2,39,3.9,57,13.4s32,19,50.2,20.6,18.1-1.4,24.3-8.1,10-17.2,15.7-25.1c12.2-16.8,27.8-33.4,23.8-55.9-1-5.7-9.7-3.3-8.7,2.4,3.3,18.6-11.8,34-21.9,47.6-5.1,6.9-8.4,14.7-13.2,21.9-5,7.6-13.4,9.3-22,8-16.9-2.5-31.9-13.1-46.8-20.8-15.9-8.2-32.6-13.2-50.6-13.3-37.2-.3-71.1,16.7-102.5,34.9-3.7,2.1-7.3,4.3-11,6.5s-9.8,7.6-12.8,5.1-5-7.4-6.9-10.4-4.7-7.7-7-11.7c-8.6-15.2-15.9-31.2-21.6-47.7-13.1-37.5-18.5-77.2-15.9-116.8.4-5.8-8.6-5.8-9,0h0Z"/>
      <path d="M311.3,656.3c9.1-10.5,22.2-20.1,36.9-18.2s24.9,13.2,34.3,22.9,10.4-2.2,6.4-6.4c-11.3-11.6-24-23.8-40.8-25.5-17-1.8-32.5,8.5-43.1,20.8-3.8,4.4,2.6,10.7,6.4,6.4h0Z"/>
      <path d="M305.5,657.8c24.7,11.1,52.3,13.3,78.4,6s3.2-10.3-2.4-8.7c-23.6,6.7-49.1,5-71.5-5.1s-9.8,5.4-4.5,7.8h0Z"/>
      <path d="M323,634.3c-7.7,9.1-4.1,22.6,7.5,26,5.6,1.6,8-7.1,2.4-8.7-4.8-1.4-7-7-3.6-11s-2.6-10.8-6.4-6.4h0Z"/>
      <path d="M332.9,638.2c10.1,5.8,10.7,18.7,1.9,26s1.9,10.1,6.4,6.4c13.3-11.1,11-31.6-3.7-40.2s-9.6,4.9-4.5,7.8h0Z"/>
      <path d="M305.6,638c19.7-12.7,45.2-14.4,66.3-3.9,5.2,2.6,9.7-5.2,4.5-7.8-23.9-11.9-52.9-10.6-75.4,3.9-4.9,3.1-.3,10.9,4.5,7.8h0Z"/>
      <path d="M474.1,659.2c12-11,25.1-21.9,41.5-25.1s31.4,2.2,37.3,16.7c2.1,5.3,10.9,3,8.7-2.4-6.8-16.8-24.4-25.6-42.1-23.9-20.6,1.9-37.1,14.8-51.8,28.4-4.3,3.9,2.1,10.3,6.4,6.4h0Z"/>
      <path d="M468.6,661.6c29.3,11,62.4,20.8,90.4,1.1,4.7-3.3.2-11.1-4.5-7.8-26,18.3-56.4,8.2-83.5-2-5.4-2-7.8,6.7-2.4,8.7h0Z"/>
      <path d="M475.8,664.4c10.9-6.6,23.1-10.9,35.7-12.2,9.2-1,25.5-2.4,31.6,6.4s11.1.2,7.8-4.5c-7.9-11.3-23.4-12-35.9-11.2-15.5,1-30.4,5.7-43.7,13.7s-.4,10.8,4.5,7.8h0Z"/>
      <path d="M490.2,649.6c-4.4,7.5-2,16.8,4.9,21.8,4.7,3.4,9.2-4.4,4.5-7.8-3-2.1-3.5-6.5-1.7-9.5,2.9-5-4.9-9.5-7.8-4.5h0Z"/>
      <path d="M506,654.3c6.3,4.6,5.3,13.4-1.2,17.1-5,2.9-.5,10.7,4.5,7.8,12.7-7.4,12.8-24.2,1.2-32.7s-9.2,4.4-4.5,7.8h0Z"/>
      <path d="M314.3,514.1c35.6-11.8,72.4-.2,107.9,5.5,37.4,5.9,74.8,2.8,112.3-.8s5.8-9.6,0-9c-38.6,3.7-77.1,6.8-115.5.1-35.3-6.1-71.8-16.2-107.1-4.5-5.5,1.8-3.1,10.5,2.4,8.7h0Z"/>
      <path d="M306.9,539.5c30.4-13.7,64,.2,94.7,5.2s64.3-.6,96.4-3.7c18.2-1.7,36.6-2.5,54.7.7,5.7,1,8.1-7.7,2.4-8.7-33.3-5.8-66.4.6-99.6,3.6-17.2,1.6-34.5,2.1-51.6-.6s-33.4-7.7-50.4-10c-17.4-2.3-35-1.6-51.2,5.7s-.7,10.1,4.5,7.8h0Z"/>
      <path d="M425.5,673.5c.5,31.3.3,62.6-.5,93.9s8.8,5.8,9,0c.9-31.3,1.1-62.6.5-93.9s-9.1-5.8-9,0h0Z"/>
      <path d="M433.4,795.5c4.3-.2,7.9-1.9,11.1-4.7s6-8.6,10.3-10.5,4.4-1.2,4.5.5-4.5,1.9-5.2,1.9c-4.5.3-8.7.2-12.7,2.8s-.3,11,4.5,7.8,6.7-1.4,10.1-1.7,5.9-1.2,8.2-3c4.6-3.6,5.3-10.2,1-14.4s-10.4-4.4-15.3-1.6-9.8,13.6-16.7,13.9-5.8,9.3,0,9h0Z"/>
      <path d="M464,789.6c9.7-.5,17-8.3,18.2-17.8s-5.3-22.1-10.7-32c-5.6-10.3-6.2-20.7-6.9-32.1-.6-10.3-1.8-20.6-7.7-29.4-3.2-4.8-11-.3-7.8,4.5,9.8,14.5,4.8,33.5,9.5,49.6s8.4,16.4,12.2,24.8,4.9,22.7-6.8,23.3-5.8,9.3,0,9h0Z"/>
      <path d="M517.2,352.1c22.8,13.2,48.8,20.3,75.1,20.2s27.7-4.3,31.7,8.9c1.6,5.1,1.3,11.1,1,16.4s-1.1,12-6,15.4-.2,11.1,4.5,7.8c10.6-7.4,11.1-21.6,10.4-33.4s-1.8-12.7-6.2-17.5-10.4-6.5-16.6-6.9-13.8.4-20.6.4-16.5-.9-24.6-2.4c-15.6-3-30.4-8.6-44.2-16.5-5-2.9-9.6,4.9-4.5,7.8h0Z"/>
      <path d="M581.8,390.9c16-4.2,27.7,13.3,18.6,26.8s4.5,9.3,7.8,4.5c6.2-9.2,6.2-22-.7-30.9-6.5-8.5-17.8-11.8-28.1-9.1s-3.2,10.2,2.4,8.7h0Z"/>
      <path d="M576,389.6c20.7,47.9,54.2,89.4,96.4,120,4.7,3.4,9.2-4.4,4.5-7.8-40.9-29.7-73.1-70.4-93.2-116.8-2.3-5.3-10-.7-7.8,4.5h0Z"/>
      <path d="M506.5,392.5c16.6-7.7,33.4,5.1,41.6,18.8,9.3,15.7,12.1,34.1,19,50.8,11.4,27.5,34.7,48.4,62.4,58.8s32.6,8,49.1,5.9c5.7-.7,5.7-9.7,0-9-30.7,3.9-61.9-7.5-83.6-29.5s-19.1-26.3-24.2-42.2c-5.3-16.7-9.7-34.2-21.2-48s-30.7-21.2-47.7-13.3c-5.3,2.4-.7,10.2,4.5,7.8h0Z"/>
      <path d="M506.4,420.2c13,4,24.6,11.3,33.8,21.2s15.2,24,19.5,38c4.4,14.2,9.3,27.7,18.6,39.6,8.6,11,19.5,20.1,31.4,27.2s31.6,15,48.4,19.8c5.6,1.6,8-7.1,2.4-8.7-28.8-8.2-58.4-20.8-76.6-45.7-9.3-12.7-13-27.5-17.9-42.2s-10.5-24.9-19.9-34.9c-10.2-10.8-23.1-18.7-37.3-23s-7.9,7-2.4,8.7h0Z"/>
      <path d="M234.2,603.1c-16.3-11.2-23.1-31.7-22.8-50.8.3-24.1,11-46.8,21-68.2,2.4-5.2-5.3-9.8-7.8-4.5-11,23.7-22.8,48.9-22.2,75.6.5,21.6,9.1,43.2,27.3,55.7s9.3-4.5,4.5-7.8h0Z"/>
      <path d="M234,692.3c1.5,15.2-4.7,29.6-16.7,39.1s1.9,9.9,6.4,6.4c13.6-10.7,21-28.2,19.3-45.4s-9.6-5.8-9,0h0Z"/>
      <path d="M245.3,728.7c-2.7,13.8-1.1,27.8-2.9,41.7-1.4,10.8-5.6,22.2-15.5,27.9-5,2.9-.5,10.7,4.5,7.8,26.7-15.6,17.6-49.9,22.5-75s-7.6-8.1-8.7-2.4h0Z"/>
      <path d="M257.9,803.2c4,28,2.4,56.5-4.5,83.9s7.3,8,8.7,2.4c7.3-29.1,8.8-59,4.5-88.7s-9.5-3.3-8.7,2.4h0Z"/>
      <path d="M269.5,874.3c7.7,27.7,11.8,56.2,12.2,84.9,0,5.8,9.1,5.8,9,0-.4-29.5-4.6-58.9-12.6-87.3s-10.2-3.2-8.7,2.4h0Z"/>
      <path d="M307.1,910.8c11.3,17.7,18.6,37.6,21.1,58.4s9.7,5.7,9,0c-2.7-22.5-10.1-43.9-22.4-63s-10.9-.4-7.8,4.5h0Z"/>
      <path d="M380.7,934.5c5.7,14.6,11.4,29.2,17.1,43.9s10.8,3,8.7-2.4c-5.7-14.6-11.4-29.2-17.1-43.9s-10.8-3-8.7,2.4h0Z"/>
      <path d="M434.4,939.4c14.6,23.3,38.7,39.7,65.8,44.2,5.7.9,8.1-7.7,2.4-8.7-24.9-4.1-47-18.6-60.4-40s-10.9-.4-7.8,4.5h0Z"/>
      <path d="M514.1,943.5c10.2,6.5,20.3,13,30.5,19.6,4.9,3.1,9.4-4.7,4.5-7.8-10.2-6.5-20.3-13-30.5-19.6-4.9-3.1-9.4,4.7-4.5,7.8h0Z"/>
      <path d="M545.5,903.5c6.8,14.2,16.9,26.1,29.6,35.5,4.7,3.4,9.2-4.4,4.5-7.8-11.4-8.4-20.3-19.5-26.3-32.2s-10.3-.7-7.8,4.5h0Z"/>
      <path d="M575.3,831.4c-6.5,22.8,2.6,47.6,21.8,61.3,4.7,3.4,9.2-4.4,4.5-7.8-15.9-11.3-23-32.4-17.6-51.1,1.6-5.6-7.1-8-8.7-2.4h0Z"/>
      <path d="M511.7,862.1c5.8,6,11.5,12,17.3,18s10.4-2.2,6.4-6.4c-5.8-6-11.5-12-17.3-18s-10.4,2.2-6.4,6.4h0Z"/>
      <path d="M473.5,826.7c5,7,10,14,15,21,3.3,4.7,11.2.2,7.8-4.5-5-7-10-14-15-21s-11.2-.2-7.8,4.5h0Z"/>
      <path d="M457.6,823.8c2.1,3.7,4.1,7.3,6.2,11s10.6.5,7.8-4.5-4.1-7.3-6.2-11-10.6-.5-7.8,4.5h0Z"/>
      <path d="M429.1,817.9c-1.3,3.7-2.6,7.3-3.9,11s.9,4.9,3.1,5.5,4.7-.8,5.5-3.1l3.9-11c.8-2.3-.9-4.9-3.1-5.5s-4.7.8-5.5,3.1h0Z"/>
      <path d="M408.6,820.7c-.8,6.2-.2,12.4,1.5,18.4s10.3,3.2,8.7-2.4c-1.5-5.3-1.9-10.6-1.2-16s-2.3-4.5-4.5-4.5-4.2,2.1-4.5,4.5h0Z"/>
      <path d="M378.7,827.8c-2.5,3.8-6,6.6-10.1,8.6s-2.8,4.2-1.6,6.2,4,2.7,6.2,1.6c5.5-2.6,10-6.7,13.4-11.8s-4.6-9.3-7.8-4.5h0Z"/>
      <path d="M345.8,836.4c-5.5,13-15.9,23.1-29.4,27.7-5.5,1.8-3.1,10.5,2.4,8.7,15.5-5.3,28.3-16.7,34.7-31.8,2.2-5.3-5.5-9.9-7.8-4.5h0Z"/>
      <path d="M595.4,637.3c11.5.8,22.9-.3,34.1-3.1,5.6-1.4,3.2-10.1-2.4-8.7-10.4,2.6-21,3.5-31.7,2.7-5.8-.4-5.8,8.6,0,9h0Z"/>
      <path d="M460.1,601.8c24.6-8.8,49.8-15.4,75.6-19.6,5.7-.9,3.3-9.6-2.4-8.7-25.7,4.2-51,10.8-75.6,19.6-5.4,1.9-3.1,10.6,2.4,8.7h0Z"/>
      <path d="M309.7,557.2c23.9-.2,47.8,2,71.2,6.7,11.3,2.3,22.5,5.1,33.5,8.5s31.1,7.2,24.4,16.4,4.4,9.2,7.8,4.5c7.3-10-2.7-19.9-11.6-23.5-13.1-5.2-27-9-40.7-12.2-27.7-6.5-56.1-9.6-84.6-9.5s-5.8,9,0,9h0Z"/>
      <path d="M1104.1,350.2c1.9,0,1.9-3,0-3s-1.9,3,0,3h0Z"/>
      <path d="M883.6,584.5c10.3,27,20.7,54.2,26.3,82.6s5.8,58.1,6.7,87.2c1.8,55.5,10.1,110.5,26.5,163.7,9,28.9,20.2,57.1,33.6,84.3,2.6,5.2,10.3.6,7.8-4.5-24.1-48.7-40.8-100.9-50.2-154.5s-7.5-55.3-8.5-83.1-1-57.6-5.6-86c-5.1-31.8-16.5-62.1-28-92.1-2-5.4-10.8-3-8.7,2.4h0Z"/>
      <path d="M572.3,912.5c62.3,26.6,132.2,28.6,193.9,56.7,16.6,7.6,32.4,17,46.2,28.9,4.4,3.8,10.8-2.6,6.4-6.4-51.3-44.1-120.2-52.6-183.5-68.3-19.9-4.9-39.6-10.7-58.5-18.7-5.3-2.2-9.9,5.5-4.5,7.8h0Z"/>
      <path d="M765.2,868c-.3-10.4,11.9-12.4,19.3-8.5,7.5,3.9,13.4,11.8,14.6,20.2,1.1,7.3-2.2,15.6-9.1,19s-15.4-.2-17.3-7.6c-1.4-5.6-10.1-3.2-8.7,2.4,2.9,11.4,15.8,18.1,26.9,14.5,12-3.9,18.6-17,17-29s-12.5-26.8-26.1-29.9-26.2,5.4-25.8,19,9.2,5.8,9,0h0Z"/>
      <path d="M761.9,853.2c-9.3-4.7-14.6-15.2-13.3-25.6,1.3-10.8,10.2-18.2,20.8-19.3,10.3-1.1,20.4,4,24.1,14s.8,21.6-7.5,28.3.3,9.2,4.4,7.5c11-4.4,22.6-6.6,34.5-6.3s21.7,1.5,28,9.1c6.5,8,.4,18.6-7.2,23.2s-23.7,3.8-34.7,2.1c-4.8-.8-8.1,5.4-3.5,8.2,7.8,4.7,16.1,9.5,21.4,17.1s7.2,16.9,1.4,24c-12.2,14.7-32.4,3.1-40.7-9.3-3.2-4.8-11-.3-7.8,4.5,6.3,9.4,15.5,17.7,26.9,19.9s21-1,27.9-8.8c7.5-8.5,7.4-20.3,2.7-30.2s-16.8-18.6-27.4-25l-3.5,8.2c14,2.2,30.3,4.7,42.8-3.8,9.5-6.4,16.2-18.6,11.8-30-4.6-11.7-17.8-16-29.2-17.5-15.6-2.1-31.5,0-46.1,5.8l4.4,7.5c17.4-14.3,14.9-45.3-6.1-54.8-21-9.5-46.9,4.7-46.8,28.5,0,12.4,6.8,24.6,18,30.2,5.2,2.6,9.7-5.2,4.5-7.8h0Z"/>
      <path d="M899.8,639.4c-17.8,2.6-31,22.2-26,39.7,4.8,17,25.2,27,41.7,20.8,5.4-2,3-10.7-2.4-8.7-11.9,4.5-27-1.9-30.6-14.5s6.8-26.7,19.7-28.6c5.7-.8,3.3-9.5-2.4-8.7h0Z"/>
      <path d="M911.4,702.6c-.5,16.9-21.4,25.9-33.4,13.2-5.3-5.7-6.6-14.6-3.3-21.6s4-6.1,3.9-10-1.8-6.3-4-8.8c-9.2-10.6-23.5-24.4-14.4-39.7,4.4-7.4,13.6-8.5,21.2-6,8.3,2.7,14.8,9,21,14.9,4.2,4,10.6-2.4,6.4-6.4-11.5-10.8-26.6-23.2-43.6-17.4-14.3,4.9-19.4,21.5-15.1,35s7.3,14.5,12.8,20.5,7.6,5.9,6,10.1-3.6,6.6-4.4,10.6c-2.8,15,6.5,30,21.7,33.2,17.6,3.7,33.6-9.8,34.2-27.6s-8.8-5.8-9,0h0Z"/>
      <path d="M229.5,906.5c10.4,34.8,18.6,70.2,24.5,106s9.6,3.3,8.7-2.4c-5.9-35.8-14-71.2-24.5-106s-10.4-3.2-8.7,2.4h0Z"/>
      <path d="M595.3,919.6c.2,31.8-2.2,63.5-7.3,94.9-.9,5.7,7.8,8.1,8.7,2.4,5.2-32.2,7.8-64.7,7.6-97.3s-9-5.8-9,0h0Z"/>
      <path d="M1233.1,472.2c5.8,0,5.8-9,0-9s-5.8,9,0,9h0Z"/>
    </g>
  </g>
  <g id="Layer_5" class="st1">
    <image width="1000" height="1000" transform="translate(1.2 -1.2)" xlink:href="research-1.png"/>
  </g>
  <g id="Layer_6">
    <path d="M937.1,882.2c-13,24.1-26,48.2-38.9,72.4-5.1,9.5-10.3,21.2-21.4,24.8s-11.3,1.6-16.9,1.4-13.6-.4-20.4-.3c-26.4.6-52.5,4.6-78.6,7.7s-47.7,5.3-71.4,2.2-45.2-11.4-59.7-30l-3.2,7.7c50.9-2.3,101-14,147.7-34.3,22.6-9.9,45.9-21.3,65.4-36.6,8.7-6.8,15.6-15.2,19.5-25.6,3.5-9.6,4.1-20.1,3.8-30.2-.6-22.3-7.1-48.2,6.4-68,3.3-4.8-4.5-9.3-7.8-4.5-11.4,16.7-10,37.3-8.6,56.5s3.3,42.5-11.8,58.4c-8.2,8.6-18.8,14.7-29,20.7s-21.6,12-32.8,17.2c-22.6,10.6-46.2,19-70.3,25.2s-54.6,11.1-82.5,12.3-5.5,4.7-3.2,7.7c29.2,37.4,83.4,36.1,125.9,31.7,28.4-3,56.7-7.8,85.3-8.9,13.1-.5,26.8,1.7,39.7-.5s19.3-9.2,25.3-18.7,14.8-27.1,22.1-40.6c7.7-14.4,15.5-28.7,23.2-43.1s-5-9.7-7.8-4.5h0Z"/>
    <path d="M860.7,865.9c-32.8-16.7-69.8-6.6-103.6,1s-78.2,11.7-117.7,8.3c-22.5-2-44.8-6.1-66.6-12.1s-8,7.1-2.4,8.7c37.6,10.4,76.7,15.1,115.6,13.7s38.1-2.8,56.8-6.3,35.9-8.4,54.1-11.3,40.9-3.5,59.3,5.9c5.1,2.6,9.7-5.1,4.5-7.8h0Z"/>
    <path d="M781.3,916.4c-33.6,1-67.1,6.1-99.4,15.2-31.3,8.8-62.7,26.5-96,24s-34.9-8.2-48.7-19.3c-4.5-3.6-10.9,2.7-6.4,6.4,25.4,20.4,57.4,26.3,88.8,18.7,16.9-4.1,32.9-11,49.4-16.4,17-5.5,34.3-10,51.9-13.2s40.2-5.8,60.4-6.4c5.8-.2,5.8-9.2,0-9h0Z"/>
    <path d="M545.1,946c-8.9-51.5,12.3-102,33.6-147.6,19.6-41.9,39.6-85.8,80.3-111.1,22.2-13.8,47.2-22.4,71.8-30.7,5.5-1.9,3.1-10.5-2.4-8.7-23,7.8-46.3,15.8-67.5,27.8-21.1,11.9-38.5,28.1-52.4,47.8s-24.2,41.8-34.5,63.6c-11.4,24.1-22.5,48.4-30.2,74-8.6,28.4-12.5,58-7.5,87.4,1,5.7,9.7,3.3,8.7-2.4h0Z"/>
    <path d="M839,894.3c21.6-13.5,46.8-24.1,72.9-21.4,21.2,2.2,42.9,14.6,51.4,34.8,2.2,5.3,10.9,2.9,8.7-2.4-9.6-22.9-31.8-37.4-56-40.9-28.9-4.2-57.4,7-81.5,22.1-4.9,3.1-.4,10.9,4.5,7.8h0Z"/>
    <path d="M966.4,906.2c-9.1,10.6-23.6,13.9-36.4,8.5-5.3-2.2-7.7,6.5-2.4,8.7,15.5,6.5,34.3,1.9,45.1-10.9,3.7-4.4-2.6-10.8-6.4-6.4h0Z"/>
    <path d="M979.4,908.8c3.4-52.2,6.8-104.3,10.2-156.5,1.4-21.9,3.6-45.4-7-65.5s-27-29.2-45-36.7c-24.3-10.2-50.9-13.5-74.5-25.5s-9.7,5.1-4.5,7.8c20.3,10.4,42.8,14.7,64.3,21.9s37.7,15.4,48.8,32c12.5,18.6,10.5,41.9,9.1,63.2-1.6,24.8-3.2,49.5-4.8,74.3-1.8,28.4-3.7,56.8-5.5,85.2-.4,5.8,8.6,5.8,9,0h0Z"/>
    <path d="M722.1,643.9c-.9,14.2,6.2,27.6,17.2,36.3,11.6,9.2,26.3,12,40.8,9.5,32.8-5.8,52.5-35.5,62.1-65,1.8-5.5-6.9-7.9-8.7-2.4-8.1,25.3-23.9,50.6-51.1,57.7s-25.4,1.9-35.8-5.6c-9.9-7-16.1-18.3-15.3-30.5s-8.6-5.8-9,0h0Z"/>
    <path d="M736.1,649.6c-.5-10.1-.9-20.2-1.4-30.3s-9.3-5.8-9,0c.5,10.1.9,20.2,1.4,30.3s9.3,5.8,9,0h0Z"/>
    <path d="M842.6,641.3c-1.8-17.6-4.9-34.9-9.5-52-1.5-5.6-10.2-3.2-8.7,2.4,4.4,16.3,7.5,32.8,9.1,49.6.6,5.7,9.6,5.8,9,0h0Z"/>
    <path d="M703,543.7c-12.7,16.6-7.9,40.9,5.6,55.5,15.4,16.7,40.4,21.3,62.2,20.1,20.8-1.2,42-7.8,57.9-21.6,19.2-16.6,23.1-40.6,25.4-64.6,2.7-28.5,5.5-57,8.1-85.5,1-11.6,1.6-23.8-3.3-34.6-4.8-10.5-14.3-17.3-24.6-21.9s-23.3-9.3-35.2-12.8-26.1-6-39.4-4.4c-20.9,2.6-39,14.8-51.8,31.2-37.2,47.8-21.8,110-6.6,163.1,1.6,5.6,10.3,3.2,8.7-2.4-12.6-44-27.2-94.6-5.6-138.2s20.8-31.3,37.7-39.4c21.4-10.3,44.9-5,66.2,2.4,10,3.5,20.4,6.8,29.5,12.3,9.8,5.9,15.1,15,16,26.4.9,11.1-.9,22.5-2,33.5s-2.5,26-3.7,39-2.3,24.9-3.5,37.3-2.9,23.6-8.1,34.1c-8.6,17.4-25.8,28.3-44,33.4-21,5.9-46.5,6-65.8-4.9s-29.8-35.2-15.7-53.5-4.3-9.1-7.8-4.5h0Z"/>
    <path d="M729.1,516.2c-6.5,8.3-8.8,18.8-5.3,28.8,1.9,5.4,10.6,3.1,8.7-2.4-2.4-6.8-1.6-14.3,3-20.1,3.6-4.5-2.8-10.9-6.4-6.4h0Z"/>
    <path d="M793.7,522.1c7.8,2.6,11.9,12.5,8.1,19.8s5.1,9.7,7.8,4.5c6.6-12.6,0-28.6-13.5-33.1-5.5-1.8-7.9,6.9-2.4,8.7h0Z"/>
    <path d="M735.6,535.6c18.8,2.4,37.8,1.7,56.4-1.9,5.7-1.1,3.3-9.8-2.4-8.7-17.8,3.4-36,3.9-54,1.5s-5.7,8.3,0,9h0Z"/>
    <path d="M758.8,476.9c-4.7,10.3-9.3,20.6-14,31s5.4,9.8,7.8,4.5c4.7-10.3,9.3-20.6,14-31s-5.4-9.8-7.8-4.5h0Z"/>
    <path d="M758.4,503.7c-3.9.9-8.7,3.3-9.2,7.7s1.6,5.5,4.3,6.4,2.6.4,4,.2.7,0,1.1-.2c.3,0,.3,0,0,0,.3,0,.6,0,.9,0,2.3.2,4.6-2.2,4.5-4.5s-2-4.2-4.5-4.5-2.3.1-3.4.3,0,0,.2,0c1.5.5,2.1,1.8,1.8,3.6-.7,1.1-.9,1.4-.5,1,.2-.2.2-.2-.2.1.2-.1.3-.2.5-.3.3-.2.7-.4,1.1-.6.3-.1.2-.1-.1,0,.2,0,.4-.1.6-.2.5-.2.9-.3,1.4-.4,2.3-.6,3.9-3.3,3.1-5.5s-3.1-3.7-5.5-3.1h0Z"/>
    <path d="M773.5,511.3c.3-.1.5-.2.8-.3-.5,0-.4,0,.1,0,.5,0,.6,0,.1,0,.2,0,.4,0,.6.2.3,0,.3,0,0,0,.5.3.5.3,0,0-.8-3.1-.2-4.8,1.7-5.2-.3,0-.6,0-.9,0-2.3-.3-4.6,2.3-4.5,4.5s2,4.2,4.5,4.5,4.3-.3,5.8-1.9,2-5.3.3-7.5c-2.5-3.2-7.4-4.1-11.1-2.8s-3.9,3.1-3.1,5.5,3.2,4,5.5,3.1h0Z"/>
    <path d="M768.4,485c1.1,3.8,3,7,5.4,10.1s5.9,6.9,5.1,11.2,7.6,8.1,8.7,2.4,0-9.2-2.5-13.4-6.6-7.8-8-12.8-10.2-3.2-8.7,2.4h0Z"/>
    <path d="M762,466.8c-6.9-5-15.4-6.2-23.8-5.7s-15.5.8-22.1,3.9c-12.5,5.7-16.7,22.2-9.2,33.6s23.6,14.9,36,8.7,20.3-22.8,19-37.8-9.5-5.8-9,0c.9,10.6-2.1,21.8-11.3,28.1s-20.7,5.3-26.9-3.5-1.2-19.7,8.6-22.1,24.9-4.1,34.2,2.6c4.7,3.4,9.2-4.4,4.5-7.8h0Z"/>
    <path d="M758.9,473.4c5-.6,9.9-.8,14.9-.7s5.8-8.8,0-9-10,0-14.9.7-4.5,1.9-4.5,4.5,2.1,4.8,4.5,4.5h0Z"/>
    <path d="M809,453.8c-13.3-.8-37.8,2.6-39.8,19.5s16,25.4,29.8,27.3,29.8-5.8,34.6-21c2.2-6.8,1.3-14.1-4.6-18.7s-16.3-7.2-24.7-7.6-5.8,8.8,0,9,11.7,1.5,16.9,4.3,5.1,7.6,2.8,12.7c-4.7,10.4-15,14.2-25.8,12.1s-23.5-7.4-20-18.3,8.1-7.1,12.6-8.5,11.9-2.3,18-1.9,5.8-8.7,0-9h0Z"/>
    <path d="M704.7,515c-2.9,13.3-1.9,28.4,8.6,38.3s10.7,7,17.1,7.2,6-.4,8.7-1.5,3.6-2.1,5.5-2.5,4.3.5,6.2,1c14.1,3.8,27.7,1.8,40.7-4.4,4.1-2,6.5-.7,10.6.2s6.4.4,9.5-.9c5.9-2.4,9.5-7.5,12.8-12.7,8.7-14,17.2-28.9,17.2-45.8s-9-5.8-9,0c0,15.8-8.7,30.4-17.2,43.2s-3.9,5.6-6.9,7-7.5-.9-11.4-1.3c-7.2-.6-13.5,4.7-20.2,6.4s-15.4,1.8-23-.2c-3.4-.9-6.7-1.9-10.2-1.4s-6,2.6-9.2,3.4c-7.4,2-14.7-2.5-18.5-8.7s-4.5-16.7-2.7-25c1.2-5.6-7.4-8.1-8.7-2.4h0Z"/>
    <path d="M711.1,568.8c.9,10.7-3.2,20.4-11.4,27.3s1.9,10,6.4,6.4c9.9-8.2,15.1-20.9,14-33.7s-9.5-5.8-9,0h0Z"/>
    <path d="M729.4,576.8c-1,8.1-4.4,24,5.9,27.3,5.5,1.8,7.9-6.9,2.4-8.7-1.7-.5.5-16.8.7-18.6.7-5.7-8.3-5.7-9,0h0Z"/>
    <path d="M743.7,573.4c-.6,7.1-1.2,14.1-1.8,21.2s0,11,5.2,14.9,9.1-4.3,4.5-7.8-.3-11.6,0-14.5l1.2-13.8c.5-5.8-8.5-5.7-9,0h0Z"/>
    <path d="M761,581c2.3,12.1,3.9,24.2,4.9,36.4s9.5,5.8,9,0c-1.1-13-2.8-26-5.3-38.8-1.1-5.7-9.7-3.3-8.7,2.4h0Z"/>
    <path d="M775.5,593.2c6.2,12.7,17.1,22.1,30.3,26.9,5.4,2,7.8-6.7,2.4-8.7-11.1-4.1-19.7-12.2-24.9-22.8s-10.3-.6-7.8,4.5h0Z"/>
    <path d="M791.4,577.9c7.1,9,16.2,16.1,26.8,20.6s9.9-5.5,4.5-7.8c-9.9-4.2-18.3-10.7-24.9-19.2s-9.9,1.8-6.4,6.4h0Z"/>
    <path d="M817,570.9c5.7,5.9,13,9.8,21.1,11.1s8.1-7.8,2.4-8.7c-6.7-1.1-12.4-3.9-17.1-8.8s-10.4,2.2-6.4,6.4h0Z"/>
    <path d="M827.5,554.4c6.6,5.9,14.3,10.2,23,12.5,5.6,1.5,8-7.2,2.4-8.7s-13.5-5.3-19-10.2c-4.3-3.9-10.7,2.5-6.4,6.4h0Z"/>
    <path d="M834.4,539.3c1.3,4.3,3.7,8.2,7,11.3s10.6-2.4,6.4-6.4-3.8-4.5-4.7-7.4c-1.7-5.5-10.4-3.2-8.7,2.4h0Z"/>
    <path d="M836,525.6c4.7,8.9,12,16.1,21.1,20.4,5.2,2.5,9.8-5.3,4.5-7.8-7.8-3.7-13.8-9.5-17.9-17.1s-10.5-.6-7.8,4.5h0Z"/>
    <path d="M701.3,545.7c3.3,6.9-1,13.7-8.1,15.1-5.7,1.1-3.3,9.8,2.4,8.7,13.2-2.6,19.1-16.6,13.5-28.3-2.5-5.2-10.3-.7-7.8,4.5h0Z"/>
    <path d="M706.7,520.8c-10.9-6-19.2-15.6-23.3-27.4-1.9-5.4-10.6-3.1-8.7,2.4,4.8,14,14.4,25.6,27.4,32.7,5.1,2.8,9.6-5,4.5-7.8h0Z"/>
    <path d="M706.3,514c-3.7-9-8.3-17.4-14.1-25.1s-11.3,0-7.8,4.5c5.3,7.1,9.8,14.8,13.2,23s10.9,3,8.7-2.4h0Z"/>
    <path d="M690.7,476.5c1.2,9.2-.8,17.6-6.1,25.2-3.3,4.8,4.5,9.3,7.8,4.5,6.1-8.7,8.7-19.2,7.4-29.8s-9.7-5.7-9,0h0Z"/>
    <path d="M701.6,488.9c-.9-13.7-3.2-27.2-6.8-40.4s-10.2-3.2-8.7,2.4c3.4,12.5,5.6,25.1,6.5,38s9.4,5.8,9,0h0Z"/>
    <path d="M699.8,461.8c4.7-7.4,3.7-16.4,1.9-24.5s-5.9-18.4-11.1-26.5-10.9-.4-7.8,4.5,7.4,13.5,9.4,20.9c1.8,6.6,3.8,14.8-.2,21s4.7,9.4,7.8,4.5h0Z"/>
    <path d="M704.5,439.7c5.8-12.8,5.8-26.5.2-39.3s-10.1-.7-7.8,4.5c4.2,9.6,4.2,20.7-.2,30.3s5.4,9.8,7.8,4.5h0Z"/>
    <path d="M742.5,412.3c-14.6-7.4-31-7.7-46-1.1s-.7,10.1,4.5,7.8c11.8-5.2,25.4-4.7,36.9,1.1,5.2,2.6,9.7-5.2,4.5-7.8h0Z"/>
    <path d="M719.8,417.9c-11.2-.6-22.8,3-29.6,12.5-6.4,9-5.9,20.9,1.4,29.1,3.9,4.3,10.2-2.1,6.4-6.4s-3.9-14.3,1.2-19.6c5.4-5.6,13.1-7,20.6-6.6s5.8-8.7,0-9h0Z"/>
    <path d="M721.1,427.6c-23.3,3.8-35.1,29.2-24.7,49.8,2.6,5.2,10.4.6,7.8-4.5-8.1-16,2.1-33.8,19.3-36.6s3.3-9.6-2.4-8.7h0Z"/>
    <path d="M754.6,412.2c-15.4-16-36.4-25.3-58.6-26.1s-5.8,8.8,0,9c19.8.7,38.5,9.2,52.2,23.5s10.4-2.2,6.4-6.4h0Z"/>
    <path d="M763.1,402.6c-15.1-9.6-30.2-19.1-45.3-28.7-4.9-3.1-9.4,4.7-4.5,7.8,15.1,9.6,30.2,19.1,45.3,28.7,4.9,3.1,9.4-4.7,4.5-7.8h0Z"/>
    <path d="M773,406.5c-11.3-22.8-32.9-39.6-57.8-45s-8.1,7.5-2.4,8.7c22.8,4.9,42,19.9,52.4,40.8,2.6,5.2,10.3.6,7.8-4.5h0Z"/>
    <path d="M780.1,403.8c-5.1-17-15.9-31.5-30.7-41.2-4.8-3.2-9.4,4.6-4.5,7.8,12.8,8.5,22.2,21.1,26.6,35.9,1.6,5.5,10.3,3.2,8.7-2.4h0Z"/>
    <path d="M802.1,413c.7-10.3-8.9-19-15.8-25.4s-16.4-13.3-25.8-18.2-9.7,5.1-4.5,7.8c7.7,4,15,8.8,21.5,14.5s16.1,13.2,15.6,21.3,8.6,5.8,9,0h0Z"/>
    <path d="M811.6,416.9c-6-26.4-25-48.2-50.1-58.3-5.4-2.2-7.7,6.5-2.4,8.7,22.1,8.9,38.5,28.9,43.8,52.1,1.3,5.6,10,3.3,8.7-2.4h0Z"/>
    <path d="M824.3,415.7c-5.2-15.5-11.9-30.4-20-44.5-2.9-5-10.6-.5-7.8,4.5,7.7,13.5,14.1,27.6,19,42.4,1.8,5.5,10.5,3.1,8.7-2.4h0Z"/>
    <path d="M816,428.2c9.2-.4,16.3-7.3,17.8-16.2s-4-20.9-9.9-29.7-11-.3-7.8,4.5,8.2,11.8,8.9,18.9-2.1,13.2-9.1,13.5-5.8,9.2,0,9h0Z"/>
    <path d="M826.3,431.4c8.3-6.1,16.3-13.8,15.9-24.9s-9.2-5.8-9,0-5.8,12.9-11.5,17.2-.1,11.2,4.5,7.8h0Z"/>
    <path d="M833.8,433.7c6-9.2,15-15.6,25.6-18.4s3.2-10.2-2.4-8.7c-12.9,3.4-23.7,11.4-31,22.5s4.6,9.4,7.8,4.5h0Z"/>
    <path d="M836.8,438.3c9-4.6,18.7-6.1,28.7-4.9s5.7-8.3,0-9c-11.6-1.4-22.9.8-33.3,6.1-5.2,2.6-.6,10.4,4.5,7.8h0Z"/>
    <path d="M838.3,441.5c11.4,3.2,22.8,6.5,34.2,9.7l-2.7-6.6-.5.8c-3.1,4.9,4.6,9.4,7.8,4.5l.5-.8c1.6-2.5,0-5.8-2.7-6.6-11.4-3.2-22.8-6.5-34.2-9.7s-8,7.1-2.4,8.7h0Z"/>
    <path d="M830.4,446.6c9.8,8.9,20.1,17.3,30.8,25.2,4.7,3.4,9.2-4.4,4.5-7.8-10.1-7.5-19.7-15.4-29-23.8-4.3-3.9-10.7,2.5-6.4,6.4h0Z"/>
    <path d="M835,463.8c11.1,13.1,22.2,26.2,33.3,39.3,3.8,4.4,10.1-2,6.4-6.4-11.1-13.1-22.2-26.2-33.3-39.3-3.8-4.4-10.1,2-6.4,6.4h0Z"/>
    <path d="M828.1,468.7c8.9,6.2,16.3,14,22.1,23.1,3.1,4.9,10.9.4,7.8-4.5-6.6-10.5-15.1-19.3-25.3-26.4s-9.3,4.5-4.5,7.8h0Z"/>
    <path d="M705,473.7c-.8,5.1-2.1,10.1-4.3,14.9s-4.7,7.3-4.3,11.8,9.5,5.8,9,0,3.6-8.3,4.9-11.6,2.7-8.3,3.3-12.7c.8-5.7-7.8-8.1-8.7-2.4h0Z"/>
    <path d="M671.9,714.1c-36.5,48.7-24.8,112.8-13.4,167.9,1.2,5.7,9.9,3.3,8.7-2.4-11-52.9-22.6-114.2,12.5-161,3.5-4.6-4.3-9.1-7.8-4.5h0Z"/>
    <path d="M554.6,851.5c32.5,17.9,70.3,23.9,106.8,17.1,5.7-1.1,3.3-9.7-2.4-8.7-34,6.3-69.6.5-99.8-16.2-5.1-2.8-9.6,5-4.5,7.8h0Z"/>
    <path d="M14,849c71.2-2,142.3-3.4,213.5-4,70.9-.6,141.7-.6,212.6.1,40.2.4,80.5,1.1,120.7,1.9s5.8-8.9,0-9c-71.2-1.5-142.4-2.3-213.6-2.5-70.9-.1-141.7.4-212.6,1.7-40.2.7-80.5,1.6-120.7,2.8-5.8.2-5.8,9.2,0,9h0Z"/>
    <path d="M603.1,398.8c-6.3,87.7-8.3,175.7-5.9,263.6.7,25.1,1.7,50.2,3.1,75.3.3,5.8,9.3,5.8,9,0-4.9-87.8-5.4-175.8-1.6-263.6,1.1-25.1,2.6-50.2,4.4-75.2s-8.6-5.8-9,0h0Z"/>
    <path d="M14.1,385.9c76.8,4,153.8,6.8,230.7,8.4,76.6,1.6,153.2,2,229.8,1.2,43.4-.4,86.9-1.3,130.3-2.5s5.8-9.2,0-9c-76.9,2.1-153.9,3.1-230.8,2.8-76.6-.2-153.2-1.7-229.8-4.3-43.4-1.5-86.8-3.4-130.2-5.6s-5.8,8.7,0,9h0Z"/>
    <path d="M10.7,382.6c12.7,120.9,15.8,242.8,9,364.1-1.9,34.1-4.6,68.2-8.1,102.2-.6,5.8,8.4,5.7,9,0,12.2-120.9,14.8-242.8,7.5-364.1-2-34.1-4.9-68.2-8.4-102.1s-9.6-5.8-9,0h0Z"/>
    <path d="M716.5,465.8c16.3.8,32.5.2,48.7-1.6s5.8-9.7,0-9c-16.2,1.9-32.4,2.4-48.7,1.6s-5.8,8.7,0,9h0Z"/>
    <path d="M777.3,456.4c16.1-6.4,33.4-7.4,50-2.7,5.6,1.6,8-7.1,2.4-8.7-18.1-5.2-37.4-4.3-54.8,2.7-5.3,2.1-3,10.8,2.4,8.7h0Z"/>
    <path d="M56,498.1c-1.8-14.8-2.6-29.8-2.4-44.7s.7-30.9,15.4-32.5c7.1-.8,11.6,4.6,14,10.5s4.7,13.6,6.4,20.5c3.7,14.8,5.6,29.9,5.8,45.1s9.1,5.8,9,0c-.2-18.5-2.9-37-8.1-54.8s-9.6-31.4-27.2-30.4-22.6,16.7-23.9,30.1c-1.9,18.4-.3,37.7,1.9,56.1s9.7,5.7,9,0h0Z"/>
    <path d="M47.1,469.1c18.1,0,36.1,0,54.2,0s5.8-9,0-9c-18.1,0-36.1,0-54.2,0s-5.8,9,0,9h0Z"/>
    <path d="M137.6,439.4c-10.6,4.2-23.3,3.6-31.6,12.4s-5.1,19.8,1.4,28.1,17.4,17.2,27.7,22.5,22,5.1,24.7-6.7-7.4-8-8.7-2.4c-3,13.1-34.1-15.2-37.6-20.1s-4.5-14.3,3.5-18.4,15.6-3.7,23-6.6,3-10.8-2.4-8.7h0Z"/>
    <path d="M175.6,436.9c-23.1-2.3-35.8,23.1-28.2,42.7s11.4,17.5,20.5,22.3,21.1,4.8,25-6.3-6.8-7.8-8.7-2.4c-2.8,7.9-15.1-.7-18.6-3.6-5.2-4.4-9.3-10.1-10.9-16.8-3.1-13.7,5.9-28.3,20.9-26.8s5.7-8.4,0-9h0Z"/>
    <path d="M201.3,473.2c13.3,1.5,30.2-7.3,25.7-23.1s-8.8-10.7-15.7-10.1-12.9,5.7-15.8,12.1c-6.1,12.9-2.3,30,9.4,38.5,10.8,7.9,27.4,6.3,35.9-4.3,3.6-4.5-2.8-10.9-6.4-6.4s-13.5,8.4-20.9,5.3-12.2-12.5-11.9-20.8,1.6-9.2,4.7-12.5,8.9-4.7,11.5-.5-.2,8.6-3.3,10.7-8.8,2.7-13.2,2.2-5.7,8.4,0,9h0Z"/>
    <path d="M261.8,431.4c-9.7-.6-20.6,0-26.4,9s-1.9,16.9,6.1,21,9.5,3.3,14.3,4.6,11.7,3.1,17.5,4.8,8.1,1.8,6.4,5.3-5.8,3.2-7.3,3.8c-5.5,2.1-11.1,3.5-16.9,4.4s-3.3,9.5,2.4,8.7c8.9-1.3,21.5-3.8,28.2-10.4s.7-16.7-7.4-19.5-21.8-4.6-31.8-9-6.6-6.7-2.2-10.7,11.7-3.2,17.2-2.8,5.8-8.7,0-9h0Z"/>
    <path d="M307.4,431.8c-5,1.2-10.1,2.4-15.1,3.6s-6.9,1.6-9.2,4.3c-5.9,7.1,1.6,14.9,7,19.3s14.7,10,23,13.5,4,1.2,3,3-4.6,2.3-6.3,2.8c-5.4,1.5-11,1.7-16.5.8s-8.1,7.7-2.4,8.7c9.1,1.6,19.5,1.2,27.9-3.3s10.1-11.9,3.4-17.3-7.6-3.6-11.2-5.4-8.7-4.7-12.6-7.7-4-3-5.7-4.7-2.9-2.8-2.2-4.1,2-.6,2.5-.7c5.6-1.5,11.4-2.7,17-4s3.2-10-2.4-8.7h0Z"/>
    <path d="M322.6,449.8l9.1,29.4c1.7,5.5,10.4,3.2,8.7-2.4-3-9.8-6.1-19.6-9.1-29.4s-10.4-3.2-8.7,2.4h0Z"/>
    <path d="M318,427.3c5.8,0,5.8-9,0-9s-5.8,9,0,9h0Z"/>
    <path d="M336.2,420.4c7.9,16,13,33.3,14.8,51s9.6,5.8,9,0c-2.1-19.4-7.4-38.1-16.1-55.6s-10.3-.6-7.8,4.5h0Z"/>
    <path d="M357.1,454.6c3.3-6.7,13.3-7.4,15.5.6s-6.7,12.6-12.9,8.5-9.4,4.6-4.5,7.8c13,8.5,30.4-3.4,26.2-18.6-4.2-15.1-25.2-16.7-32-2.7s5.2,9.8,7.8,4.5h0Z"/>
    <path d="M385.5,446.9l4.4,21.1c1.2,5.7,9.9,3.3,8.7-2.4s-3-14.1-4.4-21.1-9.9-3.3-8.7,2.4h0Z"/>
    <path d="M383.2,429.2c5.8,0,5.8-9,0-9s-5.8,9,0,9h0Z"/>
    <path d="M402.6,420.4c5.2,13.8,8.6,28.1,9.8,42.9s9.5,5.8,9,0c-1.3-15.5-4.6-30.7-10.1-45.3s-10.7-3-8.7,2.4h0Z"/>
    <path d="M431.8,445.2c3.3,5.9,5.6,12.2,6.5,19s9.7,5.7,9,0c-1.1-8.4-3.5-16.2-7.7-23.5s-10.6-.5-7.8,4.5h0Z"/>
    <path d="M431.8,429.2c5.8,0,5.8-9,0-9s-5.8,9,0,9h0Z"/>
    <path d="M452.4,416.6c2.7,8.2,4.4,16.5,4.7,25.1s-.7,16,3.9,22.7,9.5,8.5,15.7,6.4,9.5-7.9,7.9-13.9-10.2-3.2-8.7,2.4-1.9,3.4-3.7,3.1-3.7-2.6-4.5-4.4c-2.3-4.6-1.5-10.5-1.6-15.5-.2-9.7-1.9-19.3-5-28.4s-10.5-3.1-8.7,2.4h0Z"/>
    <path d="M453.4,438.6c10,4.9,20.6,7.3,31.6,7.1s5.8-9.1,0-9c-9.5.2-18.6-1.7-27.1-5.9s-9.8,5.2-4.5,7.8h0Z"/>
    <path d="M494.5,437.8c-5.4,10.8-.5,25.6,11.6,29.2s25.2-6.3,26.2-18.9h-9c-.8,15.5,6.1,29.2,8.9,44.1,2.5,13,.5,27.6-13,33.5-12.2,5.3-27.7,4.1-40.3,1.4-14.4-3-27.8-9.3-39.6-18.1s-9.1,4.3-4.5,7.8c13.2,9.9,28.7,16.8,45,19.7,14.2,2.5,30.6,3.3,44-2.9s19.1-19.9,18.3-34.1c-.9-17.6-10.7-33.5-9.8-51.2.3-5.8-8.6-5.7-9,0s-8.1,12.5-14.8,10.2-9.1-10.3-6.2-16-5.2-9.7-7.8-4.5h0Z"/>
    <path d="M236.2,548.7c36-.2,71.8-4.4,106.9-12.3s3.3-9.9-2.4-8.7c-34.3,7.7-69.3,11.7-104.5,11.9-5.8,0-5.8,9,0,9h0Z"/>
    <path d="M286.9,517.5c1.3,16.1-.4,32.2-5.8,47.4s6.8,7.8,8.7,2.4c5.6-15.9,7.5-33,6.1-49.8s-9.5-5.8-9,0h0Z"/>
    <path d="M67.7,595.4c-1.9,17.7-1.9,35.6-.1,53.3s9.6,5.8,9,0c-1.8-17.7-1.8-35.6.1-53.3s-8.4-5.7-9,0h0Z"/>
    <path d="M62.4,605.8c4-8.3,10.4-14.9,18.9-18.8s23.2-6.9,26.4,3.7-2.8,19.7-9.5,25.5-19.1,8.2-28.8,4.6-7.9,5.8-3.5,8.2c18,9.7,36,19.4,54,29.1s5.8.2,6.6-2.7l1.5-5.4c1.6-5.6-7.1-8-8.7-2.4l-1.5,5.4,6.6-2.7c-18-9.7-36-19.4-54-29.1l-3.5,8.2c13,4.7,27.9,2,38.1-7.4s15.2-23.1,10.8-35.2-21-13.8-32.6-10.2-23.1,12.8-28.7,24.6c-2.5,5.2,5.3,9.8,7.8,4.5h0Z"/>
    <path d="M128.6,638.9c12.2-.2,26.1-1.7,33-13.1s2.9-22.3-8.3-25.8-21.7,3.6-25,14.2,1.3,23.9,10.2,31.4,27.6,9.9,39.5,1.4.2-11.1-4.5-7.8c-9,6.4-21.2,6.7-29.6-1s-10.7-17.5-4.9-25.6c5.2-7.3,19.4-5.2,16.4,5.4-3.2,11.2-17.2,11.7-26.7,11.8-5.8.1-5.8,9.1,0,9h0Z"/>
    <path d="M182,615.2c-.2,7.6,0,15.9,4.7,22.3,4,5.4,11.1,8.9,17.8,6.8,15.3-4.6,14.9-29.7,12.7-41.8s-9.7-3.3-8.7,2.4,1.1,11,.3,16.4-1.7,10.6-5.3,13.5-8.6-.6-10.5-4.2-2-10.4-1.9-15.4-8.9-5.8-9,0h0Z"/>
    <path d="M226.4,618c6.5,3.7,14.7,6.4,22,2.9s9.3-8,9.1-14c-.5-13.5-19-15.1-25.5-5.2s2,26.9,13.1,33.5,14,6.4,21.3,6.3,12.4-4.7,9.7-11.3-10.9-3-8.7,2.4c0-.2-9.6-1.5-10.4-1.8-3.4-1.1-6.6-2.7-9.6-4.7-5-3.4-10.7-9.3-9.4-16s2.1-5.3,4.9-5.9,4.9.4,5.5,2.7-2.4,5.5-4.7,6.3c-4.3,1.4-9.1-.8-12.7-2.9s-9.6,4.9-4.5,7.8h0Z"/>
    <path d="M270.6,621.4c2.3,6.5,5.7,12.3,10.2,17.5s8.3-.3,7.5-4.4c-1.5-7.6-2.9-15.2-4.4-22.7s-2.6-7.7.5-9.5,5.4-.6,7.4-.3c5.7.8,8.1-7.9,2.4-8.7s-17.7-.7-20,8.4.7,10.5,1.6,15.3,2.6,13.3,3.9,19.9l7.5-4.4c-3.5-4-6.1-8.5-7.9-13.5s-10.6-3.1-8.7,2.4h0Z"/>
    <path d="M312.7,581.6c-.4,19,2.8,37.8,9.6,55.5s9.6,3.3,8.7-2.4-2.1-16.9,2.7-23.7,11.2-7.8,16.7-2.9,4.3,12.2-.9,16.2c-5.5,4.4-13.3,1.6-16.6-4.1s-10.7-.5-7.8,4.5c5.5,9.4,18,13.8,27.7,8.1s13.1-19.1,6.5-28.3-19.6-10.9-28.5-3.7-10.5,23.5-8.5,36.2l8.7-2.4c-6.5-17-9.7-34.9-9.3-53.1s-8.9-5.8-9,0h0Z"/>
    <path d="M419,599.2c13.5.3,26.9.6,40.4.9,5.8.1,5.8-8.9,0-9-13.5-.3-26.9-.6-40.4-.9s-5.8,8.9,0,9h0Z"/>
    <path d="M417.1,625c19.6,1.6,39.2,3.1,58.8,4.7s5.7-8.5,0-9c-19.6-1.6-39.2-3.1-58.8-4.7s-5.7,8.5,0,9h0Z"/>
    <path d="M76.4,696.8c-14.6,1.1-26.8,10.2-33.9,22.8-7.1,12.6-11.1,29.9-9.2,44.3s14.4,23.1,29,23.6c13.8.6,29.6-6,32.3-21s-12.7-24.8-25.4-29.8l-1.2,8.8c9.3-1.2,18.5-2.4,27.8-3.6s5.7-9.7,0-9c-9.3,1.2-18.5,2.4-27.8,3.6s-6.1,6.9-1.2,8.8c9.9,3.9,25.6,12.4,16.6,25.1s-29.1,11.4-37.4,1.5c-8.4-9.9-3.3-28.9.6-39.8s15.2-25.4,29.9-26.5,5.8-9.4,0-9h0Z"/>
    <path d="M127.9,726c-13.5,0-26.4,9.6-29.1,23s4.9,27.5,17.4,32.6c12.6,5.2,28,0,35.3-11.3s4.6-28.1-3.6-38.9-11.7-12-19.8-12.5-13.7,3.7-16.4,10.4,6.6,7.7,8.7,2.4,11.5-3.3,15.4-.2,8.1,9.1,9.9,14.7c3.6,11.7-1.1,24.1-13.4,27.6s-23.2-4.8-24.8-16.7,8.9-22.2,20.5-22.2,5.8-9,0-9h0Z"/>
    <path d="M187,723.9c-10.9-5-23.9-3.6-32.9,4.7-8.9,8.2-11.4,22.2-6.5,33.2s17.1,17.8,29,16.7,21.3-11.3,21.5-24.2-4.5-32.3-20.4-34.5c-5.7-.8-8.1,7.9-2.4,8.7,12,1.6,14.5,17.4,13.7,27.4s-13.8,16.7-24.1,11.5c-9.4-4.7-13.4-15.8-9.3-25.6s16.8-14.7,26.8-10.1,9.8-5.4,4.5-7.8h0Z"/>
    <path d="M225.2,727.8c-10.6-1-23.3,2.2-28.4,12.5-5.5,11.2,1.6,25.3,12.3,30.4,11.8,5.7,23.7-2.8,27.2-14.3s.3-30.1-3-43.2-11.3-32.1-20.6-46.2-11-.3-7.8,4.5c7.5,11.3,13.5,23.5,17.6,36.5,4,12.7,7.4,27.2,6.2,40.5s-3.3,13.4-9.9,14.8c-6.3,1.4-12.1-5-14-10.3-4.7-13.1,10.6-17.3,20.5-16.4s5.7-8.5,0-9h0Z"/>
    <path d="M284.3,688.2c-1,25.4-1.2,50.8-.7,76.2s9.1,5.8,9,0c-.5-25.4-.3-50.8.7-76.2s-8.8-5.8-9,0h0Z"/>
    <path d="M268.2,737.4c15.3,5.6,31.4,7,47.4,4.3,5.7-.9,3.3-9.6-2.4-8.7-14.4,2.4-28.9.7-42.6-4.3s-7.8,6.7-2.4,8.7h0Z"/>
    <path d="M309.5,723.1c1,9.8,2,19.6,3.1,29.4s9.6,5.8,9,0c-1-9.8-2-19.6-3.1-29.4s-9.6-5.8-9,0h0Z"/>
    <path d="M307.9,699.1c5.8,0,5.8-9,0-9s-5.8,9,0,9h0Z"/>
    <path d="M321.4,734.6c4.4,9.4,7.2,19.3,8.7,29.5s9.2,3.8,8.8-1.2c-.8-11.2-1.2-24.4,2.2-35.2s.7-2.7,1.5-3.1c2.2-1.2,1.9.3,2.8,1.4,1.3,1.7,1.5,4.8,2,6.8,1.7,6.4,3.4,12.9,5.1,19.3s6.5,4.6,8.2,1.1,4.6-9,7-13.4,2.4-4.5,3.7-6.6,2.4-4.8,4.5-2.9,1.5,4.2,2,5.7c.7,2.4,1.4,4.8,2.1,7.1,1.5,5.1,3,10.1,4.5,15.2s10.3,3.2,8.7-2.4-4.6-15.5-6.9-23.2-3.3-10.4-8.7-12.1-10.3,2.4-13.2,6.8c-4.3,6.7-7.8,14.1-11.4,21.2l8.2,1.1c-2.3-8.8-3.9-18.3-7.3-26.7s-7.9-10.1-14.3-7.1-8,12.1-8.9,19-1.5,18.6-.9,28l8.8-1.2c-1.6-11-4.9-21.5-9.6-31.7-2.4-5.2-10.2-.7-7.8,4.5h0Z"/>
    <path d="M392.3,751.4c11.1-1.3,24.6-4.5,26.4-17.6s-9.3-19-19.3-13.5-8.8,21.2-.9,29,22.8,11.6,34.8,8.2c5.6-1.6,3.2-10.3-2.4-8.7s-13.3,1.6-19.5-1.3c-5.6-2.6-12.4-8.6-10.4-15.6s10.9-4.7,8.4,2.4-11.2,7.4-17.1,8.1-5.8,9.7,0,9h0Z"/>
    <path d="M492.4,710c-13.7,1.2-27.3,3.2-40.8,6.2-4.4,1-11.3,1.3-13.1,6.3s3.2,8.5,7.2,10.1c6.7,2.7,13.4,5.4,20.1,8.1s12.6,3.6,14.3,8.2c2.7,7-11,6.9-14.7,6.9s-6.6-.2-9.9-.6-4-.6-5.9-1l-1.8-.4c-1.2-.7-2.1-.4-2.8.8,5.2-2.5.7-10.2-4.5-7.8s-5.1,9.4-1.1,12.8,15,4.6,21.5,5,15.8.8,22-3.2,7.7-9.2,5.8-14.9-7.1-8.7-12-10.9c-7.9-3.5-16.1-6.5-24.2-9.7s-4.5-2.6-5.5-2.3c-1.6,3-1.1,3.9,1.2,2.7,1.2-.3,2.5-.6,3.7-.9,4.3-1,8.7-1.9,13.1-2.7,9-1.6,18.1-2.8,27.2-3.6s5.8-9.5,0-9h0Z"/>
    <path d="M519.4,694c6,15.2,9,31.1,8.8,47.5s8.9,5.8,9,0c.1-17.1-2.9-34-9.1-49.9-2.1-5.3-10.8-3-8.7,2.4h0Z"/>
    <path d="M540.2,779.9c5.8,0,5.8-9,0-9s-5.8,9,0,9h0Z"/>
    <path d="M1799.1,303.1c1.9,0,1.9-3,0-3s-1.9,3,0,3h0Z"/>
  </g>
</svg>