<?xml version="1.0" encoding="UTF-8"?>
<svg xmlns="http://www.w3.org/2000/svg" version="1.1" xmlns:xlink="http://www.w3.org/1999/xlink" viewBox="0 0 1000 1000">
  <!-- Generator: Adobe Illustrator 29.7.0, SVG Export Plug-In . SVG Version: 2.1.1 Build 138)  -->
  <defs>
    <style>
      .st0 {
        opacity: .7;
      }

      .st0, .st1 {
        display: none;
      }
    </style>
  </defs>
  <g id="Layer_2" class="st1">
    <image width="4000" height="6000" transform="translate(-3.7 -336.3) scale(.3)" xlink:href="C:\Users\lukec\Pictures\2025\September\Headshots\Headshot05.jpg"/>
  </g>
  <g id="Layer_3" class="st1">
    <path d="M67.8,1002.9c2.3-39.9,6.3-79.7,12.2-119.2,5.1-33.6,11-68.3,27.2-98.5,16.4-30.4,43.4-51.6,72.1-69.6s62.5-35.7,95.6-49.6c37.6-15.8,76.7-28.1,116.5-36.9,7.5-1.7,4.3-13.2-3.2-11.6-72.8,16.1-143,44.1-206.9,82.7-29.5,17.8-58.5,38.2-77.7,67.4s-27.6,64.9-33.2,99.4-12.2,90.4-14.8,136c-.4,7.7,11.6,7.7,12,0h0Z"/>
    <path d="M386.8,617.9c3,31.4,6.5,63.4,19.7,92.4s35.9,48.8,64.1,61.3c14.1,6.3,28.7,10.8,43.6,14.6,16.3,4.1,32.9,7.9,49.5,10.1,17.2,2.3,34.5,1.2,50.1-7.1,13.3-7.1,24-18.3,32.9-30.3,22.4-30.4,37.8-69.3,31.9-107.4-1.2-7.6-12.7-4.4-11.6,3.2,4.9,31.5-7.8,63.2-24.6,89.3-7.5,11.7-16.6,23.1-28.3,31-13.2,9-28.1,11.4-43.9,10.1-15.5-1.4-30.9-5.2-46-8.8-13.7-3.2-27.4-7-40.5-12.1-26.5-10.3-49.4-27-63.1-52.3s-18.8-62.2-21.9-94c-.7-7.6-12.7-7.7-12,0h0Z"/>
    <path d="M671.6,651.8c53.8,45.9,129.5,49.6,186,91.2,58.5,43,91.3,112.1,108.1,181,11,45.4,16,92,20.2,138.5.7,7.6,12.7,7.7,12,0-7.2-80.3-16.9-162.9-55-235.3s-37.2-59.2-63.5-82.1c-26.9-23.5-58.3-38.2-91.6-50.4-37.3-13.6-76.9-25.2-107.6-51.5-5.8-5-14.4,3.5-8.5,8.5h0Z"/>
    <path d="M354,622.2c16,71.7,57.6,141.3,124.7,175.4,32.6,16.6,70.2,24.8,106.7,20.6s66.9-19.1,91.7-43.8c26.9-26.8,43.9-63.8,42.7-102.1s-12.2-7.7-12,0c2.1,65.4-51.4,121.3-113.9,132.6-69.8,12.7-139.9-23.7-180.9-79.1-23.5-31.7-38.9-68.5-47.5-106.8-1.7-7.5-13.3-4.3-11.6,3.2h0Z"/>
    <path d="M701.5,349.5c4.8,39.6,10.2,81.1-1.1,120.1-8.9,30.6-28.7,60.1-59.6,71.6-17.5,6.6-36.5,7.5-55.1,6.2-19.3-1.4-38.5-5-57.1-10.1-19.1-5.3-37.8-12.3-55.5-21.2s-32.2-17.2-41.5-33-10.8-31.8-10.8-48.4c0-18.6,2.6-37.3,6.4-55.5,8.1-38,22.6-74.4,40.3-108.9s36.2-64.4,68.4-83.5c29.1-17.3,64.7-23.3,97.4-13.8,31.5,9.1,58.6,31.4,72.2,61.4,16.4,36.1,12.7,77.7,5.5,115.6-1.9,10-4.1,20-6.3,30-1.6,7.5,9.9,10.7,11.6,3.2,9-41.6,18-84.6,8.8-127-7.9-36.3-30.7-67.1-63.6-84.6-32-17-69.8-19.5-104.1-7.9s-33.7,15.2-47.8,27.1c-14.9,12.6-26.8,28.5-36.9,45.1-21.4,35.1-38.7,73.6-50.3,113-5.8,19.7-10,40-12.2,60.4s-2.6,38.2,1.8,56.7c4.3,18.1,14.1,33.5,28.9,44.8,15.8,12,34.8,20.4,53.2,27.5,19.8,7.7,40.4,13.5,61.4,17.1,19.6,3.4,39.9,5.6,59.8,3.5s37.5-7.9,52.9-19.6c13.6-10.3,24.5-23.8,32.4-38.9,19.1-36.4,20.1-78.2,16.4-118.3-1-11-2.3-21.9-3.7-32.8s-12.9-7.7-12,0h0Z"/>
    <path d="M554.2,239.8c-12.9-3.8-26.1-7.5-39.6-8.2-10.9-.6-23.4.5-31,9.4s-7.6,21.4-9.6,32.2-4.3,24.5,1,35.9c9.3,19.8,37.3,30.5,58,29.1,24.1-1.6,42.7-20.4,49.7-42.7,7.4-23.8-4.2-52.4-31-55.5-7.7-.9-7.6,11.1,0,12,17.8,2.1,24,22.9,20.1,37.9-4.5,17.4-18.6,34.1-37.2,36.2s-37.8-5.4-47.1-19.2c-5.6-8.3-4.1-18.6-2.5-27.9s1.8-18,5.1-25.9,16.6-10.2,26.2-9.4,23.3,4.4,34.6,7.7,10.6-9.4,3.2-11.6h0Z"/>
    <path d="M583.1,284.4c11.4-7.3,25.9-4.5,33.1,7.1,4.1,6.6,14.4.5,10.4-6.1-10.5-17-32.6-22.4-49.5-11.4s-.5,14.6,6.1,10.4h0Z"/>
    <path d="M698.5,275.9c-12.8-3-25.8-5.3-38.9-7s-23.4-3.3-32.5,4.8-10.5,19.2-12.7,29c-2.8,11.9-2.6,23.5,3,34.6,9.5,19,31,35.5,52.9,34.4s41.3-17.3,49.8-37.9,7.7-24.7,2.5-36.2c-5-11-16.1-16.8-26.6-21.6s-13.1,7.2-6.1,10.4,15.1,6.6,19.9,13c5.5,7.4,3.5,17.2.9,25.3-5.3,16.7-18,31.2-35.8,34.5s-34.4-8.4-43.9-22.5c-5.2-7.7-7.5-16.1-6.1-25.4,1.3-8.3,3.4-18.9,8.1-26s18.1-5.3,26.6-4.3c12,1.5,23.9,3.8,35.7,6.6s10.7-9.8,3.2-11.6h0Z"/>
    <path d="M552.3,326.4c-4.3,7.7-8.6,15.4-12.9,23.2s-6.1,13.6,0,19.4c5,4.8,13.6,5.6,20,7.2s14.4,4.4,20.3-.6c4.9-4.1,5.4-11.6,2.5-17-3.2-6-10.4-9.1-16.7-10.6s-16.2,1-16.8,9.5c-.6,8.4,7.9,11.5,14.8,11s7.7-12.5,0-12c-1.2.2-2.4.2-3.6,0l.3,2.9c.7.6,4,.7,5.2,1.1,2,.7,5.7,1.9,6.4,4.1s-2,1.8-4,1.3c-3.9-.9-7.7-2-11.5-2.9s-7.2-1-8.3-2.5,2.1-5.6,3.1-7.4c3.8-6.9,7.7-13.8,11.5-20.7,3.8-6.8-6.6-12.8-10.4-6.1h0Z"/>
    <path d="M570,376.7c2.4,3.3,5.3,5.2,9.5,5.7s8.1-1.8,12-.7,7.4,4.3,11.3,5.8,8.8,2.1,13,.1c8.8-4.1,9.3-14,8.5-22.4s-2.3-21.8-3.5-32.7-12.8-7.7-12,0,1.7,15.2,2.5,22.8.8,7.3,1.2,10.9,1.4,7.7-.8,10-12.2-4.3-15.4-5.5-6.1-1.4-9.3-1-3.2.8-4.7.8-2.3-.5-1.8.2c-4.6-6.1-15-.1-10.4,6.1h0Z"/>
    <path d="M611.5,361.7c-3-2.8-6.7-5-11-4.7s-8.3,3.1-9.6,7.2c-2.7,8.8,7.5,14.3,14.2,17s6.6-1.3,7.4-4.2-1.2-6.2-4.2-7.4-2.4-1.2-3.5-1.9-2.6-2.4-2.9-2.4c.8,0,.4,2.8.3,3-.2.3-1.2.4-1.3.6.2-.4,2,1.1,2.2,1.2,2.4,2.2,6.1,2.4,8.5,0s2.4-6.3,0-8.5h0Z"/>
    <path d="M514.6,410.6c36,16.2,74.5,25.6,113.9,27.4,7.7.4,7.7-11.6,0-12-37.2-1.7-73.9-10.5-107.9-25.8s-13.1,7.2-6.1,10.4h0Z"/>
    <path d="M503,381.6c-11.7,3.4-19.6,13.8-20.2,25.8s11.6,7.7,12,0,5.1-12.4,11.4-14.3,4.3-13.7-3.2-11.6h0Z"/>
    <path d="M516.2,382.6c-9.2,2.3-16.7,9.9-18.5,19.3s.9,6.5,4.2,7.4,6.8-1,7.4-4.2c1-5.5,4.7-9.5,10.1-10.9s4.3-13.4-3.2-11.6h0Z"/>
    <path d="M535.9,378.5c-7.8,5.8-13.3,13.1-16.9,22.1-1.2,3,1.3,6.6,4.2,7.4s6.2-1.2,7.4-4.2c2.3-5.8,6.3-11.2,11.4-15s3.9-5.2,2.2-8.2-5.6-4.1-8.2-2.2h0Z"/>
    <path d="M560.1,384.8c-4.6,4.8-9.2,9.6-13.7,14.4s3.2,14.1,8.5,8.5c4.6-4.8,9.2-9.6,13.7-14.4s-3.2-14.1-8.5-8.5h0Z"/>
    <path d="M590.3,390.1c-6.1,3.8-11.1,8.7-15.1,14.6s-.5,6.6,2.2,8.2,6.4.5,8.2-2.2c2.8-4.2,6.5-7.7,10.8-10.3,6.6-4,.5-14.4-6.1-10.4h0Z"/>
    <path d="M596,404.4c1.1,3.6.5,7.4-2.1,10.3-5.1,5.7,3.3,14.2,8.5,8.5,5.4-6,7.5-14.1,5.2-22s-13.7-4.3-11.6,3.2h0Z"/>
    <path d="M607.2,411.4c2.9,3.7,3.9,7.5,3.3,12.1s3,6,6,6,5.6-2.8,6-6c.8-6.4-1-13.1-5-18.2-2-2.6-5.2-3.9-8.2-2.2s-4.1,5.6-2.2,8.2h0Z"/>
    <path d="M624.6,422.7c2.9,2.4,4.9,5.5,5.1,9.4s2.6,6,6,6,6.2-2.7,6-6c-.4-6.9-3.3-13.4-8.6-17.8s-6.1-2.4-8.5,0-2.5,6.4,0,8.5h0Z"/>
    <path d="M638.7,432c4.5,5.3,7.2,11.6,8.5,18.4,1.5,7.6,13.1,4.4,11.6-3.2-1.7-8.9-5.8-16.8-11.6-23.7s-13.4,2.6-8.5,8.5h0Z"/>
    <path d="M423.9,355.4c.4,24.5-7.5,48.8-22.7,68.1-4.7,6,3.7,14.5,8.5,8.5,17.3-21.8,26.7-48.7,26.2-76.6s-12.1-7.7-12,0h0Z"/>
    <path d="M424.9,390.6c-2,15-3.9,30-5.9,45s3.1,6,6,6,5.6-2.8,6-6c2-15,3.9-30,5.9-45s-3.1-6-6-6-5.6,2.8-6,6h0Z"/>
    <path d="M433.7,419.5c-4.1,18.7-8.2,37.3-12.3,56s9.9,10.7,11.6,3.2c4.1-18.7,8.2-37.3,12.3-56s-9.9-10.7-11.6-3.2h0Z"/>
    <path d="M450.2,449.3c0,15.5-2.8,30.6-8.1,45.2s9,10.4,11.6,3.2c5.6-15.5,8.5-31.8,8.6-48.3s-12-7.7-12,0h0Z"/>
    <path d="M465.6,454.8c-1.4,18-3.5,35.9-6.4,53.7s10.3,10.8,11.6,3.2c3.1-18.9,5.4-37.8,6.9-56.9s-11.4-7.7-12,0h0Z"/>
    <path d="M498.7,493.5c-.7,14.4-1.4,28.7-2.1,43.1s2.9,6,6,6,4.8-1.2,6.6-3.7c4.5-6.3-5.9-12.3-10.4-6.1l-.5.7,5.2-3h-.9c2,2,4,4,6,6,.7-14.4,1.4-28.7,2.1-43.1s-11.6-7.7-12,0h0Z"/>
    <path d="M508.4,499c-.5,10.1-.3,20.1.6,30.2s12.7,7.7,12,0-1.1-20.1-.6-30.2c.4-7.7-11.6-7.7-12,0h0Z"/>
    <path d="M533.4,500.2c1.2,9.3,3,18.4,5.9,27.3,2.1,6.6,4.5,16.4,12.6,17.8,7.6,1.3,10.8-10.3,3.2-11.6s-5.1-12-5.8-14.6c-1.7-6.2-3-12.5-3.9-18.9s-13-7.6-12,0h0Z"/>
    <path d="M488.4,475.5c-.9,9.7-2,19.4-3.4,29.1s-2.3,16-8.1,21.7,3,13.9,8.5,8.5,9.5-16,10.9-25.3,3.1-22.6,4.1-33.9-11.3-7.6-12,0h0Z"/>
    <path d="M487.3,488.8c.7,12.1-4.3,23.1-13.7,30.7-6,4.9,2.5,13.3,8.5,8.5,11.6-9.5,18-24.3,17.2-39.2s-12.4-7.7-12,0h0Z"/>
    <path d="M534.7,497.8l2.1,48.1c.3,7.7,12.3,7.7,12,0l-2.1-48.1c-.3-7.7-12.3-7.7-12,0h0Z"/>
    <path d="M552.7,518.2c3.1,19.8,7.3,39.4,12.5,58.7,2,7.4,13.6,4.3,11.6-3.2-5.2-19.3-9.4-38.9-12.5-58.7-1.2-7.6-12.8-4.4-11.6,3.2h0Z"/>
    <path d="M570,521.7c2.6,8.5,5.6,16.8,9.1,25s5.8,14.3,13.7,16.5,10.6-9.5,3.2-11.6-6.7-11.3-8-14.7c-2.4-6.1-4.5-12.2-6.4-18.4s-13.8-4.2-11.6,3.2h0Z"/>
    <path d="M592.2,513.9c2.7,12.2,5.9,24.4,9.5,36.4s13.8,4.2,11.6-3.2c-3.7-12-6.8-24.1-9.5-36.4-1.7-7.5-13.2-4.3-11.6,3.2h0Z"/>
    <path d="M610.7,511.9c2.5,12,7.6,23.3,14.9,33.2,4.6,6.1,15,.1,10.4-6.1-6.8-9.1-11.4-19.2-13.7-30.3-1.6-7.6-13.2-4.4-11.6,3.2h0Z"/>
    <path d="M625.4,510c.4,7.6.8,15.1,1.2,22.7s12.4,7.7,12,0-.8-15.1-1.2-22.7-12.4-7.7-12,0h0Z"/>
    <path d="M635.8,497.7c8.5,14.9,16.1,30.4,22.5,46.3,2.9,7.1,14.5,4,11.6-3.2-6.9-16.9-14.7-33.3-23.8-49.1-3.8-6.7-14.2-.7-10.4,6.1h0Z"/>
    <path d="M657.6,504.1c3.2,9.9,6.3,19.9,9.5,29.8s13.9,4.2,11.6-3.2l-9.5-29.8c-2.3-7.3-13.9-4.2-11.6,3.2h0Z"/>
    <path d="M671.7,503.3c2.4,7.9,6.7,15,12.7,20.8,5.6,5.4,14-3.1,8.5-8.5-4.5-4.4-7.7-9.5-9.6-15.5s-13.9-4.2-11.6,3.2h0Z"/>
    <path d="M682.3,478.7c.8,5.7,1.6,11.5,2.4,17.2.4,3.2,4.5,5,7.4,4.2s4.6-4.2,4.2-7.4c-.8-5.7-1.6-11.5-2.4-17.2s-4.5-5-7.4-4.2-4.6,4.2-4.2,7.4h0Z"/>
    <path d="M693,453.7c3.6,10.3,7.9,20.3,12.9,29.9s13.9.8,10.4-6.1-8.4-17.8-11.7-27.1-14.2-4.1-11.6,3.2h0Z"/>
    <path d="M630.4,443.4c-.4,7,.1,13.9,1.3,20.8.5,3.2,4.5,5,7.4,4.2s4.7-4.2,4.2-7.4c-1-5.8-1.2-11.7-.8-17.6s-11.6-7.7-12,0h0Z"/>
    <path d="M627.2,453.2c-.5,6.5-1.8,12.9-3.5,19.2s9.5,10.6,11.6,3.2c2.1-7.3,3.3-14.8,4-22.4s-11.4-7.7-12,0h0Z"/>
    <path d="M620.7,475.8c1.6,4.5,1.2,9.2-2.1,12.9-5.2,5.7,3.3,14.2,8.5,8.5,6-6.7,8.3-16,5.2-24.5-2.6-7.2-14.2-4.1-11.6,3.2h0Z"/>
    <path d="M479.7,418.3l-5.8,20.9c-2.1,7.5,9.5,10.6,11.6,3.2l5.8-20.9c2.1-7.5-9.5-10.6-11.6-3.2h0Z"/>
    <path d="M482,430.5c-.7,6.6,2.9,17.3-2.4,22.6s3,13.9,8.5,8.5c8.8-8.8,4.7-20.1,5.9-31.1s-11.1-7.6-12,0h0Z"/>
    <path d="M500.6,462.6c-1.6,5.2-3.6,10.2-6,15-3.5,6.9,6.8,12.9,10.4,6.1s5.4-11.7,7.3-17.9c2.2-7.4-9.3-10.6-11.6-3.2h0Z"/>
    <path d="M511.6,470c-.8,3.1-1.6,6.3-2.3,9.4s1,6.6,4.2,7.4,6.6-.9,7.4-4.2,1.6-6.3,2.3-9.4-1-6.6-4.2-7.4-6.6.9-7.4,4.2h0Z"/>
    <path d="M524.8,468.9l-.9,11.7c-.2,3.2,2.9,6,6,6s5.8-2.8,6-6l.9-11.7c.2-3.2-2.9-6-6-6s-5.8,2.8-6,6h0Z"/>
    <path d="M543.7,471.2c-1.2,6.4-1.8,12.7-1.4,19.2s12.5,7.7,12,0,0-10.7,1-16c1.5-7.5-10.1-10.8-11.6-3.2h0Z"/>
    <path d="M554.8,480.2c-.4,4.8.2,9.6,1.7,14.1s4.1,5.1,7.4,4.2,5.2-4.3,4.2-7.4-1.6-7.1-1.3-10.9-3-6-6-6-5.7,2.8-6,6h0Z"/>
    <path d="M577.1,479c-1.1,6.3-.9,12.5,1.2,18.6,2.5,7.3,14.1,4.1,11.6-3.2s-2-8.1-1.2-12.2-.9-6.5-4.2-7.4-6.8,1-7.4,4.2h0Z"/>
    <path d="M587.4,486.5c.9,8.3,5.3,15.7,12.9,19.5,2.9,1.4,6.5.8,8.2-2.2s.8-6.8-2.2-8.2-6.6-5-7-9.1-2.5-6-6-6-6.3,2.8-6,6h0Z"/>
    <path d="M572,500.7c3.7,9.2,5.3,18.6,4.7,28.5s11.5,7.7,12,0-1.1-21.6-5.1-31.7c-2.9-7.1-14.5-4-11.6,3.2h0Z"/>
    <path d="M565.6,499.8c.7,3.5,1.3,6.9,1.7,10.5s.3,3.1.4,4.7v1.9c-.1,1.4,0,1.5.6.5-6.9,3.4-.9,13.7,6.1,10.4s5.6-7.2,5.4-11.8-1.3-12.9-2.6-19.3-13.2-4.4-11.6,3.2h0Z"/>
    <path d="M550.3,500.2c1.1,4.9.4,9.6-1.5,14.2s1.3,6.6,4.2,7.4,6.2-1.2,7.4-4.2c2.7-6.6,3-13.6,1.5-20.5-1.6-7.5-13.2-4.4-11.6,3.2h0Z"/>
    <path d="M530.5,490.4c-.3,5.1-2.8,10-7,13s-3.9,5.2-2.2,8.2,5.6,4.1,8.2,2.2c7.8-5.6,12.4-13.8,12.9-23.4s-11.6-7.7-12,0h0Z"/>
    <path d="M509.6,488.4c-1.5,6.5-6.4,11-13,12.2s-4.4,13,3.2,11.6,18.9-10.4,21.3-20.6-9.8-10.7-11.6-3.2h0Z"/>
    <path d="M460.4,432.1c.7,13.1-4,25.3-13.3,34.5s3,13.9,8.5,8.5c11.4-11.3,17.6-26.9,16.8-43s-12.4-7.7-12,0h0Z"/>
    <path d="M448.8,417.9c-2.1,14.9-8.1,28.8-18.1,40.1s3.4,14.3,8.5,8.5c11.3-12.8,18.8-28.4,21.2-45.4s-.8-6.4-4.2-7.4-6.9,1-7.4,4.2h0Z"/>
    <path d="M430.8,393.2c-6.3,15.2-11.9,30.6-16.9,46.3s9.2,10.5,11.6,3.2c5-15.7,10.6-31.1,16.9-46.3s-8.6-10.2-11.6-3.2h0Z"/>
    <path d="M632.4,473c6.2,12.3,10.4,25.6,12.1,39.3.9,7.6,13,7.7,12,0-2-15.9-6.5-31-13.7-45.3-3.5-6.9-13.8-.8-10.4,6.1h0Z"/>
    <path d="M654.2,473.6c.6,11,.4,21.9-.5,32.9s11.4,7.7,12,0c.9-10.9,1-21.9.5-32.9s-12.4-7.7-12,0h0Z"/>
    <path d="M675.6,466.5v27.4c0,7.7,12,7.7,12,0v-27.4c0-7.7-12-7.7-12,0h0Z"/>
    <path d="M691.6,451.6c-1,9.5-3,18.7-5.8,27.8-2.3,7.4,9.3,10.6,11.6,3.2,3.1-10.1,5.2-20.4,6.2-31s-11.2-7.6-12,0h0Z"/>
    <path d="M676.2,459.1c1.1,9.1,1.5,18.2,1.1,27.4s11.7,7.7,12,0,0-18.3-1.1-27.4c-.9-7.6-12.9-7.7-12,0h0Z"/>
    <path d="M698.1,434c-2.4,19.2-3.2,38.6-2.4,57.9.3,7.7,12.3,7.7,12,0-.8-19.4,0-38.7,2.4-57.9s-11.1-7.6-12,0h0Z"/>
    <path d="M483.6,249.9c-13.9-19-38.8,27.2-43,37.2s1.4,6.6,4.2,7.4,6.1-1.2,7.4-4.2c2.7-6.4,6.2-12.6,10.3-18.2s4.2-5.3,6.5-7.8,2.3-2.4,3.5-3.6c.6-.6,1.2-1.2,1.8-1.7,2-1.1,1.6-2.1-1.1-3,4.5,6.2,14.9.2,10.4-6.1h0Z"/>
    <path d="M723.6,318.9c4-1.3,0,10.9-.4,12.3-1.7,5.9-3.3,11.8-4.9,17.7-3.1,11.9-5.7,23.8-8.1,35.9s10.1,10.8,11.6,3.2c3.3-17.1,7.4-34,12.2-50.8s5.1-14.5,2.4-21.7-9.3-10.4-16-8.2-4.2,14,3.2,11.6h0Z"/>
    <path d="M701.8,472c0,4.8.2,9.5.3,14.3s.2,2.1,0,3.1c1.1-.8,1.2-1,.2-.6-.4.1-.9.3-1.3.5-1.9.7-3.5,1.6-4.8,3-5.9,6.3-1.5,16.2,5.5,19.4s15.8-.3,18.3-7.9c2.8-8.5-3.8-15.9-12-16.6s-7.7,11.4,0,12,.6,1.3,0,1.6c-1.2.6-1.7-.7-2.4-1.2-.9,1-.8,1.2,0,.8.7-.2,1.3-.4,1.9-.7,1.9-.8,3.4-1.9,4.7-3.6,2.1-2.9,2-6.4,2-9.8s-.2-9.5-.3-14.3c-.1-7.7-12.1-7.7-12,0h0Z"/>
    <path d="M697.3,493.3c-6.9-.2-10.3,7.9-5.8,13s14.5,3.4,20.2,2.5c5.8-.8,14.6-3,14.9-10.3s-7.9-9.7-13.7-8.1-4.3,13.7,3.2,11.6c2.2-.3,1.8-.9-1.2-1.9l.6-4.6c-1.1,2.4-14.9,2.7-16.7,1.3l2.8,3.6v1c-1.1,1.2-2,2.4-2.9,3.6l-1.4.3c7.7.2,7.7-11.8,0-12h0Z"/>
    <path d="M418.1,339.3c-19.9,23.9-22.6,57.6-5.7,84,4.2,6.5,14.5.5,10.4-6.1-13.8-21.6-12.7-49.6,3.8-69.5s-3.5-14.4-8.5-8.5h0Z"/>
    <path d="M708.8,412.2c.6,14,1.6,28.2,1.6,42.2s-4.4,9.5-8.1,14-6.5,9.7-5.8,15.7,12.9,7.7,12,0,5.2-10,8.6-14.3,5.3-9.5,5.3-15.4c0-14-1.1-28.2-1.6-42.2s-12.3-7.7-12,0h0Z"/>
    <path d="M481.8,152.1c-22.1,18.6-47.9,32.6-75.5,41.2s-4.2,13.9,3.2,11.6c29.7-9.2,57-24.3,80.8-44.3s-2.6-13.4-8.5-8.5h0Z"/>
    <path d="M497.6,169.8c-27,16.5-56.8,27.3-88.1,31.9s-4.4,12.7,3.2,11.6c32.2-4.8,63.2-16.1,91-33.1,6.6-4,.6-14.4-6.1-10.4h0Z"/>
    <path d="M480.9,197.6c-24.6,1.4-52.4,3.9-69.5,24.1s-8.8,48.8,2.6,71.7,13.8.8,10.4-6.1c-9.2-18.5-19.2-41.8-2.5-59.3,15.2-15.9,38.5-17.3,59.1-18.5s7.7-12.4,0-12h0Z"/>
    <path d="M469.5,220.9c-29.7,14.8-57.9,32.4-84.3,52.4-6.1,4.6-.1,15,6.1,10.4,26.4-20,54.6-37.6,84.3-52.4s.8-13.8-6.1-10.4h0Z"/>
    <path d="M454.7,246.4c-17.7,11.2-33.1,25.6-45.3,42.6s-27.2,39-10.7,54.3,14.2-3.2,8.5-8.5-1.8-15.5,1.6-22,8.7-14.9,13.9-21.7c10.6-13.6,23.5-25.2,38.1-34.3s.5-14.5-6.1-10.4h0Z"/>
    <path d="M437.8,267.8c-12,16.1-18.8,35.2-20.4,55.1s11.4,7.7,12,0c1.4-17.9,8.1-34.7,18.7-49.1s-5.8-12.2-10.4-6.1h0Z"/>
    <path d="M443.2,281.6l-8.4,33.4c-1.9,7.5,9.7,10.7,11.6,3.2l8.4-33.4c1.9-7.5-9.7-10.7-11.6-3.2h0Z"/>
    <path d="M608.5,142.6c-6.3-12.5-13.6-25.7-27-31.6-12.8-5.7-26.5-2.8-35,8.5-9,11.9-14.6,27.4-19.6,41.2s-7.3,27.3,2,38.7c4.9,6,13.3-2.5,8.5-8.5s-1.3-20.6,1.7-28.8c4.1-11.2,8.9-22.7,15.2-32.9,5.7-9.2,15-11.6,24.6-6.2,9.5,5.4,14.5,16.2,19.3,25.6,3.5,6.9,13.8.8,10.4-6.1h0Z"/>
    <path d="M577.1,110.6c-15.2-1.7-29.8,3.2-43.3,9.8s-25.1,13.2-34.5,23.3c-21.8,23.5-16.4,56.4-10.2,84.9s13.2,4.3,11.6-3.2c-5.4-24.4-11.4-54.4,8.2-74.4,8.4-8.6,19.5-14.6,30.2-19.9,11.9-6,24.6-10.1,38-8.6s7.6-11.2,0-12h0Z"/>
    <path d="M615.1,147.6c-5.6-36-49-48.8-80.2-49.3s-32.6,5.2-43.2,18.5-14.2,28.4-15.2,44.1,3.7,41.3,13.6,59.4,14.1.7,10.4-6.1c-13.4-24.5-18-58.4-3.8-83.6,6.9-12.3,18.3-19.4,32.4-20.3s31,2.1,44.7,7.5,27.2,16.9,29.7,32.9c1.2,7.6,12.8,4.4,11.6-3.2h0Z"/>
    <path d="M570.9,119c-24.7-3.4-54.7-5.1-71,17.8s-2.1,50.7,10.2,71.4c4,6.6,14.3.6,10.4-6.1-9.8-16.4-23.4-39.3-11.1-58.1,12.3-18.8,39.2-16.2,58.3-13.6s6.4-.8,7.4-4.2-1-6.9-4.2-7.4h0Z"/>
    <path d="M581.2,133.8c-27-3.2-54.9,10-69.6,32.9-15.3,23.7-14.3,56.3,1.4,79.5,4.3,6.4,14.7.4,10.4-6.1-13.5-19.9-14.5-47-1.4-67.4,12.5-19.6,36.5-29.7,59.2-26.9s7.6-11.1,0-12h0Z"/>
    <path d="M650.5,148.5c9.2-8.3,12.7-21.2,10.3-33.2s-14.6-28.1-26.9-18.1-9.1,10.4-12.6,15.8-6.9,11.8-9.5,18.1c-5.4,12.7-8.5,26.1-9.5,39.8-1.1,15.7,1,31.6,6.2,46.4,2.5,7.2,14.1,4.1,11.6-3.2-9-25.6-7.9-54.2,2.9-79.1s6-12.3,9.9-17.9,3.5-4.9,5.5-7.3,2.2-3.4,3.6-3.5,2.8,2.3,3.3,2.9c7.1,9.2,5.1,23.1-3.3,30.6s2.7,13.6,8.5,8.5h0Z"/>
    <path d="M639.9,170.5c0-17.4,8-34.6,22.3-45,7-5.1,15.2-8.5,23.7-10s9.2-1.1,13.7-.6,9.8,2,7,4.7c-5.5,5.5,3,14,8.5,8.5s4.9-9.9,2.5-15.1-8.2-8.6-14.1-9.6c-12.7-2.1-26.2.7-37.7,6.1-23.4,11-37.9,35.5-38,61.1s12,7.7,12,0h0Z"/>
    <path d="M660.9,176.1c1-19.6,15.2-37.3,35.3-39.4,19.3-2,37.5,12,38.5,31.8s12.4,7.7,12,0c-1.3-26-24.4-46.2-50.5-43.8-26.9,2.5-46,24.9-47.3,51.4-.4,7.7,11.6,7.7,12,0h0Z"/>
    <path d="M673.7,184.9c2.7-6,6-13.1,12.2-16.1s11.8-.4,13.6,6.2,1.3,15,.7,22.1-2.4,15.8-4.7,23.4c-4.1,13.5-9.1,28.2-1.7,41.6s18.1,17.6,30.3,17,7.7-12.4,0-12-12.4-2-16.8-6.7-6.2-12.8-4.9-20.1c1.5-8.4,4.9-16.4,6.9-24.7s3.1-16.7,3.3-25.2c.3-13.1-1-30.8-16.5-34.4-15.8-3.6-26.9,10.1-32.7,22.8-3.2,7,7.2,13.1,10.4,6.1h0Z"/>
    <path d="M664,167.8c17.7-1.6,36,.8,51.1,10.6s23,23.7,23,39.8c0,18.8-12.2,34.9-16.2,52.8-3.5,16-.4,33.4,13.5,43.4s12.3-5.9,6.1-10.4c-11.3-8.1-10-24.2-6.4-35.9,4.4-14.4,12.4-27.6,14.4-42.7,3.7-27.1-14.3-52.3-38.6-63s-31-8.3-47-6.8-7.7,12.7,0,12h0Z"/>
    <path d="M701.8,205c16,4.1,35,9.5,43,25.5,8.1,16.1,1.1,35.5-2.5,51.8s-5.3,34.8,4.6,49.5c8.8,13,23.2,20.3,37.7,24.9,7.4,2.3,10.5-9.2,3.2-11.6-14.2-4.5-29.8-12.5-34.6-27.8-5.5-17.1,2.1-35.3,5.2-52.1,3.2-16.9,3.1-34.7-8.5-48.7-11.2-13.5-28.5-19.1-45-23.3-7.5-1.9-10.7,9.7-3.2,11.6h0Z"/>
    <path d="M695.2,222.8c14.6,4,30,8.1,42,17.7s9.7,9.3,12.6,15.3,3.5,14.6,3.3,22.2c-.4,14.9.3,28.4,10.2,40.2,8.2,9.9,20.5,15.8,33.3,16.1s7.7-11.8,0-12c-12.4-.4-24-8.3-29.1-19.6s-.2-29.7-3.9-44c-7.7-29.5-39.2-40.3-65.3-47.5s-10.6,9.5-3.2,11.6h0Z"/>
    <path d="M704.7,275.2c16,18.6,32.7,38,38.5,62.5,6,25.2-5.5,46.9-18,68-3.9,6.7,6.4,12.7,10.4,6.1,6.8-11.5,13.5-23.1,17.6-35.8s4.8-26.4,1.9-39.7c-5.8-27.2-24.3-49-42-69.5-5-5.9-13.5,2.7-8.5,8.5h0Z"/>
    <path d="M729.7,316.3c6.3,13.4,13.3,27.7,12.8,42.9s-5.8,23.4-16.8,28.6-.9,13.7,6.1,10.4c13.9-6.6,21.2-21.4,22.5-36.1,1.7-18.2-6.7-35.8-14.3-51.8-3.3-7-13.7-.9-10.4,6.1h0Z"/>
    <path d="M745.6,291c4.8,18.2,7.9,36.8,8.8,55.7.5,9.2.5,18.4,0,27.6s.2,25.6-4.9,25.7c-7.7.3-7.7,12.3,0,12,11.6-.4,14.5-11,15.6-20.7s1.8-23.4,1.6-35.2c-.4-23.1-3.7-46.1-9.6-68.4-2-7.5-13.6-4.3-11.6,3.2h0Z"/>
    <path d="M720.6,366.2c.8,11.8,1.6,23.7,1.3,35.5s-.4,11.6-1.2,17.3-1.5,10.8-6.5,12.2c-7.4,2.2-4.2,13.8,3.2,11.6,13.7-4.1,15.2-19.4,16.1-31.6,1.1-15,.1-30.1-.9-45.1s-12.5-7.7-12,0h0Z"/>
    <path d="M422.3,497c-1.4,23-3.1,46.2-6.6,69-2.8,18.2-8.8,40.7-28.6,47-7.3,2.3-4.2,13.9,3.2,11.6,22.1-7.1,32.2-28.9,36.1-50.2,4.6-25.4,6.3-51.5,7.9-77.3.5-7.7-11.5-7.7-12,0h0Z"/>
    <path d="M648.9,546.4l-3.5,34.9c-1.1,11.4-2.9,22.9-2.8,34.4.1,17.8,8.3,38.6,27.9,42.1,7.6,1.4,10.8-10.2,3.2-11.6-18.2-3.3-19.8-24.7-18.8-39.5,1.5-20.1,3.9-40.2,6-60.3.8-7.7-11.2-7.6-12,0h0Z"/>
    <path d="M138.7,973.6l-5.3,111.5c-.4,7.7,11.6,7.7,12,0l5.3-111.5c.4-7.7-11.6-7.7-12,0h0Z"/>
    <path d="M147.7,981.1c1.1-6.2,7.4-8.6,12.9-10.2,8.7-2.6,17.9-4.2,27-5.1s17.7-3.3,19,1.8-13.7,9.6-17.5,11.1c-6.6,2.7-12.7,8.1-13.4,15.6s5.3,13.4,11,18,13,9.8,16.8,16.8,4.1,13.7-1.7,18.2-18.2,6.4-26.5,8.2-21.2,3.9-31.9,5.2-7.7,12.9,0,12c11.4-1.3,22.8-3,34.1-5.4,9.4-1.9,20-3.5,28.4-8.4,18.4-10.6,12.7-33.3,0-45.8-3.4-3.3-7.1-6.2-10.8-9.2s-9.4-6-6.8-10.3,7.5-4.6,11.2-5.8,9.1-3.3,12.8-6.6c6.4-5.7,8.7-16.3,2.3-23s-16.9-5.4-25.3-4.6-24.2,2.7-35.3,6.8-16.4,8.3-18.1,17.6,10.2,10.8,11.6,3.2h0Z"/>
    <path d="M238.7,971.8c5.8,34.1,11.6,68.1,17.3,102.2,1.3,7.6,12.9,4.4,11.6-3.2-5.8-34.1-11.6-68.1-17.3-102.2-1.3-7.6-12.9-4.4-11.6,3.2h0Z"/>
    <path d="M282.7,986.8c12.9,33.4,20.9,68.5,23.6,104.2.6,7.7,12.6,7.7,12,0-2.8-36.8-10.8-73-24-107.4-2.7-7.1-14.4-4-11.6,3.2h0Z"/>
    <path d="M299.1,1000.6c23.1-8.1,46.3-16.2,69.4-24.3s4.1-14.1-3.2-11.6c-23.1,8.1-46.3,16.2-69.4,24.3s-4.1,14.1,3.2,11.6h0Z"/>
    <path d="M302.6,1032.4c16.4-5.1,32.8-10.2,49.3-15.4,7.3-2.3,4.2-13.9-3.2-11.6-16.4,5.1-32.8,10.2-49.3,15.4-7.3,2.3-4.2,13.9,3.2,11.6h0Z"/>
    <path d="M367.6,1000.6c-1.7,25-1.6,50.1.2,75.1.6,7.7,12.6,7.7,12,0-1.8-25-1.9-50.1-.2-75.1s-11.5-7.7-12,0h0Z"/>
    <path d="M384.2,1009.9c14.9-14.5,31.4-26.9,49.4-37.3s.6-14.2-6.1-10.4c-18.8,10.9-36.2,24-51.8,39.2s2.9,13.9,8.5,8.5h0Z"/>
    <path d="M373.2,1044.7c20.2-16,44-26.8,69.1-32,7.6-1.6,4.4-13.1-3.2-11.6-27.3,5.6-52.6,17.8-74.4,35.1s2.5,13.2,8.5,8.5h0Z"/>
    <path d="M428.4,983.8c12.4,24.3,24.8,48.7,37.1,73s13.9.8,10.4-6.1c-12.4-24.3-24.8-48.7-37.1-73-3.5-6.9-13.9-.8-10.4,6.1h0Z"/>
    <path d="M494.9,985c-9.9,39.3-23.2,77.6-39.9,114.5-3.2,7,7.2,13.1,10.4,6.1,17.1-37.9,30.9-77.1,41.1-117.4,1.9-7.5-9.7-10.7-11.6-3.2h0Z"/>
    <path d="M592.6,968c-23.3,16.1-42.5,38.4-53.9,64.5-3,6.7-5,13.8-1.6,20.8,2.9,6.1,8.7,10.3,14.3,13.7,12.9,7.8,28.3,11.1,43.3,9.4s7.7-12.9,0-12c-12.1,1.4-24.3-.6-35-6.5-4.1-2.3-10.6-5.7-12-10.6-1.6-5.5,3.3-12.8,5.7-17.5,10.7-20.5,26.4-38.3,45.4-51.5,6.3-4.4.3-14.8-6.1-10.4h0Z"/>
    <path d="M614.3,974.8l-6.8,41.3c-1.2,7.2-2.4,14.4-3.6,21.6-1,5.9-2.6,12.1-2.2,18.1,1.6,25.6,38.4,22.6,55.8,19.6,7.6-1.3,4.4-12.9-3.2-11.6-9.7,1.7-20.3,2.3-30,.3-3.2-.7-7.2-1.7-9.2-4.5s-1-9.6-.3-13.7c3.7-22.6,7.5-45.3,11.2-67.9,1.2-7.6-10.3-10.8-11.6-3.2h0Z"/>
    <path d="M656.4,976.5c10.6,18.9,23,36.6,36.9,53.2s13.4-2.6,8.5-8.5c-13.2-15.8-24.9-32.8-35-50.8-3.8-6.7-14.2-.7-10.4,6.1h0Z"/>
    <path d="M710.7,982.6c-6.6,34.3-18.1,67.5-34.2,98.5-3.6,6.8,6.8,12.9,10.4,6.1,16.6-31.9,28.6-66,35.5-101.4,1.5-7.5-10.1-10.8-11.6-3.2h0Z"/>
    <path d="M721.9,1000.2c11.6,25.1,19.5,51.7,23.8,79,1.2,7.7,12.6,4.3,11.6-3.2-2.8-20.1-6.9-40-12.3-59.6-2.6-9.3-6.2-18.5-8-28s-1.4-17.4,5.4-22.3c6.3-4.5,13.5-1,13.8,6.6s-6,17.1-10.5,23.7c-8,11.7-29.4,27.5-12.8,41.7,8.5,7.2,17.8,13.7,26.7,20.5s19,14.5,28.5,21.7,12.1-5.7,6.1-10.4c-9.2-7-18.4-14.1-27.7-21.1-4.5-3.4-9-6.8-13.4-10.3s-10-6.3-13.3-10.5,1.7-7.7,4.1-10.3c3.5-3.8,6.7-7.6,9.8-11.8,5.7-7.7,11.7-16.8,13.8-26.3s.4-17.2-6-22.9c-6.5-5.9-16.5-5.9-23.9-1.8-18.2,10.1-13.4,33.7-8.4,49.7,7.5,24.3,13.1,49.2,16.7,74.4l11.6-3.2c-4.4-28.4-12.9-55.8-25-81.9-3.2-7-13.6-.9-10.4,6.1h0Z"/>
    <path d="M823.8,971.5c-20.3,8.2-28.4,29.4-27.7,50.1.8,20.4,6.9,45.3,27.2,54.7,20.4,9.6,40.2-4,47.6-23.4s4.6-41-3.8-59.1-11.2-18.7-19.3-25.7c-4.3-3.7-9.3-7.5-15.3-6.4s-9.3,5.3-9.2,10.8,12,7.7,12,0c0,2.2-2.5-1.1.8,1.7s1.4.9,2,1.5c1.4,1.1,2.7,2.3,4,3.6,2.5,2.4,4.9,5,7,7.8,4.2,5.6,7.6,11.9,9.9,18.5,4.6,13.2,5.6,27.8,1.4,41.2-4.3,13.6-17.6,26.2-32.4,18.7-14.1-7.2-18.3-24.7-19.6-39.2-1.4-15.8,1.8-36.3,18.6-43,7.1-2.9,4-14.5-3.2-11.6h0Z"/>
    <path d="M653,175.6c10.8,2.5,19.2,10.2,22,21s.3,24.9-.6,37.1c-.8,11.4-.2,23.9,6.4,33.7s15.3,15.2,26.2,14.5,7.7-12.5,0-12-17.8-8.8-20-18.3.4-25,1.1-37.2-.4-22.9-6.6-32.5c-5.8-9-15-15.4-25.4-17.8s-10.7,9.8-3.2,11.6h0Z"/>
    <path d="M603.8,153.3c-10.5-27.6-40.4-35.2-67.1-36.3s-62.6-2.2-70.6,28.6,9.6,10.7,11.6,3.2c6.3-24.1,40.3-20.6,59-19.8s47.2,5.6,55.5,27.5c2.7,7.2,14.3,4.1,11.6-3.2h0Z"/>
    <path d="M586.2,160.3c-1.7-14.3-15.3-20.2-27.8-23.5s-27.1-4.4-40.6-2.7c-27.2,3.3-53.1,15.9-71.4,36.6-5.1,5.8,3.4,14.3,8.5,8.5,15.3-17.3,36.1-28.4,58.7-32.4,10.8-1.9,22.2-2.1,33.1-.2s11.4,2.3,16.8,4.4,10.1,4.5,10.7,9.3c.9,7.6,12.9,7.7,12,0h0Z"/>
    <path d="M1890.5,429.1c7.7,0,7.7-12,0-12s-7.7,12,0,12h0Z"/>
    <path d="M2172.2,307c7.7,0,7.7-12,0-12s-7.7,12,0,12h0Z"/>
    <path d="M2064.2,368c7.7,0,7.7-12,0-12s-7.7,12,0,12h0Z"/>
  </g>
  <g id="Layer_4" class="st1">
    <image width="903" height="898" transform="translate(-3.5 -7.7) scale(1.1)" xlink:href="telephone-1.png"/>
  </g>
  <g id="Layer_5" class="st1">
    <path d="M504.9,445.6c-11-10.9-27.6-11.6-41.3-5.8-15.2,6.5-24.9,20.8-32,35.1s-17,36.6-25.4,54.9c-7.6,16.5-19.2,35.7-13.5,54.5s17.5,23.7,30.7,29.5c14.3,6.3,31.6,13.4,47.5,10.5,18.1-3.4,25.2-22.5,32.3-37.2,8.5-17.7,16.2-35.9,23-54.3,3.9-10.4,7.4-21,10.7-31.6,3.2-10.3,8.3-22.3,7.3-33.2-.9-9.3-7.2-16.6-15.6-20.2s-21.5-2.9-32.2-1.1-4.4,12.8,3.2,11.6,16.8-2.9,24.4.5,9.3,10,7.5,17.8c-3.7,15.9-9.2,31.6-14.6,46.9-5.7,15.8-12,31.4-18.9,46.6-3.5,7.6-7.1,15.1-10.9,22.5s-5.8,12.7-11.1,16.7c-11,8.4-28.2,1.1-39.5-3.1s-23.3-9.3-29.6-19.5,0-30,6.1-43,14.6-31.8,22-47.7,12.9-30,25.3-40.3,26.4-11.5,36.3-1.7,14-3,8.5-8.5h0Z"/>
    <path d="M502,536c4.1-7.8,8.2-15.6,12.4-23.4s3.4-7,5.7-4.9-.6,8.3-1.6,10.4c-3.1,7,7.2,13.1,10.4,6.1,2.8-6.3,5.5-13.1,2.8-19.9s-7.6-9.8-13.9-9.1-11.1,6.4-14.2,12.1c-4.1,7.5-8,15.1-12,22.7s6.7,12.9,10.4,6.1h0Z"/>
    <path d="M477.7,533.7c-4.1,8.9-8.2,17.9-12.3,26.8s-8.4,16.9-11.6,25.7c-2.7,7.4-2.4,15.1,2.8,21.3s10.3,7.8,14.5,12.7,13.5-2.6,8.5-8.5-8.5-6.7-12.4-10.4-2.4-11,.3-16.8c6.8-14.9,13.6-29.8,20.4-44.6s-7.1-13.1-10.4-6.1h0Z"/>
    <path d="M481.3,542.4c7.5,5,14.5,10.7,20.9,17.1,5.5,5.5,14-3,8.5-8.5s-14.9-13.4-23.3-19-12.5,6.1-6.1,10.4h0Z"/>
    <path d="M493.1,441.4c-17.2,6.9-26.8,22.1-33.4,38.7-7.2,18.1-12.5,37.1-16.5,56.2s-3.7,19.8-5,29.8-2,17.5-.5,26.3c2.6,15.4,15.2,31,32.3,29.1s7.7-12.9,0-12c-15.3,1.7-21.1-15-21.1-27.4s3.6-32.5,7.1-48.1c3.6-16,8.3-31.9,14-47.3s12.3-28,26.3-33.7,4-14.5-3.2-11.6h0Z"/>
    <path d="M482.1,439.6c-29,19.1-41.3,52.3-51.2,84.1-9.6,30.9-17.8,69,7.9,94.7,5.5,5.5,13.9-3,8.5-8.5-22.7-22.9-12.6-58-4.2-84.8,8.7-28,19.5-58.2,45.1-75.1s.4-14.6-6.1-10.4h0Z"/>
    <path d="M479.8,353.4c10,5.4,18.9,12.3,26.5,20.8,3.8,4.2,7.1,8.8,10,13.6s6.3,10.3,7.1,15.8-4.6,8-8.7,11-7.3,6.9-9.3,11.7c-3.9,9.6-2,20.1,4.3,28.2s13.2-2.5,8.5-8.5-3.5-8.9-2.3-13.4,4.7-7.6,8.8-10.3,8.8-6.8,10.2-12.4-.3-11.8-2.6-17.2c-9.2-21.2-26.3-38.9-46.6-49.7s-12.9,6.7-6.1,10.4h0Z"/>
    <path d="M393.1,282.2c33.6,9.9,65.2,25.8,93.1,47.1,13.7,10.4,27.2,22,36.4,36.6,8.3,13,13.6,28.1,15.3,43.4s-.4,35.2-7.2,51.5c-2.9,7.1,8.7,10.2,11.6,3.2,12.8-31,10.4-67.3-5.2-96.9-8.6-16.3-21.5-29.3-35.7-40.9-14.6-11.9-30.2-22.5-46.8-31.5-18.6-10.1-38.2-18.1-58.5-24.1s-10.6,9.4-3.2,11.6h0Z"/>
    <path d="M396.2,271.5c-39.6-9.7-81-10.9-121.2-3.6s-76.3,20.4-104.6,46.4-26.2,31.8-37.3,48.9-23.4,33.1-25.9,52.4,5.5,34.3,22.6,38.8c16.5,4.3,33.9-6.5,36.7-23.5s-2.3-19.8-4.4-29.7c-2-9.8,1-18.5,7.3-26.1,13.2-15.7,33.4-23.2,45.8-40,4.6-6.2-5.8-12.2-10.4-6.1-9.7,13.2-25.4,20.1-37.4,30.9s-19.9,24.3-17.6,40.3,12.2,33.1-5,41.4-15,1.6-20.1-3.6-6.4-12.8-5.9-19.7,4.7-16.7,8.9-24,9.6-15.8,14.6-23.6c10-15.5,20-31.9,33.2-45,24.9-24.6,60-37.4,93.6-44.6,40.7-8.8,83.3-8.1,123.7,1.9,7.5,1.8,10.7-9.7,3.2-11.6h0Z"/>
    <path d="M124.7,448.9c-.3,19.2.1,38.4,1.3,57.5s.6,9.2,1,13.9.3,9.3,1.8,13.6c2.3,6.4,9.3,11.1,16,8.1,6.5-2.9,7.4-10.5,7.7-16.8.4-9.3-1.1-18.6-2.4-27.7-2.3-15.5-4.4-32.6,5-46.3,4.4-6.4-6-12.4-10.4-6.1-16.9,24.5-3.1,53.3-4.3,80.1s-.5,3.1-.5,4.6l-.3,1.2c-.5.7-.2.6.8-.3,0-1.4-.8-3-1-4.4s-.3-4-.5-5.9c-.6-7.9-1.1-15.8-1.5-23.8-.8-15.9-1-31.7-.8-47.6s-11.9-7.7-12,0h0Z"/>
    <path d="M142,533.8c1.9,10.8,3.8,21.6,5.8,32.4,1.7,9.3,2.3,19.9,7.1,28.3,9.2,16.2,29,12.8,43.7,7.4,4.9-1.8,5.9-8,1.4-11-23.2-15.1-29.4-42-30.4-68.1s2.2-56-7.7-82.5c-2.7-7.2-14.3-4.1-11.6,3.2,10.5,28.1,5.4,58.3,7.7,87.5s11.5,54.3,35.9,70.2l1.4-11c-6.2,2.3-13,4.7-19.7,4.3s-10.8-5.2-12.6-11.9-3.1-16.4-4.6-24.6l-4.9-27.5c-1.4-7.6-12.9-4.4-11.6,3.2h0Z"/>
    <path d="M198.2,600.4c6-2.3,12-4.7,18-7,3.5-1.3,5.8-5.2,3.6-8.8-27.1-43.4-47-90.9-58.9-140.7-1.8-7.5-13.4-4.3-11.6,3.2,12.2,50.7,32.5,99.3,60.1,143.6l3.6-8.8c-6,2.3-12,4.7-18,7-7.1,2.8-4,14.4,3.2,11.6h0Z"/>
    <path d="M210.3,588c6.2,33.8,7.1,68.4,3.1,102.5s3.1,6,6,6c64.5-.9,129,2.5,193,10.3,3.2.4,6-3.1,6-6-.2-31.2,6.8-62.1,20.7-90.1,3.4-6.9-6.9-13-10.4-6.1-14.8,29.9-22.5,62.8-22.3,96.1l6-6c-64-7.8-128.5-11.2-193-10.3l6,6c4.1-35.2,2.8-70.8-3.6-105.7-1.4-7.6-13-4.4-11.6,3.2h0Z"/>
    <path d="M214.6,686.5c-23.1,25.1-52,44.8-84.1,56.7-16.5,6.1-33.6,9.9-51,12.4s-37.2,4.8-54.5,12.5-30.1,19.5-36.7,36.4,8.8,10.3,11.6,3.2c13-33.5,56.3-36.6,86.4-41.1,33.5-5,65.6-16.7,93.9-35.3,15.7-10.3,30.1-22.5,42.8-36.3,5.2-5.7-3.2-14.2-8.5-8.5h0Z"/>
    <path d="M410.6,704.1c12.3,5.7,25.8,11.9,31.4,25.1s4.6,14.1,9,20.1,9.2,9.4,15.1,12.2c14.6,7,31.4,10.1,46.9,14.5,17.5,4.9,35.1,9.8,52.6,14.7s33.6,8.6,49.4,15.5,25.5,14.2,36,24.4c22,21.5,33.2,49.4,40.5,78.8,8.5,34,13.1,69.2,29.5,100.7,3.6,6.9,13.9.8,10.4-6.1-14.6-28.1-19.4-59.9-26.5-90.4s-17-59.1-37.3-82.8-20.9-20.8-33.4-28.2c-14.2-8.4-29.9-13.5-45.6-18-35-9.9-70.3-19.1-105.2-29.5-7.1-2.1-14.6-4.6-20-9.9s-7.4-14.2-10.6-21.4c-6.7-15.4-21.5-23.4-36.1-30.2-7-3.2-13.1,7.1-6.1,10.4h0Z"/>
    <path d="M106,754.7c-26.4,16.1-33.2,52.5-38.5,80.5s-8.1,71.1-4.4,106.7,12.8,7.7,12,0c-3.5-33.2-2.6-66.9,3.3-99.8,2.7-15.2,6.1-30.4,11.2-45s10.9-25,22.5-32.1c6.6-4,.6-14.4-6.1-10.4h0Z"/>
    <path d="M29.9,957c-4.9-37.3-8.6-76.1.4-113.1,7.3-29.7,22.9-58.3,48.6-75.9,6.3-4.3.3-14.7-6.1-10.4-27.4,18.8-45,48.3-53.4,80-10.3,38.9-6.8,79.8-1.6,119.2s2.5,6,6,6,6.4-2.8,6-6h0Z"/>
    <path d="M509.5,768.4c-17.9,66.3-23.7,135.7-16.9,204.1.8,7.6,12.8,7.7,12,0-6.7-67.4-1.2-135.5,16.4-200.9,2-7.5-9.6-10.6-11.6-3.2h0Z"/>
    <path d="M532.5,777.4c16.1,67.4,22.6,136.8,19.3,206-.4,7.7,11.6,7.7,12,0,3.3-70.2-3.4-140.8-19.8-209.2-1.8-7.5-13.4-4.3-11.6,3.2h0Z"/>
    <path d="M179.3,730.8c29.9,16.4,63.9,21.5,97.6,23.4,37.4,2.1,75,2.3,112.5,1.4s43.4-1.6,65.1-3.3,7.7-12.6,0-12c-37.4,2.9-75,3.9-112.5,3.6-34.3-.3-69.5.1-103.4-5.8-18.5-3.2-36.6-8.6-53.2-17.7-6.8-3.7-12.8,6.6-6.1,10.4h0Z"/>
    <path d="M-10.7,966c103.1-7,206.6-8.7,310-5.2,103.7,3.6,207.3,12.5,310.2,26.8,57.6,8,115,17.7,172.1,29,7.5,1.5,10.8-10.1,3.2-11.6-101.9-20.2-204.9-35.2-308.4-44.9-103.6-9.7-207.7-14.1-311.7-13s-117,2.9-175.4,6.8c-7.7.5-7.7,12.5,0,12h0Z"/>
    <path d="M535.8,373.1c53.9-.8,107.8-.3,161.6,1.3,26.6.8,53.2,1.8,79.8,3.4,4.8.3,10.5.4,14.2,4s4.2,7.9,4.7,12.2c1.3,11.5.2,23.5,0,35.1-1.1,52-4,104.2-12.5,155.6-1.1,6.4-2.2,12.8-3.4,19.2s-1.6,10.4-4.1,14.9c-5.5,9.8-21.9,5.4-30.9,4.7-26.7-2-53.5-4.1-80.2-6.1-59.8-4.6-119.5-9.1-179.3-13.7-7.7-.6-7.7,11.4,0,12,56.1,4.3,112.3,8.6,168.4,12.9,28.4,2.2,56.8,4.3,85.2,6.5,11.4.9,25.5,4.1,36.5-.5,10.6-4.4,13.7-15.3,15.7-25.6,10.6-54.1,14.7-109.3,16.3-164.3.4-13.9.7-27.8.8-41.6,0-9.7-.8-20.5-7.3-28.3-7.9-9.3-20.8-8.8-31.9-9.4-14-.7-27.9-1.3-41.9-1.9-63.8-2.5-127.7-3.3-191.5-2.4-7.7.1-7.7,12.1,0,12h0Z"/>
    <path d="M502.5,588.7c51.8,5.9,103.8,10.8,155.8,14.7,26,2,52,3.7,78.1,5.2,9.9.6,20.4,1.7,29.8-2.2,9.5-4,14.5-12.5,15.9-22.4,1.6-11.3.9-23,1.4-34.4.5-12.7,1.4-25.3,2.6-37.9,2.4-25.7,6.1-51.2,11.1-76.5,4-19.9,8-47.5-14.2-58.8s-21.3-4.7-32.1-4.7c-12.6,0-25.1.1-37.7.2-58.9.3-117.7.5-176.6.8-7.7,0-7.7,12,0,12,48.9-.2,97.9-.4,146.8-.7,24.3-.1,48.7-.4,73-.3,9.7,0,21.2.3,27.4,9s5.2,20.3,3.5,30.2c-4.2,23.5-8.6,46.7-11.4,70.4-2.8,23.9-4.5,47.9-5,71.9-.2,8.4,1.5,20.7-4.9,27.3-6.2,6.4-17.7,4.8-25.7,4.3-24.4-1.4-48.8-2.9-73.2-4.7-55-4-109.9-9.2-164.7-15.4-7.7-.9-7.6,11.1,0,12h0Z"/>
    <path d="M823,371.3c-15.9,58.4-9.5,119.4-19.2,178.7-2.4,14.7-6.4,28.7-10.5,43-3.5,12.2-5.3,26.6,4.7,36.4s10.1,6.6,15.7,8.8,14.6,5.5,21.8,8.3c15.5,5.9,30.9,11.7,46.4,17.6,34.7,13.2,69.3,26.3,104,39.5,7.2,2.7,10.4-8.9,3.2-11.6-29.4-11.2-58.8-22.3-88.2-33.5-14.5-5.5-29.1-11-43.6-16.6-14.3-5.4-29.2-10.2-43.2-16.5s-9.8-5.2-11.2-10.9.3-12.6,2-18.4c4-13.7,7.9-27.1,10.2-41.2,4.8-28.1,5.9-56.5,7.3-84.9,1.6-32.1,3.7-64.4,12.2-95.5,2-7.5-9.5-10.6-11.6-3.2h0Z"/>
    <path d="M981.2,702.8c14.8,6.8,29.6,13.7,44.3,20.5,7,3.2,13.1-7.1,6.1-10.4-14.8-6.8-29.6-13.7-44.3-20.5-7-3.2-13.1,7.1-6.1,10.4h0Z"/>
    <path d="M824.1,383.4c67.7,9.5,135.5,18.9,203.2,28.4,3.2.5,6.4-.8,7.4-4.2s-1-6.9-4.2-7.4c-67.7-9.5-135.5-18.9-203.2-28.4s-6.4.8-7.4,4.2,1,6.9,4.2,7.4h0Z"/>
    <path d="M826.8,391.3c-5,60.7-10,121.5-15,182.2l-1.8,21.8c-.5,6.6-1.4,13.4,2.5,19.2,3,4.6,8.1,6.9,13,8.8,7.3,2.8,14.7,5.3,22,7.9,28.8,10.4,57.5,20.7,86.3,31.1s65,23.4,97.5,35.1c7.3,2.6,10.4-9,3.2-11.6-55-19.8-110-39.7-165-59.5-13.6-4.9-27.3-9.4-40.7-14.7-2.4-.9-5.4-2-6.6-4.4s-.6-5.5-.4-8c.5-7.3,1.2-14.5,1.8-21.8,2.4-29.1,4.8-58.1,7.2-87.2,2.7-33,5.4-66,8.2-99,.6-7.7-11.4-7.7-12,0h0Z"/>
    <path d="M834.4,399.4c66.4,16.3,134.3,25.9,202.6,28.8,7.7.3,7.7-11.7,0-12-67.3-2.8-134.1-12.3-199.5-28.3s-10.7,9.7-3.2,11.6h0Z"/>
    <path d="M187.6,358.9c-15,14.7-30.9,30.6-37,51.3s-2.5,38.5,11.3,51.6,14.1-3.2,8.5-8.5c-11.5-11-12.3-28.4-7.3-42.7s20.2-30.7,33-43.3-3-13.9-8.5-8.5h0Z"/>
    <path d="M199.6,377.2c-32.5,19.8-47.6,59.3-36.2,95.7s13.9,4.2,11.6-3.2c-9.8-31.3,2.6-65.1,30.6-82.2s.6-14.4-6.1-10.4h0Z"/>
    <path d="M202.3,414.5c-21.4,28.5-28.1,66.7-18.1,100.8,2.2,7.4,13.7,4.2,11.6-3.2-9.2-31.4-2.7-65.5,16.9-91.6,4.6-6.2-5.8-12.2-10.4-6.1h0Z"/>
    <path d="M194.4,477.1c-2.3,28.8-9,57-19.5,83.8-2.8,7.2,8.8,10.3,11.6,3.2,10.9-27.9,17.5-57.2,19.9-87s-11.4-7.7-12,0h0Z"/>
    <path d="M200.1,480.2c-3.8,19.9-6.2,40-7,60.3-.6,16.5-3,36.8,7.9,50.6s13.2-2.5,8.5-8.5-4.5-13.2-4.6-19.8,0-17.4.4-26.2c.9-17.9,3-35.6,6.4-53.2s-10.1-10.8-11.6-3.2h0Z"/>
    <path d="M223.5,521.7c2.9,24.6.2,49.1-8.2,72.4-2.6,7.3,9,10.4,11.6,3.2,8.7-24.1,11.7-50.1,8.6-75.5s-12.9-7.7-12,0h0Z"/>
    <path d="M223.7,558.1c-1.3,29.6.6,59.3,5.4,88.5s12.8,4.4,11.6-3.2c-4.7-28.2-6.3-56.8-5-85.3s-11.7-7.7-12,0h0Z"/>
    <path d="M262.1,580.4c0,21.5,0,43,0,64.6s12,7.7,12,0c0-21.5,0-43,0-64.6s-12-7.7-12,0h0Z"/>
    <path d="M273.7,587.5c2.3,24.6,2.9,49.3,1.8,74s11.7,7.7,12,0c1.1-24.7.4-49.4-1.8-74s-12.7-7.7-12,0h0Z"/>
    <path d="M242,588.6l7.6,65.7c.9,7.6,12.9,7.7,12,0l-7.6-65.7c-.9-7.6-12.9-7.7-12,0h0Z"/>
    <path d="M238.5,494.7c2.5,27.7,3.5,55.5,3,83.3-.1,7.7,11.9,7.7,12,0,.5-27.8-.5-55.6-3-83.3s-12.7-7.7-12,0h0Z"/>
    <path d="M209.7,452.4l1,86.9c0,7.7,12.1,7.7,12,0l-1-86.9c0-7.7-12.1-7.7-12,0h0Z"/>
    <path d="M204,387.3c-2.9,19.6-1.9,39.3,3.5,58.4,2.1,7.4,13.7,4.3,11.6-3.2-4.8-16.9-6.1-34.6-3.5-52s-10.4-10.8-11.6-3.2h0Z"/>
    <path d="M206.4,353.9c-3,30.5-5.9,61-8.9,91.5s11.3,7.6,12,0c3-30.5,5.9-61,8.9-91.5.7-7.7-11.3-7.6-12,0h0Z"/>
    <path d="M235.9,385c11.1,34,15,69.6,11.6,105.2-.7,7.7,11.3,7.6,12,0,3.5-36.5-.6-73.5-12-108.4s-14-4.2-11.6,3.2h0Z"/>
    <path d="M284,412.1c15.1,25.2,18.5,55.7,9.5,83.6-2.4,7.4,9.2,10.5,11.6,3.2,9.9-30.8,5.9-65.1-10.8-92.8s-14.3-.6-10.4,6.1h0Z"/>
    <path d="M267.5,446.2c-11.1,44.1-12.1,90.3-3,134.8,1.5,7.6,13.1,4.4,11.6-3.2-8.7-42.4-7.6-86.5,3-128.5s-9.7-10.7-11.6-3.2h0Z"/>
    <path d="M274,540.9c8.9,28.4,15.7,57.4,20.1,86.8,1.2,7.6,12.7,4.4,11.6-3.2-4.5-29.4-11.2-58.4-20.1-86.8-2.3-7.3-13.9-4.2-11.6,3.2h0Z"/>
    <path d="M294.2,555.8c-3.9,28.9-4,58.1-.4,87s13,7.7,12,0c-3.6-28.9-3.5-58.1.4-87s-3.1-6-6-6-5.6,2.8-6,6h0Z"/>
    <path d="M302.7,555.7c.8,17,3.5,34,8.6,50.3s5.4,16.1,9.1,23.7,7.6,11.4,14.8,11.3c7.7-.2,7.7-12.2,0-12s-7-11.2-8.1-14c-2.4-6.3-4.5-12.7-6.3-19.2-3.5-13.1-5.5-26.5-6.1-40.1s-12.3-7.7-12,0h0Z"/>
    <path d="M319.6,537.9c-6.8,28.6,3.4,60.1,26.4,78.7,6,4.8,14.5-3.6,8.5-8.5-19.7-15.9-29.2-42.3-23.3-67,1.8-7.5-9.8-10.7-11.6-3.2h0Z"/>
    <path d="M355.8,554.5c-1.8,21.5-1.3,43.1,1.5,64.6s13,7.7,12,0c-2.7-21.4-3.2-43-1.5-64.6.6-7.7-11.4-7.7-12,0h0Z"/>
    <path d="M311.9,451.6c7.9,27.7,15.9,55.5,23.8,83.2s13.7,4.3,11.6-3.2c-7.9-27.7-15.9-55.5-23.8-83.2s-13.7-4.3-11.6,3.2h0Z"/>
    <path d="M348.4,463.9c12.1,15.7,17.2,35.7,13.3,55.2-1.5,7.5,10,10.8,11.6,3.2,4.5-22.5-.5-46.2-14.5-64.5s-5.1-3.9-8.2-2.2-4.1,5.6-2.2,8.2h0Z"/>
    <path d="M359.1,474.3c11.5,23.6,18.8,49.3,21.4,75.5s12.8,7.7,12,0c-2.8-28.4-10.5-55.8-23.1-81.5s-13.7-.9-10.4,6.1h0Z"/>
    <path d="M337.8,496.2c3.4,15.8,6.9,31.5,10.3,47.3,1.7,7.6,3.4,15.3,5,22.9s2.4,12.1-1.4,17.3,5.9,12.3,10.4,6.1c8.8-12.3,1.7-30.4-1.2-43.6-3.9-17.7-7.7-35.4-11.6-53.1s-13.2-4.4-11.6,3.2h0Z"/>
    <path d="M287.9,523.4c5.1,14.1,10.2,28.2,15.3,42.3s14.2,4.1,11.6-3.2c-5.1-14.1-10.2-28.2-15.3-42.3s-14.2-4.1-11.6,3.2h0Z"/>
    <path d="M313,508c7.5,42.4,20.7,83.5,38.9,122.5,3.3,7,13.6.9,10.4-6.1-17.8-38-30.4-78.3-37.7-119.6s-12.9-4.4-11.6,3.2h0Z"/>
    <path d="M370.2,506.9c8,21.7,14.1,44,18.2,66.8s12.9,4.4,11.6-3.2c-4.1-22.8-10.2-45.1-18.2-66.8s-14.3-4.1-11.6,3.2h0Z"/>
    <path d="M398.1,491.8c4.6,10.8,7.8,22.2,9.7,33.9s12.8,4.4,11.6-3.2c-2.1-12.7-5.8-24.9-10.9-36.7s-13.4-1-10.4,6.1h0Z"/>
    <path d="M407.1,469.6c6.3,14.3,8.5,30.4,6.3,45.9s.8,6.4,4.2,7.4,6.9-1,7.4-4.2c2.7-19,.2-37.5-7.5-55.1s-13.4-1-10.4,6.1h0Z"/>
    <path d="M417.8,463.7c4.9,15.2,3.4,31.3-4.5,45.2s6.6,12.8,10.4,6.1c9.3-16.6,11.5-36.3,5.7-54.4s-13.9-4.2-11.6,3.2h0Z"/>
    <path d="M362.7,437.9c11.8,15.8,21.6,33,28.8,51.4s14.4,4,11.6-3.2c-7.6-19.4-17.5-37.6-30-54.2s-15-.1-10.4,6.1h0Z"/>
    <path d="M340.9,382.4c5.1,18.9,12.5,37,21.9,54.2s14.1.7,10.4-6.1c-8.9-16.3-15.8-33.4-20.7-51.3s-13.6-4.3-11.6,3.2h0Z"/>
    <path d="M265.8,341.4c4,11.4,7.8,23,11.3,34.6s3.2,11,4.7,16.6,4.7,12.5.1,13.8c-7.4,2.1-4.3,13.7,3.2,11.6,15.8-4.5,9.9-22.9,6.7-34.1s-9.2-30.6-14.5-45.6-14.1-4.1-11.6,3.2h0Z"/>
    <path d="M295.3,354.7c12.1,7,22.4,16.8,29.8,28.7s7.1,12.4,8.5,19.2-.2,16.6-8.3,14.8-10.8,10-3.2,11.6,18.1-3.2,22-11.8.8-21.1-3.5-30.4c-8.2-17.8-22.3-32.7-39.2-42.5s-12.7,6.5-6.1,10.4h0Z"/>
    <path d="M338.1,355.4c11.1,9.4,22.7,20.4,26.4,35.1s-.3,25.2-10.9,31.4-.6,14.2,6.1,10.4c14.2-8.3,19.6-25.3,17.2-40.9s-16.7-32.8-30.3-44.4c-5.9-4.9-14.4,3.5-8.5,8.5h0Z"/>
    <path d="M382,398.3c12.1,25.1,24.2,50.1,36.4,75.2s13.7.9,10.4-6.1c-12.1-25.1-24.2-50.1-36.4-75.2s-13.7-.9-10.4,6.1h0Z"/>
    <path d="M426.5,404.8c3.1,8.7.4,18.7-7.4,24s-.4,14.7,6.1,10.4c12.1-8.1,17.9-23.6,13-37.5s-14.2-4.1-11.6,3.2h0Z"/>
    <path d="M379.2,315.5c14.5,2.5,27.4,11.8,33,25.6s14.5,4,11.6-3.2c-7.2-17.5-22.5-30.7-41.4-34s-10.8,10.3-3.2,11.6h0Z"/>
    <path d="M341.1,315.6c-4.2-13.3,43.2-7.9,49.6-6.7,9.6,1.8,19,4.5,28,8.3s16.9,6.6,17.2,14.4,12.3,7.7,12,0c-.4-11.7-10-18.7-19.7-23.2s-25.8-9.9-39.5-11.9-26.7-2.4-39.9-.5-23.3,10-19.2,22.9,13.9,4.2,11.6-3.2h0Z"/>
    <path d="M380.7,330.8c15.4,6.3,31.6,12.9,43.1,25.4s15.4,27.1,8.5,40.5,6.8,12.9,10.4,6.1c8.8-17.1,4-37.1-7.5-51.7s-32.7-24.3-51.3-31.8-10.3,8.7-3.2,11.6h0Z"/>
    <path d="M398.8,374.7c23.9,9.9,37.9,36.4,34.7,61.6s11,7.6,12,0c4-31-15-61.4-43.5-73.2s-10.2,8.7-3.2,11.6h0Z"/>
    <path d="M452.8,381.3c8.6,6.3,18.1,14,21.2,24.6s.1,18.2-8,22.2-.9,13.7,6.1,10.4c12.2-5.9,16.7-20.6,14.1-33.2s-15.6-25.6-27.3-34.3-12.2,5.8-6.1,10.4h0Z"/>
    <path d="M472.8,381.7c6.3,8.8,4,21.7-5.6,27.2s-.7,14.2,6.1,10.4c14.8-8.4,20-29.6,9.9-43.6s-14.9-.2-10.4,6.1h0Z"/>
    <path d="M265,332.4c-5.5,21.3-15.6,41.1-29.6,58.1s3.5,14.4,8.5,8.5c15.4-18.5,26.6-40,32.7-63.3s-9.6-10.7-11.6-3.2h0Z"/>
    <path d="M283.4,302.1c-23.1.5-45.6,14-55.8,35s-7.2,48.8,8,68c4.8,6.1,13.2-2.5,8.5-8.5-12-15.1-14.5-37.6-5.5-54.8,8.6-16.5,26.2-27.3,44.8-27.8s7.7-12.2,0-12h0Z"/>
    <path d="M226.6,314.4c-16.1,21.5-25,47.8-25.7,74.6s11.8,7.7,12,0c.7-24.9,9.2-48.7,24.1-68.6s-5.8-12.2-10.4-6.1h0Z"/>
    <path d="M249.5,295.8c-16.9-.3-36.3,2.7-48.3,16s-14.2,29-5.2,42.2,14.7.4,10.4-6.1c-6.5-9.5-2.8-22.1,5.2-29.6,9.9-9.3,24.9-10.7,37.9-10.5s7.7-11.9,0-12h0Z"/>
    <path d="M291.9,302.4c-18.8-7.1-41.3-14.3-60.3-3.5s-23.1,27.6-19.4,44.7,13.2,4.4,11.6-3.2c-2.8-13,4.3-27.2,16.5-32.5,15.6-6.7,33.7.5,48.4,6s10.4-8.9,3.2-11.6h0Z"/>
    <path d="M284,280.5c-8-7.1-19.3-9.7-29.4-5.6s-4,14.5,3.2,11.6,12.7-2,17.7,2.5,14.3-3.4,8.5-8.5h0Z"/>
    <path d="M305.9,320c-4.9-3.8-5.8-11.1-4.4-16.7s7.2-12.3,13.5-15.7c16.5-8.9,36.6-6.5,54.5-10.4s4.4-13.2-3.2-11.6c-22.3,4.8-47.6,1.4-65.9,17.7-13.9,12.3-16,35.3-.5,47.1s12.1-5.7,6.1-10.4h0Z"/>
    <path d="M296,322.9c19.6-9.3,40.9-15.4,62.4-17.9s21.3-1.6,31.9-1.2,10.6.6,15.9,1.3,5.2.6,7.8,1.2,2.1.8,2.9.7c2.4-.2-1.7.9,1.6-1.3-6.4,4.3-.4,14.7,6.1,10.4s6.3-8.6,3.9-13.8-8.7-7.3-14.4-8.2c-14-2.2-28.2-3-42.3-2.3-28.4,1.4-56.1,8.5-81.8,20.6s-.9,13.6,6.1,10.4h0Z"/>
    <path d="M308.4,336.8c25.1-3.7,50.9-2,75.3,4.9s22.9,7.2,33,13.3,18.2,16,12.8,26.7c-3.4,6.9,6.9,13,10.4,6.1,6.1-12.2,2.2-26.1-7.1-35.5s-24.2-15.2-37.2-19.6c-29.1-9.8-60-12.1-90.3-7.6s-4.4,12.7,3.2,11.6h0Z"/>
    <path d="M295.6,339.3c36.1,31.1,69.5,65.3,100,102,4.9,6,13.4-2.6,8.5-8.5-30.4-36.7-63.9-70.8-100-102-5.8-5-14.3,3.4-8.5,8.5h0Z"/>
    <path d="M293.3,321.4c-19.8-8.4-44.4-17.4-63.7-2.7s-14.3,42-5.2,61.6,13.6.9,10.4-6.1c-6.6-14.2-12.7-36.3,3.3-46.8,15.1-10,34.4-1.9,49.2,4.4s6.4.9,8.2-2.2.8-6.9-2.2-8.2h0Z"/>
    <path d="M277.5,345.3c-32.7.4-64.6,15.3-85.5,40.5-4.9,5.9,3.5,14.4,8.5,8.5,19-22.9,47.2-36.6,77.1-37s7.7-12.1,0-12h0Z"/>
    <path d="M552.7,616.8c.2,18.8.5,37.6.7,56.4s12.1,7.7,12,0c-.2-18.8-.5-37.6-.7-56.4s-12.1-7.7-12,0h0Z"/>
    <path d="M626.2,619.1c.5,18.5-1.6,36.7-6.2,54.7-1.9,7.5,9.7,10.7,11.6,3.2,4.8-18.9,7.1-38.3,6.6-57.8-.2-7.7-12.2-7.7-12,0h0Z"/>
    <path d="M993.2,703.2c-6.2,6.6-7.6,15-8.9,23.6s-2.2,17.2-12.6,16.8-11.9-1.5-17.8-1.7c-7-.2-13.9.2-20.9,1.1-11.3,1.6-23.1,4.3-33,10.2s-16,13.8-16.5,24.5c-.6,11,6.1,20.9,13.9,28,18.3,16.6,43.9,24.5,67.2,31,13.4,3.7,28.4,9.2,42.4,5.9s21.5-12.9,20.8-25.2-12.5-7.7-12,0-10.8,14.5-19.5,14.1c-11.2-.5-22.8-4.8-33.6-7.9-19.7-5.7-42.1-12.6-57.4-27-6.4-6-12.6-15-8.4-24s13-11.8,20.7-14.2c11.2-3.4,22.8-5,34.5-4.8,10.1.2,22,4.3,31.5-.6,7.3-3.8,10.3-11.6,11.7-19.2s1.2-16.6,6.5-22.3c5.3-5.6-3.2-14.1-8.5-8.5h0Z"/>
    <path d="M436.1,663.9c126.1,5.3,251.8,17.8,376.4,37.5,15.6,2.5,31.1,5,46.6,7.7s12.4,1.5,16.5,5.7,5.1,14.3,6.1,20.8c2.5,15.4,4.2,30.9,5.2,46.5s1.2,11.8-.8,17-8.6,7.3-14.3,7.3c-14.1.2-28.7-2.8-42.7-4.5-15.5-1.8-30.9-3.7-46.4-5.5-31.6-3.8-63.2-7.7-94.7-11.7-71.1-9-142.2-18.8-213-30-7.6-1.2-10.8,10.4-3.2,11.6,66,10.4,132.2,19.6,198.5,28.2,33.2,4.3,66.4,8.4,99.7,12.4,16.5,2,32.9,3.9,49.4,5.9,16,1.9,32.1,4.6,48.2,5.5,12,.7,24.9-2.4,29.7-14.7,2.3-5.9,2.2-12.4,1.9-18.6s-1.1-16.1-1.9-24.1c-.9-8.2-2-16.4-3.2-24.6s-1.9-14.6-4.6-21.4c-5.8-14.5-20.2-16.1-33.8-18.4-65.2-11.1-130.8-20.3-196.6-27.6-65.9-7.3-132-12.5-198.3-15.8-8.2-.4-16.4-.8-24.6-1.1s-7.7,11.7,0,12h0Z"/>
    <path d="M847.6,723.6c0,19.5-1.3,39-4.1,58.3s.8,6.4,4.2,7.4,6.9-1,7.4-4.2c2.9-20.4,4.5-40.9,4.5-61.5s-12-7.7-12,0h0Z"/>
    <path d="M832.7,713.8c-3.5,23.5-5.1,47.1-4.7,70.9.1,7.7,12.1,7.7,12,0-.4-22.6.9-45.3,4.3-67.7,1.1-7.6-10.4-10.8-11.6-3.2h0Z"/>
    <path d="M798.5,716.6c.4,9.9.5,19.7.2,29.6-.1,3.6.9,23.7-4.4,23.6-7.7,0-7.7,11.9,0,12,13.4.2,15.1-14,15.8-24.2.9-13.7,1-27.4.4-41-.3-7.7-12.4-7.7-12,0h0Z"/>
    <path d="M768.6,731.9l-4.5,52.8c-.7,7.7,11.3,7.6,12,0l4.5-52.8c.7-7.7-11.3-7.6-12,0h0Z"/>
    <path d="M740.2,718.9l-1,52.8c-.1,7.7,11.9,7.7,12,0l1-52.8c.1-7.7-11.9-7.7-12,0h0Z"/>
    <path d="M718.6,710.7c-1.1,22-3.9,43.9-8.6,65.4-1.6,7.5,9.9,10.7,11.6,3.2,4.9-22.6,7.9-45.5,9-68.6.4-7.7-11.6-7.7-12,0h0Z"/>
    <path d="M697.7,709.5c-.6,19.9-4.2,39.4-10.4,58.3s9.2,10.5,11.6,3.2c6.6-19.9,10.2-40.5,10.9-61.5.3-7.7-11.7-7.7-12,0h0Z"/>
    <path d="M686.1,699.7c-3.1,19.4-8.8,38.2-17.1,56-3.3,7,7.1,13.1,10.4,6.1,8.8-18.8,15-38.4,18.3-58.9,1.2-7.6-10.3-10.8-11.6-3.2h0Z"/>
    <path d="M657.8,707.9c-3,21.6-8.1,42.8-15,63.4-2.5,7.3,9.1,10.5,11.6,3.2,7-20.7,12-41.9,15-63.4.5-3.2-.8-6.4-4.2-7.4s-6.9,1-7.4,4.2h0Z"/>
    <path d="M625.7,709.2l-7.3,50.4c-.5,3.2.8,6.4,4.2,7.4s6.9-1,7.4-4.2l7.3-50.4c.5-3.2-.8-6.4-4.2-7.4s-6.9,1-7.4,4.2h0Z"/>
    <path d="M606.1,708.3c1.1,15.4-1.2,30.9-7.3,45.1-3,7,7.3,13.1,10.4,6.1,7-16.3,10.2-33.5,8.9-51.2-.5-7.7-12.5-7.7-12,0h0Z"/>
    <path d="M590.6,698.9c-1.5,21.7-7.9,42.8-18.7,61.7-3.8,6.7,6.5,12.8,10.4,6.1,11.8-20.8,18.7-43.9,20.3-67.7.5-7.7-11.5-7.7-12,0h0Z"/>
    <path d="M557.1,706.4c2.1,14.3.6,28.8-3.7,42.6-2.3,7.4,9.3,10.5,11.6,3.2,5-16,6.1-32.5,3.7-49s-12.7-4.4-11.6,3.2h0Z"/>
    <path d="M543.4,694.9c-4.3,20.5-10,40.7-17.2,60.3s8.9,10.4,11.6,3.2c7.2-19.7,12.9-39.8,17.2-60.3s-10-10.8-11.6-3.2h0Z"/>
    <path d="M514.6,691.9c.4,17.6-2.8,34.8-9.3,51.2s8.7,10.3,11.6,3.2c6.9-17.3,10.2-35.8,9.7-54.4-.2-7.7-12.2-7.7-12,0h0Z"/>
    <path d="M492,686.7c-3.7,17.2-10,33.5-19.1,48.6s6.4,12.7,10.4,6.1c9.5-15.9,16.4-33.3,20.3-51.4s-10-10.8-11.6-3.2h0Z"/>
    <path d="M474.1,684.1c-5.4,12.1-10.9,24.3-16.3,36.4s7.2,13.1,10.4,6.1c5.4-12.1,10.9-24.3,16.3-36.4s-7.2-13.1-10.4-6.1h0Z"/>
    <path d="M450.6,679.4c-5.1,9.4-10.3,18.7-15.4,28.1s6.6,12.8,10.4,6.1l15.4-28.1c3.7-6.8-6.6-12.8-10.4-6.1h0Z"/>
    <path d="M427.7,679.4c116.1,12.7,232.3,25.4,348.4,38.1l99,10.8c7.7.8,7.6-11.2,0-12-116.1-12.7-232.3-25.4-348.4-38.1-33-3.6-66-7.2-99-10.8-7.7-.8-7.6,11.2,0,12h0Z"/>
    <path d="M830.3,718.9v22.3c0,7.7,12,7.7,12,0v-22.3c0-7.7-12-7.7-12,0h0Z"/>
    <path d="M807.8,710.7c-.4,12.1-.7,24.3-1.1,36.4s11.8,7.7,12,0c.4-12.1.7-24.3,1.1-36.4s-11.8-7.7-12,0h0Z"/>
    <path d="M783.6,721.7c1.3,5.6,1.3,11.2,0,16.8s9.8,10.7,11.6,3.2c1.8-7.7,1.8-15.4,0-23.1-1.8-7.5-13.3-4.3-11.6,3.2h0Z"/>
    <path d="M752.8,714.2l2.3,20c.4,3.2,2.5,6,6,6s6.4-2.8,6-6l-2.3-20c-.4-3.2-2.5-6-6-6s-6.4,2.8-6,6h0Z"/>
    <path d="M738.8,711.9c-.7,7.4-1.4,14.9-2.1,22.3s11.3,7.6,12,0,1.4-14.9,2.1-22.3-11.3-7.6-12,0h0Z"/>
    <path d="M685.6,707.2l-1.1,20c-.4,7.7,11.6,7.7,12,0l1.1-20c.4-7.7-11.6-7.7-12,0h0Z"/>
    <path d="M704.4,708.3c-.4,7.8-.7,15.7-1.1,23.5s11.6,7.7,12,0,.7-15.7,1.1-23.5-11.6-7.7-12,0h0Z"/>
    <path d="M633.3,696.2c-2,8.6-3.9,17.2-5.9,25.8s9.9,10.7,11.6,3.2c2-8.6,3.9-17.2,5.9-25.8s-9.9-10.7-11.6-3.2h0Z"/>
    <path d="M614.5,697.4c-1.6,6.7-3.1,13.3-4.7,20-1.8,7.5,9.8,10.7,11.6,3.2s3.1-13.3,4.7-20c1.8-7.5-9.8-10.7-11.6-3.2h0Z"/>
    <path d="M581.4,703.7v10.6c0,3.2,2.8,6,6,6s6-2.7,6-6v-10.6c0-3.2-2.8-6-6-6s-6,2.7-6,6h0Z"/>
    <path d="M571.6,688.8c-3.5,7.4-7,14.9-10.5,22.3-3.3,6.9,7.1,13,10.4,6.1s7-14.9,10.5-22.3c3.3-6.9-7.1-13-10.4-6.1h0Z"/>
    <path d="M553.6,686.8c-2.7,7.4-5.5,14.9-8.2,22.3s8.9,10.4,11.6,3.2,5.5-14.9,8.2-22.3-8.9-10.4-11.6-3.2h0Z"/>
    <path d="M515.9,686.8c-2.7,8.2-5.5,16.4-8.2,24.7-2.4,7.3,9.1,10.5,11.6,3.2,2.7-8.2,5.5-16.4,8.2-24.7,2.4-7.3-9.1-10.5-11.6-3.2h0Z"/>
    <path d="M501.1,676c-6,7.7-12,15.5-18,23.2s-2.5,6,0,8.5,6.5,2.6,8.5,0c6-7.7,12-15.5,18-23.2,2-2.6,2.5-6,0-8.5s-6.5-2.6-8.5,0h0Z"/>
    <path d="M462.1,683.3l-7.1,21.1c-2.4,7.3,9.1,10.5,11.6,3.2s4.7-14.1,7.1-21.1-9.1-10.5-11.6-3.2h0Z"/>
    <path d="M447.3,681.8l-9.4,16.4c-3.8,6.7,6.5,12.8,10.4,6.1l9.4-16.4c3.8-6.7-6.5-12.8-10.4-6.1h0Z"/>
    <path d="M427.9,680.9l-5.9,14.1c-1.2,3,1.3,6.6,4.2,7.4s6.1-1.2,7.4-4.2l5.9-14.1c1.2-3-1.3-6.6-4.2-7.4s-6.1,1.2-7.4,4.2h0Z"/>
    <path d="M-5.6,205c52.1,6.5,104.7,8,157.1,4.3,5.4-.4,7.7-6.2,4.2-10.2-13.3-15.8-33.7-24.7-54.3-24.1s-7.7,12.2,0,12c17.8-.6,34.4,7,45.8,20.6l4.2-10.2c-52.4,3.7-105,2.3-157.1-4.3-7.6-1-7.6,11,0,12h0Z"/>
    <path d="M142.2,196.5c2,47.4,4,94.7,6,142.1s12.3,7.7,12,0c-2-47.4-4-94.7-6-142.1-.3-7.7-12.3-7.7-12,0h0Z"/>
    <path d="M-3.4,488.5c43.6,8.4,88.6,2.7,128.7-16.1s.9-13.6-6.1-10.4c-37,17.4-79.3,22.6-119.5,14.9s-10.8,10.1-3.2,11.6h0Z"/>
    <path d="M67.4,304.6c-26-3.2-53.7,11.4-64.9,35.4-11.3,24.3-6.2,55.6,13.9,73.9,19.5,17.8,49.7,22,73.1,9.5,25.7-13.7,37-43.6,28.5-71.1s-41.1-49.5-72.9-49.2-7.7,12.1,0,12c22.9-.2,46.4,10.4,57.5,31.2,11.1,20.8,7.2,46.9-11.5,61.8s-42.4,13.6-60.6,1.6-26-36.7-19.8-57.6c7.1-24.1,32.4-38.5,56.8-35.5s7.6-11.1,0-12h0Z"/>
    <path d="M66.6,235.5c-14.8-5.4-33-1.3-41.4,12.8-7.4,12.4-5.2,28.9,7,37.3s28.1,5,35.4-7.6,1.6-31.9-10.5-42-14.4,3.5-8.5,8.5,13.6,15.8,9.5,25.7-12.8,10.5-19.8,5.1-6.7-15.3-2-22.1,17.9-9.5,27.1-6.1,10.4-8.9,3.2-11.6h0Z"/>
    <path d="M99.1,176.6c-36-.2-72-.4-108-.6s-7.7,12,0,12c36,.2,72,.4,108,.6s7.7-12,0-12h0Z"/>
    <path d="M841.4-10.2c-1.3,43.7-1.7,87.4-1.2,131.1,0,3.5,2.7,5.7,6,6,56.8,5.8,114.1,5.3,170.8-1.6s7.7-12.9,0-12c-56.7,6.9-114,7.4-170.8,1.6l6,6c-.5-43.7,0-87.4,1.2-131.1.2-7.7-11.8-7.7-12,0h0Z"/>
    <path d="M545,224.7c-.1,43.8-.2,87.6-.3,131.5s12,7.7,12,0c.1-43.8.2-87.6.3-131.5s-12-7.7-12,0h0Z"/>
    <path d="M548.7,229.2c43.5,2.6,87.1,5.1,130.6,7.7,21.6,1.3,43.2,2.5,64.8,3.8s9.8-.3,13.9,1.3,3.4,6.9,3,10.7c-1.2,10.7-2.6,21.4-3.9,32-2.9,24.1-5.9,48.2-8.8,72.3s11.1,7.6,12,0c2.8-22.8,5.6-45.6,8.3-68.4,1.4-11.7,3-23.4,4.3-35.2s-.2-17.8-8.9-21.9-8.5-2.2-12.9-2.5c-6.3-.4-12.6-.7-18.9-1.1l-33.9-2c-23.3-1.4-46.5-2.7-69.8-4.1s-53.2-3.1-79.8-4.7-7.7,11.5,0,12h0Z"/>
    <path d="M136.5-.5c2.9,42.2,6.1,84.4,9.6,126.6s1.8,21.1,2.7,31.6,1.1,18,3.2,26.7,5.2,14,11.1,18.6,16.1,6,24.8,6c21.2-.1,42.4-.5,63.5-.8s33.3.6,49.1-4c14.6-4.2,26.8-13.9,30.5-29.1s1.5-18,.6-27-2.1-21-3.2-31.5c-4.9-47.8-9.8-95.6-14.7-143.4-.8-7.6-12.8-7.7-12,0,4,39.2,8,78.4,12,117.7,2,19.4,4,38.7,5.9,58.1s1.6,31.8-13.5,40.1-26.6,6.7-39.8,6.9c-19.6.2-39.2.5-58.7.7s-18.9,1-28.1,0-12.6-4.9-15-12.1-2.7-15.3-3.4-22.9-1.7-19.8-2.5-29.7c-3.7-44.2-7.1-88.4-10.1-132.6s-12.5-7.7-12,0h0Z"/>
    <path d="M139,41.5c62.6-.7,125.2-1.4,187.8-2.1,7.7,0,7.7-12.1,0-12-62.6.7-125.2,1.4-187.8,2.1s-7.7,12.1,0,12h0Z"/>
    <path d="M148.4,73.1c56-2.5,111.9-4.9,167.9-7.4,7.7-.3,7.7-12.3,0-12-56,2.5-111.9,4.9-167.9,7.4-7.7.3-7.7,12.3,0,12h0Z"/>
    <path d="M153.1,106c57.9,1.6,115.9.5,173.7-3.2,7.7-.5,7.7-12.5,0-12-57.8,3.7-115.8,4.8-173.7,3.2s-7.7,11.8,0,12h0Z"/>
    <path d="M162.5,138.4c57.9-.6,115.8-1.2,173.7-1.9,7.7,0,7.7-12.1,0-12-57.9.6-115.8,1.2-173.7,1.9-7.7,0-7.7,12.1,0,12h0Z"/>
    <path d="M154.3,171.8c58.3,4.4,116.8,4.3,175-.3s7.7-12.6,0-12c-58.2,4.6-116.8,4.7-175,.3-7.7-.6-7.7,11.4,0,12h0Z"/>
    <path d="M167.7-4.2c-1.3,67.8,3.4,135.5,14,202.5s12.8,4.4,11.6-3.2c-10.3-65.9-14.8-132.6-13.5-199.3.1-7.7-11.9-7.7-12,0h0Z"/>
    <path d="M187.3.7c5.6,64.5,11.2,129,16.7,193.6.7,7.6,12.7,7.7,12,0-5.6-64.5-11.2-129-16.7-193.6s-12.7-7.7-12,0h0Z"/>
    <path d="M215.8,6.2c5.9,64.7,11.8,129.3,17.6,194,.4,4.3,4.9,7.8,9,5.2s4.7-2.9,7-4.4c6.5-4.1.5-14.5-6.1-10.4s-4.7,2.9-7,4.4l9,5.2c-5.9-64.7-11.8-129.3-17.6-194-.7-7.6-12.7-7.7-12,0h0Z"/>
    <path d="M251.2,12.2c1.8,57.5,6.7,114.8,14.7,171.8,1.1,7.6,12.6,4.4,11.6-3.2-7.9-55.9-12.6-112.2-14.3-168.6s-12.2-7.7-12,0h0Z"/>
    <path d="M285.3,1.7c-5.5,68.7-.4,137.9,14.7,205.1,1.7,7.5,13.3,4.3,11.6-3.2-14.9-66.2-19.7-134.3-14.3-201.9s-11.4-7.7-12,0h0Z"/>
    <path d="M546.3,264.4c75.3-.1,150.6,4,225.5,12.3,7.7.9,7.6-11.2,0-12-74.9-8.3-150.2-12.4-225.5-12.3s-7.7,12,0,12h0Z"/>
    <path d="M544,299.3c74.7,3.3,149.4,6.6,224.1,9.9s7.7-11.7,0-12c-74.7-3.3-149.4-6.6-224.1-9.9s-7.7,11.7,0,12h0Z"/>
    <path d="M551,331.9c66.5,2.1,133.1,4.3,199.6,6.4,7.7.2,7.7-11.8,0-12-66.5-2.1-133.1-4.3-199.6-6.4-7.7-.2-7.7,11.8,0,12h0Z"/>
    <path d="M577.5,227.2c-13.1,39.6-14.2,82.6-3.3,122.8,2,7.4,13.6,4.3,11.6-3.2-10.4-38.3-9.1-78.8,3.3-116.4,2.4-7.3-9.2-10.5-11.6-3.2h0Z"/>
    <path d="M617.1,222.4c-2.3,47.4-1.2,94.9,3.2,142.1.7,7.6,12.7,7.7,12,0-4.4-47.2-5.5-94.7-3.2-142.1.4-7.7-11.6-7.7-12,0h0Z"/>
    <path d="M645.7,228c4.1,43,6.9,86.2,8.4,129.4.3,7.7,12.3,7.7,12,0-1.4-43.2-4.2-86.3-8.4-129.4-.7-7.6-12.7-7.7-12,0h0Z"/>
    <path d="M687.9,233.2c7,39.4,8.4,79.6,4.3,119.4-.8,7.7,11.2,7.6,12,0,4.2-40.9,2.5-82.1-4.7-122.5s-12.9-4.4-11.6,3.2h0Z"/>
    <path d="M726.8,235.2c-2.7,43.1-5.4,86.2-8.1,129.3-.2,3.8,4,6.9,7.6,5.8,1.2-.4,2.5-.8,3.7-1.2,7.3-2.3,4.2-13.9-3.2-11.6-1.2.4-2.5.8-3.7,1.2l7.6,5.8c2.7-43.1,5.4-86.2,8.1-129.3.5-7.7-11.5-7.7-12,0h0Z"/>
    <path d="M853.9,82.2c43.1,2.8,86.4,1.5,129.3-4.1,3.2-.4,6-2.5,6-6s-2.8-6.4-6-6c-42.8,5.6-86.1,7-129.3,4.1s-7.7,11.5,0,12h0Z"/>
    <path d="M846.9,39.3c68.4,4.1,136.9,5.4,205.4,3.9s7.7-12.2,0-12c-68.5,1.5-137,.2-205.4-3.9-7.7-.5-7.7,11.5,0,12h0Z"/>
    <path d="M872-5.4c3.5,39.8,3.9,79.9,1.3,119.8-.5,7.7,11.5,7.7,12,0,2.6-39.9,2.2-79.9-1.3-119.8-.7-7.6-12.7-7.7-12,0h0Z"/>
    <path d="M918.7-3c-.8,44.3-1.6,88.5-2.4,132.8,0,3.3,2.8,5.9,6,6,1.1,0,2.1,0,3.2.1,7.7.3,7.7-11.7,0-12-1.1,0-2.1,0-3.2-.1l6,6c.8-44.3,1.6-88.5,2.4-132.8s-11.9-7.7-12,0h0Z"/>
    <path d="M955.7,7.7c10.4,38.5,10.2,79.2-.6,117.6-2.1,7.4,9.5,10.6,11.6,3.2,11.3-40.5,11.5-83.5.6-124-2-7.4-13.6-4.3-11.6,3.2h0Z"/>
  </g>
  <g id="Layer_6" class="st0">
    <image width="6000" height="4000" transform="translate(-204.6 1.6) scale(.2)" xlink:href="../../../My Music/Music/Walking Billboards/2024-25/Photos/WB10.jpg"/>
  </g>
  <g id="Layer_7">
    <path d="M203,373c-3.2,75.9-4.5,152-4.1,228,.1,21.6.4,43.1.8,64.7.1,5.1,8.1,5.2,8,0-1.5-76-1.2-152,1-228,.6-21.6,1.4-43.1,2.3-64.7s-7.8-5.1-8,0h0Z"/>
    <path d="M203.9,670.4c76.8-1.1,153.5-1.9,230.3-2.6,76.8-.6,153.5-1,230.3-1.2,43.2-.1,86.4-.1,129.6,0,5.1,0,5.2-8,0-8-76.8,0-153.5,0-230.3.5-76.8.4-153.5,1-230.3,1.8-43.2.5-86.4,1-129.6,1.6-5.1,0-5.2,8.1,0,8h0Z"/>
    <path d="M791.5,378.4c6.2,76.6,6.8,153.6,1.6,230.3s-3.4,43.2-5.7,64.8c-.6,5.1,7.4,5.1,8,0,8.3-76.4,11-153.4,8-230.2-.9-21.7-2.2-43.3-3.9-64.9s-8.4-5.1-8,0h0Z"/>
    <path d="M204.7,378.4c76.6-.6,153.1-.9,229.7-.8,76.6,0,153.1.6,229.7,1.4,43.3.5,86.6,1.1,129.8,1.8s5.2-7.9,0-8c-76.6-1.2-153.1-2.1-229.7-2.6-76.6-.5-153.1-.7-229.7-.4s-86.6.4-129.8.7c-5.1,0-5.2,8,0,8h0Z"/>
    <path d="M829.5,376.9c2.6,52.9,3.7,105.9,3.2,158.9-.3,26.5-.9,53-2,79.4-.6,15.4-5.3,42.6,13.2,50.2,5.1,2.1,10.8,1.9,16.2,2s13,.3,19.5.5c13,.3,26,.9,39,1s8.9-.4,11.9-4.1,2.6-9.3,2.5-14c-.2-13.3-.4-26.5-.7-39.8-1.3-53-3.7-106-7.7-158.8-1.1-14.5-2.3-29.1-3.6-43.6s-.7-13.7-2.1-20.2-4-8.4-8.9-9.6-12.4-.2-18.2,0-14.3.6-21.4.8c-14.9.6-29.9,1.2-44.8,1.8s-5.2,8.2,0,8c24-.9,48.1-1.9,72.1-2.8s11.2-1.9,13.1,2.5,1.5,12.2,2,17.5c1.1,11.9,2.1,23.8,3.1,35.7,3.8,48.2,6.3,96.6,7.8,144.9.4,11.9.7,23.8.9,35.8.1,6,.2,11.9.3,17.9s0,6,.1,8.9.7,6.5-.3,8.9c-1.7,4-12.2,2.1-15.8,2-6.5-.2-13-.3-19.5-.5-11.6-.3-23.2-.4-34.7-.9s-9.5-1-12.5-5.1-3.3-7.3-3.7-11.1c-1.2-10.1.1-20.7.5-30.8.9-24.1,1.5-48.3,1.8-72.5.6-54.3-.5-108.6-3.2-162.8-.3-5.1-8.3-5.2-8,0h0Z"/>
    <path d="M62.8,376.2c-5.4,51.2,9.4,101.2,14.1,151.8s2.1,51.1-.9,76.5c-1.5,12.5-4.3,24.6-6.3,37s-1.4,17.6,5.7,22.9c3.6,2.6,7.8,3.2,12.2,3.4,7.1.3,14.2.2,21.3.3,12.4.2,25.1,1,37.5.3,8.9-.5,17.5-3.7,21.5-12.3s2.5-19.7,1.6-29.3c-5-52.5-10-105-14.9-157.6s-2.8-29.7-4.2-44.6-1.4-15.2-2.2-22.8-.4-13-2.1-19c-3.3-12.1-18.2-9.8-27.8-10-15-.3-30-.6-45-.8s-5.2,7.9,0,8c12.1.2,24.1.4,36.2.7s11.1.2,16.6.3,11.7-.7,12.6,6.1c3.4,23.9,4.6,48.2,6.9,72.2,4.6,48.2,9.2,96.5,13.7,144.7s2.5,22.7,3.2,34-.7,19.4-11.2,21.8c-4.8,1.1-9.9.7-14.7.6s-11.8-.2-17.8-.2-11.8-.2-17.8-.2-11.7.6-17.1-.5c-10.9-2.2-6.2-17.2-4.7-24.5,2.3-11.3,4-22.7,5.2-34.2,2.4-22.9,2.7-46,.8-68.9-4.3-51.9-20-103.1-14.5-155.6s-7.5-5.1-8,0h0Z"/>
    <path d="M68.9,52.3c-11.3,73.6-7.7,148.2-.6,222,2,21.1,4.4,42.2,6.7,63.2s1.6,4,4,4c13,.2,26,.3,39,.5s11.7.1,17.5.2,11,.5,15.9-1.7c9.5-4.3,10-15.7,11-24.8,1.4-12.2,2.1-24.4,2.2-36.6.4-48.5-7.5-96.4-9.5-144.8s-.3-54.9,5.1-81.9-.5-4.6-2.8-4.9c-25.3-3.8-50.9-5.2-76.5-3.8s-5.2,8.3,0,8c24.8-1.4,49.8-.3,74.4,3.5l-2.8-4.9c-9,45.1-5.7,91.1-1.5,136.6,2.1,22.7,4.3,45.5,5.2,68.3.9,22.9,1.6,47.3-3.1,69.8s-5.3,9.2-12.2,9.3-13.4-.2-20-.2c-14-.2-27.9-.3-41.9-.5l4,4c-8.1-73.1-16.2-146.6-12.6-220.2s3-42,6.2-62.9c.8-5-6.9-7.2-7.7-2.1h0Z"/>
    <path d="M205.3,52.3c5.4,72.3,5.8,144.9,1,217.2-1.4,20.6-3.2,41.2-5.3,61.7s2,4,4,4c113-.2,225.9-.5,338.9-.7,56.5-.1,113-.2,169.4-.4s27.9,0,41.9,0,13,.2,19.5,0,10.2-1.2,13.6-5.4,3.5-7.7,3.9-11.9c.6-6.8.5-13.7.7-20.5.4-14.1.5-28.3.5-42.4-.1-62.8-4-125.5-11.7-187.8-.3-2.2-1.6-3.9-4-4-73.1-1.7-146.1-3.5-219.2-5.2-73.1-1.7-146.1-3.5-219.2-5.2-41.2-1-82.4-2-123.5-2.9s-5.1,7.9,0,8c73.1,1.7,146.1,3.5,219.2,5.2,73.1,1.7,146.1,3.5,219.2,5.2,41.2,1,82.4,2,123.5,2.9l-4-4c6.6,54.1,10.5,108.6,11.4,163.2.5,26.9.3,53.9-.7,80.8s.7,12.5-4.2,15-6.3.9-9.2.9-8,0-12,0c-13.3,0-26.6,0-39.9,0-109.6.2-219.3.5-328.9.7-61.8.1-123.6.3-185.4.4l4,4c7.6-72.1,10.3-144.6,7.7-217.1-.7-20.6-1.9-41.3-3.4-61.9s-8.4-5.1-8,0h0Z"/>
    <path d="M821.3,57.1c13,71.1,19.4,143.4,19.1,215.7,0,20.5-.7,41-1.9,61.5-.1,2.2,1.9,3.9,4,4,16.9,1,33.9,2,50.8,2.9,12.4.7,28.8,3.5,32.6-12.2,1.6-6.5,1.1-13.6,1-20.3s-.7-16.8-1.5-25.1c-1.4-16.4-3.5-32.8-4.7-49.2-2.5-33.4-2-67,1.4-100.3,1.7-16.1,4.6-32,7-48,1.5-10.3,2.3-22.6-5.2-31-4.7-5.2-11.5-7.1-18.2-7.6s-18.3-.6-27.4-.9c-19.2-.5-38.4-1.1-57.6-1.6s-5.1,7.9,0,8c15.9.4,31.8.9,47.7,1.3s14.6.4,21.9.6,14.8-.4,21.5,1.6c12,3.7,11.2,18,9.7,28.1s-4.7,27.7-6.3,41.7c-3.6,30.3-4.6,61-3.2,91.5,1.4,29.7,6.3,59.2,7.2,88.9s1.5,15.7-1.2,22.1-14.8,4.9-21.3,4.5c-17.9-1-35.9-2.1-53.8-3.1l4,4c4-72.9,1.4-146.1-8-218.4-2.7-20.4-5.8-40.7-9.5-60.9-.9-5.1-8.6-2.9-7.7,2.1h0Z"/>
    <path d="M830.4,698.1c-6.9,49.6,1.5,99,9.5,147.8,4,24.5,7.9,49,9.5,73.8s1.1,25,.5,37.5c-.4,9.3-3.3,21,2.3,29.3,5.9,8.6,18.4,7.3,27.5,7.8s24.8,3,35.8-1.1c23.6-8.8,20.1-39.4,19.8-59.4-.9-53.9-1.7-107.8-2.6-161.7-.4-23.4,4.2-54.2-19.6-68s-49.7-3.9-73.8-11.1c-4.9-1.5-7.1,6.3-2.1,7.7,20.6,6.1,42.6,0,63.1,6.5s17.4,8.3,21.1,17.5,3,22.6,3.2,33.5c.8,49.3,1.6,98.5,2.4,147.8.2,11.9.4,23.8.6,35.7s1.5,24.7-4.6,35.1-17.5,10.7-28.6,10.2-11.6-.6-17.4-.9-11.9.6-16.1-2.3c-3.9-2.7-3.9-8.1-3.7-12.4s.8-10.7,1-16.1c.5-11.3.3-22.6-.4-33.8-1.4-22.4-4.6-44.7-8.2-66.8-8.2-51-18.5-102.8-11.3-154.5.7-5-7-7.2-7.7-2.1h0Z"/>
    <path d="M197.7,704.1c-3.7,77.3-3.5,154.7.6,231.9,1.2,21.8,2.6,43.5,4.4,65.3s1.1,3.6,2.9,3.9c116.9,16.8,235.2,19.3,353.1,16.2,58.9-1.6,117.8-4.5,176.7-7.7,14.5-.8,29.2-1.1,43.7-2.5s20-4.4,24-14.7c4.6-11.6,1.8-26,1.3-38-.7-14.6-1.4-29.2-2.1-43.8-3.3-67.7-6.6-135.5-9.8-203.2-.1-2.2-1.7-3.9-4-4-76.2-2.6-152.4-4.3-228.7-4.9-75.9-.7-151.8-.3-227.7,1s-85.9,1.8-128.8,3.1c-5.1.2-5.2,8.2,0,8,76.2-2.4,152.4-3.8,228.7-4.3,75.9-.4,151.8.1,227.7,1.6,42.9.9,85.9,2,128.8,3.5l-4-4c2.8,58.4,5.7,116.9,8.5,175.3,1.4,29.2,2.9,58.4,4.2,87.6s1,24.6-12.5,27.9c-5.8,1.4-12,1.3-17.9,1.6s-14.4.8-21.6,1.2c-114.6,6.3-229.5,11.8-344.3,8.3s-129.1-6.8-193-16l2.9,3.9c-6.3-77.1-8.7-154.5-7.2-231.8s1.2-43.6,2.2-65.4-7.8-5.1-8,0h0Z"/>
    <path d="M63.1,712c29.4,3.9,59.1,4.5,88.6,1.8l-4-4c6.4,78.8,12.9,157.8,11.7,237-.3,22.4-1.3,44.8-3.1,67.1l4-4c-12.4-.1-24.8-.2-37.2-.3s-23,.6-34.3-.3c-6.3-.5-8.5-3.7-8.9-9.7s-.5-12.9-.8-19.4c-.5-12-1-23.9-1.5-35.9-2-49.2-4-98.4-6-147.7s-2.3-55.9-3.4-83.8-8.2-5.2-8,0c2.1,52.6,4.3,105.1,6.4,157.7s2.1,51.9,3.2,77.8c.5,13.3,1.1,26.6,1.6,39.9s-1.2,21.3,7.6,26.6,10.4,2.6,15.7,2.7c7.2,0,14.3.1,21.5.2,14.7.1,29.3.2,44,.4s3.8-1.9,4-4c6.1-78.9,2.5-158.2-3.3-237s-3.5-44.7-5.3-67.1-1.7-4.2-4-4c-29.5,2.6-59.2,2-88.6-1.8-5.1-.7-5,7.3,0,8h0Z"/>
    <path d="M407,456.5c10.8-1.1,20.5-5.4,28.4-13l-6.7-3.9c-5.1,12.5-9.5,27.9.1,39.5s11.1,7.4,17.8,8.4,16.2,1.9,24.1.8c14.6-2.1,23.7-11.5,27.6-25.3,1.6-5.8,4.2-13.2.7-18.8s-10.2-6.1-15.8-7.1c-18.7-3.2-37.8-3.9-56.7-2.1s-5.1,8.5,0,8c16-1.5,32.1-1.4,48,.8,5,.7,17.7.7,18.3,7.3s-1.4,7-2.2,9.8-2.2,7.1-4.3,10.2c-8.6,12.8-29.3,11.1-42.4,7.9s-12.7-24.5-7.6-37.2-4-6.4-6.7-3.9c-6.3,6-14.1,9.8-22.7,10.6s-5.1,8.5,0,8h0Z"/>
    <path d="M497,452.4c5.3-2.2,10.8-3.4,16.5-3.5s5.2-8.1,0-8-12.7,1.3-18.7,3.8-2.6,9.7,2.1,7.7h0Z"/>
    <path d="M511.9,440.5c-6.8,10.5-5,24.5,2.7,34.2s22.9,15,36.1,14.6,26.7-6,32.4-19.2,3.9-25.8-9.8-30.3c-8.1-2.7-17.4-3.2-25.9-3.6s-20,0-30,.3-5.2,8.2,0,8c16-.6,32.3-1.3,48.1,1.6s13,3.6,12.5,11.8-3.7,14.1-9.4,18.2c-10.5,7.5-27.5,6.6-38.6.8-11.6-6-18.8-20.6-11.1-32.5s-4.1-8.3-6.9-4h0Z"/>
    <path d="M487.3,475.7c-5.8,7.6-15.4,20.9-11.1,31s17.2,12.2,24.5,6.7-1.4-17.8-10-17.1-7.1,3.8-6.5,7.8,5.8,6.7,10.3,7.2,5.1-7.4,0-8c-.6,1-.6,2-.1,2.9.8,1.4.3,1.9-1.7,1.3-1.7,0-3.7-.1-5.3-.8-4.2-1.6-4.8-4.9-3.6-8.9,2-6.6,6.2-12.8,10.3-18.2s-3.8-8.1-6.9-4h0Z"/>
    <path d="M513.7,479.1c0,5.8,1.4,11.3,4.4,16.3s4.1,4.9,2,7.6-2.5,2.1-3.8,2.8l-1.4.7c-1.9,1.4-2.7,1.4-2.3,0,4.9-1.5,2.8-9.2-2.1-7.7s-8.7,7.7-5.1,12.8,10.2,3.8,14.9,1.1,9.3-7.2,8.6-13.2-2.3-5.5-3.9-8.2c-2.3-3.8-3.3-7.8-3.3-12.3s-8-5.2-8,0h0Z"/>
    <path d="M471.8,541.8c19.9,4.3,40.3,4.2,60.1-.4,5-1.2,2.9-8.9-2.1-7.7-18.4,4.3-37.4,4.4-55.9.4-5-1.1-7.2,6.6-2.1,7.7h0Z"/>
    <path d="M463.5,530c-12.3,6.9-12.4,23.6-.7,31.2s8.4-4.1,4-6.9c-6.8-4.4-6.2-13.5.7-17.4s.5-9.4-4-6.9h0Z"/>
    <path d="M476.3,525c-8.4,4.5-12.5,13.6-11.2,22.8s8.4,2.9,7.7-2.1,2.6-11.2,7.6-13.8.5-9.3-4-6.9h0Z"/>
    <path d="M495.5,518c-13.1.2-22.4,12.6-18.3,25.2s9.3,2.8,7.7-2.1c-2.5-7.6,2.4-15,10.6-15.1s5.2-8.1,0-8h0Z"/>
    <path d="M502.2,517.2c-7.7,4.9-12.4,12.9-12.8,22.1s7.8,5.1,8,0,3.6-11.8,8.9-15.2.3-9.7-4-6.9h0Z"/>
    <path d="M508.7,523.8c4.1,7,3.5,15.1-1.3,21.7s3.9,8.2,6.9,4c6.4-8.8,6.7-20.4,1.3-29.7s-9.5-.4-6.9,4h0Z"/>
    <path d="M516.4,528c4.9,3.1,8.5,7.4,10.8,12.7s3.8,2.4,5.5,1.4,2.3-3.5,1.4-5.5c-2.8-6.5-7.6-11.9-13.6-15.6s-8.4,4.2-4,6.9h0Z"/>
    <path d="M530.5,531.6c1.6,1.8,1.7,5,.2,6.9s-1.6,4,0,5.7,4.3,1.7,5.7,0c4.4-5.5,4.4-12.8-.2-18.2s-9,1.8-5.7,5.7h0Z"/>
    <path d="M538.5,531.7c4.3,1.6,5.9,6.1,4.5,10.2s6.1,7,7.7,2.1c2.9-8.6-1.8-17-10-20.1-4.8-1.8-6.9,6-2.1,7.7h0Z"/>
    <path d="M410,496.5c11.2,35.6,33.6,70.7,71.6,81.2,36.9,10.2,76.9-12.7,95.9-44.2,12.4-20.6,10.7-44.3,8.2-67.2s-8.6-5.1-8,0c2,18.4,4.4,38.3-3.2,55.9-6.9,16-20.9,29.1-35.4,38.2-14.9,9.3-32.3,14.3-49.8,10.9s-32.1-12.7-43.7-25.3-22-32.9-27.8-51.6-9.3-2.8-7.7,2.1h0Z"/>
    <path d="M406.1,488.8c5.6,25.8,1.7,53.3,11.5,78.3s29,38.7,50.4,48c11.2,4.9,23.3,7.4,35.6,5.9s25-6.1,36.5-11.4c21.7-9.8,36.7-26.8,44-49.5,9.3-29,4.3-59.8-.5-89.2-.8-5.1-8.5-2.9-7.7,2.1,4.1,24.6,8.4,50.2,3.2,74.9-4.6,21.8-16.3,40.6-36.2,51.4-20.7,11.2-45,18.5-67.8,10s-41.4-23.6-49.7-44.4c-9.9-24.8-5.9-52.6-11.5-78.3s-8.8-2.9-7.7,2.1h0Z"/>
    <path d="M414.7,489.2c1.9-8.1,3.1-17.9-4.7-23.4s-15.2-1.2-17.7,6.5,1.4,20.1,4.4,28.4,8.3,19.2,13,28.5,9.2.5,6.9-4c-5.6-11.1-11.3-22.2-14.6-34.2s-4.9-14.8-.8-18.3,6.1,1,6.8,4.1-.2,7-1,10.4c-1.2,5,6.5,7.1,7.7,2.1h0Z"/>
    <path d="M589.1,470.9c1-2.3,2.9,3.8,3,4.2.5,2.2.8,4.5,1,6.8.3,4.1,0,8.3-.7,12.4-1.6,8.5-5.3,16.4-10.8,23.1-3.3,3.9,2.4,9.6,5.7,5.7,9.4-11.3,14.6-25.6,13.9-40.4s-.9-13.8-5.6-18-11-3.2-13.4,2.1,4.8,8.7,6.9,4h0Z"/>
    <path d="M415.1,497.7c3.8-18.8,7.6-37.6,11.4-56.4,1.8-9.1,3.7-18.1,5.5-27.2s1.2-7.9,3.4-11,7.1-4.6,11.1-5.5c18.3-4.3,37.1-6.3,55.8-7.5s18.6-.9,27.9-1.1,17.2-.9,24.7,2.8c18.5,9,16.4,33.9,14.7,50.8s7.5,5.1,8,0c1.8-17.5,2.8-37.1-9.9-51.1-12.7-13.9-34-10.8-50.9-10.1-21.2.8-42.3,2.6-63.1,6.6s-17.8,2.6-23.5,9.1-6.2,17.4-7.9,25.6c-4.9,24.3-9.8,48.6-14.8,72.9s6.7,7.2,7.7,2.1h0Z"/>
    <path d="M402.5,465.5c2.2-29.8,5.1-63.1,29.2-84,3.9-3.4-1.8-9-5.7-5.7-25.7,22.4-29.2,57.8-31.5,89.7s7.6,5.1,8,0h0Z"/>
    <path d="M585.1,380.5c10.4,11.3,3.6,29,1.8,42.2-2,14.8-2.1,29.7-.4,44.6.6,5.1,8.6,5.1,8,0-1.9-17.3-1.5-34.7,1.6-51.8s5.2-29.2-5.3-40.7-9.1,1.9-5.7,5.7h0Z"/>
    <path d="M574.1,380.5c5,9.1,12.6,16.5,21.9,21.3s8.6-4.5,4-6.9c-8.1-4.2-14.6-10.4-19-18.4s-9.4-.5-6.9,4h0Z"/>
    <path d="M570.2,388.7c8,9.6,14.3,20.4,18.5,32.2,1.7,4.8,9.5,2.7,7.7-2.1-4.8-13.1-11.6-25-20.6-35.7s-8.9,1.7-5.7,5.7h0Z"/>
    <path d="M576.1,407.1c-.9,12,3.2,23.5,11.3,32.4s9.1-1.9,5.7-5.7c-6.7-7.4-9.8-16.8-9-26.7s-7.6-5.1-8,0h0Z"/>
    <path d="M574.7,431.7c1.2,10.4,6.3,19.2,14.9,25.2s8.2-4,4-6.9c-6.1-4.2-10.1-10.9-11-18.3s-8.6-5.1-8,0h0Z"/>
    <path d="M415.6,392.9c-5.3,16.1-11.9,35.4-29.8,40.9s-2.8,9.2,2.1,7.7c20.9-6.5,29.2-27.5,35.4-46.5s-6.1-7-7.7-2.1h0Z"/>
    <path d="M412.2,405.2c-4.4,14.8-11.4,28.7-20.8,40.9-3.1,4,2.5,9.7,5.7,5.7,10.3-13.4,18.1-28.2,22.9-44.5s-6.3-7.1-7.7-2.1h0Z"/>
    <path d="M411.1,440.1l-5.4,14.1c-1.9,4.8,5.9,6.9,7.7,2.1l5.4-14.1c1.9-4.8-5.9-6.9-7.7-2.1h0Z"/>
    <path d="M409.4,442c-2,7.2-5.2,13.9-9.9,19.8s2.5,9.7,5.7,5.7c5.5-7,9.5-14.7,11.9-23.3s-6.3-7.1-7.7-2.1h0Z"/>
    <path d="M429.2,384.2c-3.9,9.1-7.3,18.3-10.2,27.7s6.2,7,7.7,2.1c2.7-8.7,5.8-17.4,9.4-25.8s-4.9-8.8-6.9-4h0Z"/>
    <path d="M422.9,382.6c-2.7,8.1-5.3,16.1-8,24.2s6.1,7,7.7,2.1c2.7-8.1,5.3-16.1,8-24.2s-6.1-7-7.7-2.1h0Z"/>
    <path d="M482.4,378.2c-13.9-6.2-29.1-6-42.8.5s-.6,9.1,4,6.9c10.9-5.2,23.7-5.5,34.8-.5s8.7-4.8,4-6.9h0Z"/>
    <path d="M460.8,381.9c-20.7-5-42.6-1.7-60.8,9.3-4.4,2.7-.4,9.6,4,6.9,16.4-9.9,36-13,54.7-8.5s7.1-6.5,2.1-7.7h0Z"/>
    <path d="M471.9,384.9c-11.5-8.3-25.5-11.1-39.4-8.6s-2.9,8.6,2.1,7.7c11.8-2.1,23.5.8,33.2,7.8s8.2-3.9,4-6.9h0Z"/>
    <path d="M501.2,387.1c-1.8-13.8-22.9-16.5-33.9-16.4s-5.2,8.1,0,8,9.6.4,14.2,1.7,11.1,2.8,11.6,6.6,8.7,5.1,8,0h0Z"/>
    <path d="M512.3,378l-4.3-5.5c-1.3-1.6-4.3-1.5-5.7,0s-1.4,3.9,0,5.7l4.3,5.5c1.3,1.6,4.3,1.5,5.7,0s1.4-3.9,0-5.7h0Z"/>
    <path d="M517.5,383.6c2.6-3.3,5.7-5.9,9.4-8s.5-9.4-4-6.9-8,5.5-11,9.2-1.6,4,0,5.7,4.3,1.7,5.7,0h0Z"/>
    <path d="M528.1,385.2c2.9-2.6,6.2-4.8,9.7-6.5s2.5-3.7,1.4-5.5-3.5-2.4-5.5-1.4c-4.2,2-7.9,4.6-11.3,7.7s1.8,9.1,5.7,5.7h0Z"/>
    <path d="M550.3,382.7c6.8-4.3,14.2-6.2,22.3-5.6s5.1-7.7,0-8c-9.3-.6-18.4,1.7-26.3,6.7s-.3,9.7,4,6.9h0Z"/>
    <path d="M556.8,391.8c12.6-3.2,25.5-4.1,38.4-3.1s5.1-7.6,0-8c-13.7-1.1-27.3,0-40.6,3.3s-2.9,9,2.1,7.7h0Z"/>
    <path d="M567.2,400.1c6.1,1.6,12,3.8,17.4,7s13.7,7.4,12.1,13.3c-1.4,5,6.3,7.1,7.7,2.1,2.3-8.4-4-14.2-10.2-18.7-7.5-5.4-16-9.2-24.9-11.4s-7.1,6.4-2.1,7.7h0Z"/>
    <path d="M413,516.6c2.9,13,1.4,26.5-4.5,38.4s4.6,8.7,6.9,4c6.9-14,8.7-29.4,5.3-44.6s-8.8-2.9-7.7,2.1h0Z"/>
    <path d="M416.1,533.2c-1.6,8.7,2.8,21.6-3.9,28.6s2.1,9.4,5.7,5.7c8.9-9.2,4-20.9,6-32.1s-6.8-7.2-7.7-2.1h0Z"/>
    <path d="M425.1,540.3c-2.4,12.1-4.1,24.3-5.3,36.6s7.5,5.1,8,0c1.1-11.6,2.8-23.1,5.1-34.5s-6.7-7.2-7.7-2.1h0Z"/>
    <path d="M429.5,550.7c-.4,11.5-1.9,22.8-4.5,34s6.6,7.2,7.7,2.1c2.7-11.9,4.3-24,4.8-36.2s-7.8-5.1-8,0h0Z"/>
    <path d="M438.4,558.6c-2.5,11.4-3.7,23-3.3,34.7s8.2,5.2,8,0c-.4-11,.6-21.8,3-32.6s-6.6-7.2-7.7-2.1h0Z"/>
    <path d="M444.8,576.9c.6,10.1-.1,20-2.4,29.9s6.6,7.2,7.7,2.1c2.4-10.5,3.3-21.2,2.6-32s-8.3-5.1-8,0h0Z"/>
    <path d="M460.6,582.4c-.4,4.9-1.2,9.6-2.5,14.3s-2.3,9.9-6.1,12.1-.4,9.5,4,6.9,6.9-8.2,8.6-13.4,3.3-13.2,3.9-19.9-7.6-5.1-8,0h0Z"/>
    <path d="M469.4,585.5l1.4,13.4.6,5.7.4,3.8c-.3,1.4.2,1.8,1.5,1.2-5-1.1-7.2,6.6-2.1,7.7s8.8-2.9,8.7-8.3c-.2-7.8-1.6-15.8-2.4-23.6s-8.5-5.1-8,0h0Z"/>
    <path d="M476.2,594.9v23.1c0,5.1,8,5.2,8,0v-23.1c0-5.1-8-5.2-8,0h0Z"/>
    <path d="M482.9,588.2c0,6.3.5,12.6,1.8,18.8s2.1,9.5,6.6,11.7,8.7-4.7,4-6.9-3.2-7.6-3.6-10.4c-.7-4.3-.9-8.7-.9-13.1s-8-5.2-8,0h0Z"/>
    <path d="M495.5,586.7c.3,9,1.9,17.8,5,26.3s9.5,2.7,7.7-2.1c-2.9-7.8-4.5-15.8-4.7-24.2s-8.1-5.2-8,0h0Z"/>
    <path d="M511.1,585.1c-.4,8.2,0,16.4,1.1,24.6s4,10.5,9.2,6.6,0-10-4-6.9c3,1.1,3.8.2,2.5-2.7l-.2-2c-.2-2.3-.4-4.6-.5-6.8-.2-4.3-.2-8.5,0-12.8s-7.8-5.1-8,0h0Z"/>
    <path d="M516.5,580.8c0,11,1.1,21.8,3.5,32.5s4.8,4.1,6.7,1.8c.4-.6.9-1.1,1.3-1.7,3.2-4-2.5-9.7-5.7-5.7-.4.6-.9,1.1-1.3,1.7l6.7,1.8c-2.3-10-3.3-20.1-3.3-30.4s-8-5.2-8,0h0Z"/>
    <path d="M497.9,583.5l-2.3,32.1c-.4,5.1,7.6,5.1,8,0l2.3-32.1c.4-5.1-7.6-5.1-8,0h0Z"/>
    <path d="M471.4,583.9c1.2,7-.5,13.7-4.3,19.5s4.1,8.3,6.9,4c5.1-7.7,6.6-16.6,5.1-25.7s-8.6-2.9-7.7,2.1h0Z"/>
    <path d="M461.7,569.9c-2.9,7.6-7.5,14.2-13.3,19.8s1.9,9.2,5.7,5.7c6.9-6.6,12-14.4,15.4-23.3s-5.9-6.9-7.7-2.1h0Z"/>
    <path d="M508.7,582.7c1.7,7.6,4.4,14.9,8.1,21.8,3,5.7,6.6,12.6,13.3,14.4s7.1-6.3,2.1-7.7-8-9.7-10-13.8-4.4-11-5.7-16.8-8.9-2.9-7.7,2.1h0Z"/>
    <path d="M518.8,580c0,11.5,3.2,27.3,17.9,27.1,5.1,0,5.2-8.1,0-8-9.6.2-9.8-12.3-9.9-19.1s-8-5.2-8,0h0Z"/>
    <path d="M532.7,577.8c-1.5,7.1-4.1,32.9,10.5,26.4s.6-9-4-6.9c1.3-.6.5-1.5.4-3s-.2-3.1-.2-4.6c0-3.3.4-6.5,1.1-9.7,1.1-5-6.6-7.2-7.7-2.1h0Z"/>
    <path d="M534.8,576.9c-.5,7,1.8,13.9,6.4,19.2s11.4,8.8,17.7,5,.4-9.6-4-6.9-8-3.3-9.5-5.9-2.8-7.3-2.6-11.4-7.7-5.1-8,0h0Z"/>
    <path d="M548.1,566.4c-1.3,6-1.2,12.9,1.8,18.4s8.8,6.2,12.3,1.5-3.8-8.1-6.9-4c1.7-2.3,1.4-1.3.7-3.8s-.5-2-.6-3.1c-.3-2.3,0-4.6.4-6.9,1.1-5-6.6-7.2-7.7-2.1h0Z"/>
    <path d="M557.9,554.7c-1.9,7.7-1.7,15.4.7,22.9s9.2,2.8,7.7-2.1-2.2-12.4-.7-18.7c1.2-5-6.5-7.1-7.7-2.1h0Z"/>
    <path d="M565,558.9c0,6.1,0,12.3,0,18.4s8,5.2,8,0,0-12.3,0-18.4-8-5.2-8,0h0Z"/>
    <path d="M568.2,548.7c.2,10.1-.2,20.5.6,30.6s5.6,10.4,10.8,6-1.7-8.9-5.7-5.7l-.7.6,2.8-1.2c1.6-.2,0-27.2,0-30.3-.1-5.1-8.1-5.2-8,0h0Z"/>
    <path d="M577,546.8c-.6,6.8,0,13.5,2,20,1.5,4.9,9.2,2.8,7.7-2.1s-2.3-11.8-1.7-17.9-7.5-5.1-8,0h0Z"/>
    <path d="M575.6,536.2c.1,7.5,1.9,14.5,5.2,21.2s9.2.6,6.9-4-4-11.1-4.1-17.1-8.1-5.2-8,0h0Z"/>
    <path d="M559.4,570.3c-1.1,8-1.7,16-1.8,24.1s8,5.2,8,0c0-7.4.5-14.7,1.5-22,.7-5-7-7.2-7.7-2.1h0Z"/>
    <path d="M548.7,578.7c-2.6,7.6-1.5,15.9,3.1,22.5s9.9.2,6.9-4-4.3-10.6-2.3-16.3-6-7-7.7-2.1h0Z"/>
    <path d="M459,549.7c1,4.9,1.7,9.9,2,14.9s.1,12.9.4,12.9c-5-1-7.2,6.7-2.1,7.7,7.4,1.5,10-4.9,10.1-11.2s-1-17.8-2.7-26.5-8.7-2.9-7.7,2.1h0Z"/>
    <path d="M539.3,546.3c.7,5.9,1.9,11.6,3.9,17.1s9.5,2.7,7.7-2.1c-1.8-4.9-3-9.9-3.6-15s-8.6-5.1-8,0h0Z"/>
    <path d="M541.1,546.1c-4.1,5.2-8.3,10.9-7.9,17.9.3,5.7,3.6,10.3,9,12.2s6.9-6,2.1-7.7c-7.6-2.7-.2-13.3,2.5-16.7,3.1-4-2.5-9.7-5.7-5.7h0Z"/>
    <path d="M540.8,552.2c.8,5.7,1.9,11.5,4.2,16.8,1.9,4.3,7.4,6.6,10.3,1.7s-4.4-8.5-6.9-4l-.4.6,2.4-1.8c1.9,1.3,2.5,1.3,1.7-.1l-.4-1.1c-.5-1.3-.9-2.7-1.2-4.1-.7-2.6-1.3-5.2-1.6-7.9s-1.6-4-4-4-4.3,1.9-4,4h0Z"/>
    <path d="M544.9,550.7c2.1,6.2,2.3,12.4.6,18.7-1.4,5,6.4,7.1,7.7,2.1,2.1-7.6,1.9-15.4-.6-22.9s-9.4-2.8-7.7,2.1h0Z"/>
    <path d="M464.6,558.2c2.5,5.2,2.9,10.9,1.5,16.5s6.5,7.1,7.7,2.1c1.9-7.8,1.1-15.4-2.3-22.7s-9.1-.6-6.9,4h0Z"/>
    <path d="M425.1,585.8c-2.6,25.7-1.7,51.6,2.6,77.1.8,5.1,8.6,2.9,7.7-2.1-4.1-24.8-4.8-50-2.3-75s-7.5-5.1-8,0h0Z"/>
    <path d="M556.8,597c4.8,23.7,2.5,48.2-6.4,70.7-1.9,4.8,5.8,6.9,7.7,2.1,9.4-23.9,11.5-49.8,6.4-74.9-1-5-8.7-2.9-7.7,2.1h0Z"/>
    <path d="M563.1,590.8c8.9,7.2,17.7,14.5,25.4,23.1s7.7,9.5,10.7,14.8,3.9,9.7,6.9,13.8c7.1,9.6,19.1,4.8,29.1,6.2s21.7,7.8,28.9,16.8c3.2,4,8.8-1.7,5.7-5.7-6.6-8.2-15.5-14.2-25.5-17.3s-10.8-2.4-16.2-2.3-12.9,2.2-16.5-4.1-4.3-9.8-7.1-14.4-6.2-9-9.8-13c-7.8-8.8-16.9-16.3-25.9-23.7s-9.6,2.4-5.7,5.7h0Z"/>
    <path d="M604.6,636.4c-1.8,8.6-3.6,17.2-5.4,25.8s6.7,7.2,7.7,2.1c1.8-8.6,3.6-17.2,5.4-25.8,1-5-6.7-7.2-7.7-2.1h0Z"/>
    <path d="M267,659.4c-1.2-39.1-2.4-78.2-3.6-117.3s-2.4-33.6,13.4-40.9c7.3-3.4,15.8-3.8,23.7-4.4s18.8-1.3,28.2-1.7c21.8-.9,43.6-.9,65.3,0s5.1-7.8,0-8c-20.8-.8-41.6-.8-62.4,0-10.4.4-20.8,1-31.2,1.8s-15.9,1.1-23.4,3.7c-15.5,5.5-21.4,18.9-21.9,34.5s1,40.6,1.6,60.8c.7,23.9,1.5,47.7,2.2,71.6s8.2,5.2,8,0h0Z"/>
    <path d="M428.3,584.9c-54.9-8-83.9,49.2-119.3,79.6s1.8,9,5.7,5.7c18-15.5,31.8-35,48.9-51.4s38.9-29.6,62.6-26.1c5,.7,7.2-7,2.1-7.7h0Z"/>
    <path d="M285,531.1c-4.7,46-9.5,92-14.2,138h8c.2-2.5.5-4.9.7-7.4.5-5.1-7.5-5.1-8,0s-.5,4.9-.7,7.4c-.5,5.1,7.5,5.1,8,0,4.7-46,9.5-92,14.2-138s-7.5-5.1-8,0h0Z"/>
    <path d="M296.3,538.3c10.6,0,21.2-.1,31.8-.2s5.8-.7,7,.2.8,3.1.7,4.5c-.5,4.9-1.4,9.9-2.5,14.7-3.9,18.2-10.8,35.6-20.2,51.7s4.3,8.5,6.9,4c11.4-19.5,19.3-40.9,22.8-63.3s2.7-19-8.6-19.9-25.4,0-37.8.1-5.2,8,0,8h0Z"/>
    <path d="M382.4,493.5c-8.7-2.8-17.8,1-23.5,7.8s-7.6,19.4-6.9,29.5,3.1,18.6,12.2,22.9,21,1.4,30.9-2.3c4.8-1.8,2.7-9.5-2.1-7.7-7,2.6-14.8,5.8-22.4,3.9-8.1-2.1-10.2-9.2-10.6-16.7s-.4-15.8,3.6-22.3,10.1-9.4,16.7-7.3c4.9,1.6,7-6.1,2.1-7.7h0Z"/>
    <path d="M377.4,499.9l15.7,3.9c5,1.2,7.1-6.5,2.1-7.7l-15.7-3.9c-5-1.2-7.1,6.5-2.1,7.7h0Z"/>
    <path d="M582,575.8c15.3.5,30.6,1,45.9,1.5,7.6.2,15.3.5,22.9.7l11,.4c3.3.1,8.2-.5,11.1,1.5,4.8,3.3,1.4,13.2.8,17.6-1,7.3-1.7,14.7-1.9,22.2-.4,14.5,1,29,3.7,43.2s8.7,2.9,7.7-2.1c-3.2-16.4-4.2-33.1-3-49.7.6-7.5,2.1-14.9,2.8-22.3s-.3-11.3-4.9-14.8-13-3.4-19.3-3.6-16.6-.5-24.9-.8c-17.3-.6-34.6-1.1-51.9-1.7s-5.1,7.8,0,8h0Z"/>
    <path d="M585.1,534.9c46.5.5,93.1,1.3,139.5-1.2,16.3-.9,34.9-3.9,43.8-19.4,4.4-7.7,5.5-16.9,6-25.6s.7-22.4.7-33.6c0-26.4-1.1-52.7-3.4-79-.4-5.1-8.4-5.1-8,0,1.9,21.7,3,43.4,3.3,65.2s.1,21.8-.2,32.6c-.2,9.5,0,19.5-2.4,28.7-5,18.9-23.6,22.3-40.6,23.2-21.7,1.1-43.4,1.4-65.1,1.5-24.5.1-49.1-.1-73.6-.4s-5.2,7.9,0,8h0Z"/>
    <path d="M253,706.2c-22.6,25.6-39,56-48.1,89s6.4,7.1,7.7,2.1c8.7-31.6,24.4-60.9,46-85.5,3.4-3.9-2.2-9.5-5.7-5.7h0Z"/>
    <path d="M734,719.1c17.1,19.4,25.4,44.4,31.2,69.2s11.7,56.8,17.4,85.2c1,5,8.7,2.9,7.7-2.1-5.9-29.5-11.1-59.2-18.2-88.4-6.1-25.1-15.2-49.9-32.5-69.5-3.4-3.9-9.1,1.8-5.7,5.7h0Z"/>
    <path d="M397.9,701.3c-1,73.2-6.2,146.4-15.6,219-2.7,21-5.8,42-9.3,63s6.9,7.2,7.7,2.1c12-72.9,19.8-146.6,23.3-220.4,1-21.2,1.6-42.5,1.9-63.7s-7.9-5.2-8,0h0Z"/>
    <path d="M521,707.1c-21.3,39.8-30.8,85.3-26.9,130.3s8.4,5.1,8,0c-3.8-43.6,5.1-87.6,25.9-126.3s-4.5-8.6-6.9-4h0Z"/>
    <path d="M496.9,923.2c1.2,17.2,2.4,34.4,3.6,51.6s8.4,5.1,8,0c-1.2-17.2-2.4-34.4-3.6-51.6-.4-5.1-8.4-5.1-8,0h0Z"/>
    <path d="M389.6,991.6c30.4-37.3,60.8-74.6,91.1-111.9,27.8-34.1,55.5-68.4,80.4-104.8,14.1-20.6,27.3-41.9,39.1-64s-4.5-8.6-6.9-4c-42.1,79.1-102,147.2-158.3,216.2s-34.1,41.8-51.1,62.8c-3.2,4,2.4,9.7,5.7,5.7h0Z"/>
    <path d="M644.4,705.5c-46.4,79.9-100.3,155.4-161.1,225.1-17.3,19.8-35.2,39.2-53.5,58.1-3.6,3.7,2.1,9.4,5.7,5.7,64.9-66.7,123.4-139.7,174.4-217.6,14.4-22,28.2-44.5,41.4-67.2s-4.3-8.5-6.9-4h0Z"/>
    <path d="M-157.9-11.3c1,72.4,1.5,144.8,1.3,217.1-.2,72.4-1.1,144.8-2.5,217.1-1.5,72.4-3.6,144.7-6.3,217.1-2.7,72.7-6.1,145.3-10.1,217.9-4,72.3-8.6,144.5-13.9,216.7-.6,8.9-1.3,17.9-2,26.8s7.6,5.1,8,0c5.4-72.2,10.2-144.4,14.3-216.7s7.7-144.6,10.6-216.9,5.1-144.7,6.8-217,2.6-145.4,3-218.1c.4-72.4.1-144.8-.8-217.1-.1-9-.2-17.9-.4-26.9s-8.1-5.2-8,0h0Z"/>
    <path d="M1145-65.2c1.4,73.9,2.5,147.8,3.2,221.7.7,73.9,1,147.8,1,221.7,0,73.9-.4,147.8-1.2,221.7-.8,73.9-1.9,147.8-3.5,221.7-1.5,73.9-3.4,147.8-5.7,221.6-.3,9.3-.6,18.6-.9,28s7.8,5.1,8,0c2.4-73.9,4.3-147.7,6-221.6,1.6-73.9,2.9-147.8,3.7-221.7.9-73.9,1.4-147.8,1.5-221.7.1-73.9-.1-147.8-.7-221.7-.6-73.9-1.6-147.8-3-221.7-.2-9.3-.3-18.6-.5-28s-8.1-5.2-8,0h0Z"/>
    <path d="M1000-83.8c-14.1,77-17,155.5-14.9,233.6,2.1,78.9,9,157.6,14,236.3s7.7,160.1,7.6,240.3-2.6,159.8-7.8,239.6c-5.1,79.7-12.8,159.3-23.1,238.6-1.3,10.1-2.6,20.2-4,30.2s7,7.2,7.7,2.1c10.8-78.9,19.2-158.1,25.1-237.5,5.8-79.7,9.1-159.6,9.9-239.5.7-80.2-1.1-160.5-5.5-240.6-4.3-78.9-11.5-157.6-14.8-236.5-3.3-78.6-2.8-157.8,8.7-235.8,1.4-9.6,3-19.2,4.8-28.7s-6.8-7.2-7.7-2.1h0Z"/>
    <path d="M1.6-65C-18.9,5.4-17.4,79.3-10.4,151.6c3.5,36.5,8.4,72.9,12.5,109.3s7.6,76,9.7,114.2c4.2,76.6,4,153.5,1.6,230.1-2.5,77.2-7.3,154.3-12.5,231.3-5.2,77.1-10.5,154.2-15.7,231.4s-1.3,19.2-2,28.8,7.7,5.1,8,0c5.2-77.2,10.5-154.4,15.7-231.6,5.2-76.4,10.3-152.8,13.3-229.3,3-76.7,4-153.5,1-230.2s-4.1-76.3-7.8-114.3c-3.6-36.6-8.5-73-12.6-109.6C-7.4,109.5-12.9,35.2,2.6-36.6c1.9-8.8,4.2-17.6,6.7-26.3s-6.3-7.1-7.7-2.1h0Z"/>
    <path d="M-278.1,40.5c5.1,0,5.2-8,0-8s-5.2,8,0,8h0Z"/>
    <path d="M1199.4,131.3c5.1,0,5.2-8,0-8s-5.2,8,0,8h0Z"/>
  </g>
</svg>