<svg data-name="Layer 1" xmlns="http://www.w3.org/2000/svg" viewBox="0 0 1919.2 1080">
  <path d="m498 1080-4-5c-4-2-8-5-13-2-3 2-7 3-11 3s-7 3-11 4h-35c1-3-3-8 3-9l1-1a15 15 0 0 1 3-8c2-2 2-3 1-4s-2-4-3-4l-3 3a9 9 0 0 0-2 3c-4 12-13 17-24 20h-41c-2-2-2-4-2-6s-1-4-4-3a18 18 0 0 1-6 2c-2 0-3 0-2 2s-3 4-5 5h-25c-2-2-1-3 1-4 3 0 5-2 5-5l3-2a12 12 0 0 0 4-3c2-2 5-6 9-5 3 0 4-2 5-4s2-5 4-5c5 0 7-5 4-9a28 28 0 0 0-6-7c-4-3-7-2-11-1l-9 5c-6 3-12 4-18 1s-12-1-18 3l1 1c1 1 4 1 3 4s-3 2-5 2a11 11 0 0 1-4 0c-2 0-3 1-3 4a10 10 0 0 1-1 4c-1 3 0 4 3 3s6 0 10 1a10 10 0 0 1 9 11c-1 2 0 3 1 3s3 1 2 3h-28a6 6 0 0 0-2-1c-2 0-4 0-4-2s2-2 3-2c4-1 3-5 6-6a40 40 0 0 1-7 0c-2 0-3-1-2-3s-1-4-3-4c-8-1-16-1-23 5l4 3a14 14 0 0 1 8 3c2 3 6 2 9 3s5 0 3 4h-66c1-6 5-8 9-10 8-3 13-7 15-15l4-6c1-2 4-11 2-14a7 7 0 0 0-3-3c-9-2-17-4-25 0-3 1-6 1-7-3a1 1 0 0 0-1-1c-6-1-5-5-5-9l-1-3c-3-4-1-6 3-7l-1-2s-4 0-5-3-2-6-1-9-1-4-3-4a156 156 0 0 1-31-8 36 36 0 0 1-9-4 6 6 0 0 0-7-1c-6 4-9 10-13 15-1 1 0 2 1 3a5 5 0 0 1-1 4c-1 2-1 4 2 5l15 6c2 1 5 1 7-1 5-4 11-3 16-2s6 5 7 9-2 4-4 6l-6 6c-6 8-14 9-22 10-3 1-6-1-8-3l-14-13c-1-1-2-2-3-1-4 0-5-2-7-6-3-9-10-12-20-10a55 55 0 0 0-8 2c-6 2-10-1-14-5-3-2-2-4 1-5s6-3 9-1c1-3 3-5 6-6s9-5 14-5l1-2a11 11 0 0 1 6-9l2-4c3-5 5-11 10-15l4-3c7 3 8-3 13-7a62 62 0 0 1-19 1l-5-1c-1-1-6-4-9-1-1 1-3 0-5-1a54 54 0 0 0-19 0c-3 1-5 0-4-4l-2-3c-8-3-14-8-22-10l-1-1c-5-6-12-4-17-4-4-1-6-2-6-6 0-8 3-14 8-19a29 29 0 0 0 4-4c1-2 1-3-1-4-5-4-6-10-1-15a5 5 0 0 0 1-4c0-5 3-9 6-12l8-11c1-2 2-3 0-5s-2-3-5-2-5-1-6-4-1-10-4-13-4-4-7-4-8 0-11-3a10 10 0 0 1 0-14 6 6 0 0 1 2-2 15 15 0 0 1 12-2 7 7 0 0 0 5 0c5-3 7-5 7-10s-3-7-7-9c-7-4-16-4-23-6s-7-3-5-9l1-1c-5-6 0-10 1-15s2-6-2-9-1-3 1-5c5-3 11-4 16-3 2 0 4 0 5-2s1-4 0-6a60 60 0 0 0-7-8c-5-4-7-10-8-17l-1-4c-1-1-3-4 0-6 2-1 1-2 0-3-4-3-4-7-4-11a9 9 0 0 0-2-8 11 11 0 0 1-3-8l-1-12c-1-7 2-14 5-20a14 14 0 0 0 0-9c-2-9 0-18 1-27 1-5 3-6 8-6l13 2a8 8 0 0 1 6 4c1 1 2 3 4 1s4-4 1-6l-15-15c-5-5-7-7-9-12a25 25 0 0 0-7-13c-6-6-5-14-5-22 1-6 2-12 6-17 1-3 0-5-1-7a21 21 0 0 1 4-26l1-1c9-3 15-12 25-14 4-1 7-4 6-8a9 9 0 0 1 1-4c0-3 2-3 3-2s3 4 5 3a12 12 0 0 0 6-4c3-4 4-9 6-13 1-2-1-4-1-7s-3-2-5-2a7 7 0 0 1-4-1c-5-2-9 0-11 6l-3 10c-2 4-5 4-8 0l-4-2a14 14 0 0 1-4 0c-7 0-13-2-16-10-2-4-5-7-6-12-1-2-2-4-1-6 2-8 2-17 9-24 3-3 4-7 1-12-4-7-6-16-6-24-1-6 1-11 1-17a48 48 0 0 0 0-9v-12l-2-5c-1-2-3-6 1-9v-4c-4-7-3-15-3-23 0-4 2-7 7-9a89 89 0 0 0 12-4c2-1 5-2 6-4l1-1c7-1 3-7 4-10l-1-1c-6-2-10-7-16-10s-5-6-5-11l1-3c1-5 1-9-4-13s-2-9-1-14 2-9 7-12l1-3-1-15a4 4 0 0 0-1-2c-3-3-3-5-2-8s2-5-1-6a2 2 0 0 1 0-2c-1-5-1-9-7-12a3 3 0 0 1-1-2c1-5 0-11 2-17l1-3c-2-5 1-4 4-4 5 1 10 2 13 8s6 3 7-2a24 24 0 0 1 3-6c4-5 4-8 0-13-2-2-5-2-7-2l-13-2c-4-1-6-1-6-6 0-14-1-28 3-42a10 10 0 0 0 0-6c-2-4-3-8-3-13a3 3 0 0 0-1-3 7 7 0 0 1-2-8c1-3-2-4-2-6h69c2 1 1 3 0 4-3 5-5 10-10 15s-5 7-6 11-2 6-4 8-1 4-1 6c1 6 3 11 2 17 0 1 0 4-2 4s-3-2-3-3a6 6 0 0 0-1-3c-2 2-2 4-2 5a6 6 0 0 1-2 4c-2 1-4 1-4 3a9 9 0 0 0 5 5c6 3 11 0 14-6 1-2 1-3-1-4-4-2-4-5-4-8l2-6 1-3c8-1 8-8 13-13l8-10c3-3 2-7 3-10s1-6 3-8l7-8h79c1 3-1 5-3 6-4 4-9 7-14 7s-10 6-14 11c-2 2 0 5 2 6s4 2 6 1c5-4 11-7 15-12 2-3 4-4 8-3s4 0 4-3a3 3 0 0 1 3-4h1c6 1 10-1 13-7l2-2h83c2 5 7 8 7 13 0 2 2 1 3 0a31 31 0 0 0 3-5c1-3-2-4-3-5l-1-3h112c1 2 0 3-1 4-4 3-6 8-10 12l-1 1c1 8-6 9-11 12-2 1-4 2-5 5a49 49 0 0 1-2 6c0 1 0 4-3 3 1 2 0 5 3 7 4 4 4 6-1 9a8 8 0 0 0-2 2 64 64 0 0 1-12 12c-2 1-3 2-1 4s2 4 5 2c4-3 5-1 6 3 0 2 1 2 2 1 3-1 6-2 7-6 2-5 4-10 3-15l1-4c6-3 7-12 14-14l2-5c2-9 7-17 11-26l3-4c4-2 6-5 7-9h106c2 2 1 3 0 4a15 15 0 0 1-4 4 59 59 0 0 0-17 17c-3 4-7 4-11 4-2 0-4-1-6 1 7 0 13 1 18-1a8 8 0 0 1 5-1c9 0 16-5 21-12a95 95 0 0 0 7-12l4-4h14l1 1c-5 5-3 12-3 17 0 2 1 4 3 3l9-4c5-3 6-7 4-13V0h667c1 3-1 2-3 3a6 6 0 0 0-4 7 6 6 0 0 0 0 1c1 2 2 1 3 0a8 8 0 0 1 6-4c2 0 2-1 3-2l2-5h84c3 3 2 6 2 9-1 6 2 10 4 14 2 1 2-1 2-2 1-3 3-5 7-3 3 1 3 0 4-2 1-5 1-9-4-12l-2-4h323l2 7c1 4 3 5 7 4l5-1c4-1 8-2 7-8l1-2h234c4 3 4 8 3 12a28 28 0 0 0 0 13 93 93 0 0 1 4 25 45 45 0 0 0 1 11c1 5-1 10-4 14s-8 4-13 3l-6-2c-2 0-5-2-6 1a4 4 0 0 1-2 1c-1 1-4-1-4 2s-1 8 1 11 5 5 9 6a8 8 0 0 1 4 1c3 3 6 3 9 2 6-1 7 0 9 6s1 10 1 15c-1 6 1 13 2 20l1 29-2 6c-3 6-3 11-2 17l1 17c1 3-1 5-2 7s-2 3-1 4c4 7 3 15 5 23 2 11-1 21-1 32a59 59 0 0 0 1 11 48 48 0 0 1-8 37l-3 3-2-3c-1-7-5-11-11-12-5-2-8-6-10-10v-4c3-5 3-12 5-18-3 1-7 1-9-2h-4c-5 4-6 10-2 16s4 11 5 16c1 4 2 8 5 11l1 4c-3 4 0 7 2 11a27 27 0 0 0 8 10l6 6v-1c0-4 1-7 5-6s6 5 4 8a8 8 0 0 0 1 8c3 7 0 17-6 21l-6 5v1c12 7 16 18 17 30 1 11 3 21 3 32a93 93 0 0 1-3 18 9 9 0 0 1-3 6l-9 8a3 3 0 0 1-3 1c-1 0-2-2-3 0s1 2 3 2c6 1 10 5 13 10s2 10 1 15a24 24 0 0 1-1 5c-2 7 0 15 2 21s2 19-4 25l-4 2c-7-1-14 2-21 2-4 0-5 2-2 5a28 28 0 0 1 6 10c1 3 3 3 5 3l10-2c7 0 12 3 14 10v3c0 13-6 25-5 39 0 4 0 7 3 10s1 4 2 6v1l-5 29c-1 7-5 14-12 18-4 2-6 4-7 8a18 18 0 0 1-6 11c-4 3-3 7-3 12l4 2a9 9 0 0 1 7 0c2 1 2-1 3-2a11 11 0 0 1 16-2 13 13 0 0 1 2 2l1 4v14c-1 6-4 11-9 14a9 9 0 0 0-2 3c-5 10-14 9-23 8-2 0-3 0-4 2s-4 3-6 0c-2-5-7-4-11-6-2 0-3 1-3 3a45 45 0 0 1-2 5c-2 3-1 3 2 3l10-1c7 0 13 2 18 7 2 1 2 3-1 4s-2 2-3 3c-4 6-8 11-17 10l-7 1c-2 0-6 0-8-2s-6 0-9-1l-1 1c1 3-2 6-2 9s2 4 4 6 1 1 2 1c9-3 18-1 26-5l7-3c5-4 11-7 18-7a15 15 0 0 0 4-2c7-3 17 3 15 11a37 37 0 0 1-9 20 5 5 0 0 1-4 1c-12 1-22 8-33 11-2 1-3 1-3 4s0 4-3 3l-7-3c-6-5-13-4-19-2-4 2-8 1-12-1a4 4 0 0 1-2-2c-1-4-4-6-7-8a3 3 0 0 0-5 1 3 3 0 0 0 0 2c-1 3 3 8 6 8s5 2 5 5c0 6 0 12-3 18l-2 3c-6 0-8 7-13 8l-16 2-4-2-8-5c-5-4-8-3-9 3-1 4-1 8 3 11a25 25 0 0 1 8 7c3 6 8 6 14 4 10-3 18-11 27-16s17-8 26-6c2 0 1-1 1-1h-9c-3 0-5-1-4-5s5-8 9-8 8-2 11-4a22 22 0 0 1 14-2 22 22 0 0 0 13-1 38 38 0 0 1 9-2 8 8 0 0 0 6-3 11 11 0 0 1 6-5c3-2 5-1 6 3l2 2c4 0 5 3 4 6v13a15 15 0 0 1-7 13 100 100 0 0 1-17 9c-3 1-4 3-3 6 1 5-2 9-6 11s-10 5-16 5l-2 1c-2 6-10 10-7 19 2 5 0 10-5 13s-7 12-5 18a30 30 0 0 0 2 4c1 4 1 6-3 7s-4 4-6 7a9 9 0 0 1-8 4h-16c-3 0-4 1-5 4s-1 5 2 7a25 25 0 0 0 18 5c6-1 8-3 8-9v-1c0-2-1-5 1-6s4 1 6 2c3 3 7 3 10 2 6-2 10 0 15 3 2 2 3 4 1 6s-1 3 1 4a2 2 0 0 1 1 2 3 3 0 0 1-2 2l-20 2c-4 0-5-3-5-8a44 44 0 0 1-16 4c-2 1-1 2 0 3 3 5 5 10 12 11a2 2 0 0 1 2 2c0 2-2 2-3 2s-4-1-5 0l-2 1c-6 3-14 3-20 4-10 3-18-1-25-8a20 20 0 0 0-4-3c-4-2-7-2-8 3s-3 5-7 5-9 0-13 2-7-1-9-4l-2-2c-4 0-7-3-10-5a12 12 0 0 1-3-17c2-3 3 0 4 1l2-5c2-7 2-7 9-5a8 8 0 0 0 3 0c13-2 27 0 41-3 0 0-1 0 0 0h-1a74 74 0 0 0-15 1c-4 1-8 0-12-2-2-2-4-2-7-1-5 3-10 2-14 0l-6-4c-2-1-4-2-3-5s0-4-3-5a2 2 0 0 1-1-3s3-1 4-1c-3-1-6 0-9 1-6 0-12-3-16-7a42 42 0 0 0-10-7c-5-3-7-7-4-12s8-12 13-16h1l5-7c2-2 6 0 8-3a20 20 0 0 1-4-6c-1-2-3-4-4-2-3 4-8 3-12 5a15 15 0 0 0-9 8 78 78 0 0 1-12 19c-3 4-8 7-13 6a9 9 0 0 0-9 3c-4 4-9 7-15 9s-10 5-14 10l-6 7c-3 2-4 6-5 10v3a2 2 0 0 0 3-2l7-8c8-8 19-9 29-12 2-1 4 0 6 1a64 64 0 0 0 6 3c6 3 7 3 7 10 0 5 2 10-1 15l3 3c1 1 2 2 1 4s-2 1-4 1a14 14 0 0 1-3 0c7 5 17 4 23 11 2 2 5 2 7 2s3 2 2 5-4 4-4 7v1l-11 8c-3 3-9 1-13 0h-5c-9 1-14-3-14-11l-1-10c0-3-2-5-6-3s-9 1-13-1a3 3 0 0 1-2-2c0-5-4-7-6-9s-6-2-8 0a74 74 0 0 0-7 12l5 2c1 1 4 2 4 5a7 7 0 0 0 6 7 22 22 0 0 1 6 3c8 4 6 12 6 18s1 7 6 5a68 68 0 0 1 26-3c5 0 8 3 12 6a2 2 0 0 1 0 3c-3 3-3 7-7 9a12 12 0 0 0-5 5c-2 3-4 4-7 2-1-1-3-2-4-1s-6 2-7-2l-3-1-6 2c-2 1-4 2-2 5a2 2 0 0 1 0 1c-8-1-15-2-22 0-2 1-6 0-9-1"/>
</svg>
