<svg data-name="Layer 1" xmlns="http://www.w3.org/2000/svg" viewBox="0 0 1080 1920">
  <path d="M281 1920c-2-2-2-7-3-9-2-4-5-9-8-3-1 4-3 4-5 4s-4 6-6 8h-20c0-6-2-13 1-16l1-3a63 63 0 0 1 2-14 12 12 0 0 0 0-7l-2-6-1 6a27 27 0 0 0-1 5c-2 21-7 30-14 35h-23l-1-11c0-4-1-7-3-5a6 6 0 0 1-3 3l-1 5c0 5-1 6-2 8h-14c-2-3-1-6 0-7s3-4 3-9a5 5 0 0 1 1-4l3-6c1-3 2-10 5-8s2-4 2-8 1-7 3-8 4-8 2-16a67 67 0 0 0-4-12c-2-5-4-4-6-1l-4 8c-4 5-7 6-11 2s-7-2-10 4a3 3 0 0 0 1 2 12 12 0 0 1 2 7c-1 4-2 4-3 5a2 2 0 0 1-3 0c-1 0-2 2-1 6a68 68 0 0 1-1 7c-1 5 0 8 2 7s3 0 5 0 6 11 5 21l1 5 1 5h-15l-2-2s-2-1-2-4 1-3 2-4 1-7 3-9a8 8 0 0 1-4 0c-1 0-2-2-1-6s0-8-2-8c-4 0-9-1-13 9l2 6c1 1 4 3 5 6s3 3 5 4 3 2 2 8h-37c0-10 3-14 5-17 4-6 7-14 8-28a46 46 0 0 1 3-10c1-3 2-19 1-25l-2-5c-5-4-10-7-14-1-2 2-4 3-4-5a3 3 0 0 0-1-2c-3-1-2-9-3-15a29 29 0 0 0 0-6c-1-7 0-11 2-13a8 8 0 0 0-1-3s-2 0-3-5v-15c1-5-1-9-2-9-6-3-12-7-18-13a28 28 0 0 1-5-8c-1-3-2-3-3-1-4 7-6 17-8 27a6 6 0 0 0 1 4 25 25 0 0 1 0 9v7l9 10c1 3 2 2 4-1 3-6 6-5 9-3s3 9 4 16-2 8-3 10l-3 11c-3 14-8 17-12 19-2 1-4-2-5-7a129 129 0 0 0-8-23l-1-2c-3 2-3-4-4-9-2-17-6-23-11-19a16 16 0 0 0-5 3c-3 4-6-2-8-8v-9c1-2 4-6 6-1 0-6 1-10 3-12s5-9 8-9l1-3c0-6 1-12 3-15l1-8c2-9 3-20 6-27 0-2 1-5 2-4 4 4 4-7 7-12-3 2-7 2-10 1a5 5 0 0 1-4-3c0-2-3-6-4-1-1 2-2-1-3-1a11 11 0 0 0-11 0c-2 1-3 0-2-7l-1-5c-5-7-8-15-13-20-3-11-7-8-10-9s-3-3-3-10c0-14 2-24 5-33l2-8a11 11 0 0 0-1-7c-3-7-3-17-1-27a22 22 0 0 0 1-6 64 64 0 0 1 3-22l5-20v-8c-1-3-1-6-3-4s-3-2-3-8l-3-23c-2-7-2-6-4-6s-4 1-6-5-2-19 0-26a17 17 0 0 1 1-2c2-5 5-6 7-5s2 1 3 0c3-4 4-8 4-18s-2-12-4-15c-4-7-9-7-13-11s-4-5-3-16a10 10 0 0 0 1-2c-3-10 0-18 1-26s0-11-2-15 0-7 1-10c3-6 6-7 9-6 1 0 2 1 3-3s0-6-1-10l-3-14c-3-9-4-20-5-30v-8c0-2-2-7 0-11v-5c-3-5-3-12-2-20a44 44 0 0 0-2-14 52 52 0 0 1-1-14l-1-21c-1-14 1-25 3-36a80 80 0 0 0 0-16c-1-16 0-33 1-49 0-8 1-10 4-9l7 4c2 1 3 2 3 5s1 7 3 3 2-7 0-12l-8-25c-3-7-4-12-5-22a95 95 0 0 0-4-23c-4-11-3-26-3-40a207 207 0 0 1 3-30v-11c-3-15-2-34 2-46l1-3c5-6 8-21 14-25 2-2 3-7 3-15a39 39 0 0 1 1-7c0-4 1-4 2-2s1 6 2 5l3-8 4-23v-11c0-4-2-5-4-5a2 2 0 0 1-2-1c-2-3-5 0-6 10l-1 17c-2 9-4 9-5 1 0-2-1-4-2-3a3 3 0 0 1-2 0c-4-1-8-3-10-18l-3-21a62 62 0 0 1-1-11c2-15 2-30 5-42 2-7 3-13 1-22-2-13-3-28-3-43l1-30v-17l-1-21a29 29 0 0 0 0-9c-1-3-3-11 0-16v-6c-2-14-2-27-2-41 0-8 1-14 4-16a38 38 0 0 0 7-8 17 17 0 0 0 3-7l1-2c4-1 1-11 2-16a4 4 0 0 0-1-3c-3-4-5-13-8-18s-4-11-3-19v-6c1-9 1-16-2-23s-1-16-1-24 2-17 4-21l1-7-1-25a15 15 0 0 0 0-5c-2-4-2-9-1-14s1-8-1-11a8 8 0 0 1 0-2c0-9-1-17-4-22a10 10 0 0 1 0-4l1-29v-6c-1-9 1-7 2-7s6 3 8 13 3 6 4-2a108 108 0 0 1 2-11c2-10 1-15-1-23-1-5-2-4-4-5l-7-2c-3-1-3-2-3-11 0-25-1-50 2-74a54 54 0 0 0-1-12 142 142 0 0 1-1-22 14 14 0 0 0-1-5c-1-4-2-10-1-15S0 4 0 0h39a14 14 0 0 1 0 6c-2 10-3 19-6 27s-2 13-3 21l-2 14-1 10c1 10 2 20 1 30l-1 8c-1 1-1-4-2-6a26 26 0 0 0 0-5l-1 9a24 24 0 0 1-2 7c0 2-2 1-1 5a23 23 0 0 0 2 9c3 5 7 0 8-10l-1-8c-2-3-2-8-2-15l1-10 1-4c4-2 5-16 7-23l5-19c2-5 1-12 1-18l2-13 4-15h45a23 23 0 0 1-2 11c-2 6-5 12-8 13s-6 10-8 18c-1 4 0 9 1 12s2 3 4 1c3-7 6-12 8-22 1-5 2-7 4-5s3 0 3-6c0-3 1-5 2-5 3 0 6-2 7-13a13 13 0 0 1 2-4h46c1 8 4 14 4 23 0 4 1 3 2 1l1-10-1-9-1-5h63a11 11 0 0 1 0 6c-3 6-4 16-6 23a3 3 0 0 0-1 1c1 15-3 16-5 21-2 3-3 4-3 9l-2 10c-1 3 0 8-2 6l2 13c3 7 2 11 0 16a17 17 0 0 0-2 4 143 143 0 0 1-6 21 9 9 0 0 0-1 7c1 3 1 6 3 4 2-5 3-2 3 5 0 3 1 3 2 2s3-4 3-10c1-10 3-18 2-29l1-6c3-6 4-21 7-25l2-9c1-16 4-31 6-46l2-7 4-16h59a14 14 0 0 1 0 7 38 38 0 0 1-2 6c-4 9-7 19-9 32-2 7-5 6-7 7s-2-2-3 2c4 0 7 2 10-3l3-2c5 1 9-8 12-21a332 332 0 0 0 6-28h8a7 7 0 0 1 0 2c-3 9-1 20-1 30-1 4 0 7 1 5l5-7c3-5 4-13 3-22a28 28 0 0 1 0-8h375c0 5-1 4-2 5s-3 7-2 12v2c0 3 1 3 1 1 1-4 3-7 4-7l2-5 1-8h47c2 5 1 11 1 16 0 10 2 18 3 26l1-4c0-6 2-10 4-7 1 2 1 0 2-3 1-9 0-16-2-22a10 10 0 0 1-1-6h181l1 12c1 8 2 10 4 8l3-2c2-2 4-4 4-14a14 14 0 0 1 1-4h131c2 6 2 14 2 21a166 166 0 0 0 0 24 484 484 0 0 1 1 89c-2 8-5 7-8 4l-3-3c-1 0-3-3-4 2a3 3 0 0 1 0 2c-1 1-3-2-3 4s-1 13 1 19 3 9 5 10 2 1 2 3c2 4 3 4 5 3 4-3 4 0 5 10v26l2 36v53a72 72 0 0 1-1 11 150 150 0 0 0-1 28l1 32-2 11v8c3 12 2 27 3 41 1 19-1 37-1 56l1 21c1 23 0 46-5 66 0 2-1 5-2 4l-1-5c0-12-2-19-6-22s-4-10-5-17a19 19 0 0 1 0-7l3-32c-2 1-4 2-6-3 0-3-1-2-2 0-2 7-3 17-1 28a221 221 0 0 1 3 28c1 7 1 14 3 20v7c-1 7 0 13 1 19a76 76 0 0 0 5 17l3 11v-2c0-5 1-11 3-10s3 9 2 15a46 46 0 0 0 1 14c2 13 0 30-4 38l-3 8a4 4 0 0 0 0 2c7 12 9 31 10 54l1 56a580 580 0 0 1-3 44c-1 2-4 7-5 13l-2 2c-1 0-1-4-1 0s0 4 1 4c4 1 6 8 7 18a167 167 0 0 1 1 34c-2 14 0 27 1 39s1 33-2 43l-3 4c-4-3-8 3-12 3-2 0-2 4-1 9a113 113 0 0 1 4 18c0 5 1 5 3 5l5-2c4-1 7 4 8 17v5c0 23-3 45-3 69 0 7 0 13 2 18s0 7 1 11v1l-3 52c0 13-2 26-7 33-2 3-3 7-3 14a66 66 0 0 1-4 19c-2 5-2 13-2 21 0 3 1 5 2 3s3-2 4 1 2-2 2-4c2-9 6-10 9-4a31 31 0 0 1 1 4 31 31 0 0 1 1 8v24a90 90 0 0 1-5 26 21 21 0 0 0-2 5c-2 17-7 15-12 14-1-1-2 0-3 4s-2 4-3-1c-1-9-4-7-6-10l-2 4-1 9c-1 6 0 7 1 7l6-2c4-1 7 3 10 11v7l-2 7c-2 11-5 20-10 18-1-1-3 2-4 2s-3-1-4-5-4 0-6-1l-1 18c0 6 1 7 2 10s1 2 1 2c5-5 11-2 15-9l4-6c3-6 6-11 10-13a8 8 0 0 0 2-3c4-5 10 6 9 21-1 12-3 24-6 34 0 2-1 3-2 3-6 2-12 14-18 19-2 1-2 3-2 7s0 7-2 6-3-3-4-6c-3-8-7-8-10-3-3 3-5 2-7-2a10 10 0 0 1-1-4c0-7-2-10-4-14-1-1-2-1-2 2a8 8 0 0 0-1 3c0 5 2 14 3 14s3 4 3 10l-1 32-2 5c-3 0-4 13-7 14a59 59 0 0 1-9 3l-2-3-4-9c-3-8-5-6-5 6-1 6-1 14 1 18a60 60 0 0 1 4 14c2 10 5 11 8 7 6-6 11-20 16-29s10-14 15-11v-1c0 1 0 0 0 0h-5c-2 0-3-2-2-9s2-15 5-15 4-3 6-6 5-6 8-4 5 1 7-1a11 11 0 0 1 5-4c1 0 3-2 4-7l3-8c2-1 3-2 3 5 0 3 1 3 2 3 2 1 2 6 2 12v23c0 7-2 18-4 23a88 88 0 0 1-10 16c-1 2-2 5-2 11 1 9-1 15-3 18s-5 11-9 11l-1 1c-1 11-6 18-4 34 1 9 0 17-3 23a75 75 0 0 0-2 39c1 6 1 11-1 13s-3 6-3 11-3 9-5 9h-9c-1-1-2 0-3 6s0 9 1 13c3 6 7 9 10 8s5-5 5-15v-2c0-4-1-9 1-11s2 2 3 4c2 5 4 5 6 3s5 0 8 6a16 16 0 0 1 1 11c-2 4-1 5 0 6l1 4-2 4-11 2c-2 1-3-4-3-14-2 5-5 7-8 9-2 0-1 3-1 5 2 8 3 17 7 18l1 5-1 3s-2-2-3 0l-1 2c-4 6-8 4-12 7s-10-2-14-14a29 29 0 0 0-2-6c-2-4-4-3-4 5s-2 10-5 10-4 0-6 3-5-2-6-8l-1-3c-2 0-4-5-5-9-3-7-4-20-2-29v-1c1-5 1 1 2 2l1-9c1-12 1-12 5-9a2 2 0 0 0 2 1c8-5 15-1 23-6 0 0 0-1 0 0v1a13 13 0 0 0-9 1c-2 1-5 0-7-5-1-3-2-3-4 0-2 5-5 3-8-1l-3-6-2-9-1-10-1-4a1 1 0 0 1 0-1c1-3 2-2 2-2-1-1-3 0-5 1-3 2-6-4-9-11a60 60 0 0 0-5-13c-3-4-4-13-2-22s4-21 7-27v-1c2-3 2-9 3-13s4 2 5-5a62 62 0 0 1-3-11c0-3-1-5-2-3-2 8-4 6-7 9s-4 8-5 15a274 274 0 0 1-7 34c-1 7-4 11-7 9s-4 1-5 5c-2 9-5 14-8 17s-6 9-8 18l-3 13c-1 3-3 10-3 17v5c1 1 1 0 2-3 0-6 2-9 3-14 5-14 11-17 16-22 2-1 3 1 4 2a47 47 0 0 0 3 5c4 5 4 6 4 18 0 9 2 18 0 26l1 6a14 14 0 0 1 1 7c0 3-1 3-2 3a3 3 0 0 1-2-1c4 10 10 8 13 20 1 4 3 3 4 3s2 4 1 8l-2 14v1c-3 5-5 8-7 15s-4 2-7 0-2-2-3-1c-4 3-7-5-8-20v-16c0-5-1-9-3-6s-5 1-8-2a8 8 0 0 1-1-4c0-8-2-11-3-15s-3-4-5 0l-4 20 3 4a19 19 0 0 1 2 10c0 5 1 10 3 12a11 11 0 0 1 4 5c5 8 4 21 4 33 0 9 0 11 3 8 5-5 10-7 14-6 3 1 5 7 7 12a10 10 0 0 1 1 5h-1c-1 4-2 12-4 15l-3 9c-1 4-2 7-3 4-1-2-2-3-3-2s-3 3-4-4c0-2-1-1-1-1l-4 3c-1 1-2 4-1 9a10 10 0 0 1 0 2c-4-2-8-3-12 1-2 1-3-1-5-2"/>
</svg>
