<svg xmlns="http://www.w3.org/2000/svg" viewBox="0 0 1920 1080.1">
  <path d="M1646 1079v-1c0-3 0-6 3-6s6-3 9 1c1 2 3 2 5 1a8 8 0 0 1 7 0c3 2 5 1 6-2a11 11 0 0 1 5-5c4-1 5-6 8-8s-1-3-2-4c-7-7-16-6-24-5a74 74 0 0 0-13 3c-4 1-6 0-6-4v-13c0-4-5-6-9-8a27 27 0 0 0-4-1c-3-1-5-3-5-6 1-5-2-6-5-7s-3-3-2-5l4-7c1-3 6-4 10-1s5 4 5 7 2 4 5 5a21 21 0 0 0 10 0c4-1 6 1 6 5l1 8c1 8 5 12 13 10l9 2c3 1 8 1 11-2s5-6 8-6l2-2c0-3 3-6 4-9s1-3-2-3a13 13 0 0 1-9-3c-4-4-7-7-13-6a3 3 0 0 1-3-2l2-3a3 3 0 0 0 0-3c-2-2-3-5-3-8 1-5-1-10-1-16 0-2-1-4-4-5l-6-2a15 15 0 0 0-13-1l-14 4c-6 4-12 8-16 14-1 1-1 3-3 2s-1-2-1-4c1-3 2-6 5-8 5-3 7-9 12-14a13 13 0 0 1 5-3c7-2 14-5 19-11 3-2 5-2 8-2 6 1 10-1 14-6a100 100 0 0 0 12-20c2-5 7-7 12-7 3-1 5-1 6-3s4-2 5 0 4 4 4 7-2 1-3 1c-3-1-4 1-5 3a10 10 0 0 1-4 6c-7 4-11 12-16 18v3c2 3 4 6 8 8s7 4 9 7 0 4-2 3a10 10 0 0 1-5 0c-7-3-11 2-16 6s-2 7 2 9a108 108 0 0 0 14 4c4 1 11-2 13-6v-6c-1-2-2-3-1-5s3-1 5 0a11 11 0 0 0 5 0c4 0 9 5 9 9s0 4 3 5a11 11 0 0 1 4 2c2 2 4 4 0 6l-1 4c0 1-2 4-5 5s-4 9-3 12c2 6 8 8 13 11 1 0 3 1 3 3 2 3 6 3 9 3a70 70 0 0 1 16-2c2 0 3-1 3-3 2-7 6-9 11-3s10 8 17 9c4 1 8 0 12-1 10-2 20-1 30 5s20 8 32 9l6-1a145 145 0 0 1 17-1 10 10 0 0 0 11-10 3 3 0 0 0 0-1c0-3-1-5 1-8a1 1 0 0 0 1-1c-3-6 0-14-3-20-3-4-2-10-5-14-1-2 3-2 4-3a1 1 0 0 0 0-2c-4-1-6-4-3-8a2 2 0 0 0 0-3c-4-4-1-6 2-8s3-3 0-4c-5-4-5-7 0-10l3-3a3 3 0 0 0 0-1 11 11 0 0 1 1-4c5-8 2-20-6-23a23 23 0 0 1-8-6c-2-2-4-2-6 1a7 7 0 0 1-6 3c-3 0-4 2-5 4a13 13 0 0 1-2 4c-4 5-4 6-1 11l3 3c4 3 6 5 2 10-2 2-1 7-4 10s-1 4-2 7 1 3 3 4a7 7 0 0 1 5 5c1 5 5 8 9 10s8 7 11 12c1 1 1 4-2 4s-8 1-5 7c2 2 0 2-2 3-7 3-14 5-20 9l-2 1c-3 2-7 4-11 1a1 1 0 0 0-1-1c-6 3-13 0-18 1s-14-5-15-11a2 2 0 0 1 1-3h4c5 7 12 4 18 3l17-1 4-1c1-1-1-2-2-3a4 4 0 0 1 0-5c1-1 1-3-1-4-5-4-10-7-16-4s-10-2-15-5v-5c1-2 3-4 6-5s4-3 2-6a19 19 0 0 1 0-19 11 11 0 0 1 5-5c3-2 4-4 4-7a18 18 0 0 0-1-4c-1-6-1-11 5-14l1-3a4 4 0 0 1 4-4c5 0 9-4 14-5a10 10 0 0 0 7-10c0-4 1-7 5-8a82 82 0 0 0 15-8 14 14 0 0 0 7-12v-15c1-3 0-5-3-5a3 3 0 0 1-3-3c0-4-3-3-5-3a10 10 0 0 0-6 4c-2 4-5 5-9 6a23 23 0 0 0-7 1 19 19 0 0 1-12 1c-5-1-10 0-14 2s-8 4-13 4-7 4-8 9-2 5-5 6c-7 4-14 7-20 12s-13 7-19 11c-3 2-9-1-11-5a25 25 0 0 0-8-8c-4-4-5-10-1-15 2-2 4-3 6-1 7 8 15 10 25 7 4-1 8-1 10-5a4 4 0 0 1 2-2c8 0 8-8 9-13l1-14a3 3 0 0 1 1-1c7 4 13 2 20 0a11 11 0 0 1 9 1 45 45 0 0 0 12 5c2 1 4 1 3-2s1-5 3-6c9-2 17-6 26-9a6 6 0 0 1 3 0c5 1 8-3 10-7 3-5 7-10 6-17s-7-12-13-10a70 70 0 0 1-11 4 27 27 0 0 0-9 4c-6 5-13 6-19 8a14 14 0 0 1-8 1 11 11 0 0 0-7 0 8 8 0 0 1-9-4 4 4 0 0 1 1-5l1-2c0-1-1-4 1-4s6-2 8 0c4 3 8 2 12 2h4c8 1 12-4 16-9 2-2 2-5 6-6s0-2-1-3l-6-4c-3-1-5-1-4-4s2-5 6-5h12c4 0 5-1 7-3l14-16h1v324c0 3 0 4-4 4h-53c-2-2-1-6-2-8-1-6 0-7 6-7a60 60 0 0 0 11-2c4-1 5-4 4-8a6 6 0 0 1-1-5 2 2 0 0 0 0-1c-7-1-14-3-22-3-3 1-5 5-8 5v1c2 4-1 5-3 7-5 5-5 5-3 12 1 1 0 2-1 2-7-1-12 5-18 7h-69c0-2 2-3 3-3 7-2 13-6 18-10l12-7a19 19 0 0 1 5-2c4-1 6 0 8 3s7 4 12 3 9-2 14 1a2 2 0 0 0 3 1c3-3 6-5 8-9s-1-7-5-9c-8-5-16-4-24 0a30 30 0 0 1-9 3c-3 1-7 1-10-2a4 4 0 0 0-4-1h-7l-3 1c-4 3-7 7-13 8-4 7-12 5-18 6-8 2-12-1-12-9l-1-10c-1-4-2-6-7-6a3 3 0 0 1-2-1c-4-4-6-2-8 2a15 15 0 0 1-3 2c-4 4-5 8-3 14s2 13 3 20c2 2 6 0 5 5h-71l-2-1ZM47 1080H3c-2 0-3-1-2-3a7 7 0 0 0 0-2V653c3 0 2 2 2 4-1 4 0 7 3 10s2 4 1 6c0 4 0 8 3 12l1 2c-4 4 1 7 1 10l3 12 8 10a27 27 0 0 1 4 5c2 4 0 6-5 6s-11 1-16 4c-2 2-3 3-1 5s4 5 2 9a65 65 0 0 0-2 6c-1 2-2 5 0 7s-1 3-1 4c-1 4-1 6 3 7l16 3 15 6c3 2 3 8 1 12s-6 5-10 5h-7a14 14 0 0 0-11 11c-1 3 3 8 6 9a17 17 0 0 0 6 1c7 0 10 2 12 9l2 9c1 3 1 4 4 3s4 0 5 1a5 5 0 0 1 1 6 32 32 0 0 1-7 10c-4 3-7 7-7 13a7 7 0 0 1-1 3c-4 6-4 11 1 15 2 3 2 6-1 8-7 5-10 12-10 21 1 3 2 4 4 4 8 0 15 3 22 6l19 10c2 1 3 2 3 5s1 3 3 2c8-1 16-1 23 1a3 3 0 0 0 3 0c2-2 5-1 7 0 5 3 11 3 16 2 2 0 4-1 5 2s-2 5-5 4c-7-1-10 5-13 9a41 41 0 0 0-5 10 6 6 0 0 1-3 4c-2 2-4 3-4 7s-2 2-4 3c-6 2-13 4-18 9l-3 1c-5 0-9 2-11 7a2 2 0 0 1-1 0l-18 2c-3 1-3 4-5 6 0 7 1 9 8 11s16 0 19-7c1-2 2-4 1-7v-3h3c4 3 8 3 11 2a47 47 0 0 1 16-1c6 0 9 2 11 7l3 6 2 2c9 0 14 8 19 13s8 6 15 4 14-5 18-12c1-3 3-4 5-5s4-4 2-6-2-6-6-7-10-2-15 1-8 3-11 0a26 26 0 0 0-9-3c-4-1-5-3-3-7a4 4 0 0 0 0-2c0-8 5-17 13-20a5 5 0 0 1 5 1c6 5 14 7 21 9a114 114 0 0 0 18 3c3 1 4 2 5 5s-2 9 4 12a1 1 0 0 1 0 1c-4 6 2 12 1 18l2 2 3 1c1 5 4 3 7 2 8-3 16-2 24 1 6 2 8 12 3 16a24 24 0 0 0-5 9c-3 5-6 10-11 12s-11 7-16 11h-69c-4-4-6-7-4-13s0-10 0-15 0-6 5-4c-4-2-4-2-6 2a1 1 0 0 1-1 1c-5 1-8-1-12-4l-19-16-16-7c-5-3-9-1-13 4-5 6-12 11-15 19-1 3-4 4-7 5-8 1-15 4-22 7-3 1-4 5-6 7a1 1 0 0 0 0 2c5-1 10-1 14 2 2 1 2 5 5 6a1 1 0 0 1-1 1l-1 1h1a47 47 0 0 1 9-1c2 0 4 0 5 3Z" style="fill:#aff65a"/>
  <path d="M1920 752c-4 6-11 10-15 17a6 6 0 0 1-5 3h-9c-6 0-6 0-11 5 3 2 8 2 10 5s4 4 0 7-4 4-6 7c-3 5-8 7-14 7a33 33 0 0 0-10 0 5 5 0 0 1-6-1c-2-3-6-1-8-2l-1 1c1 3-1 5-2 7s3 8 6 7c7-3 15 0 22-4 3-1 7-2 11-5 5-3 10-6 16-6a6 6 0 0 0 3-2c7-3 8-2 14 2s5 8 4 12c-2 7-5 14-11 20a5 5 0 0 1-3 1c-12 0-21 7-33 10-1 0-2 1-1 3 1 4-1 5-5 4a29 29 0 0 1-10-4c-4-3-8-4-12-2-7 3-13 3-19-1l-4-5c-1-1-2-2-3-1s0 2 1 3l4 1a5 5 0 0 1 2 2c0 5 2 10 1 15s-2 9-4 11c-5 3-9 8-14 9l-16 3c-5 1-9-4-13-7-1-1-2-5-5-2s-5 9-2 12 8 7 11 11 6 5 11 3c9-4 16-10 24-15a47 47 0 0 1 10-5c5-2 8-4 8-10 0-4 4-7 7-7a29 29 0 0 0 12-4c5-2 11-4 17-2 8 2 15-3 23-4l2-2a18 18 0 0 1 6-5c2-1 5-2 6-1l8 8v23c-1 8-10 11-17 15a46 46 0 0 1-5 2c-4 1-6 3-5 7s-2 9-6 10-10 5-15 6c-2 1-4 1-4 4s-1 3-3 4c-4 1-4 5-3 8l1 7c1 4 0 7-4 9-6 2-9 11-7 17l2 6c2 3 1 5-2 7a7 7 0 0 0-4 2c-1 2-4 5-2 5 3 3 5 7 10 6a19 19 0 0 0 5-1c7-2 12 2 17 5 1 1 2 2 1 3-4 3 1 7 0 11l-3 1-22 2h-3c-5 3-8 1-10-2s-3-3-6-2l5 7c2 2 5 5 9 4h3c5 2 10 1 15 0a3 3 0 0 1 3 0c3 4 6 1 10-1a214 214 0 0 1 24-10c-1-2-4-4-2-6a7 7 0 0 1 6-3l2-1-1-4a11 11 0 0 1-6-7c0-2-2-2-3-2-5-2-9-5-10-10-1-4-2-5-5-5s-4-2-4-5c1-5 5-8 5-13s1-6 4-8c2-1 0-2-1-3-4-2-5-5-8-8s-2-6 2-9a6 6 0 0 0 2-2c1-5 3-9 9-7 2 0 3-3 4-4s4-3 7 0a19 19 0 0 0 10 6 5 5 0 0 1 4 4 90 90 0 0 1 3 10c1 3 1 7-2 10-2 1-2 3-2 5-3 2-7 0-10 1a2 2 0 0 1-2-2s1-2 2-2l5-2c5-2 7-5 5-11s-4-9-9-12-9-6-13 0c-7-1-7 6-11 9-2 2-1 3 0 5a28 28 0 0 0 9 8c4 2 4 3 1 6a10 10 0 0 0-5 7c0 3-1 6-3 8s-2 5 2 6 4 3 4 6c2 6 5 8 11 8l12 3 1 1-7 1c5 2 6 5 5 9l2 6c1 2 3 6 2 9v5c1 4 3 7-1 10v6c0 5-4 11-9 11-13 0-26 4-39 1-11-4-21-7-31-14l-3-1-18 3c-9 2-17-1-24-7l-4-3c-4-4-7-3-7 3-1 3-2 4-5 4l-15 1c-5 1-9 2-11-4-1-2-6-3-9-5-9-5-9-11-6-18 0-2 1-4 3-3s3-2 3-3l2-4c5-5 0-6-3-7a7 7 0 0 1-4-8c0-5-4-6-6-6l-9-2-2 1a2 2 0 0 0 0 1c4 4 2 8-1 12a13 13 0 0 1-12 4 80 80 0 0 1-14-4c-6-2-7-6-3-11 2-2 6-3 8-7h5l11 2c-3-5-5-8-10-10a11 11 0 0 1-4-2c-5-5-5-7-2-13s8-11 14-15a11 11 0 0 0 3-5c3-5 3-5 9-4l-2-5c-1-3-3-3-5-1s-3 3-6 3c-6 0-10 2-13 8l-10 18c-4 6-10 9-17 7a7 7 0 0 0-6 3 36 36 0 0 1-19 10c-6 1-7 6-11 10l-7 7c-3 2-3 7-4 10 8-14 22-17 35-21 5-1 9 1 13 2 9 2 10 9 10 17v9c0 3 0 3 2 4 3 3 3 6-2 8 9 0 14 5 20 9l4 1c5 0 6 2 3 6s-3 5-3 8a2 2 0 0 1-2 2c-4 1-6 3-8 5a13 13 0 0 1-12 3 24 24 0 0 0-12-1c-4 1-10-4-11-9l-1-11c-1-4-1-5-5-4s-6 1-10 0-6-2-7-6-3-5-6-7a3 3 0 0 0-5 1l-7 10c6 1 10 3 9 10 0 2 2 3 5 4a37 37 0 0 1 6 2c8 3 7 10 7 16a27 27 0 0 1 0 4c0 4 1 5 5 4 7-3 14-3 21-4a25 25 0 0 1 17 6c3 2 3 4 1 7-4 6-10 8-13 14-2 3-4 2-7 1a8 8 0 0 0-6-1c-2 1-4 1-6-2s-6 0-8 0-3 2-1 4-1 0-2 1l-4-2c3-6 10-6 15-7l2 1c0 4 2 3 5 2a6 6 0 0 1 6 1c2 2 4 1 5-1a8 8 0 0 1 5-5c4-2 4-7 8-9 1-1-1-1-2-2-6-6-14-6-22-5l-15 4c-5 2-7-2-6-5 1-5-1-10-1-14s-5-6-9-7-6-2-8-5a6 6 0 0 1-1-3c1-4-1-6-6-6-1 0-3 1-3-1l1-2 7-11c3-3 6-5 10-1s7 4 7 9c-1 3 10 5 12 3s8 0 8 3a96 96 0 0 1 1 11c1 7 5 11 13 9 3-1 6 1 10 2s5 0 8-2 5-6 9-6l1-1c-1-5 3-7 5-11-6 1-10-2-14-5a11 11 0 0 0-8-3c-3 0-6-1-7-4s-6-1-8-3l13-1-8-7c4 0 4-2 3-5v-4c2-11-5-14-13-17a12 12 0 0 0-7-1 127 127 0 0 0-19 7l-3 2c-3 5-9 5-10 11-1 3-4 3-6 2s-1-3 0-4c0-5 2-9 6-12l5-6c4-5 8-10 15-11a24 24 0 0 0 14-9c3-3 6-4 10-3s9-1 12-4a65 65 0 0 0 12-20c3-7 8-9 14-10 3 0 5-1 6-3s6-2 7 1 4 6 8 8c-4 1-6 5-10 2-2-1-2 1-3 3-1 3-3 5-6 7-6 4-10 11-14 17-1 2 2 6 4 7 9 2 13 11 21 13 3 1 5 2 8 0s8 2 12 0c-2 4-6 1-9 4 6 0 6 3 5 7v3c4 2 7 5 11 6s9 2 12-2c2-3 5-1 6 0 3 3 7 4 11 4h19c-4 2-9 0-14 2a34 34 0 0 1-14 1c-5 0-10-2-15 2-1 2-4-1-5-1s-4-2-5 2l-4 11c-1-2 0-4-2-6l-2 10c0 5 9 12 15 11 2-1 1 0 1 1 1 4 5 7 8 5s9-1 14-1c3 0 4-1 5-4 1-6 5-8 10-4a41 41 0 0 1 5 4c6 5 13 9 21 7l23-4c10 7 21 11 33 14a34 34 0 0 0 19 0h10c3 0 6 0 8-2s5-5 3-9c-1-2-1-4 1-5s2-2 2-4c-2-5 0-11-2-16-1 4-1 4-6 1-1 1 1 1 1 2l3 1 2 2-2 2c-12 3-24 7-35 14a5 5 0 0 1-6 0 8 8 0 0 0-8-1 9 9 0 0 1-7 0h-1c-5 4-10 3-15 1 0-1-2-2 1-2s5 1 8 0l-1-1c-6 0-10-3-12-9-1-2-5-3-4-6s5 0 7-2c4-2 9 0 11-6 1 2 6 3 2 7-1 2 2 3 4 3a159 159 0 0 1 22-1c-1-3-4-2-5-3 0-3 2-5 4-7-5-4-10-8-17-5-6 3-11-1-16-6v8c0 6-2 9-8 10h-12a6 6 0 0 1-2 0c0-6-8-4-9-9l1-7c0-2 3-2 4-2h19c3 0 5-1 6-4s4-7 9-8c2 0 1-2 0-3-4-7-4-15 0-22a8 8 0 0 1 3-3c6-4 7-6 5-13-1-5-2-10 4-13h1c1-10 12-8 18-11s8-5 7-12c0-3 1-5 4-6 6-3 12-5 17-9s8-8 7-14a40 40 0 0 1 0-12c1-3 0-5-4-4s-3-1-2-3-1-4-3-3-5 2-6 5-5 4-9 5c-6 0-11 4-17 3-9-2-16 0-23 4a7 7 0 0 1-5 1c-3-1-5 1-7 4a8 8 0 0 0-1 6c0 3 3 1 4 1l10 1c-7 1-14 0-20 4s-14 5-19 10-10 7-16 10c-2 0-4 1-5 3s0 1-1 1c-4-3-9-3-11-7s-6-7-9-10-3-16 2-18l4 1 1 1c12 9 14 9 29 7a4 4 0 0 0 3-2 18 18 0 0 1 8-6c4-1 5-7 5-11a47 47 0 0 0 0-8c0-3 1-6-4-5s-5-5-6-8 2-4 3-6 2-1 3 0l9 7c3 2-2 3 1 4s7 2 11 1c7-3 13-3 19 1l10 5v-1c-3-4-2-6 3-8l25-9a12 12 0 0 1 5-1c4 1 7-1 9-5l6-13c1-4-1-6-3-10-5-5-8-2-12-1-13 1-21 11-34 14l-11 1a12 12 0 0 0-5 0c-7 3-13-3-11-9a28 28 0 0 0 1-9l1-1c4 0 9-1 11 1 3 4 7 3 11 3l4-1c9 1 13-4 17-11 1-2 2-4 5-3-7-5-14-10-24-7-3 1-8 2-10 0s2-5 3-8 3-6 8-5 9 2 11 9c2-6 6-6 10-5 7 1 13 0 18-7 4-6 10-11 13-17ZM201 1080c2-6 6-9 11-11a23 23 0 0 0 14-13 22 22 0 0 1 5-8c3-3 3-7 2-11s-3-4-6-5c-8-2-16-2-23 1-3 1-6 2-7-3v-1c-7-1-5-7-6-11a13 13 0 0 0-1-3c-2-3-2-4 0-6 1-1 2-2 0-2-5-2-3-6-3-10s-2-5-6-6a139 139 0 0 1-32-9l-4-1c-4-5-7-2-10 1s-6 5-8 9c0 2-2 3 0 5v3c-4 4 0 5 3 6a24 24 0 0 1 8 3c4 2 7 3 11 0s12-3 17-1c4 1 5 6 6 10s-2 5-4 6l-4 4c-5 9-15 11-24 13-3 1-7-1-9-3a91 91 0 0 0-12-12c-2-1-4-3-7-2s-4-1-4-4a12 12 0 0 0-1-1c-5-11-11-14-22-11-7 2-14 4-20-2 3 4 2 8-1 12s-5 6-10 6-8 1-12-1c-6-2-8-7-7-13 2 1 3 2 3 4a9 9 0 0 0 1 4c5 5 12 3 17 2 4-1 6-4 7-7l-1-4c-1-1-2-3-1-5 0-5 3-7 7-8l10-4c4-3 9-6 15-6 1 0 3 0 2-2-1-7 8-8 9-14a26 26 0 0 1 9-14c2-2 5-4 8-3s4-2 6-4c-9 1-17 1-24-3a2 2 0 0 0-1-1c-8 3-16-1-24 1h-2c-4 1-8 2-7-5l-2-2-21-11a41 41 0 0 0-20-5c-3 0-4-2-5-6 0-8 3-16 10-21 3-2 4-4 0-7s-4-11-1-14l1-2c0-10 9-16 14-24 1-2 3-3 1-5s-3-3-6-2-4-1-5-4c-1-5-1-10-4-14-2-2-3-3-6-3-5 1-9 0-12-3s-5-8-1-14 8-7 13-7l5 1c4-1 8-1 9-7s-1-8-6-10c-8-4-17-4-25-7-5-1-6-3-5-8a66 66 0 0 1 4-20c1-2-1-3-2-4-4-4-3-6 2-9s10-3 15-3c1 0 3 1 4-1s0-3-1-5l-7-9a20 20 0 0 1-6-10c0-4 0-9-3-12a1 1 0 0 1-1-1c3-7-5-13-2-20a2 2 0 0 0 0-2c-5-4-5-9-5-15l-1-1v-18c2-8 4-15 3-24s0-15 2-22 4-9 11-7 14 0 21 6l-4-6-13-11a20 20 0 0 1-7-11 24 24 0 0 0-6-13c-4-3-5-8-6-13 0-10 0-20 5-29 1-2-1-5-2-7-4-6-1-22 5-27l2-1c9-4 15-11 24-14 5-1 7-4 7-9s3-8 8-5c3 2 4 2 6 0a36 36 0 0 0 6-13c1-3 0-5-3-6l-5-1c-4-1-6 2-7 5l-3 9c-3 6-8 7-12 3a7 7 0 0 0-5-2l-12-2a9 9 0 0 1-6-5c-3-6-8-12-8-19v-9a19 19 0 0 0 1-6c0-6 2-11 6-15s4-7 1-11c-4-8-4-16-6-24a5 5 0 0 1 0-3c4-12 1-24 1-36 0-3-3-5-2-8 1-12-2-25 0-37 0-3 2-5 4-6l11-3 4-2c11-5 11-9 2-16a60 60 0 0 0-9-5c-4-3-6-6-5-12l1-7a7 7 0 0 0-2-6c-5-8-6-20 0-27s4-14 2-21l-2-11c-1-3-1-11-5-15-2-1-2-3-2-5l1-23c0-4 2-5 5-5 6 2 12 1 16 7 2 2 3 2 4 0l4-7c2-4 0-9-5-9a87 87 0 0 0-12-2C6 87 4 85 4 77L3 64c0-7 0-13 2-20a27 27 0 0 0 0-18L1 12C1 8-1 4 2 0l4 3-2 4v4c6 4 2 11 5 16s2 9 1 13C5 53 8 67 8 80c-1 3 1 3 3 3l19 2c4 0 8 10 6 13l-5 8a80 80 0 0 0-2 8c-4-2-9-3-11-9l-3-1-10-2c2 2 2 4 0 7l-1 17a2 2 0 0 0 2 2c4 1 5 4 4 7s0 5 3 6l1 1c-3 11 3 21 3 31 0 2-1 2-2 3-6 4-10 16-7 22a3 3 0 0 0 1 2c7 3 5 10 4 15-1 8-1 9 6 13l9 6c3 3 3 4 6-1v19c-2 0-1-3-3-4-5 8-14 9-21 11-4 1-5 3-5 7-1 8-1 16 2 24 1 1 2 3 0 4-5 3-2 6 0 8s2 3 1 5a20 20 0 0 0 1 9c1 7 1 15-1 22-2 13 2 24 8 35a4 4 0 0 1-1 5c-7 7-9 16-12 25-2 6 1 10 3 14l4 6c5 9 10 11 20 9 3-1 3 1 4 3s0 3 2 3a4 4 0 0 0 4-3l2-8a12 12 0 0 1 6-8c3-2 5-3 7-1a5 5 0 0 0 5 1c3-1 5 0 6 4s3 5 1 7c-4 6-5 15-13 18-4 2-5-2-7-4l-1 1c1 9-3 14-11 16l-10 5-2 2c0 1-2 3-4 3-11 4-17 16-10 27 2 3 2 6 0 10-5 10-5 20-3 31a8 8 0 0 0 3 4c5 4 7 9 8 15a16 16 0 0 0 6 10l18 16c2 2 1 6-3 9s-4-1-5-2-3-3-5-4a77 77 0 0 1-14-2c-3-1-4 1-5 3a19 19 0 0 0-1 7c0 7-3 14-1 21s-1 12-3 18a21 21 0 0 0-1 13 22 22 0 0 1 1 8c-1 5 0 9 4 12l1 5c-1 5-2 10 4 13 3 1 1 3-1 4s-3 2 0 3l2 5a31 31 0 0 0 9 20l4 4c4 4 2 7 0 10a2 2 0 0 1-3 1c-7-2-13 0-20 5 9 3 6 9 4 14l-2 4c-1 3-2 6 3 6v1c-2 2-5 3-4 7s4 2 6 3c8 2 16 2 23 6s11 13 5 18a12 12 0 0 1-11 3c-7-2-12 1-15 8a8 8 0 0 0 5 10l6 1c2 0 4-2 6 0s5 5 6 9l2 11 1 1c5-2 9 0 12 5v2c-6 3-7 10-12 14a12 12 0 0 0-4 11 4 4 0 0 1-1 3c-5 6-5 10 2 14 1 1 2 2 0 4l-5 6c-5 3-9 14-7 20l2 2h14c5 7 13 7 19 11 4 2 7 6 12 5v4c0 1 0 4 3 3 7-1 15-2 22 1a2 2 0 0 0 3-1c1-4 3-2 6-1 6 6 14 4 22 3l7-1-10 11a1 1 0 0 1-1 0c-8-3-10 4-13 8a30 30 0 0 0-4 8 11 11 0 0 1-6 7c-3 2-2 6-2 10-5-2-10-1-13 3l-2 1c-6-1-6 3-7 7a10 10 0 0 1-1 2c-1-2-1-5-4-4l-7 3c5 6 11 8 18 5 6-2 12-1 17 0s7 3 9 7 1 10 8 8l1 1 12 9c4 4 5 9 10 8 8-2 16-3 20-10 3-3 5-7 9-8 2-1 2-2 2-4-4-7-14-11-20-6-4 3-7 4-11 1s-9-4-14-5-5-3-2-7 2-2-3-6c7-2 8-10 13-14s7-4 14-1c7 5 16 7 25 9l19 3c-2 6-2 6-1 15l4-2c-2 4 2 3 4 5a19 19 0 0 1-4 2c-3 1-4 2-2 4s1 3 2 4a32 32 0 0 1 0 6c0 5 6-1 5 4s3 3 6 2c9-4 17-2 26 1a7 7 0 0 1 5 9c-1 4 0 9-5 12-2 1-3 4-3 6-2 6-7 10-13 13a24 24 0 0 0-11 9Z" style="fill:#020203"/>
  <path d="M1526 1080h-35v-1c3-3 4-8 5-13 1-6 1-6-5-9-2-2-6-2-5-6 2-8 4-10 9-10 7 0 15 2 21 7 2 2 4 3 7 2s8 0 12 0c2 1 3 1 4-1s-1-2-2-3a13 13 0 0 1-3-2c-1-1-2-2 0-3 5-3 7-9 10-13 2-2 1-3 0-4l-4-4c-3-3-3-5 0-7s3-3 1-5a11 11 0 0 1-3-2c-1-2-1-4 1-6s4-2 6-1l6 5c1 1 1 2 2 1 6-1 9 4 13 6s4 3 2 6l-4 9c-2 3 0 6 2 8 5 4 11 6 17 3l6-1c2 0 3-2 4 0s1 3 0 5a40 40 0 0 0-1 10 12 12 0 0 0 6 11c6 3 12 6 14 13l4 3c1 1 3 0 2 2h-52c0-3 2-4 4-5 4-3 4-7 6-10l-2-4a3 3 0 0 0-4 0c-3 3-7 4-11 2a5 5 0 0 0-5 1c-4 3-9 5-12 9l-5 2c-5-1-8 1-11 5Z" style="fill:#36534b"/>
  <path d="M34 1077v-2c-5-8-12-8-21-6v-2c2-2 6-4 6-7a2 2 0 0 1 1-2c8-1 15-6 23-6 3-1 6-2 7-5 3-8 9-13 15-19s7-7 14-4c9 3 17 7 24 14 1 1 3 2 1 4h1c5 1 8 4 11 7a8 8 0 0 0 10 2c2 0 2 1 2 2-1 6 1 12-2 18-1 1 0 3 1 4s3 3 3 5H54a47 47 0 0 0-16-2l-4-1Z" style="fill:#365341"/>
  <path d="M1920 168v419c-3 0-3-4-6-4-5-1-9-2-14-1-6 2-8 1-10-5a19 19 0 0 0-5-7c-2-3-2-5 2-6 7 0 14-2 21-1 4 0 6-4 7-7 3-7 4-14 1-22a33 33 0 0 1-2-22 23 23 0 0 0-2-21 11 11 0 0 0-4-3c-5-4-6-8 0-11 10-4 9-13 10-20 1-15-1-29-3-43-1-9-3-19-13-24-2-2-2-4 0-6l1-1c4-3 9-5 9-11s1-9-2-14c-1-1 0-3 1-5a7 7 0 0 0-3-7c-2-2-4-3-6 0s-3 3-5 1c-5-4-10-9-12-15l-1-2c3-8-3-12-4-18s-3-12-6-18-3-11 1-14c2-2 4-2 6-1l3 2c6-1 4 2 4 6a24 24 0 0 1-2 7c-3 6-1 14 6 16s13 7 13 15l3 3 4-7c7-11 8-22 5-35a47 47 0 0 1 0-18c2-9 1-19 0-28-1-6 0-13-4-19a4 4 0 0 1 0-3c5-6 3-13 2-19-1-11 0-21 4-30a1 1 0 0 1 1-1Z" style="fill:#36534b"/>
  <path d="M1 12c3 2 4 7 5 11 4 9 1 18-1 27s1 21 1 32c-1 2 1 3 3 3l18 2c6 1 8 7 5 12l-4 7c0 2 0 3-2 4a3 3 0 0 1-3-3c-3-7-11-5-17-7-1-1-3 0-3 2 0 8-2 16-1 24 0 2 0 4 2 4s4 3 4 6-1 5 2 6a2 2 0 0 1 1 2c-3 9 4 17 3 27l-1 3c-9 7-8 16-7 26a3 3 0 0 0 0 1c8 5 5 12 4 19 0 3 0 6 4 8l16 11c2 1 2 6 0 8-6 6-14 8-22 10-4 1-5 4-6 8-1 8-1 17 3 25v3c-4 2-3 6-1 9 3 8 2 17 2 26v10c-5 12 2 23 6 33 1 3 2 6-1 8-7 6-6 16-11 23ZM1 411l8 16c3 6 11 10 19 8 2 0 4 0 4 2s2 4 4 3 5-1 6-4l3-9c2-6 4-7 10-6a7 7 0 0 0 3 1c4 0 8 4 6 7-3 5-4 12-9 16-2 1-3 2-5-1s-3-3-5-2-2 3-1 5c0 5-3 9-8 11l-12 5c-2 1-4 2-4 4s-1 2-2 2c-12 4-18 19-12 29 2 3 2 6 0 9a53 53 0 0 0-3 31 15 15 0 0 0 5 8 20 20 0 0 1 6 12 19 19 0 0 0 7 11l16 15c2 1 3 3 1 5s-3 0-4-1a5 5 0 0 0-3-2l-18-3c-4-1-6 2-6 5-2 8-4 17-2 26s-1 14-5 21Z" style="fill:#aff65a"/>
  <path d="M590 1080h-17c1-6 6-7 11-8s4-2 4-5v-9c0-7-2-13-9-15l-4-5c-1-2-3-2-5 0-4 5-9 8-16 7l-10 2c-3 0-5 1-5-2s-1-6 2-7 6-4 10-3 5-1 7-3l8-10c3-3 3-7-2-10a10 10 0 0 1-2-2c-3-7-9-10-15-13-2-1-6-2-5-5s5-8 7-8 8-2 12-1a15 15 0 0 0 10 0c5-1 8 3 11 4s2 4 1 6c0 5-1 10-4 13a4 4 0 0 0-1 4c1 6 2 12 6 18 1 1 2 2 4 1 6-3 12-3 17-8 2-2 6-1 8 0l4 1c4-3 4 0 4 3v13c0 8-4 11-11 11a7 7 0 0 0-5 2c-2 3-4 6-8 7a3 3 0 0 0-1 2c0 3 0 5-3 6s-1 3-2 4c0 4 1 7-1 10Z" style="fill:#36534b"/>
  <path d="M1920 168c-3 10-5 21-3 32 1 6 2 12-3 18v3c6 16 6 33 4 50a38 38 0 0 0 0 13c3 15 2 28-7 40l-3 11c1-6-4-8-5-13a11 11 0 0 0-9-9c-4-1-8-6-11-10v-7l2-4c3-8 2-11-6-13-2 0-7 4-6 7l2 8c3 5 4 11 6 17a23 23 0 0 0 3 8c2 3 2 5 2 9s2 8 5 12l9 8c2-3 3-7 7-4s6 5 4 10v4c4 6 2 12 1 19 0 2-1 2-2 3l-9 7v1c13 7 15 19 16 32s3 24 2 36a49 49 0 0 1-2 14c-1 3-2 6-6 7s-4 4-6 6-1 1 1 2c11 5 12 16 10 26s-1 19 2 27c2 7-1 20-5 24a6 6 0 0 1-5 2l-21 2c-3 0-3 1-1 3a17 17 0 0 1 5 9c1 4 4 4 8 3h9c5 0 10 0 12 6v4l-2-2c-4-8-10-6-17-6l-7 1c-2 0-3 0-3-2-2-5-6-9-9-14-1-2 0-4 3-4l22-3c5 1 6-3 7-6 3-7 3-13 0-20s-4-14-1-22 2-14-2-21c-3-4-6-6-11-5s-4 0-3-4l1-5 4 5c2-4 5-8 10-9l3-6a96 96 0 0 0 1-37c-1-9-1-17-4-26-2-5-4-9-8-11l-9-8 6-2c9-4 11-12 9-20v-2c-4-3-2-6 0-10s-1-4-2-5l-3-1a6 6 0 0 0-3 4 31 31 0 0 1 1 6c-5-8-15-11-18-21-1-3-2-3-4-1l1-5c0-1 2-6 0-9l-4-9c-1-5-2-11-5-16a15 15 0 0 1-3-11c1-4 5-6 8-9a2 2 0 0 1 1 0c4 6 9 4 15 2-6 7-5 15-9 21-1 2 3 9 6 11a10 10 0 0 0 3 1c9 2 12 8 13 17 4-7 8-12 9-19s2-16 0-24a34 34 0 0 1 0-17c2-9 1-18 0-27-1-7-1-14-5-20-1-2 0-3 1-4 3-3 3-6 3-10l-2-23a11 11 0 0 1 1-3c6-16 4-31 1-47l-1-15v-8c0-9 0-9-10-8-2 0-5 0-7-2a13 13 0 0 0-5-2 16 16 0 0 1-11-20c0-2 1-1 2-1h5c1-2-1-2-1-3 5 0 9 0 13 2s9 2 12 0 6-7 5-12c-2-14-1-29-6-43a13 13 0 0 1 0-7c2-5 1-10-1-14h3c4 4 3 8 3 13s-1 7 0 11c3 8 3 17 3 26l1 16c0 11-5 15-15 15a21 21 0 0 1-7-1c-4-2-7 0-11 1s-2 3-1 5a11 11 0 0 0 5 7c5 2 11 5 17 4s8 2 10 9c2 10 0 21 1 31l1 14Z" style="fill:#aff65a"/>
  <path d="M1778 1048a3 3 0 0 1 1-2c3 1 6 2 9 1 2-1 4-1 4 1s1 3 3 3c8 0 14-3 21-6 8-3 15 0 22 4 3 1 3 7 1 10l-6 6c-2 2-3 2-5 0-4-3-7-2-11-1s-9 0-13-1l-2-1c-1-3 0-8-6-4a32 32 0 0 1-7 3c-6 1-9 6-14 9l-19 9-3 1h-34c0-4-4-2-6-3 0-9 0-17-3-26a7 7 0 0 1 1-6l8-10c1-1 3-2 4-1a9 9 0 0 0 7 4c3 0 3 2 4 4l1 9a19 19 0 0 0 0 7c3 6 4 7 11 5l7-1c2 0 8 1 10-5l3-1c6 0 9-4 12-8Z" style="fill:#25562f"/>
  <path d="M1342 994c5 3 11 4 16 5l5 2a2 2 0 0 1 2 3c-1 4-1 8-5 10-3 1-4 3-4 6-1 5-2 9 0 14a2 2 0 0 1-1 2c-5 8-3 16-2 23a10 10 0 0 1 0 3c0 4 1 7 5 10s4 4 1 8h-21M1920 151c-1-9-3-17-3-26a120 120 0 0 0-2-22c0-3-1-5-4-4-8 1-14-3-21-4-4-2-8-10-7-14l1-2c5 1 9-4 14-1s10 1 14 1c3 0 7-9 7-13l-1-15c-1-9 0-19-4-28a17 17 0 0 1 0-10c1-5 0-9-1-13 7 0 7 0 7 7Z" style="fill:#36534b"/>
  <path d="M1618 1080c-4-2-7-3-9-8s-7-6-11-9c-7-3-8-10-7-17a44 44 0 0 1 2-10l-15 3c-5 0-15-4-16-10s3-8 5-11 0-5-2-7c-5-4-12-3-17-7l-4-4c-1-1-3 0-4 1a3 3 0 0 0-1 4l2 2c3 3 3 5 0 7s-3 3-1 5c7 7 7 7 1 16-2 3-3 6-7 7v1c3 2 7 3 5 7s-5 2-7 1h-11c-4 0-4-1-6-2-6-5-14-7-21-6-6 0-5 5-7 9s2 2 4 3c6 3 8 4 6 12-1 5-2 9-6 13h-5c2-2 5-2 6-4l3-14c1-2-4-4-6-5-6-1-6-4-3-8v-1c3-9 6-10 15-8 6 2 12 3 17 8a4 4 0 0 0 3 1 61 61 0 0 1 17 1c-1-3-4-4-6-5s-2-2-2-4 2-1 3-1l3-2 5-7c3-4 2-7-2-10-5-4-5-7 2-10l-2-2c-5-6-4-10 3-13 1-1 2 0 3 1l6 6 3 2c5-2 7 2 11 4s7 4 7 10l7-14 5-5c2-1 3-3 5-2s6 3 5 7v4c1 11 0 9 10 9-9 6-24 11-35 0-2 3-2 7-5 9-1 1 0 2 1 3 1 3 9 7 12 7l18-5c1 0 3-1 3 1s1 3 0 4c-7 6-6 19 1 23s11 7 15 14c1 4 8 4 13 4a4 4 0 0 0 2-1c5-2 9-3 14 1l3 1 2 1Z" style="fill:#aff65a"/>
  <path d="M400 0h8c2 3 0 5-3 7s-5 5-7 9c-4 7-8 15-10 24a6 6 0 0 1-3 4c-3 2-7 5-8 10a2 2 0 0 1-1 1c-6 2-5 7-5 11s-2 10-5 14-5 4-8-1c-1-2-2-2-4-1a4 4 0 0 1-5-6h1c6-3 8-12 15-14 2-1 2-6 0-7s-4-5-2-9l2-4c1-4 3-8 8-10 7-2 10-10 13-16s8-10 14-12Z" style="fill:#3d0a63"/>
  <path d="m590 1080 1-11c0-2 0-4 2-4l1-1c-1-7 5-8 8-12s5-5 10-4 7-3 8-7l1-20a9 9 0 0 1-9 1h-6c-5 5-11 5-17 8-3 1-4 1-6-2-4-5-5-12-6-18a6 6 0 0 1 1-5c4-4 4-10 5-16 0-2-1-2-3-2-10-3-20-3-29-2-5 0-6 4-8 7s1 2 2 2c7 4 15 8 19 16a3 3 0 0 0 1 1c6 5 6 8 1 13a75 75 0 0 0-6 6c-2 4-5 6-10 6s-11 4-11 8c1 2 1 2 3 2 7 0 12-2 19-3 3 0 6-3 8-5s5-3 7 0a10 10 0 0 0 6 5c3 1 4 4 6 7 3 7 2 14 1 21 0 2-2 2-4 2-5 1-9 3-12 7h-5c5-4 10-10 18-9a1 1 0 0 0 1-1 1 1 0 0 0 0-1c-1-6 2-14-3-20-1-2-2-4-5-5l-3-2c-2-4-4-4-7 0s-8 5-13 5l-19 3a16 16 0 0 1 0-11c2-3 7-5 12-5s7-2 9-5l7-8c2-3 4-6-1-7a3 3 0 0 1-2-2c-4-9-12-12-19-16-4-1-5-3-2-7l6-7c2-3 1-1 3-1 5 1 10 0 15 2h1c6-4 11 1 17 2 2 0 3 0 2 2-1 7 0 15-6 21a2 2 0 0 0 0 2c2 6 3 12 6 17 1 1 1 2 3 1 5-3 12-3 17-8 1-2 5-2 8-1 4 2 5 0 6-3 1-1 0-2 2-2 3 10 2 19 1 29 0 4-6 8-10 8s-5 1-7 3c-7 4-10 10-8 19-3-2-2-5-4-6-1 4 1 9-1 13Z" style="fill:#020203"/>
  <path d="M1920 661v66c-3 1-5-2-8-3-5-2-6-2-10 3-1 1-3 3-5 2a4 4 0 0 0-2 0c-3 0-7 2-8-2s-1-8 2-10a21 21 0 0 0 7-13c1-4 3-6 6-7 8-4 11-11 13-19 2-3 1-8 2-11 0-3 0-6 3-6Z" style="fill:#aff65a"/>
  <path d="M1883 1049v1c-2 1-4 2-1 5s1 7-2 7l-26 5c-1 0 0 1 0 0s6 1 8 4 1 6 1 9h-33c2-4 6-7 11-7 2 0 5 0 6-3-1-1-5 1-5-2s1-8 5-8l3-3 6-3-7-2v-1c2-2 5-1 7-1l1-1c-2-3 0-3 2-3l11 1h11a2 2 0 0 1 2 2Z" style="fill:#035923"/>
  <path d="m533 0-9 14c-4 7-11 11-18 15-3 2-6-1-8 0-8 4-16 2-24 3 2-4 3-5 8-5s10 1 13-5 7-10 13-13c3-2 6-5 7-9Z" style="fill:#240060"/>
  <path d="M75 0h11c1 2 0 4-2 6-5 3-6 8-6 14l-2 5c-6 6-11 14-16 22-2 2-6 1-9 3l-1-1c0-1-1-10 1-11s2-4 2-7a35 35 0 0 1 10-15c3-3 4-7 6-11a12 12 0 0 1 6-5Z" style="fill:#494c51"/>
  <path d="m75 0-6 8c-2 4-4 8-8 12a15 15 0 0 0-5 9c-1 6-7 11-5 18v2c9-1 11-9 16-15 3-3 4-7 8-10l2-5c-1-6 1-10 6-14 1-1 3-3 3-5h3a11 11 0 0 1-5 8c-4 3-5 7-5 12s-2 5-4 8a121 121 0 0 0-14 20c-2 2-3 4-6 1l-2 7c-1 5-1 8 4 9 2 1 2 2 1 4l-1 2c-2 2-1 7-6 7s-12 0-15-6c-1-3-1-4 1-4s5-3 5-6 2-5 4-7c1 3 0 7 3 9 2-7 0-13-1-20 0-3-2-6 2-8 2-1 2-4 3-6a35 35 0 0 1 8-15c4-4 7-10 10-15Z" style="fill:#020203"/>
  <path d="M306 1080a4 4 0 0 0-3-2c-4 0-4-2-2-5s-4-8-8-9-10 1-15-1l-2-2c2-2 4-5 4-8s1-3 3-3a36 36 0 0 0 11-2l-8-4c7-5 14-9 22-4 7 3 13 0 20-3l2-2c9-5 19-1 24 9 1 2-1 4-1 7s-3 2-5 2-3 2-4 4c-2 3-3 7-8 4h-1l-12 11c-1 3-1 5-5 5-2 0-2 1-1 3Z" style="fill:#020103"/>
  <path d="M400 0c-6 4-13 9-15 16s-8 12-15 14l-2 3-5 12c-1 1 0 3 1 4 5 5 4 7 0 11s-9 10-15 14v3c1 1 2 2 4 1 3-2 5-2 7 3 0 2 4 1 6-2 2-5 5-10 4-16 0-3 0-6 4-8 2 0 2-2 3-3l3-5c5-3 7-7 9-13 2-8 7-15 10-22a12 12 0 0 1 5-6c2-1 4-3 3-6h2a7 7 0 0 1-3 8c-3 2-5 4-6 7-5 9-9 17-11 27a5 5 0 0 1-3 3c-4 2-7 5-8 10l-1 1c-6 2-4 7-5 12-1 6-2 14-10 17-3 1-4 1-4-3s-1-5-5-2-5-2-7-4 0-3 2-4a71 71 0 0 0 12-12c1-1 2-3 4-3s2-4 0-5c-5-3-3-9-6-13 3 0 2 3 4 3l1-4c2-5 3-10 9-11 4-1 7-5 10-7 0-3-3-1-4-3 7-4 11-12 17-17Z" style="fill:#030105"/>
  <path d="M1343 993c3 3 8 3 13 5s8 3 12-1l-3 14a1 1 0 0 1-1 1c-5 2-6 6-8 11s0 7 1 10v4c-7 6-3 13-3 20v2c0 5 1 9 5 12a8 8 0 0 1 3 9h-3a7 7 0 0 0-3-8c-3-2-4-5-4-9" style="fill:#020204"/>
  <path d="m1351 1042 2-5a3 3 0 0 0 1-3v-14c0-5 2-7 6-8s3-6 4-9c1-1-1-1-2-1-7-2-15-3-22-8" style="fill:#020204"/>
  <path d="M170 0h18c-1 6-5 10-11 10-3-1-5 0-6 3s-3 3-5 2-4 1-6 3c-4 5-9 9-15 12-2 1-5 2-8-1s-2-5 1-8a23 23 0 0 1 14-9c7-1 14-5 18-12Z" style="fill:#1b2e5e"/>
  <path d="M1562 1080h-33c-1-3 1-5 3-5 7 1 10-3 15-6l7-5a7 7 0 0 1 7 0 6 6 0 0 0 8-1c2-3 3-4 6-2s0 4 0 6c-1 7-8 9-13 13Z" style="fill:#42225b"/>
  <path d="M1753 1080a12 12 0 0 1 6-4c7-2 12-7 19-9l3-3c1-1 3-3 5-3a2 2 0 0 0 1 0c2-5 8-3 11-5s4 0 5 2-2 3 1 4 6 3 9 2a27 27 0 0 0 6-1c3-2 6-1 9 1s4 1 6-1 6-5 5-10c0-2-1-3-3-5-9-5-18-4-27 1-6 3-12 3-19 4l1-6c-4 1-8 4-12-1h13c3 6 7 4 11 3a68 68 0 0 0 13-5c9-4 16 0 24 4 2 1 2 9 0 12l-4 3c-3 5-6 6-10 2s-6 0-8 0c-5 2-9 1-13 0s-5-4-5-7c-16 4-27 17-43 22Z" style="fill:#020503"/>
  <path d="M1920 661c-2 4-2 8-3 13-1 10-4 19-14 24-3 2-5 4-6 8s-2 8-6 11-2 6-3 10l1 1 12-2c4-5 6-6 13-3l6 4v14l-1-5a12 12 0 0 0-11-12c-4 0-4 3-5 4s-3 6-7 2c-1-1-3 0-4 1-4 2-7-1-6-4s-1-10 4-13c3-2 5-6 5-9a10 10 0 0 1 6-9c11-5 13-14 14-25l5-21Z" style="fill:#030304"/>
  <path d="M170 0c0 4-3 6-5 8-5 3-10 6-16 6s-8 6-12 10c-1 2 0 4 1 5s4 1 6 0c6-3 11-7 15-12 2-3 4-4 8-3s3 0 4-2a4 4 0 0 1 4-4c7 1 11-2 13-8h3c-3 7-8 12-16 11-2-1-2 1-2 2-1 4-2 5-6 4s-5-1-7 2c-4 6-10 9-16 13-2 2-6 2-7-1s-5-6-1-10 8-9 15-10 14-4 17-11Z" style="fill:#020104"/>
  <path d="M549 0h10c5 9 3 15-7 19l-3 1c-5 3-5 3-5-4V7l1-3 2 2c0-2 0-4 2-6Z" style="fill:#a85fb2"/>
  <path d="M270 1080c0-3-3-3-4-3-5-1-9-2-13-5a21 21 0 0 0-12-4c4-5 10-7 16-8a55 55 0 0 1 11 0c4 0 6 4 3 7h11c-4 2-3 11-10 10l5 3Z" style="fill:#030204"/>
  <path d="M402 1080c13-5 20-15 26-27l1-2 1-1 2 3c3 4 5 7 0 11-2 2-4 6 0 8h-6c2 3 0 5 0 8h-9c-2-3 0-4 1-5 7-5 9-8 12-17a13 13 0 0 0-4 6c-3 9-10 13-18 16Z" style="fill:#030205"/>
  <path d="m1331 0 3 2c6 5 7 9 4 16-1 2-3 2-5 1-3-2-5-1-5 3-1 1-1 4-3 4s-2-3-3-5c-5-6-4-14-4-21h2c2 5 1 9 1 14V0h5a3 3 0 0 1 1 3c-2 6-2 12-2 17v-7c0-2 1-4 2-3 3 2 6 2 8 2 1-2-1-5-4-7s-4-2-2-5Z" style="fill:#050107"/>
  <path d="M1562 1080c1-2 2-4 4-4 5-2 7-7 9-11l-1-3h-4c-3 5-6 5-10 3h-5c-4 3-9 5-13 9-2 3-4 2-7 2s-5 0-6 4h-3c1-5 4-7 9-6 3 0 4-1 7-3a143 143 0 0 1 13-9 6 6 0 0 1 5 0c4 2 6 2 8-1s4-3 7-1 2 4 2 7c-1 6-7 9-11 13Z" style="fill:#020203"/>
  <path d="m632 1080-1-2c-6-7-3-14 0-21 1-2 2-3 4-2 5 1 11 1 13 7a6 6 0 0 1 0 6c-2 5-7 8-12 12Z" style="fill:#030204"/>
  <path d="M1657 0h12c3 1 7-1 7 4 0 3-1 4-3 5a52 52 0 0 1-11 2c-2 1-5 2-5-1s-5-7 0-10Z" style="fill:#a487a9"/>
  <path d="M1329 0c0 2 1 2 2 3 6 6 6 6 5 15-3-1-1-4-3-6-1 1 0 5-2 4s-2-4-4-7l-2 15c-2-8-2-16 1-24Z" style="fill:#9e1cc0"/>
  <path d="m1849 1052 13 1c-4 4-14 0-12 10-2 0-2-2-4-3-1 3-3 5-3 8h1c2 0 6-2 6 1s-3 5-6 5c-6-1-10 2-14 6h-4c6-5 10-10 20-8-5-3-5-10-1-13 3-1 6-3 4-7Z" style="fill:#020503"/>
  <path d="M496 1080h-30c-1-4 2-5 5-4 5 0 9-2 14-4 3-2 11 1 12 4a2 2 0 0 1-1 4Z" style="fill:#25572f"/>
  <path d="m549 0-1 6-1 6c-2-3-1-6-3-8v19c4-6 9-5 13-8s4-6 3-9a53 53 0 0 0-1-6h2a20 20 0 0 1 2 7c0 7-4 12-10 13l-5 2c-2 0-6 2-6-3V6c-1-4 4-3 5-6Z" style="fill:#060307"/>
  <path d="M1920 649c-7-7-8-16-7-25s5-20 7-30v12c-1 9-3 18-2 27a27 27 0 0 0 2 11Z" style="fill:#030304"/>
  <path d="M408 1080c9-4 15-11 19-21l3-4c2 2 2 4 1 7l-8 12-1 1c-4-1-4 2-5 5Z" style="fill:#413e59"/>
  <path d="M1920 644c-3-2-4-5-4-9a78 78 0 0 1 4-29Z" style="fill:#3a574e"/>
  <path d="M496 1080c1-2 0-4-1-4s-6-5-10-3-9 4-14 4a6 6 0 0 0-5 3h-5c3-3 7-7 13-6 3 1 6-1 8-2s3-4 7-2 10 3 10 10Z" style="fill:#030404"/>
  <path d="M283 0a8 8 0 0 1 0 1c6 6 6 6 1 13a4 4 0 0 1-5 2v-3a7 7 0 0 0-3-6c-2-2-3-4-2-7Z" style="fill:#030203"/>
  <path d="M1234 0c0 5-1 9-7 9-2 0-3 2-3 3a3 3 0 0 1-4 2l-2-3c-1-7 1-9 8-10l1-1h3c1 2 0 3-1 4l3-4Z" style="fill:#040106"/>
  <path d="m130 1080-3-4c-3-2-3-3-2-6a30 30 0 0 0 0-19c1-2 1-4 3-5s6 2 8 6c-3 0-4-4-8-4a67 67 0 0 1 1 15v1c-2 6-2 11 2 16Z" style="fill:#030504"/>
  <path d="M1657 0c-1 2-1 10 1 11a3 3 0 0 0 2 0l11-3c2 0 4 0 4-3s-2-4-4-4l-2-1h7c0 3 2 7-1 9s-11 5-17 4c-3-1-5-9-4-13Z" style="fill:#08050a"/>
  <path d="m342 1080 4-6-6-1c6-2 12-2 17-5 1-1 1 1 2 2l2 10h-3c-5-7-5-7-11-2l-2 2Z" style="fill:#030305"/>
  <path d="M345 1080c2-2 2-6 6-7s6 0 6 4l1 3Z" style="fill:#37544c"/>
  <path d="M34 1077c6 0 13-2 20 3h-7c-5-2-10-1-15-1-2 0-5 0-6-2Z" style="fill:#030503"/>
  <path d="M1321 0a22 22 0 0 1-1 15V0Z" style="fill:#7d22ca"/>
  <path d="M1232 0c-1 3-1 7-6 7 1-3 4-4 4-7Z" style="fill:#a525c7"/>
  <path d="M226 64a2 2 0 0 1-1-2c-1 5 0 11-4 16-2 3-2 7-3 10s-1 6-5 7-6-2-7-5c-4-7-10-10-15-14-4-3-6-7-8-10l-1-5a61 61 0 0 1 11-20c5-5 14-6 19-1l8 5c3 2 6 4 8-1h1c6 2 8-3 12-4l15-4c2 0 4 1 4 3l1 10c0 3-1 5-3 6-7 3-9 9-12 14s-2 5-6 1l-7-7c-2-3-4-2-7 1Z" style="fill:#00275f"/>
  <path d="m1599 749-2-2c-2-2-1-3 2-4a29 29 0 0 1 5 0c12 0 21-9 33-11a2 2 0 0 0 1-1c5-7 10-3 16 0a56 56 0 0 1 6 4c5 4 4 9-2 12a72 72 0 0 1-22 8 8 8 0 0 0-6 4 81 81 0 0 1-15 18c5 5 11 5 18 6s12 6 20 7c3 1 1 5 1 8s-3 0-4 0-3 0-3 2c-1 4-5 5-8 4-8-3-15 0-22 3-9 4-18 2-27-2-6-3-13-6-20 1l-14 7c-15 7-29 13-45 15l-4 1c1-4 3-7-1-10l-13-8c-4 5-11 2-14 6-4 6-13 5-16 12l-2 1c-9 2-19 1-28-1-3 0-3-4-6-4s-1-4-1-6c-1-6-4-13-8-18-7-6-11-13-14-22-1-3 0-4 3-4a45 45 0 0 1 11 0c6 1 7 0 7-6 0-2 1-4 4-2s4 0 5-3a87 87 0 0 1 7-9c5-5 9-5 13 0l5 5c2-1 2-3 2-4l2-6a10 10 0 0 1 1 9c-4 8 0 22 7 27a13 13 0 0 0 11 1l12-3c7-3 12-6 16-13a46 46 0 0 1 19-19h6c7 3 14 1 21 2 2 0 3-2 5-3l14-8c5-3 8-2 12 2s7 3 12 4Z" style="fill:#020105"/>
  <path d="M114 261c2 2 2 4-1 4a7 7 0 0 0-5 3c-4 6-11 9-17 12-5 3-9 3-14-1s-9-4-13-7-5-7-2-13l8-13a44 44 0 0 1 11-10c4-3 9-2 13 0s9 2 11 7h1l1-1 1 1c-1 6 4 11 5 18h1Z" style="fill:#1a0265"/>
  <path d="M150 209c-7 1-9 5-10 10a16 16 0 0 1-6 9c-3 2-8 0-11-2-8-3-13-10-16-18a8 8 0 0 0-5-5c-9-3-16-9-22-15-3-3-5-9-4-12s4-11 11-11a7 7 0 0 0 6-4c1-2 1-5 5-3 1 1 1-1 2-3a15 15 0 0 1 5-8c2-2 2-3 1-6-2-4-5-5-9-2-6 5-13 4-20 4-2 0-2-1-2-3 2-7 1-14 5-20v-6c-2-10 5-16 11-21 3-3 8-4 12-6a6 6 0 0 1 3-1c2 1 4 2 6 0s5-6 6-9-3-6-4-8a21 21 0 0 0-3-3c7-4 14-5 21-2 2 1 4 3 2 3s-4 4-4 7c0 6-4 10-4 16s-2 10 4 14c-7 3-12 9-19 11-3 1-3 5-5 8 4 0 6 0 8-2 13-9 26-6 38 1 10 5 10 6 6 16l-8 22c-3 8-8 9-11 15-1 2-3 0-4 0-3-3-4-1-5 1a10 10 0 0 1-7 8c-2 0-2 1-2 3 1 4 4 8 4 12 0 2 8 5 9 4 4-3 6-2 9 1l7 5Z" style="fill:#010105"/>
  <path d="M394 905c4-1 6-5 8-3s0 5 0 7a30 30 0 0 1 0 6c-3-1 0-4-3-5-1 4 1 10-7 10 2 3 5 1 7 3-3 2-4 8-10 3-1-1-2-1-2 1l-2 4c-3-3-3-8-7-10v-3c1-4 6-6 5-10 0-2 2-2 3-2 4 0 6-2 7-6s2-4 5-5 9-1 12-3c5-4 10-4 16-3-5-2-4-5-4-8 2-7 0-13-4-18s-1-10-1-15a3 3 0 0 1 3-2h1c9 5 21 4 29 12 2 3 4 4 3 8-2 6 2 10 9 11 2 0 3-2 4-3s3-2 4 1c4 6 4 8-2 12-3 1-3 5-6 7s-4-3-7-1a17 17 0 0 1-19-2c-1-1-2 0-3 1-4 2-7 3-11 2s-6 2-8 3-3 2-4 1c-8-4-11 2-16 7Z" style="fill:#030104"/>
  <path d="M121 444c1-11 2-21-1-31-2-4 2-8 3-12 0-2 1-1 2-1l5 2c6 5 12 3 18 2 4-1 5-1 6 3a39 39 0 0 0 3 5c0 1 1 2-2 2s-2 2-2 3c-3 6-5 11-9 16s-7 5-8 11c-2-3-3-6-8-5-1 1-1-4-2-6-2 1-1 2-1 3l-1 24c0 2 0 5-2 6s-2 5-2 8-1 7-4 9l-1 1c-2 11-13 10-20 13a6 6 0 0 1-2 0c-5 1-12-2-12-5-1-7 4-13 10-13s8-3 7-8l-1-7c-4-5-2-11-1-17s7-11 12-12c3 0 5 0 6 2l7 7Z" style="fill:#020104"/>
  <path d="M226 64c2-4 8-4 9-1 1 5 7 5 8 10l5-10c1-3 4-7 8-8s4-3 4-6a54 54 0 0 0 0-6c-1-6-1-6-7-5s-12 3-18 7l-10 3c-3 0-9-3-12-6-5-5-11-5-16-2a9 9 0 0 0-3 2l-8 13c-4 8-3 13 4 19l8 6a25 25 0 0 1 9 10c1 2 3 4 5 4s5-3 5-5c2-11 9-21 6-33 4 3 2 5 3 8l-1 8c0 2 1 4-2 6s-2 4-3 6-1 7-3 10-9 4-11-1-9-10-14-15c-15-13-14-14-4-32 3-6 9-10 16-11 4 0 6 0 8 3s6 4 9 7 5 2 6-2 3-4 5-1 2 1 4 0c7-6 16-5 24-8l1 2 1 6c2 8 0 13-8 17-4 2-6 8-7 13l-3 8-6-12-1 7c-4-4-1-11-8-12v17c-2-5-2-11-3-16Z" style="fill:#020105"/>
  <path d="M515 1014c-3 7-6 13-12 17a19 19 0 0 0-5 5 11 11 0 0 1-9 5 18 18 0 0 0-9 4c-4 3-8 4-13 4-3 0-4-1-3-4 1-12-3-24 0-37 1-1 0-2-1-2-5-1-7-4-8-8s-4-3-6-1-8 3-12-1-8-2-11-5c6-2 9-7 14-9h8l14 4h3c1-1 3-3 4-1s5 3 3 6l-2 6c-2 5 1 11 7 12 4 5 11 5 15 10 2 3 4 4 7 2l7-4Z" style="fill:#020104"/>
  <path d="M55 643c-2-6-2-10 3-14 1-1 2-4 1-6-2-7-1-15-4-21 1-1 1 1 2 1l2-5v12c3-2 2-5 3-7l2 10c0 6 2 11 9 12a5 5 0 0 1 5 5 8 8 0 0 1-4 7c-5 3-8 8-15 10-5 2-5 12 0 16s6 4 3 11c-1 3-1 7-5 9-6 3-14 3-22-2l6 1a72 72 0 0 1-16-49c4 6 8 5 14 4l10 3 6 3Z" style="fill:#020203"/>
  <path d="M1587 168v8c-2 0-1-3-4-3l-2 9c-2 9-6 16-14 22a8 8 0 0 0-3 5c-1 6-4 12-6 17-1 3-4 4-6 6s-6 3-7 6a6 6 0 0 1-8 3c-3-1-4-4-3-8 0-6 3-11 8-15s6-9 8-14 4-6 7-8a13 13 0 0 0 6-5c3-6 10-7 13-13h4l-5-18c-3-9-1-14 9-17l15-7c3-1 3-6 8-6l2 11a2 2 0 0 1-1 3c-3 2-3 4-3 7 1 5-2 8-7 9s-4 2-4 4-1 6-4 9l-2-5c2-6 4-11 11-13a3 3 0 0 0 2-2l4-17c-6 5-12 7-18 9a36 36 0 0 0-6 3c-3 3-5 5-3 9l2 5c1 2 0 4 2 6s3-2 5-1v1Z" style="fill:#020105"/>
  <path d="M176 749c2-5 1-6-2-5l-2 2-2 1c-1-5 1-9 3-14l4 4 2-3a5 5 0 0 1 7-1c6 4 14 2 21 3 2 1 4-6 2-8a21 21 0 0 1-4-8l-2-2c-7-1-5-9-8-14-1-1 4-4 7-3s7 3 9 7c4 7 9 13 7 22-1 2 1 2 2 3 7 2 13 7 21 5a1 1 0 0 1 1 1 7 7 0 0 1-1 5h-2a29 29 0 0 0-7-4l4 6c-5 1-9 2-14-1-2-1-4-2-6 2s-3 2-5 0c-5-4-10-2-15 1l-4 2c-3 3-6 4-9 0-2-3-4-3-7-1Z" style="fill:#020203"/>
  <path d="m1355 569-2-2c3-7 9-11 16-14l10-5c3-1 8 1 9 5 2 7-1 12-7 16l-13 10c-5 3-11 0-13-3s-2-5 0-7Z" style="fill:#290063"/>
  <path d="M395 994c6 0 12 0 17-5-2 7 5 9 8 13 2-3 1-6 2-10a41 41 0 0 1 0 22c-1 6-1 13 1 19 0 2 0 3-2 4h-4c-11-1-19 5-28 9-3 1-5 4-8 1s-7-7-5-13a11 11 0 0 1 0-2c2-2 1-4-1-4h-2c-2-1-5 0-6-2s2-4 4-6l4-3 5-2c0-1 2-7 1-11-1-7-1-8 7-8l5-1h-20c-3 0-4-1-2-4l3-7c4 2 4 7 10 7l12-1c1 1-2 2-1 4Z" style="fill:#030204"/>
  <path d="M1587 168s0-1 0 0-2 5-5 4-2-4-3-6l-2-7c-3-8-1-11 8-14a90 90 0 0 0 12-6c3-1 6-2 8-6 2 3 2 7 1 9a15 15 0 0 0-3 9c0 4-2 6-5 6a7 7 0 0 0-6 7c-1 3-1 3-4 4Z" style="fill:#2b0165"/>
  <path d="M1622 855c2-13 3-18 16-22 7-1 13-4 19-6a17 17 0 0 0 12-12c0-3 5-2 3-6 3 5-1 10 2 14 4-1 7 1 11 3s4 6 8 3l2 2a6 6 0 0 0 4 2c6 0 6 1 4 7-1 2 0 6-4 8s-7-1-8-7c-2 2-5 3-9 0s-4 1-6 2c-9 4-19 3-28 1h-7c-7 3-14 4-19 11Z" style="fill:#020203"/>
  <path d="M1390 996c7 7 15 12 23 17s6 12 11 16c2 1 1 2 1 3l-5 9c-2 3-7 5-12 3-2-2-4-2-4 2s-2 3-4 3-4 0-4 2a43 43 0 0 1-1 8c-2 0-2-7-7-2l-1-1c0-1-1-2-3-2s-4 1-5-3-1-6 3-8 7-5 12-4 6-1 6-5a2 2 0 0 1 1-2c6-4 7-9 3-15l-3-3c0-7-5-7-10-7-3 0-4-1-2-4l1-7Z" style="fill:#030203"/>
  <path d="M356 174c-1-9 4-14 10-18a30 30 0 0 0 11-11c2-4 5-8 10-10 3-1 5-4 6-8 4-12 13-18 22-25l12-7c3-1 3-1 3 2v9a10 10 0 0 1-3 9c-5 5-8 13-13 19-8 11-19 19-31 25a45 45 0 0 0-11 8 20 20 0 0 1-16 7Z" style="fill:#020105"/>
  <path d="M1343 629c3 2 8 3 10 7 1 2 1 3-1 4" style="fill:#240061"/>
  <path d="M502 170c1 3 1 6 4 8s4 12 1 16c-8 9-18 15-29 19-6 1-7-3-9-7s0-6 3-7c9-4 13-12 20-18l1-4v-9c0-7 5-10 12-7 2 1 2 0 3-2l1-4a3 3 0 0 1 3-2c2 0 2 2 2 3l1 8 1-10h1a92 92 0 0 1 0 17c0 1-1 2-3 2l-2-1c-4 5-7 3-10-2ZM261 936v6c2 7 2 13-5 16-3 2-3 4-2 7 0 4 2 8-1 12-5 6-3 9 3 16 1 0 2 1 2 3s-2 1-3 1a81 81 0 0 1-23 4l-5 1c-4 5-6 0-8-3a20 20 0 0 1-3-2c-7-10-4-21 8-26a19 19 0 0 0 10-7 17 17 0 0 1 4-5c2-1 2-3 1-6-2-7 2-12 9-13l7-1c2 0 4 0 6-3Z" style="fill:#030105"/>
  <path d="M1641 231c8 1 11 8 16 14v4c-3 9-11 13-18 17s-12 9-20 9l-4 4c-1 1-2 7-5 8s-7 0-11 3c-1 1-4-3-6-5s2-1 2-2l17-23v-7c0-2-2-4 1-5s4-4 6 0l3 1c3-3 9-3 12-8s7-5 7-10Z" style="fill:#020104"/>
  <path d="M1631 593c1 2 0 4 2 5 2-3-2-6 0-9 2 4 1 8 2 11s-1 6 1 8a27 27 0 0 0 11 4l14 3c-4-1-5 2-5 5-2 5-4 9-9 11s-5 6-7 9-2 4-4 1c-3-5-10-6-14-10a2 2 0 0 0-3 0c-5 4-12 4-18 6-3 0-5 4-9 2s-3-6-5-8c-5-5-4-11 0-16s4-8 8-11 7-3 11-5c8-2 17-1 25-6Z" style="fill:#030104"/>
  <path d="M1857 126c-10 3-15 9-15 19 0 6-1 12-8 15l-1 2c0 1-2 4-5 3s-4-3-4-7a10 10 0 0 0 0-2c-4 0-3 0-3-4 0-6 3-13-3-19-2-3 1-4 3-5 3-3 2-4-2-5s-6-2-8-6a12 12 0 0 0 6-6c2-2 4-4 4-9l15 8-15 1a2 2 0 0 1 0 1l19 4c6 1 13 5 17 10Z" style="fill:#020103"/>
  <path d="M288 839c-2 5 1 9-3 13-7 7-14 16-24 17-4 1-2-4-5-5l-2 6-1 2c-5-2-6 2-7 5s-3 4-4 4c-8 1-13 7-20 8l-2-1c0-1-1-4 1-5l7-4c5-2 9-7 12-12 1-2 2-3 5-2s3 1 4 0a49 49 0 0 1 13-7c3-1 5-4 6-6 3-10 12-10 20-13Z" style="fill:#030204"/>
  <path d="m141 773-5-7c-1 5-1 9-3 13s-3 6-6 6c-2 0-2 1-2 2-2 7-7 7-13 8-2 0-3-1-4-3s1-3 2-4c7-5 8-13 7-22v-2c-3-1-3-2-1-5s2-8 8-6c2 1 3-2 5-2a36 36 0 0 0 13-4 19 19 0 0 1 13-3c3 1 7 1 9-4v15l-2-6-4 5c-2 4-4 8-9 10-4 1-6 4-8 9Z" style="fill:#020203"/>
  <path d="M309 991h-7c-6 0-10 3-13 7a43 43 0 0 1-21 17l-2 2s-2 4-4 3-5-4-5-7c1-9 3-19 11-25l15-12h3l4-1c2-5 6-1 9-1l7 2c6 1 10 4 13 9s0 5-3 5l-18-3c7-2 12 1 18-1-1-4-5-6-9-7l-11-3c-3-2-4 2-6 2-5-1-9 2-11 6a7 7 0 0 1-3 3c-12 4-14 14-16 25a4 4 0 0 0 2 4c1 1 2-1 3-2 12-3 19-13 26-22a7 7 0 0 1 4-2h14Z" style="fill:#030104"/>
  <path d="M1810 982a18 18 0 0 1-15 3h-20l-6-1c0-2 1-1 2-1 5-1 9-2 7-9a4 4 0 0 1 1-2c5-3 3-7 1-10l-8-13v-8c1-2 4-1 6-1 7 1 13 3 20 3s10-1 15 2h2c7 4 9 8 4 15-3 3-4 7-9 9-4 1-4 6-5 10 0 2 4 1 5 3Z" style="fill:#020303"/>
  <path d="M283 236h-1c-5-3-5-3-6 3s-5 12-9 18-9 4-13 5c-2 1-2-1-3-3 0-6 0-12 6-17s11-12 19-14c2-1 5-3 6 0s3 5 1 8Z" style="fill:#a195a4"/>
  <path d="M1353 939c6 8 16 6 24 9 2 2 4 2 3 5a8 8 0 0 0 0 1c1 8-4 12-10 15-4 3-9 2-13 2-2-1-1-2-1-4-2-4-3-9-6-12" style="fill:#030204"/>
  <path d="M160 932c6 1 10-3 15-6 8-4 14-10 23-13 2-7 7-3 10-3l9 3c3 1 5 2 5 6s-1 5-5 5a102 102 0 0 1-12 1c-4 0-6 1-5 5a6 6 0 0 1-3 5c-2 2-6 4-2 8l-1 3-3 3c-4 6-9 7-15 3h-1c-2-2-6-2-7-4s2-5 3-8-2-6-6-6l-5-1Z" style="fill:#020104"/>
  <path d="M1507 604c-3-2-6 0-8-2 6-3 13-5 18-10l7-1a8 8 0 0 0 5-2c4-3 8-5 9 3a2 2 0 0 0 2 1c7 2 2 5 0 8-4 7-12 9-17 15-2 2-5 2-7 1s-6-2-5 3h-2c-3-2-6-1-9 0l-4 2c-8 3-8 3-12-4l-4-5a24 24 0 0 1 12-6l15-3Z" style="fill:#030204"/>
  <path d="M826 245c-3 0-3-2-3-4l-1-9c0-3 2-5-2-5v-19h-2v20l-2-8v-8a9 9 0 0 1 5-8c6-2 7-2 8 5" style="fill:#050207"/>
  <path d="M665 903c-9 6-9 6-16-2l-3 3-2 1c-3-4-8 0-12-3-1-1-2 0-3 1a10 10 0 0 1-12 1c-6-3-9-8-8-13l3-3c1-1 4-2 5-5s1-4 5-2 7-2 8-5 4-4 8-4c13 3 14 2 14 16 1 8 4 13 13 14" style="fill:#030304"/>
  <path d="M1421 860c-3 4-3 6 2 6a5 5 0 0 1 5 2c1 1 1 2 3 2 7-2 9 5 12 8s-2 6-2 9-1 6-6 4-2 2-2 3c1 5 0 8-5 10s-8 4-13 1-9-4-12-8-8-6-12-7a11 11 0 0 1-7-14 21 21 0 0 1 1-3c3-5 7-8 14-9l22-4Z" style="fill:#020104"/>
  <path d="M160 848v-17c4 4 6 1 8-2a15 15 0 0 1 11-9c6-1 13-6 20-9 3-1 1-3 0-4s-1-3 1-4c4-1 7-6 12-2 1 1 2 0 2-1a19 19 0 0 1 2-5c0 8-2 16-8 19s-7 8-10 12-10 8-16 8c-10 1-18 4-22 14Z" style="fill:#020203"/>
  <path d="M242 794c3 3 5 6 8 7 1 1 3 2 4 1 5-3 4 1 5 4 3 12-5 22-5 33 0 1 0 2-2 2-3 1-5 4-4 8a2 2 0 0 1-2 2c-6 2-11 4-17 4a6 6 0 0 1-5-4c-1-3 2-3 3-4l6-4a8 8 0 0 1 6-3c3 0 6-1 7-6 1-8-3-15-6-22v-7c1-2 3-6 2-11Z" style="fill:#020103"/>
  <path d="M1763 275c-2 0-1-2-3-2 1 5-1 9-5 13a22 22 0 0 0-6 9c-2 4-2 4-8 7l1 2c7 5 6 13 0 17s-6 4-7-2c-3-8-6-16-5-25 1-2 1-4 4-4 9-1 10-3 12-11l1-4c2-4 5-6 9-6l1-5c2 1 0 4 3 5s0-3 1-4l2 10Z" style="fill:#030204"/>
  <path d="M311 672c1 4 0 6-3 6s-4 0-5 2-3 5-7 5c-2 0-2 2-3 3a49 49 0 0 1-14 18c-2 2-3 2-6 1a48 48 0 0 0-7-4c-6-3-9-9-8-15a4 4 0 0 1 1-2 143 143 0 0 0 21-24c1-2 2-1 2 0l12 3 15 2c5 1 2 4 2 5Z" style="fill:#020104"/>
  <path d="M1611 677c-8 0-12 5-15 11-2 5-7 7-11 9-2 1-4 1-3 4l-1 2c-4-2-9 2-14-1-2-2-3-3-1-6 4-5 2-10 3-16 0-2-3-4-4-6s-2-2 0-5c3-6 6-8 13-7a5 5 0 0 0 3-1c3-2 5-1 7 2 3 5 8 6 13 7s8 1 10 7Z" style="fill:#030104"/>
  <path d="m1716 174 2 5h1l-1-11-3-1-9-4c-3-1-3-2-3-4s3-1 4-1c4 1 8 1 10 5 2 2 4 0 5 0 6-2 7-1 7 5 0 3 0 5 3 7 2 1 2 5 3 6s-1 4-2 5a28 28 0 0 1-4 6c-2 4-4 6-9 6l-7 4c-5 2-7 1-8-4s-1-11 5-14a14 14 0 0 0 6-10Z" style="fill:#030105"/>
  <path d="M155 895c-2 4-1 9-3 13v-6c0-2 0-3-2-3s-1-1-1-2c0-3 2-7-3-9l-1-7a23 23 0 0 1 0-7c1-4 1-8-2-11s-2-3 2-3 6 2 9 3 6 4 9-1c1 7 5 7 10 8a119 119 0 0 1 12 2c5 1 5 3 2 6l-11 13c-3 5-17 7-21 4Z" style="fill:#030304"/>
  <path d="m1630 478 1 13c0 2 0 3-2 4a15 15 0 0 0-7 7c-2 4-6 4-9 4l-13 2c-2 0-2 1-2 2v4c0 8-2 10-10 12-2 0-5-1-5-5v-13a5 5 0 0 1 2-4c10-8 21-13 32-20a6 6 0 0 1 2 0c6 1 9-2 11-6Z" style="fill:#030104"/>
  <path d="M133 285h-4c-2 0-3-1-2-3a4 4 0 0 0-1-4c-6-7-3-14 2-20a42 42 0 0 0 8-15c1-4 4-7 9-8l9-2c4-1 9 3 8 7l-1 9c0 3-2 3-3 4-7 3-11 9-11 18s-5 14-14 14Z" style="fill:#030105"/>
  <path d="M1554 922c-3 1-7 2-10 1a11 11 0 0 0-5 0c-2 0-5 1-6-1-5-4-10-3-16-2-3 0-7-1-9-3s-5-3-8-3a4 4 0 0 1-4-3c-2-6-2-6 4-8s10-2 15-1a7 7 0 0 0 7-3 55 55 0 0 1 5-4c1-1 2-1 4 1s2 6 7 4l1 2a47 47 0 0 0 2 5c3 5 4 11 11 12a3 3 0 0 1 2 3Z" style="fill:#020104"/>
  <path d="M1834 750c-9-1-14-5-16-13l-5-6-2-3c1-4 0-5-3-3s-3 0-3-1a17 17 0 0 0-7-8c-3-2-4-4-2-8l3-6 9 11c2 4 6 1 9-1s3-2 4 0 7 6 5 8c-5 3-3 7-5 11s-1 6 4 6a4 4 0 0 1 4 2Z" style="fill:#020203"/>
  <path d="M224 371c0 3-2 5-4 7s-2 3-1 5c6 5 5 12 7 18l1 5c1 5 0 6-6 7l-2-2c-2-7-6-12-12-16s-8-8-12-12c-1-1-2-2-1-3 3-8 5-17 13-22l1-1a72 72 0 0 0 14 5l2 9Z" style="fill:#020104"/>
  <path d="M1773 697c-4 3 2 9-5 10 0 2 3 2 2 3a7 7 0 0 1-7 3c-3-1-4 1-6 4-5 5-9 11-16 14-3 1-4 2-6 0s-4 0-5 1-3 0-4-2 1-8 5-9a6 6 0 0 0 3-3c4-6 10-10 17-12a12 12 0 0 0 4-3c2-2 5-5 8-2s5 2 6-2c1-1 1-2 4-2Z" style="fill:#030204"/>
  <path d="m231 495 3 6c7-9 15-17 15-30 7 6 14 11 14 20s-7 15-11 22c2 2 4 1 6 2-4 6-6 6-11 3-10-4-15-12-16-23Z" style="fill:#020204"/>
  <path d="M1825 197h-1v3a6 6 0 0 1-6 5 5 5 0 0 1-2 0 10 10 0 0 1-2-2c-9-6-9-7-2-15 3-4 8-4 13 0s13 7 19 10a9 9 0 0 1 3 2 4 4 0 0 1 2 4c-1 2-3 2-5 1-3-1-7-2-10-5s-6-1-9-3Z" style="fill:#34553a"/>
  <path d="M1697 266c-6 0-9-5-11-9a12 12 0 0 1 1-13c7-8 14-15 23-20 5-2 8-1 12 0 6 0 5 2 3 6-3 8-5 17-11 24-4 4-7 8-12 11a6 6 0 0 1-5 1Z" style="fill:#030104"/>
  <path d="m106 243-1 3c-3-7-9-9-16-10-9-2-13 5-18 10s-6 11-10 16c-2 3 1 6 3 8 5 5 11 7 17 10 2 2 6 1 8 0 6-3 12-6 16-10 2-3 4-5 8-6 2 0 1-2 1-3s0-6 2-9v18c-3-6-5-3-8 0-5 5-11 9-18 12-4 2-8 2-12-1l-14-8c-4-3-6-8-3-14a78 78 0 0 1 14-21c6-5 12-5 19-3l10 4c2 0 1 3 2 4Z" style="fill:#020106"/>
  <path d="m487 989-7-1c-2 0-4-2-4-5s1-3 4-3 3-3 4-4 2-5 6-3a2 2 0 0 0 3 0c9-8 20-12 32-14l2 1c0 1 0 4-2 5l-17 9a28 28 0 0 0-9 7c-3 4-6 9-12 8Z" style="fill:#040205"/>
  <path d="M1433 446c0 3-2 6-4 10-1 2-4 2-4 0-2-4-5-3-8-4l-4-1c-3-2-5-3-7 1-2 3-4 2-6 2s-2-2-3-4c0-6 2-11 8-13 2-1 2-2 2-4a45 45 0 0 1-2-8c0-1 0-2 2-3a3 3 0 0 1 3 1c2 2 4 4 6 1h4c4 2 14 16 13 22Z" style="fill:#040105"/>
  <path d="m402 174 1-3 11-12c1-1 2-3 4-2s2 2 2 4v8c1 3 0 3-1 3-6 0-9 6-15 5-2-1-2 1-3 2l-2 10-2 3c-5-1-6 2-6 5l-1 1c-5 1-8-1-11-4s-4-5-1-8a82 82 0 0 1 17-13c3-1 5 0 7 2l10-4c3-1 6-5 4-9l-6 8c-2 2-5 4-8 4Z" style="fill:#040205"/>
  <path d="M584 951c5-2 6-5 7-9s5-5 8-6c7-3 18-2 23 4a80 80 0 0 1 8 12c2 3-3 12-6 14-5 3-11 3-16 4l-4-2a57 57 0 0 1-3-5c-4-6-7-13-17-12ZM1825 197c0-2 1-2 2-1l17 8c1 0 3 2 4 0a3 3 0 0 0-2-4c-10-3-18-9-27-13-3-1-12 5-11 9l2 3 6 4c2 2 3 2 5 1s3-2 2-5c0-1-2-3 1-2 3 5 1 7-3 10h-5l-7-6c-2-2-4-3-7-2l11-14c0-1 1-2 3-2 3 2 8 2 11 5a45 45 0 0 0 14 7c6 2 11 5 9 13-5-1-11-2-16-6-2-1-2-3-5-2s-2-2-4-3Z" style="fill:#020203"/>
  <path d="m1810 291 5 11a4 4 0 0 1-1 4l-11 15c-4-4-4-4-7 4-2-3 0-6-1-9-2 0-2 2-3 3-3 5-5 6-11 4s-7-5-3-10 7-6 8-11c1-3 3-2 4-1s3 0 5-1 5-4 8-1c1 1 2 0 3-1s4-4 4-7Z" style="fill:#010204"/>
  <path d="M1795 428c1-8 0-16 4-23l2-3c2-9 10-12 16-17h3a25 25 0 0 0 5 2c3 1 5 3 4 6s1 6-3 9-7 7-10 11a5 5 0 0 1-4 3 13 13 0 0 0-8 4c-1 1-1 2-2 1-6-1-5 4-7 7Z" style="fill:#030104"/>
  <path d="M850 108V98a3 3 0 0 1 2-2 2 2 0 0 1 2 1c0 3 2 4 4 5 4 2 5 5 5 10s1 5 4 3 6-1 8 1a15 15 0 0 0 2 3c1 1 3 2 3 4s-3 3-5 3c-4 1-8 3-13 2s-6-4-9-7-3-9-3-13Z" style="fill:#050207"/>
  <path d="M620 628c3-5 0-11 1-17 4 6 2 18-4 23l-1 1c-2 7-7 3-11 2-2 0-3-2-3-4-1-7 0-15 1-22l4-7c2-3 4-1 4 2a22 22 0 0 1 1 5c2 0 1-2 2-2a5 5 0 0 1 4-1l1 3-1 17Z" style="fill:#040106"/>
  <path d="M202 262c-2-6 3-12 6-18l3-1c5-2 11-1 16-3s9 2 12 8-2 6-4 8l-8 8c-6 5-13 7-20 8-4 1-6-1-5-5a25 25 0 0 0 0-5Z" style="fill:#030104"/>
  <path d="M1491 1011a19 19 0 0 1-18-13c-1-4 4-9 7-9s7 3 10-2c1-1 2 0 3 1 3 2 6 2 9 1a18 18 0 0 1 4-1c7 0 9 2 8 8-2 10-2 10-13 12l-10 3Z" style="fill:#030204"/>
  <path d="m315 620 2 2 8 7c4 4 9 6 15 6 4 0 8-1 11 3s1 13-3 16-8 3-12 0c-7-5-15-10-21-16-4-3-5-13-2-17a2 2 0 0 1 2-1Z" style="fill:#030106"/>
  <path d="M89 519c4 3 8 5 13 2h3c2 4 5 7 5 12l-1 16c-1 8-8 11-16 8-6-3-8-8-9-15s4-14 5-23Z" style="fill:#020203"/>
  <path d="M507 538h-2c-5-3-10-4-14 1-2 2-5 1-6-3-3-8 1-15 11-15 3 0 6-2 7-5s8-5 10-10h3c1 4 5 5 4 10s-6 12-7 19c-1 2-3 3-6 3Z" style="fill:#040105"/>
  <path d="M1764 835c0 2 4 1 2 3s-5 5-9 5c-11-3-15-6-18-18a8 8 0 0 1 3-8l10-9c2-2 10 1 11 3a21 21 0 0 0 3 4c2 2 6 3 6 6s-3 8-4 12l-4 2Z" style="fill:#020203"/>
  <path d="M484 632c3 1 6-1 9-4s5-2 6 2 2 3 4 2c4-4 6-2 8 2s2 6-2 7a27 27 0 0 0-9 5c-9 6-19 7-29 9-2 0-3 0-4-2s-1-5 0-6a67 67 0 0 0 11-14c1-2 4-1 6-1Z" style="fill:#040206"/>
  <path d="m1420 963 3 12 13-4c7-4 14-2 20 0 3 1 2 6 3 9s-2 3-3 4c-6 2-12 5-19-1-2-2-7-1-10 1s-3 1-4-1c-5-6-3-13-3-20ZM606 761c-3-3-7-2-7-5s4-5 6-3 2 3 4 4v-9a2 2 0 0 1 2 2c-1 9 3 16 8 22 2 3 3 5-1 7l-1 1s-1 5-4 5-4-3-6-5a34 34 0 0 0-9-7 5 5 0 0 1-3-3c-1-7-1-8 6-9h5Z" style="fill:#020203"/>
  <path d="m406 526-1 12a3 3 0 0 1-2 2 2 2 0 0 1-3-1c-2-4-5-4-8-1s-7 5-10 0-4-7-4-12c-1-2 0-3 2-4 4-2 8-6 13-5 2 0 2-2 3-2s4-2 5 0c2 4 6 7 5 11Z" style="fill:#040105"/>
  <path d="M1637 471c-2-5-3-10-1-15a22 22 0 0 0 1-10c0-5 3-7 7-8 5-1 10-2 12-9 0 6 1 11-1 15-2 3 1 6 2 9 1 7-1 10-7 13-4 2-9 2-13 5Z" style="fill:#030205"/>
  <path d="M469 277v8c0 2-2 5-5 3s-3-1-4 0-6 3-9 0-4-1-7-1c-5 0-10-7-9-13l4-3c8-3 16-5 23-10 3-1 6 0 7 4v12Z" style="fill:#070309"/>
  <path d="m129 298 4 17c1 5-2 8-5 11l-7 7c-2 3-4 4-7 2-7-5-11-15-8-22 1-4 5-3 7-4s6 1 3-3c0-2 2-2 3-2 4-1 7-2 10-6Z" style="fill:#030104"/>
  <path d="M344 382c0-3-1-8 1-10 3-5 8-9 12-13h1c4 3 9 3 13 5s5 4 4 7l-1 12c-1 4-6 7-11 4s-9-4-14 0c-4 2-6 0-5-5Z" style="fill:#030105"/>
  <path d="M283 236c-1-9-1-10-10-6s-15 11-20 19c-2 3 0 8 0 12h2c10-1 15-9 18-17l2-7c1-2 0-4 3-5s3 3 5 4h-2c-3-3-4 0-4 2-1 7-5 13-8 18s-10 6-15 7a3 3 0 0 1-3-2c-2-4 0-14 2-16 8-8 14-17 25-19 2 0 2-1 3-3s1 1 1 1a9 9 0 0 1 4 9c-1 1 0 3-3 3Z" style="fill:#050306"/>
  <path d="m1259 355-1 8v2c-6 1-9 8-15 8h-4l-1-1a3 3 0 0 1-5 2 9 9 0 0 1-4-6 4 4 0 0 1 3-5c4 0 6-1 8-5s4-2 6 0 5 2 6-2l1-2c0-1 2-4 4-3s2 3 2 4Z" style="fill:#040105"/>
  <path d="M1092 47a8 8 0 0 1-6-8V24c0-2 0-4 2-4s3 1 3 3 2 2 4 3c6 1 8 4 7 10 0 4 1 8-1 12l-1-18c-2 6-1 12-2 18-2-2-1-4-2-5V31c-1-3-1-1-1-1h1c-1 2 1 5-1 7s-1 5 0 7 0 4-3 3V29a86 86 0 0 1 0 18Z" style="fill:#050107"/>
  <path d="M309 1023c2-5 1-11 6-14 1-1 1-4 4-2s1 0 1-1l3-6c1-3 2-5 4-2s3 1 3-1c1-5 3-6 7-3v1c8 4 8 10 0 14s-14 10-23 11c-2 0-2 3-5 3Z" style="fill:#020104"/>
  <path d="M296 922c-3-2-6-3-9-2s-7 1-10-2l-10-6c-3-2-5-5-4-8s5-8 10-9l3 1a7 7 0 0 0 5 2c6-1 11 2 13 8s3 10 2 16Z" style="fill:#030204"/>
  <path d="M1454 872c6 3 12 3 19 2 4-1 8 5 7 10 0 2-3 5 2 6 4 0 3 6 0 10s-4 2-7 0l-8-4-2-1c-3-8-11-13-11-23Z" style="fill:#020203"/>
  <path d="M125 382a9 9 0 0 1-9-6 17 17 0 0 0-5-6c-4-4-2-7 0-10s4-5 7-5 5 1 7 2a17 17 0 0 0 9 3c4 0 6 0 6 4s4 8 1 11-9 7-16 7ZM1590 422c1-8 6-13 11-19a1 1 0 0 1 1 0c3 2 6 1 8-2h2l6 4a2 2 0 0 1 1 3c-3 4-2 8-3 13 0 1 0 3-2 3-4-1-6 2-8 4s-6 5-9 3-5-6-7-9Z" style="fill:#030104"/>
  <path d="M1891 649c0 7-1 8-7 9s-9 2-13-2l-12-12c-1-1 5-12 6-12a3 3 0 0 1 3 1c5 5 12 6 18 9s5 2 5 7Z" style="fill:#030204"/>
  <path d="m1793 604 12 8 17 5c3 0 6 1 7 6s-3 6-4 9h-2c-6-2-12-3-15-9-1-2-3-5-7-4l-2-2c-2-4-5-8-6-13Z" style="fill:#020303"/>
  <path d="m594 439 1-5c1 3 1 4 4 5s6 4 8 7a4 4 0 0 1-1 5l-1 1c-2 1-2 2-1 4v16c0 1-1 3-3 3s-2-2-2-4l-1-12c0-3 0-4-2-3s-6-1-5-5v-13c0-1-1-4 2-3l1 14c0 1 0 3 2 3a11 11 0 0 0 6-3c2-1 0-2-1-3a9 9 0 0 0-2-3l-1 6c0 2-1 2-2 2l-2-2v-10Z" style="fill:#040106"/>
  <path d="m137 596-8-2a16 16 0 0 1-11-14c0-3 1-6 4-8s8 0 10 3c3 5 8 7 14 8s3 8 2 11-1 7-6 6l-12-2 7-2Z" style="fill:#020103"/>
  <path d="M1332 369c-2 3 0 7-1 11v8c-2-3-7-3-7-7l-1 1c-2 2-3 6-7 5s-4-5-5-8c-3-9 6-13 8-20 0-2 3-2 4-1 2 4 8 5 9 11Z" style="fill:#040106"/>
  <path d="m1645 875 1 14c1 3-1 6-3 6-5-1-5 3-5 5-1 5-4 6-9 6s-9-1-11-7c-1-2 0-4 2-5 7-8 14-16 25-19Z" style="fill:#020203"/>
  <path d="M1663 436c-2 0-4-5-3-7s5-5 0-7c-2-1 3-13 5-14s7-1 9-3h1l6 5c2 2 0 4-2 5s-3 8-8 8c-3 0-1 3-1 4 1 6-2 10-7 9Z" style="fill:#020204"/>
  <path d="M123 889c-2 10-5 18-15 20-4 1-7 5-11 1s-7-5-5-11l3-7c1-2 2-3 4-3s5 0 4-3c0-1 1-2 2-1 3 1 7 1 9 3s5 4 9 1Z" style="fill:#030104"/>
  <path d="M203 583c-3-11-10-19-16-27-3-4 1-6 3-7 6-1 12-5 18 1 1 1 3 1 2 3-4 9-3 20-7 30ZM159 459l1-3c0-1 0-4 3-3s1 3 0 4a74 74 0 0 0-4 9c-1 3-3 3-6 3a5 5 0 0 1-5-3c0-3-2-3-3-3-4-1-6-3-6-7s-1-9 2-14c0-1 0-2 2-2s1 2 1 3l2 6 2 2c5-4 6 2 9 4l2 4ZM472 455c-4-3-7 0-10 4a1 1 0 0 1-1 0c-2 1-5 4-7 2s0-5 2-7l6-11c2-4 4-3 7-1s3 2 5 0 7-2 11-1c1 0 3 0 3 2a3 3 0 0 1-2 4c-4 3-8 6-14 8Z" style="fill:#030105"/>
  <path d="m1281 456-8-1c-3 0-3-2-4-4v-21c0-2 3-3 4-2s5 3 6 7 3 8 6 11 3 5 2 8-4 2-6 2Z" style="fill:#070209"/>
  <path d="M1352 572c0-3 2-2 3-3 0 3-1 6 2 8s7 2 11 0l16-11c4-1 5-12 2-15s-4-4-8-1c-7 4-15 6-21 13-2 1 0 4-4 4-1 0-4 0-1-3" style="fill:#020106"/>
  <path d="M1352 564c7-6 14-12 23-15l3-1c1 0 3-4 5-2s6 3 6 8a26 26 0 0 1-2 12l-1 2c-8 2-11 9-18 11s-14 0-16-7" style="fill:#020106"/>
  <path d="M1652 342c1 7-2 12-5 16l-1 1c-3 5-6 8-12 4-3-2-5 1-8 2s-3 1-4-1c-3-8-3-9 5-12s13-7 22-6c2 0 2-2 3-4Z" style="fill:#030105"/>
  <path d="M308 741c-9 0-15-6-16-15l-1-9c0-3 1-3 3-3l19 3c3 0 5 3 5 5s4 7-2 9l-1 2c0 8 0 8-7 8Z" style="fill:#020104"/>
  <path d="M1705 82c0 6 1 11-3 16-2 3-6 2-8 5a18 18 0 0 1-9 6c-5 2-11-2-9-8 0-3 1-8 7-7 3 0 5-3 8-5l2-2c6 3 9-1 12-5Z" style="fill:#020103"/>
  <path d="M268 119c-1-5 3-7 6-10l3-2c3-7 6-4 9-1l2 1 6 5c1 2-3 4-4 7l-3 7c-1 2-9 7-11 7-3-1-8-7-9-10l1-4Z" style="fill:#030104"/>
  <path d="M255 200c0 3-2 6-5 6-6 1-10 5-15 7s-7 2-10-1-2-10 2-12c6-4 13-6 18-11 2-2 8 1 9 4a46 46 0 0 1 1 7Z" style="fill:#030106"/>
  <path d="M756 507c2 13 0 25-7 35-1 1-2 3-4 2s-7 1-8-5c-1-9 1-16 7-23a12 12 0 0 1 7-4c3 0 5-1 5-5Z" style="fill:#030107"/>
  <path d="M108 799v2c-2 6-2 6 4 8 3 2 5 7 4 11s-3 5-7 6-10-3-14-4-5-6-1-10c2-1 3-5 7-5l2-3c-1-5 2-4 5-5Z" style="fill:#030204"/>
  <path d="m1584 960-3-2c-3-6-5-13-5-21 0-2 1-2 3-1l5 2c2 4 7 5 11 6s10 7 9 11a2 2 0 0 1-2 1Z" style="fill:#040304"/>
  <path d="m285 372-2 11c-2 10-11 15-21 10s-8-5-5-15 11-10 17-14 11 2 11 8Z" style="fill:#040205"/>
  <path d="M326 824c-1-4-3-4-7-4s-7-1-9-5a11 11 0 0 0-2-4c-2-3-1-11 2-13 7-4 13-5 19 2v7l-3 17Z" style="fill:#030204"/>
  <path d="M1419 1056c-1-4 1-3 3-3 6 1 10 5 15 8s2 9-2 13-12 5-16 1c-1-1-3-2 0-4s1-1 0-2c-4-2-3-5-1-7a6 6 0 0 0 1-6Z" style="fill:#040205"/>
  <path d="M467 38c7 19-3 33-22 31 1-7 4-12 11-15 2-1 5-2 3-6-1-2 3-4 5-6l1 7c-2 1-1-2-3-2 1 7-4 9-8 11-2 1-5 3-5 6 0 1-2 2-1 3a3 3 0 0 0 5 0l12-7c4-2 3-6 2-10V38Z" style="fill:#030105"/>
  <path d="M333 926c5 1 8 5 12 8 1 2-1 3-1 3-5 9-11 10-20 7-5-2-8-4-10-9-1-2-1-3 1-4 6-3 12-4 18-5Z" style="fill:#030204"/>
  <path d="m458 111-2 14c-1 5-6 8-11 9s-7-1-10-4-2-5-1-8a54 54 0 0 1 7-13c2-3 4-5 8-4s2-1 3-3 1-4 3-3 3 2 3 4Z" style="fill:#070509"/>
  <path d="M809 25a19 19 0 0 1-2 12c-5 7-15 9-22 4s-6-10 0-14 14-6 21-9c5-2 3 4 3 7Z" style="fill:#040205"/>
  <path d="M44 289c9-1 15 6 22 9 2 1 2 2 0 3s-2 5-1 8a6 6 0 0 1-5 7 27 27 0 0 1-7 1c-3 0-6-1-6-5s-3-11-1-16c1-3-2-4-2-7Z" style="fill:#020102"/>
  <path d="M780 275c1 3 0 5-2 6l-4 4c-7 4-11 4-17-2a5 5 0 0 1 0-6 85 85 0 0 1 9-16c2-2 4-3 6-1 4 5 6 11 8 15Z" style="fill:#040105"/>
  <path d="M1603 859v1c0 4 2 10 0 12-7 3-11 10-19 9-3 0-7 0-7-3s-1-8 3-10a29 29 0 0 1 7-3c6-1 11-2 16-6Z" style="fill:#030204"/>
  <path d="M156 831c-1 5 2 11 0 17 0 3 0 6-3 8s-9 3-14 3l-3-3c-1-2-3-5 0-7 6-4 10-12 18-13 2-1 1-4 2-5Z" style="fill:#030305"/>
  <path d="M1739 899c3 3 6 3 14-2l-3 5c4-2 7-4 10-2 0 2-2 1-3 3 2 2 5 0 9 2-6 1-10 1-15-1-1-1-3-2-5 0s1 2 1 4l-12 3c-2 1-3-1-4-2s1-2 2-3c3-2 5-4 6-7Z" style="fill:#030205"/>
  <path d="m1718 33-1 1c-4 2-6 6-8 10l-1 1c-6-3-13 1-19-2-3-2-4-3-2-6 4-6 10-6 15-9s11 0 15 4Z" style="fill:#030105"/>
  <path d="m286 589-4 14c-2 5-4 5-6 7s-2 0-3-1l-5-8c-2-3-5-5-4-8s5-9 10-12c4-1 12 4 12 8Z" style="fill:#020104"/>
  <path d="M267 186c1 4 0 8-3 10s-4 2-5 0l-3-10c-1-3 0-4 2-4s5-4 8-3 1 5 1 7Z" style="fill:#240160"/>
  <path d="M1900 415c0 10-2 19-5 28-1 2-2 3-4 2-6-3-11-7-10-14 1-1 1 1 3 1-2-4 0-6 4-8a29 29 0 0 0 12-9Z" style="fill:#030304"/>
  <path d="m467 937 1 9v4c-7 3-11 10-20 10-3 0-4 0-3-3s2-7 7-8a3 3 0 0 0 2 0c-1-6 4-4 6-5s6-2 7-7Z" style="fill:#040205"/>
  <path d="M616 456c2-1 2 1 3 2l3 7c1 2 1 6-3 7s-6-1-10 0c-1 1-2 0-2-2v-16h2l2 13c1-5-2-9-2-13 1-2 3-1 3 0l4 2 2 10c0-3-3-6-2-10Z" style="fill:#040105"/>
  <path d="M276 487v-11c0-4 2-4 5-2 5 2 12 14 12 20-1 3-10 12-13 13s-3-1-3-3c-1-6-2-12-1-17Z" style="fill:#050307"/>
  <path d="M244 634c-7-1-13-1-17-9l-6-6c-2-2-3-2-1-5s2-3 5-1c12 4 16 8 19 21Z" style="fill:#020204"/>
  <path d="M177 672c5 2 11 1 16 6s2 7 0 10-5 5-9 2l-11-5c-4-2-4-4-3-7s3-6 7-6Z" style="fill:#030204"/>
  <path d="M72 201c-6 4-8 11-15 13s-8 1-10-4-2-8-1-13l4-2c7 3 15 4 22 6Z" style="fill:#030104"/>
  <path d="m1510 735-11-5c-2 0 0-2 0-3 4-5 9-7 15-8s9 0 11 5c1 1 2 3 0 3-5 1-8 4-11 7a5 5 0 0 1-4 1Z" style="fill:#030304"/>
  <path d="m389 739 1-6c0-4 2-6 7-8s6 1 9 3l1 1c1 2 5 0 4 3s-1 10-5 13-7 0-9-3-4-5-8-3Z" style="fill:#030205"/>
  <path d="m529 866 10 9c-5-1-7 2-10 5s-15 4-19 2c-1-1 0-2 1-3 3-5 8-7 14-7s6 0 4-6Z" style="fill:#030204"/>
  <path d="M1325 332a16 16 0 0 1-5-1c-5-2-5-3-2-8s9-7 15-9c3-1 5 0 6 4a11 11 0 0 0 2 7c2 3 2 5-2 6l-14 1Z" style="fill:#040105"/>
  <path d="M1478 158c-2 0-4 0-5-3-1-7-3-15 1-22 2-5 3-5 7-2a8 8 0 0 0 3 2c8 3 9 9 4 16l-6 7a4 4 0 0 1-4 2Z" style="fill:#060308"/>
  <path d="M343 253c-4 9-12 13-20 18-1 1-2 0-3-2-3-5-1-19 4-24h2c3 7 10 6 17 8Z" style="fill:#030107"/>
  <path d="M1725 529c0-3 2-7 1-10-2 0-1 3-3 4h-1c-1-13-1-13 11-18 3-1 5 2 7 4s-1 2-2 3c-4 6-7 12-12 16a3 3 0 0 1-1 1Z" style="fill:#020103"/>
  <path d="m1405 731 7 8c2 3 4 3 6 1s5-1 8 1l8 5c-4 1-9 0-13 2l-4 1c-2 1-1 5-4 3s-7-3-7-8 2-8-2-11Z" style="fill:#050107"/>
  <path d="M1200 443c1 4-1 5-5 5h-8c-3 1-3-1-3-3l-1-12c-1-1 0-3 1-3 3-1 3-3 3-5a3 3 0 0 1 4-2c4 2 7 5 8 9l1 11Z" style="fill:#060208"/>
  <path d="M1193 580a39 39 0 0 1 4-16c3-5 10-6 15-2 3 1 3 7 1 11-4 5-8 9-15 10-4 1-5 0-5-3ZM306 378h-1c-3-3-3-10 0-13 5-6 12-10 18-15 4-2 5 2 7 3s2 2 1 4a47 47 0 0 1-15 18c-3 3-6 2-10 3Z" style="fill:#030106"/>
  <path d="M371 481c0 3-1 4-4 5l-7 4c-2 2-5 1-6-3l-1-3c-3-11-2-13 9-17 3-1 5-1 6 3l3 11Z" style="fill:#050106"/>
  <path d="M54 890c3 2 5 1 6-2a9 9 0 0 1 4-3c5-3 6-3 8 3l2 4a7 7 0 0 1 1 2l-8 12c-3 1-5-1-7-3-4-3-4-8-6-13Z" style="fill:#020203"/>
  <path d="M1410 653c-3 0-5-1-7-4s-2-6 0-9a41 41 0 0 1 8-8c4-3 17 2 17 7s-3 8-6 10-7 4-12 4Z" style="fill:#040206"/>
  <path d="M166 530a7 7 0 0 1-3 6c-3 3-7 3-9-1a43 43 0 0 1-4-12c-1-3 0-5 3-5s6-1 9-2 2-1 3 1l1 13Z" style="fill:#030204"/>
  <path d="M397 768c-1 4-5 5-8 7s-4 1-6-1a51 51 0 0 1-10-10c-2-2-4-4-2-7s5-7 10-6 9 2 11 7l5 10Z" style="fill:#040206"/>
  <path d="M289 308c-3 0-6-2-7-5s-5-10 2-13v-1c1-7 8-9 12-13 1-1 2-2 3-1l1 2c-3 8 1 16-1 24-2 5-4 7-10 7Z" style="fill:#020106"/>
  <path d="M632 359h-4c-6-1-6-2-4-8 1-4 3-5 7-3h2c2 1 6 1 6 3s-4 6-7 8c0 1-1 0 0 0Z" style="fill:#1a014e"/>
  <path d="m714 188 14-10c1-1 3-3 5-2s1 4 1 5a29 29 0 0 1 1 4c0 9 0 8-10 9l-9 1" style="fill:#060208"/>
  <path d="M43 390c0-3 0-7 5-8 2-1 1-6 5-4s7 6 6 11-2 8-5 10-4 5-6 4-5-4-5-8a18 18 0 0 0 0-5Z" style="fill:#020203"/>
  <path d="M1149 524c-1-2 1-3 3-4l9-4c4-2 9 2 9 6 0 6-7 14-14 15a2 2 0 0 1-2-1c-2-4-5-7-5-12" style="fill:#020104"/>
  <path d="M389 1076c-8 0-9-2-6-9s8-10 13-13c2-1 10 2 11 4s0 5-2 7l-7 7c-2 2-6 4-9 4Z" style="fill:#050306"/>
  <path d="M1899 519c3 3 8 6 6 8s-6 8-12 7l-6-1c-2-1-7 0-6-4s5-8 8-7a11 11 0 0 1 4 1c4 1 6 0 6-4Z" style="fill:#030204"/>
  <path d="M1401 536c-1-2 1-4 1-5 2-4 4-8 1-12s1-5 2-7c1-5 4-4 8-3 7 2 13 8 14 15v1c-5 3-7 9-13 10l-13 1Z" style="fill:#030108"/>
  <path d="m447 654-2 10c0 3-4 3-6 5-4 3-7 4-10-1s-3-11 3-14l7-4c3-1 3-3 5-1s4 3 3 5Z" style="fill:#030106"/>
  <path d="m457 808-8-1-3-3c1-5 0-9 5-12s8-7 14-4 6 10 2 14c-3 2-6 6-10 6Z" style="fill:#040206"/>
  <path d="M1816 791c-2 5-5 7-9 9s-4-1-5-2l-6-8c-2-2-1-3 0-3 4-1 4-9 9-7 2 1 4 3 7 3 5 1 1 6 4 8Z" style="fill:#020203"/>
  <path d="M1303 697h-8c-2 0-4-1-3-4 2-8 14-18 24-13 3 1 4 3 3 7l-2 4c-1 5-4 6-8 6Z" style="fill:#050206"/>
  <path d="M1710 791a7 7 0 0 1-1 2 23 23 0 0 1-6 4c-2 2-4 6-7 3s-8-5-5-11c2-3 0-8 3-9s5 2 8 3c5 1 6 4 8 8Z" style="fill:#030104"/>
  <path d="m329 876-1 2c-4 1-6 4-8 7s-3 2-6 1-2-4-4-6 1-4 2-5l5-6c2-1 3-4 6-2a10 10 0 0 1 6 9Z" style="fill:#020203"/>
  <path d="m1843 353-6-10c-1-3 1-7 1-11h2l12 5c2 1 3 4 3 6s-3 1-4 2c-4 1-5 5-8 8Z" style="fill:#040205"/>
  <path d="M1405 711c1 7 0 12 2 17-3-1-2-4-4-6l-2 7c-3-9-10-5-15-7 6-1 8-8 15-6 3 1 2-3 4-5Z" style="fill:#09040e"/>
  <path d="M1705 362c-1 5-1 9 1 13 1 1 0 2-1 4-4 5-10 5-14 0l-1-1c-2-3-6-5-5-7 3-3 6-7 12-7 2 0 5 0 8-2Z" style="fill:#020103"/>
  <path d="M1691 291c-3 3-2 9-8 10-2 0-3 4-5 1s-6-5-2-10a11 11 0 0 0 1-6c0-4 3-4 6-2l6 4c1 0 2 1 2 3Z" style="fill:#040205"/>
  <path d="M1440 658c7-6 14-10 21-12 4-1 4 0 4 3 0 6 0 11-6 14-2 1-3 1-4-1-1-4-5-5-9-4h-6Z" style="fill:#020105"/>
  <path d="m1768 89-2-10 1-3c1-1 6-5 6-10-1-1 1-1 3-2s1 2 1 3l1 13c1 2-1 3-3 4s-5 2-7 5Z" style="fill:#030105"/>
  <path d="m1347 670 7-14h1a66 66 0 0 1 6 7c3 4 2 8-3 9l-10 1" style="fill:#99a499"/>
  <path d="M1293 481c0 2 0 3-2 3s-3 0-3-2l-3-11c0-2-1-5 2-6s4 1 6 3" style="fill:#060208"/>
  <path d="M1532 503c-1-1-4 0-4-2s0-7 4-8 6-1 7-5c1-2 2-2 3-1v3l-4 10c-1 3-3 3-6 3Z" style="fill:#0c0515"/>
  <path d="m1175 590 1-6 5 8a1 1 0 0 1 0 2h-1c-5 3-9 7-15 7-3 0-4-1-4-3 0-7 2-9 7-11s4 2 7 3Z" style="fill:#040107"/>
  <path d="M958 48c3 3 7 4 6 7-1 5-3 10-7 13-2 1-2 0-3-1l-6-7c-2-2-3-3-2-5s4-4 7-3 5 2 5-4Z" style="fill:#030204"/>
  <path d="M837 105c0-5 4-7 6-10l2-1a3 3 0 0 1 2 3v12c0 3 1 8-5 4-2-1-5 3-6-1" style="fill:#050207"/>
  <path d="M509 785c-1-1-5 3-5 0s-4-9 2-11l5-3c1-1 3-5 6-3s4 9 3 12c-2 4-5 7-11 5Z" style="fill:#030105"/>
  <path d="m1821 277 1-6c1-2 6-4 8-2l4 3c4 4 4 10-1 15h-5c-4-2-5-6-7-10Z" style="fill:#030204"/>
  <path d="M502 249c0 8-1 11-7 13-2 1-3 1-4-1s-3-4-1-5l9-9a2 2 0 0 1 3-1v3Z" style="fill:#5500b7"/>
  <path d="M769 531h1l8 13c3 4-1 5-4 6s-7 0-7-3c-2-6-1-11 2-16Z" style="fill:#a29ea3"/>
  <path d="M1611 572c0-6 3-11 0-16 2-1 8 2 6-6l10 10c3 3 0 2-1 3-4 5-9 7-15 9Z" style="fill:#030203"/>
  <path d="M625 693c-3-1-4-4-7-1s-4 3-6 2a11 11 0 0 1-3-9c0-7 3-8 10-6l6 2c-1 3-4 2-5 4 1 2 4 0 5 2s0 3 0 6Z" style="fill:#040106"/>
  <path d="M262 772c6 1 8-4 11-5 2-1 2-4 5-3s6 2 9 6 3 5-3 6c-7 0-15 0-22-4Z" style="fill:#030205"/>
  <path d="M1745 938c5-4 3-5-1-7s-4-4 0-6 5-4 8-3 7 7 7 9-7 7-9 7a31 31 0 0 1-5 0Z" style="fill:#030204"/>
  <path d="M1439 714c-3 1-4-1-5-1-3-2-5-3-6 1-1 3-2 3-4 2a43 43 0 0 0-10-4c2-3 7-5 5-11a28 28 0 0 0 14 5c4 1 3 5 6 8Z" style="fill:#030104"/>
  <path d="M398 92c-1 5-1 11-7 13s-13-2-13-9l1-3c5-2 10-6 15-7 4-1 3 4 4 6Z" style="fill:#070409"/>
  <path d="M404 302c-2 0-3-1-3-2l-5-5-4-4 5-4 4-3c7-4 8-3 12 4 1 4-5 13-9 14Z" style="fill:#030108"/>
  <path d="M441 754c3 4 8 6 11 11s-2 4-4 6-3 0-4-2c-1-5-5-9-3-15Z" style="fill:#0c0411"/>
  <path d="m1702 560-7 8-2-1-5-16c-1-2 1-3 3-2s5 2 6 5 3 4 5 6Z" style="fill:#030304"/>
  <path d="M1863 602c1 3 7 5 6 8-2 4-1 10-6 14 0-5-9-6-7-13 1-4 4-6 7-9Z" style="fill:#020204"/>
  <path d="M1347 152c4 0 9 2 9 5a16 16 0 0 1 0 4c1 3 0 5-1 8-1 4-4 4-8 4" style="fill:#070308"/>
  <path d="M483 80c-5 0-6-2-3-6l6-10c2-3 4-3 6 0s4 7 2 11-6 5-11 5Z" style="fill:#060209"/>
  <path d="M1743 454a35 35 0 0 1-6-2 3 3 0 0 1-2-4 38 38 0 0 1 11-17c2-2 4-1 5 2 4 6 1 12-3 19-1 2-2 2-5 2Z" style="fill:#060308"/>
  <path d="M434 698v-6c4-8 11-9 16-2a7 7 0 0 1 1 2c2 4-8 16-12 16s-5-6-5-10Z" style="fill:#07040a"/>
  <path d="M747 60c1-3 2-5 5-5s2 4 3 6a27 27 0 0 1-1 5c0 3 0 6-5 4h-2c-3 3-5 1-5-2l3-8h2c1 1-1 4-1 6l1-6Z" style="fill:#050208"/>
  <path d="M1781 864c-4 1-6-3-8-5v-2l2-7c0-2 1-4 3-3s5 0 6 3l2 8c2 5 1 6-5 6Z" style="fill:#020203"/>
  <path d="m1482 560 1-1 8 6c3 3 1 3-1 4l-11 3c-4 2-5 1-6-1s1-3 2-4l7-7Z" style="fill:#4000af"/>
  <path d="M166 649c-2 0-4-1-5-3l-4-4c-2 0-3-2-2-4s3-4 5-3l11 4a3 3 0 0 1 2 2c1 2-4 8-7 8Z" style="fill:#020204"/>
  <path d="M623 186c-3 5-3 11-6 15-1 2-3 2-4 0a53 53 0 0 1-6-8c-1-2 0-5 2-6s7-6 12-3l2 2Z" style="fill:#040206"/>
  <path d="M594 439v11c3-3 2-7 4-10l8 9a43 43 0 0 1-11 4c-1 1-2 1-2-1v-17l1 4Z" style="fill:#a23ab8"/>
  <path d="M276 612c1 4 4 6 5 9 2 5-1 10-6 10-2 0-3 0-2-1l3-18Z" style="fill:#0d0413"/>
  <path d="M324 526c3-3 6-7 10-9 1 0 2-2 3 0s3 4 1 6c-4 6-8 6-14 3Z" style="fill:#0c0219"/>
  <path d="M83 57c-8-1-11-4-7-11l8-9c3-3 5-1 6 2l3 10c1 4-1 5-3 6l-7 2Z" style="fill:#060307"/>
  <path d="M431 483a2 2 0 0 1 0-3h1l14-8c2 6 2 6-3 10l-3 2c-4 3-5 3-9-1Z" style="fill:#4300b4"/>
  <path d="M1288 541c-2 0-1-3-2-4-4 3-8 3-11-1s0-6 1-9a3 3 0 0 1 5-1 3 3 0 0 1 1 1c2 2 3 1 4 1 4 3 4 7 3 11a4 4 0 0 1-1 2Z" style="fill:#050206"/>
  <path d="M1352 656h2l-7 16" style="fill:#08060b"/>
  <path d="M1347 672c5-1 10 2 13-3 2-2 3-3 1-5a18 18 0 0 1-6-8h3l4 6c3 5 1 12-6 12-3 0-7 2-10-2" style="fill:#08060b"/>
  <path d="M358 811c0 5-3 6-6 7s-6 4-9-1c-3-6-3-11 0-14l2-1c3-1 13 6 13 9Z" style="fill:#07040a"/>
  <path d="M514 943c-3-1-5 0-6-2s1-5 3-5a14 14 0 0 0 6-7c0-2 1-2 2-2l1 3a35 35 0 0 1-3 10l-3 3Z" style="fill:#07060a"/>
  <path d="M402 174c7-3 11-10 16-17v9c0 2 1 5-3 5s-8 5-13 4a1 1 0 0 0 0-1Z" style="fill:#9e78af"/>
  <path d="M1519 964c-6 3-11 4-16 1-2-2-2-4-2-6s3-5 5-7l1 1Z" style="fill:#030206"/>
  <path d="M641 138v5c0 2-2 3-4 2a69 69 0 0 1-11-4c-2-2-2-4 0-6l8-4c5-2 7-1 7 4v3Z" style="fill:#08030a"/>
  <path d="M427 772c1-5 2-11 5-15 1-1 0-3 2-3a4 4 0 0 1 4 3c2 10-1 14-11 15Z" style="fill:#040407"/>
  <path d="M1525 279c3 5 0 9-3 13a2 2 0 0 1-2 1h-5c-1 0-5 3-5 0s-2-6 2-8l13-6Z" style="fill:#030105"/>
  <path d="M1346 527a112 112 0 0 1 10-8c3-2 5-1 5 4 1 3 0 4-3 5l-9 4" style="fill:#040207"/>
  <path d="M1820 60c7 4 7 9 6 14s-2 4-5 4-7 0-7-3a10 10 0 0 1 4-9c2-1 4-2 2-6Z" style="fill:#030204"/>
  <path d="M1081 211v-18l-1-2c-1 8 0 16-2 23l-4-15 3 4 1-9c0-3 1-3 3-3s3 1 2 3c0 6 1 11-2 17Z" style="fill:#050207"/>
  <path d="M514 996c-6 0-7-2-5-7a20 20 0 0 1 9-9c3-2 6-2 8 1s2 4 0 7-7 9-12 8Z" style="fill:#070509"/>
  <path d="M1276 237c-2 0-5 0-5-2s-2-6 1-8a72 72 0 0 1 8-6 4 4 0 0 1 5 0v4a55 55 0 0 1-3 9c-1 3-4 3-6 3Z" style="fill:#050206"/>
  <path d="M1282 81s-1 2-1 0c-1-5 0-10 1-15 0-2 3-2 5-2s2 2 3 4a40 40 0 0 1-2 14v-9c0-3 1-5-1-9l-2 17c0 1 1 3-1 2s-1-1-1-1l1-14c-1 4 0 9-2 13Z" style="fill:#07030b"/>
  <path d="m1781 242 1 9c0 3 0 3-2 4s-3 1-5-1c-4-4-4-5 1-9l5-3Z" style="fill:#0c080e"/>
  <path d="M310 440c4 3 7 5 12 6l1 1-3 10c-1 3-4 2-6 2s-6-6-5-9v-5l1-5Z" style="fill:#030106"/>
  <path d="m1846 877 7 1c7 1 7 1 4 8-1 2-2 3-4 2l-8-4c-3-1-2-4-2-5l3-2Z" style="fill:#040205"/>
  <path d="M1652 207c2-3 4-2 7-3l-7-3c3-1 5-3 3-7 10 5 5 13 6 20-4-3-4-8-9-7Z" style="fill:#050107"/>
  <path d="m1482 560 2 2c-6 0-7 7-12 8 5 3 5 2 20-3l-9-8c5-1 6 3 9 6a3 3 0 0 1 0 4 4 4 0 0 1-2 1 105 105 0 0 1-12 4c-3 0-6 0-7-3s2-4 3-5 5-5 8-6Z" style="fill:#050209"/>
  <path d="M1633 1054c6 4 12 6 15 13-10 1-14-3-15-13Z" style="fill:#060607"/>
  <path d="M1378 631c4 2 7 6 9 9s-3 4-4 6-2-1-3-2c-4-3-2-8-2-13Z" style="fill:#0a070d"/>
  <path d="M769 531c-1 5-4 10-2 15 1 2 1 3 3 3s4 2 6-1 1-3 0-5l-6-12h2a103 103 0 0 0 6 13c2 3-1 7-4 8s-8-2-9-7 1-9 2-13c0 0 0-2 2-1Z" style="fill:#0a060d"/>
  <path d="M213 173a59 59 0 0 1-11 7c-3 1-3 0-3-2v-6a5 5 0 0 1 5-4 4 4 0 0 1 2 1l7 4Z" style="fill:#050308"/>
  <path d="m548 960-4 4-2 4-8-4c-3-1 0-2 1-2 4-5 7-6 13-2Z" style="fill:#0a090a"/>
  <path d="M404 685c-4 0-5-2-4-5l3-9c1-1 2-3 4-3s2 2 3 4a41 41 0 0 0 1 4c1 6-1 9-7 9Z" style="fill:#050208"/>
  <path d="M636 685c2 0 6 9 5 11s-2 2-3 1c-3-2-5-4-9-4s6-8 7-8Z" style="fill:#08060a"/>
  <path d="M336 613v-6c0-1 0-3 2-3a4 4 0 0 1 3 1c5 4 5 13 0 17a3 3 0 0 1-3 1 2 2 0 0 1-2-3Z" style="fill:#09040c"/>
  <path d="M541 1010h1c4 1 5 6 7 9v1l-1 2c-3 1-7 2-10 1l-1-3 4-10Z" style="fill:#97a39b"/>
  <path d="m541 1010-3 13 9-2c2 0 2-1 1-2l-6-9c1-2 1-1 2 0a10 10 0 0 1 2 2c1 3 6 6 4 9s-7 2-10 4-3-1-3-3a25 25 0 0 1 2-13Z" style="fill:#070509"/>
  <path d="M1717 762c1 3 0 6-3 8s-5 1-7 0-2-4-1-6l1-5c0-2 1-6 5-5s6 3 5 6Z" style="fill:#060508"/>
  <path d="m236 126 12 17c-6-2-9-4-13-7-2-1-2-2 0-3a5 5 0 0 0-1-6Z" style="fill:#040206"/>
  <path d="M1533 97v-4c-1-5 1-8 6-8 3 0 4-2 5-4 0 4 2 9-5 9l-6 7Z" style="fill:#030209"/>
  <path d="M1756 137c4 1 7 2 6 8 0 2 2 2 3 2h7c-12 5-17 2-16-10Z" style="fill:#050506"/>
  <path d="M1418 561a7 7 0 0 1-6 8c-3 0-6-5-7-10 0-2 5-7 9-7 6 1 2 7 4 9Z" style="fill:#08050a"/>
  <path d="M1299 222c-2-1-6 0-6-4s6-8 10-8 4 1 4 4-4 8-8 8Z" style="fill:#09040c"/>
  <path d="M362 272c-1 2 0 5-4 6s-10-4-9-6c1-4 4-6 7-6s6 2 6 6Z" style="fill:#07030a"/>
  <path d="M1215 376c0-4 4-6 7-8 1-1 2-1 3 1s0 5-2 7-1 5-5 5-3-2-3-5Z" style="fill:#08020b"/>
  <path d="M1497 459c-4 0-6 7-11 2v-9c4 1 6 6 11 7Z" style="fill:#08050b"/>
  <path d="M303 528a3 3 0 0 1-3 4c-5 0-7-3-8-8 0-4 1-7 5-8s6 6 6 12Z" style="fill:#08040b"/>
  <path d="M220 302c9 4 9 4 5 15-2-5-6-9-5-15Z" style="fill:#09020d"/>
  <path d="M460 190c1 7-3 10-8 14-2 1-3-1-4-2s-5-3-2-5 6-9 11-10c3 0 4 1 3 3Z" style="fill:#020106"/>
  <path d="M1871 264c0 4-4 7-10 8-3 0-4-3-4-6s6-7 10-7 4 3 4 5Z" style="fill:#060408"/>
  <path d="m1862 53-9-9v-1c10-4 10-4 9 10Z" style="fill:#050608"/>
  <path d="M118 245a86 86 0 0 1 1 32l-1-32Z" style="fill:#050208"/>
  <path d="M526 545c0 4-4 8-7 8s-2-1-3-3 4-10 6-10c3 0 3 3 4 5Z" style="fill:#07020a"/>
  <path d="M1298 644v1c-3 2-10-1-12-4a4 4 0 0 1 0-4l3-1 9 4c1 1 3 1 1 3l-9-3 8 4Z" style="fill:#07030a"/>
  <path d="M800 212c1-4 8-10 11-9s3 3 2 5-10 5-13 5c2-3 5-3 7-5l-7 4Z" style="fill:#060309"/>
  <path d="M1442 171c1 9 0 11-6 14l-5-1c-1-1 1-3 2-3 3-3 8-4 9-10Z" style="fill:#06010c"/>
  <path d="M82 145c-4 1-7 2-10 5s-5 0-6-2 1-3 3-3c4-2 9 1 13 0Z" style="fill:#050206"/>
  <path d="M135 926c-3-4-2-11-9-11 3-5 8-5 12-2-4 4-4 4-3 13Z" style="fill:#020103"/>
  <path d="M1790 828c3 0 5 4 4 6s-4 5-8 6l-1-1c-2-2 0-10 4-11 1 2 0 4-1 7 5-2 0-5 2-7Z" style="fill:#08080a"/>
  <path d="m340 756 14 1v1c-4 7-4 7-10 1l-4-3Z" style="fill:#050307"/>
  <path d="M1744 75c-1 3 0 6-4 7l-5-1c-2-1 0-3 1-5a23 23 0 0 1 1-3c1 0 2-4 5-3s1 4 2 5Z" style="fill:#0e0712"/>
  <path d="M1561 583h2a12 12 0 0 1 2 4c1 2 3 5 0 7s-2 0-3-1-6-4-4-7c0-1-1-5 2-3 2 1 1 4 2 6a13 13 0 0 1-1-6Z" style="fill:#060609"/>
  <path d="M509 853c-1 5-3 7-7 7-2-1-3-1-3-3s5-8 7-8 2 3 3 4Z" style="fill:#08090b"/>
  <path d="M494 1067c5 2 7 0 7-5l8 10-15-3Z" style="fill:#030105"/>
  <path d="M114 261c-3 1-2-1-3-2 0-6-4-11-4-17v-9c2 4 0 10 2 14s4 9 5 14Z" style="fill:#08030e"/>
  <path d="M1441 631c2 1 3 2 3 6 0 2-1 4-3 4s-4 1-6 0a4 4 0 0 1-1-1c0-3 3-9 6-9 1 2-1 4-1 7 2-2 1-5 2-7Z" style="fill:#08050c"/>
  <path d="M70 95c-1 4-4 4-7 5a2 2 0 0 1-3-2 3 3 0 0 1 0-1c1-3 0-8 5-8s4 3 5 6Z" style="fill:#07070a"/>
  <path d="M1531 125h1c4 2 0 5 0 8s-3 3-5 3a2 2 0 0 1-2-2 13 13 0 0 1 4-10l1 1c1 2-1 4-1 6a37 37 0 0 1 2-6Z" style="fill:#07020a"/>
  <path d="M1618 670c1-3 5-6 5-10l2-1 1 2c1 6-1 8-8 9Z" style="fill:#040205"/>
  <path d="M1087 184c0-3 7-7 9-6s2 4 0 5-5 3-8 4v-2l5-3c-2 1-4 3-6 2Z" style="fill:#08030b"/>
  <path d="M513 814c-1 2 1 6-3 5s-4-3-5-6 3-5 5-5c4 1 2 4 3 6Z" style="fill:#0c050e"/>
  <path d="M233 699c-4 1-6-2-6-5v-8c2 0 1 2 2 3s1-4 4-2c0 4-2 8 0 12Z" style="fill:#07080b"/>
  <path d="M1838 220c3 0 3 1 3 6s-2 4-5 4-4-3-3-5 0-6 4-5c1 2 0 3-1 6l2-6Z" style="fill:#040605"/>
  <path d="M609 454a87 87 0 0 1 4 10c1 3-1 5-4 7v-17Z" style="fill:#9d1ab8"/>
  <path d="m1265 356 1-8v12c-1 3-2 3-5 3s-1-3-1-5l2-7c1-2 0-2 2-1a9 9 0 0 1 0 6l-1 1 2-1Z" style="fill:#040105"/>
  <path d="M122 942c1-3 3-4 6-3s5-1 5-4c2 8 0 9-11 7Z" style="fill:#030104"/>
  <path d="M597 798c0 2-1 3-3 3s-6-1-6-4 2-6 5-6 3 4 4 7Z" style="fill:#0a070e"/>
  <path d="M1746 948c0 10-3 13-11 9 7 0 9-5 11-9Z" style="fill:#030205"/>
  <path d="M750 88c3 7 3 7-5 12l5-12Z" style="fill:#4600be"/>
  <path d="M431 483c3 0 4 4 7 2s10-6 7-13a6 6 0 0 1 1 8v1a46 46 0 0 1-8 5c-3 2-5 0-7-3Z" style="fill:#080213"/>
  <path d="M1463 526c2-4 5-2 7-2s3 2 2 4-1 2-2 2-6 0-7-3h4a8 8 0 0 1-4-1Z" style="fill:#0e0815"/>
  <path d="M473 912c-6 3-12 2-18 0h18Z" style="fill:#040105"/>
  <path d="m617 741-11 3c1-8-1-8 11-3Z" style="fill:#09020d"/>
  <path d="M593 421c-2-1-2-2-2-4v-13c0-1-1-3 2-1 2 6 1 12 0 18Z" style="fill:#0b0511"/>
  <path d="M1790 828v1c3 6 3 6-4 9l3-10Z" style="fill:#80af86"/>
  <path d="M1332 369c4 4 3 10 3 15l-2 4c1-6 0-13-1-19Z" style="fill:#040106"/>
  <path d="M1316 208c0 3-2 5-5 5s-3-1-3-3 2-6 5-6 2 2 3 4Z" style="fill:#040207"/>
  <path d="M596 650c-2-6-2-11 0-17Z" style="fill:#030106"/>
  <path d="M1730 315c1 5 2 11-2 16Z" style="fill:#06030a"/>
  <path d="M593 421v-18l1 1c3 5 2 9 0 14Z" style="fill:#794da1"/>
  <path d="M1797 345h-7a3 3 0 0 1-2-3c-1-1 1-2 1-2l4 1Z" style="fill:#050208"/>
  <path d="m1774 264-7-5c3 0 6-2 8-1s0 4-1 6Z" style="fill:#050207"/>
  <path d="M1441 631a13 13 0 0 0 0 3c2 6-1 6-5 6l4-9h1Z" style="fill:#9d8fab"/>
  <path d="M1458 697c-4 4-3 7 0 12-3-2-7-2-6-4s0-7 6-8Z" style="fill:#060209"/>
  <path d="M1092 47V28c3 6 1 12 0 19Z" style="fill:#7535b4"/>
  <path d="M616 456a40 40 0 0 0 4 10v3a4 4 0 0 1-3 1v-3c0-4-2-7-1-11Z" style="fill:#ac43c0"/>
  <path d="M1292 537c0 2 0 5-4 4v-1c2-3 1-5 0-7a15 15 0 0 1-1-5c3 0 6 5 5 9" style="fill:#07030a"/>
  <path d="M594 418v-14c2-3 2 0 2 0a35 35 0 0 1-1 17l-1-3Z" style="fill:#08040c"/>
  <path d="M233 699c-6-4-2-8 0-12a17 17 0 0 1 0 12Z" style="fill:#8caf94"/>
  <path d="m267 727-3-9c7 4 7 4 3 9Z" style="fill:#88a892"/>
  <path d="m1672 135 3 13c-3-4-6-7-3-13Z" style="fill:#030105"/>
  <path d="M155 364c5-3 10-5 12-11-2 8-5 11-12 11Z" style="fill:#040106"/>
  <path d="M1298 644c-4-1-9-1-11-6l12 5Z" style="fill:#a534c3"/>
  <path d="m1282 81 1-14c3 5 0 10 0 15Z" style="fill:#8d5cb7"/>
  <path d="m1561 583 4 10c-5-2-6-6-5-10Z" style="fill:#62af77"/>
  <path d="M1838 220v8c-3 0-5-1-2-5a11 11 0 0 0 1-3Z" style="fill:#5eaf6e"/>
  <path d="m800 212 9-7h2c1 1 1 2-1 2l-10 6v-1Z" style="fill:#a54dc4"/>
  <path d="M781 513c2 3 2 3-4 9l2-5Z" style="fill:#9b9bab"/>
  <path d="M1288 528a54 54 0 0 1 2 7c1 2 1 4-2 5l-2-12Z" style="fill:#ac4fb8"/>
  <path d="M1531 125c-1 3 1 7-5 10l4-10Z" style="fill:#a539b4"/>
  <path d="M747 60c0 6 0 6-3 11l3-11Z" style="fill:#b02bbb"/>
  <path d="M1265 356a7 7 0 0 1-4 6l3-12 1 6Z" style="fill:#ba29c8"/>
  <path d="M1095 37v-9c3 5 1 10 1 15l-1-6Z" style="fill:#8f3cc6"/>
  <path d="m286 233-4-9c5 1 4 6 5 9Z" style="fill:#a96cb3"/>
  <path d="m1087 184 10-5c-3 5-7 5-10 6Z" style="fill:#b461c0"/>
  <path d="M1463 526c3 0 6-1 8 1-3 3-5 0-8 0a1 1 0 0 0 0-1Z" style="fill:#8a87ac"/>
  <path d="m1913 982-15-1c-5-1-8-3-9-8s-2-9-8-7c0-6 5-10 5-15s3-8 8-10a26 26 0 0 1-14-12c-1-2-2-3 1-5s3-4 4-7c1-1 1-3 3-3 5 3 6-1 9-3s2-2 4 0 3 4 5 5c10 1 10 9 11 16 1 4-2 7-6 9l-7 2 11 1v1c-2 2-6 2-10 4 3 3 3 7 8 8 2 0 1 3-1 3l-8 4c3 1 3 5 6 5 2 0 0 2 0 3-3 5-3 5 2 8a2 2 0 0 1 1 1Z" style="fill:#0f5924"/>
  <path d="M1778 1048c1 1 3 0 3 2-3 0-5 2-7 4a9 9 0 0 1-7 3 5 5 0 0 0-5 3c0 3-2 4-5 3-5-1-10 1-15 2-2 1-3 0-5-2-2-4-4-8-4-13 1-3 1-6-1-9-1-1-2-3-3-2-4 1-6-1-7-6l-11 14v4c3 8 3 16 4 24a2 2 0 0 1-2 2c-2-4 0-9-1-14l-3-9a11 11 0 0 1 2-12l7-7c2-2 4-3 5-2 2 3 6 3 8 4s5 7 5 12 0 7 2 10 3 4 6 4a35 35 0 0 1 13-2l3-1c2-4 5-5 9-6s5-5 9-6Z" style="fill:#030705"/>
  <path d="M1913 981c-8-3-8-3-3-11h-4c0-4 0-4-6-5l13-6c-7 0-5-10-11-10l13-4c0 2-2 2-4 3s-3 0-3 2 1 5 3 6 4 0 4 2-2 3-4 4c-3 2-5 3 0 6 2 1 1 4-1 5-2 4-1 5 3 6 1 0 3 0 0 2Z" style="fill:#030805"/>
  <path d="m1862 1071-10-4 19-4 6-1c3 0 4-1 5-3s-1-4-2-5a31 31 0 0 1-3-2l6-3c0 2-2 3 0 5 3 4 1 9-5 10l-12 2c-4 1-5 1-4 5ZM1883 1049l-15-1c-5 0-8-2-11-1 0 3 3 1 4 4h-12v-1c5-3 11-7 18-5a43 43 0 0 0 14 2c2 0 4-1 2 2Z" style="fill:#020704"/>
  <path d="m61 1003 1 2c3 4 4 7 1 11s-5 6-9 5l-5 1c-7 0-11-3-12-9l-2-4a3 3 0 0 0 3-3c1-2 3-2 5-2s1 3 3 1 3-2 5-1 6-2 9-1Z" style="fill:#2a5531"/>
  <path d="M126 1051a7 7 0 0 1-2 4c-1-1-2-5-5-1-1 1-2 0-2-1-4-8-10-10-18-11l-1-1h3a26 26 0 0 1 4 0c-7-6-13-12-21-14-4-1-8-1-11-4-2-2-2 0-3 1-7 7-15 14-19 24a8 8 0 0 1-6 4l-14 3c-2 1-5 1-5 4s-7-4-6 3c0 2-4 4-7 5 1-3 5-5 5-9l1-1c8-1 14-5 22-6 4-1 7-3 9-7 5-9 12-16 19-23a4 4 0 0 1 4 0c10 4 22 6 29 15 5 6 12 8 16 13 1 3 5 0 8 2Z" style="fill:#030404"/>
  <path d="M162 1069h-1c-10-1-13-5-7-13l12-16c2-2 4-3 7-1a4 4 0 0 0 2 1c9 1 11 5 13 15 1 3 0 6-3 7-7 4-14 8-23 7Z" style="fill:#030605"/>
  <path d="M24 945a2 2 0 0 1 1 2c1 3 2 5 6 3s6-1 9-1a8 8 0 0 1 7 4 21 21 0 0 0 10 9c4 2 7 6 10 9v1a1 1 0 0 1-2 0c-5-8-17-10-21-20-2-3-7-1-11-1l-1 1c-2 0-4 3-7 2l-1-9Z" style="fill:#030504"/>
  <path d="M25 980c5 0 10-2 12 3 0 1 1 2 2 1 4-4 10-2 15-4a70 70 0 0 0 14-7c0 3-1 4-3 5-6 3-12 5-19 6a8 8 0 0 0-4 1c-3 2-6 2-7-1s-6-1-10-4Z" style="fill:#030505"/>
  <path d="M22 943c0 8-2 14 1 20a28 28 0 0 0 5 9c5 4 5 5-3 7 4-4 2-5 0-8-5-7-8-18-3-28Z" style="fill:#030605"/>
  <path d="M13 1069c7-4 13-3 19 2 1 1 3 2 1 4h-6c0-2 3 0 3-3-3-2-7-4-12-3a5 5 0 0 1-5 0Z" style="fill:#030404"/>
  <path d="M60 1003c-3 2-6 4-10 1l-3 1c-1 1 0 4-2 3s-3-2-2-4c4-1 10 0 14-2 2-1 2-1 3 1Z" style="fill:#030605"/>
  <path d="M1837 1023h13c1-3-2-2-1-4 5 3 10 3 15 0 1-1 2 1 3 2 3 3 5 2 8 0 5-4 11-6 16-9h7c2-7 8-3 13-5-4-2-8-2-10-6 4-5 6 0 8 2 2-2 0-5 1-8 2 5 5 8 3 13-1 2 0 4 1 6 1 6 1 6-4 9a7 7 0 0 1 2 10c-2 3-5 6-9 6-8-1-15 1-23 1-14-1-27-7-40-13l-3-4Z" style="fill:#42225b"/>
  <path d="m1696 964 19 3c2 1-3 2 0 4a6 6 0 0 1-1 10c-5 3-7 3-11 1a36 36 0 0 0-9-2c-3-1-6-3-6-5s3-6 7-6 3-2 1-5Z" style="fill:#005a1d"/>
  <path d="M1827 987a40 40 0 0 1 6 0c2 0 6-2 6 4s-2 9-7 10c-6 1-12-2-17-5-2-2-3-3-2-6s2-3 4-3Z" style="fill:#36534b"/>
  <path d="m1876 775-12 3c-3 0-5-1-3-4s1-6 5-5 8 1 10 6Z" style="fill:#37544c"/>
  <path d="M1825 843c-4 0-9 1-9-5-1-2-1-3 1-4s2 0 3 1 5 4 5 8Z" style="fill:#38554c"/>
  <path d="M1592 1016c2 5 0 6-5 6s-9 1-11-2 2-8 4-11a22 22 0 0 1 5-7c3-2 6-1 6 3l1 11Z" style="fill:#36534b"/>
  <path d="M45 63c1 2 3 3 6 3s4 0 4 2-1 6-5 7a53 53 0 0 1-7 0c-2 0-3-2-4-4s2-2 3-2l3-6Z" style="fill:#4a4d52"/>
  <path d="M336 1059a4 4 0 0 0-4 1c-3 3-5 7-10 9 0 6-7 5-9 9-1 2-3 1-4 0s-6-1-6-4c0-8-5-13-12-13h-5c-2 0-5 1-5-2s0-7 5-7a14 14 0 0 0 4 0c2-1 4-1 5-3s-1-3-2-4-1-2 0-2c3-2 6-4 10-2 10 4 19 2 28-3s14-3 19 5c3 4 1 7-3 8s-4 2-5 4-2 5-6 4Z" style="fill:#423755"/>
  <path d="M262 1062c4 0 8-1 7 6 0 2 3 2 4 2s3-1 3 1-1 2-2 2c-4 3-14 2-17-2a9 9 0 0 0-6-2c-2 0-3 0-3-2s1-3 2-3a27 27 0 0 1 12-2Z" style="fill:#37534b"/>
  <path d="m636 1058 6 1c3 1 5 5 3 9a16 16 0 0 1-4 5c-2 2-5 5-7 3s-6-6-3-11a27 27 0 0 0 2-5c1-2 2-3 3-2Z" style="fill:#4a4253"/>
  <path d="M282 12a18 18 0 0 0-4-7l-1-2a3 3 0 0 1 2-1c4 1 6 4 4 7l-1 3Z" style="fill:#4b524e"/>
  <path d="m1224 3-3 9c0-3-2-7 3-9Z" style="fill:#ab2bbe"/>
  <path d="M221 73c-2-7-2-13 0-16Z" style="fill:#010103"/>
  <path d="M1428 769c5 2 7-1 9-4a92 92 0 0 1 6-8c3-4 6-4 10 0l1 2c8 3 6 10 7 16 3 11 11 17 22 14l13-4c10-2 14-10 19-17a49 49 0 0 1 14-13c2-1 4-2 6-1 7 4 15 1 22 2 2 0 4-2 5-3a126 126 0 0 1 15-8c3-1 5-1 7 1s8 4 12 5 5 0 4-3 1-3 3-3a41 41 0 0 0 23-7c5-3 12-3 17-8h3c6 2 10 5 14 8s0 5-2 7a59 59 0 0 1-22 8 11 11 0 0 0-8 5 84 84 0 0 1-13 15c-3 4-2 5 1 8s9 4 15 4a9 9 0 0 1 5 1 46 46 0 0 0 13 5c2 1 3 1 3 3s-2 2-3 2a4 4 0 0 0-4 2c-1 4-4 4-7 3-6-3-12 0-18 2-7 3-15 5-23 3-5-2-9-5-15-6s-8 0-11 3-11 6-16 8c-13 6-26 13-40 14-3 1-5 1-5-3a8 8 0 0 0-3-6c-4-3-8-6-12-6-6 0-14 1-18 6s-11 6-16 11c-2 2-9 3-13 2-6 0-12 0-18-5l-2-5a37 37 0 0 0-10-21 43 43 0 0 1-11-17c0-2 0-3 2-4s7 1 10 1c9 0 9 0 9-9Z" style="fill:#340564"/>
  <path d="M109 125a9 9 0 0 0 7-2c11-8 22-6 33 0s11 2 7 16l-8 19c-3 7-7 8-10 13-1 2-2 1-3 1-3-2-5-1-6 3s-4 6-7 6-4 4-3 6l4 13c1 5 8 7 12 5s5 0 8 2 2 2-1 3-3 2-3 3c0 5-4 8-6 11s-6 2-9 0c-6-3-11-8-13-15a13 13 0 0 0-10-9c-8-3-13-8-19-14-3-2-5-6-3-10s4-9 9-9a7 7 0 0 0 6-4 4 4 0 0 1 4-2c5-5 6-11 11-15 2-2-1-5-2-7-2-5-5-5-9-3s-10 4-16 5c-2 0-5 0-4-4s1-10 4-14l1-8c-2-8 3-14 8-19s11-7 18-7 13-11 10-17c-1-2-5-4-2-6s9-2 11 0l1 1c-3 4-1 9-3 13-3 7-4 14-2 21 1 3 0 4-2 5-4 2-8 6-12 7s-5 6-5 9 3 3 4 3Z" style="fill:#02275f"/>
  <path d="M410 896c4-4 9-6 14-5 1 0 3 0 3-2s1-2-1-3-2-2-1-4c2-7 0-14-4-20-2-2-3-3-3-6 1-8 1-8 9-5a44 44 0 0 0 10 3c5 0 8 4 12 7s2 5 1 8c-1 4 0 6 4 7s8 4 13 1c1-1 2 0 2 1l-1 5c-5 6-11 9-19 9-4 0-8 1-12-3h-4c-4 3-8 3-12 3s-7 3-11 4Z" style="fill:#471f5d"/>
  <path d="M393 925c-3-1-5-3-8-1-1 1-4-5-4-6 4-8 9-12 17-13l2 1a2 2 0 0 1-1 2c-2 1-3 3-3 6a4 4 0 0 1-1 3c-4 3-4 3-2 8Z" style="fill:#481f5d"/>
  <path d="M122 454c0 4 1 9-3 12a3 3 0 0 0-1 2c1 7-5 13-7 19-2 5-21 10-25 7-1-1-3-2-2-5s1-6 5-7l1-1c4 0 9 0 10-5a23 23 0 0 0-1-15c-4-9-1-19 9-24 3-1 4 0 5 2s4 6 8 6l1 3ZM134 437c-5-1-10-5-10-10s1-9-2-13 1-7 2-10 4-1 5 0c6 5 12 4 19 2 1 0 3-1 4 1s2 3 1 5c-4 6-6 13-10 18l-7 7h-2Z" style="fill:#23375a"/>
  <path d="M467 1007c8 2 12 10 21 11l1 1c5 7 7 7 14 3l6-3v1c-6 8-11 17-22 19a16 16 0 0 0-8 3 15 15 0 0 1-6 4c-6 1-7 0-7-5l-1-18a67 67 0 0 1 2-16ZM433 991l4-4c4-3 7-4 12-3s12 6 19 4c2-1 2 2 1 4-1 3-3 6-3 10 0 2-1 2-3 1-3 0-5-3-6-6s-5-5-8-3c-5 3-8 2-12-1l-4-2Z" style="fill:#401c5d"/>
  <path d="m61 612 1 7c2 4 4 7 8 8 3 0 5 1 5 3s-1 4-3 5c-5 4-9 8-15 11s-5 14 0 18 5 5 1 14c-2 4-5 5-10 4s-9-3-9-9l-2-3c-6-8-8-17-9-27-1-2 0-2 2-3 8-1 14 1 21 4 4 2 6 0 5-5s1-5 3-7 3-8 2-12c-1-2-2-4 0-8Z" style="fill:#46514c"/>
  <path d="M1579 180c-1 8-4 14-9 19s-8 9-10 16-4 13-12 16l-5 6c-1 2-3 3-5 2s-3-3-2-5c0-6 1-11 7-14l3-4c4-8 8-15 15-20l14-13c1-1 2-3 4-3Z" style="fill:#2b0165"/>
  <path d="M231 744c-3 2-6 0-8-1s-4-2-5-1c-4 4-8 2-12 1s-9 0-13 3-10 4-13-2c-2-2-3-3-6-2s-2 0-1-1 0-3 2-2 5 0 6-3a3 3 0 0 1 4 0c6 3 13 2 20 3s10-8 6-12-3-10-9-12c-3-1-3-6-4-9s2-3 3-2a9 9 0 0 1 7 4c4 7 9 13 7 22a3 3 0 0 0 2 4 76 76 0 0 0 7 3c4 1 6 3 7 7Z" style="fill:#475250"/>
  <path d="M371 1024a10 10 0 0 1 6-4c6-2 6-7 6-11s0-7 1-10 6 0 9-2c5-3 11 0 16-3a1 1 0 0 1 1 1s1 0 0 0c1 5 6 6 9 9s3 2 2 4c-2 8-4 16-2 24 1 2 0 3-2 3h-4c-9-1-17 5-25 9-2 0-4 2-6 0s-5-4-4-8c1-9 1-9-6-11l-1-1Z" style="fill:#464054"/>
  <path d="M1670 819c1 5 3 7 8 7 1-1 3 0 4 1 4 5 11 7 17 8 2 0 3 1 2 3a17 17 0 0 1-1 4c-1 1-1 3-3 3s-3-2-3-4a3 3 0 0 0-5-2h-12c-10 5-19 4-29 3-5-1-11-1-15 3a11 11 0 0 1-3 1h-3v-4l9-5 18-6c6-2 13-5 16-12Z" style="fill:#415246"/>
  <path d="M1403 1009c5 6 13 8 16 17 1 4 3 7 1 11s-6 6-10 4-7-2-8 4a2 2 0 0 1-1 1h-1c-4-1-6 1-6 4s-2 3-4 3a24 24 0 0 1-7-2 3 3 0 0 1-2-3 4 4 0 0 1 1-2c3-3 6-5 11-4 6 1 8-1 11-7l5-9a9 9 0 0 0-3-10c-3-3-3-4-3-7Z" style="fill:#47514e"/>
  <path d="M427 98c2 7 2 13-4 18s-8 12-12 18c-7 9-17 17-27 22-7 3-12 8-17 12-3 2-6 4-8 2s0-5 3-7l2-2c7-5 13-11 17-19a8 8 0 0 1 4-3c7-3 10-9 12-16 1-4 4-4 6-7a47 47 0 0 1 24-18Z" style="fill:#290165"/>
  <path d="m496 163 1 10c2 0 1-2 2-3l2 6c1 1-2 6 3 3l2 5c2 4 1 7-3 11-7 7-16 13-26 16-5 1-4-4-6-6s0-3 2-4c9-3 14-12 21-18 2-1 2-3 2-5v-15Z" style="fill:#aa49b7"/>
  <path d="M516 171c-3 0-2-2-3-3h-1c-5 5-5 5-9-1l-3-6c3 0 3 1 4 2l4 3 4-11c0 6 3 10 4 16Z" style="fill:#a95db4"/>
  <path d="M253 942c2 0 5-2 6 2s3 7-1 9l-4 4a7 7 0 0 0-3 7c1 3 2 8-1 13s-3 10 2 15c2 2 1 3-1 4-7 1-13 3-20 3h-3c-2-1-4 3-6 1a35 35 0 0 1-7-10c-2-4 2-13 6-15 9-2 14-9 19-15a6 6 0 0 0 2-6c-2-11 3-12 11-12Z" style="fill:#2c1b5e"/>
  <path d="M1608 284c-3 0-5-1-7 2s-2 1-3 0 0-2 1-3l13-19c2-3 3-6 2-10s0-5 5-4 12-2 16-6l7-9h4c3 3 7 7 8 11s-1 8-4 10c-10 7-19 15-32 17-4 1-4 5-6 8s-1 4-4 3Z" style="fill:#37275b"/>
  <path d="M1654 617c-1 4-2 8-6 10s-7 5-9 10c-1 2-2 2-4 0-3-4-9-4-12-8h-5c-7 5-15 4-22 7a2 2 0 0 1-2 1c-2-1-8-13-8-15a56 56 0 0 1 9-14 16 16 0 0 1 12-6c6 0 12-3 19-4s6 1 7 4c0 10 7 10 14 12l5 1 2 2Z" style="fill:#410c61"/>
  <path d="M1852 124c-8 5-13 11-12 20s-4 13-10 17c-2 1-3 0-3-2s0-5-3-7-1-3 0-5c1-4 1-9-2-13v-4c4-5 3-8-3-10-1 0-4 0-3-2s2-5 5-4l25 6 6 4Z" style="fill:#433855"/>
  <path d="m286 845-1 4c-7 6-12 14-21 17-2 0-3 1-4-2s0-3 2-4c5-2 8-7 11-11s7-5 11-6c2-1 1 2 2 2Z" style="fill:#413c56"/>
  <path d="M252 867v2c-6 0-7 5-10 8s-5 3-9 3c6-5 9-15 19-13Z" style="fill:#433c57"/>
  <path d="m161 747-3 3c-3 8-11 11-16 16h-3c-4-2-6-2-6 3a21 21 0 0 1-3 10c-1 1-2 3-4 3a5 5 0 0 0-3 4c-2 5-5 5-9 6h-3c-1-1 1-2 2-3 8-7 8-17 5-27 0-3 2-5 5-6 6-2 13-2 19-7a15 15 0 0 1 9-2 70 70 0 0 0 10 0Z" style="fill:#444253"/>
  <path d="m1779 943 14 2 9 1c5-1 9 1 13 2s5 5 2 10-4 6-9 8-5 9-5 14c0 2 0 4-3 3l-14-1c-5-1-7-5-4-8s3-9 0-14l-7-11c-3-6-2-6 4-6Z" style="fill:#255633"/>
  <path d="M1349 942c8 5 16 5 24 8 3 1 5 1 4 5 0 8-9 15-16 14l-3-3a55 55 0 0 0-4-10c-3-6-7-7-11-2" style="fill:#464953"/>
  <path d="m208 923-2-1c-5 0-8 2-9 6v2c-6 4-5 13-9 19-2 3-5 3-9 2l-5-3a3 3 0 0 1-2-5 6 6 0 0 0 0-8c-2-2-2-3 0-4l26-16c8-6 13 0 19 1 2 0 2 2 2 3a3 3 0 0 1-2 3Z" style="fill:#3c3358"/>
  <path d="M1491 621c-4 0-5-4-6-7s2-3 3-3l17-4c1-1 3-1 3-3-1-4 3-4 5-6 5-6 14-4 20-8 1-1 2 0 2 1l1 2c1 2 5 2 4 4s-4 7-8 9l-5 3c-4 5-9 5-14 6s-12 2-18 4a24 24 0 0 1-4 2Z" style="fill:#4b4653"/>
  <path d="M822 225v-18c1 6 2 12 0 18Z" style="fill:#802ac0"/>
  <path d="M651 895c0 3-4 6-8 6l-11-1a4 4 0 0 0-5 1c-2 4-6 3-9 1s-6-4-6-9a4 4 0 0 1 2-3 12 12 0 0 0 5-5 3 3 0 0 1 3-1c4 0 8-2 10-6 3-5 8-3 12-3s4 3 5 6l2 14Z" style="fill:#46514c"/>
  <path d="M1420 904c-5-2-10-2-13-6a30 30 0 0 0-15-10 9 9 0 0 1-6-11 12 12 0 0 1 1-3c3-4 6-8 13-8 3 1 7-1 11-2 2 0 5-1 6 2l1 1c5-1 8 4 13 5s7 4 9 7-1 6-1 8-2 2-4 2c-3-1-4 1-4 4 0 6-5 11-11 11Z" style="fill:#00345e"/>
  <path d="M202 808c-1-2 0-4 3-5s4-2 6 0 0 4-1 5-3 6-7 6c-2 0-2 2-3 4-5 10-13 15-25 15-4 0-7 2-10 4-1 1-2 2-3 1s0-3 2-3c4 0 6-4 7-7s4-5 8-5c8-2 15-7 22-11 1 0 2-1 1-4Z" style="fill:#425347"/>
  <path d="M245 801c3 2 6 5 10 4l1 2c0 4 2 9 0 13a38 38 0 0 0-3 11c-1 5-1 9-6 11l-1 2c0 1 0 4-3 5s-8 4-13 3a3 3 0 0 1-3-1c0-2 1-2 2-2 4-3 7-7 13-7 4 0 6-3 6-7-1-7 0-14-4-20s-2-9 1-14Z" style="fill:#4b3358"/>
  <path d="M1733 300c-1-5 1-8 7-9s8-5 8-10l1-4c1-3 2-5 5-5 1 0 4-1 4 1s0 6-2 8a36 36 0 0 0-11 15 4 4 0 0 1-2 2c-5 3-5 5-1 8a9 9 0 0 1-1 13l-1 1c-2 1-3 1-3-1-1-6-5-12-4-19Z" style="fill:#4b4455"/>
  <path d="M309 673c0 1 0 2-2 2-3 0-5 2-7 4l-2 2c-6 1-7 6-10 11a9 9 0 0 1-1 2c-8 11-13 12-24 4-2-2-3-10 0-12l17-19c1-1 1-2 3-2l23 4c2 0 3 1 3 4Z" style="fill:#3c275b"/>
  <path d="M1572 701c-2-1-4-1-3-5 2-7 5-15-1-22-2-3 1-9 5-9l4-1c5-1 8-1 11 3s9 5 14 6c1 0 4-1 4 1s-2 1-3 2c-4 2-7 5-8 9s-6 8-10 9-6 7-11 6Z" style="fill:#433059"/>
  <path d="M1707 195c0-6 5-13 10-14 4-1 5-3 4-6l-1-6c-1-2 1-4 4-4s3 1 3 3 0 7 4 9 2 5 0 8c-4 10-13 11-21 15-1 1-2-1-2-2Z" style="fill:#37225b"/>
  <path d="M152 894c1-3 0-5-3-7s-3-8-2-12a22 22 0 0 0 0-13l6 4c7 1 12 5 18 6l12 2c4 0 3 1 1 3l-9 10c-5 6-11 8-18 7a26 26 0 0 0-5 0Z" style="fill:#34533b"/>
  <path d="M1586 516c-1-6 1-10 5-13 9-7 18-10 27-16 3-2 6-1 9-2l1 1c0 1 2 5-1 7l-8 8c-2 3-6 3-9 4a18 18 0 0 1-4 0c-9 0-10 1-11 10 0 6-2 8-7 7s-2-4-2-6Z" style="fill:#4a285b"/>
  <path d="M160 241c-1 4-2 8-7 12a18 18 0 0 0-8 16 15 15 0 0 1-3 10c-3 4-7 3-11 3l-1-2a7 7 0 0 0-2-4c-6-6-2-12 3-17a32 32 0 0 0 7-13c1-5 4-8 10-9a22 22 0 0 0 5-1c4-1 7 1 7 5Z" style="fill:#52245b"/>
  <path d="M1544 919c-5 1-10 2-15-2-2-2-6-1-9 0a12 12 0 0 1-11-2 13 13 0 0 0-7-3 4 4 0 0 1-4-4c0-3 2-2 4-3a14 14 0 0 1 9-1c6 2 11 0 15-4 1-2 2-1 5 0 7 3 9 9 12 15a20 20 0 0 1 1 4Z" style="fill:#3f3755"/>
  <path d="M1818 733c-4-10-13-13-19-19-2-3-1-4 0-6s2 1 3 1a5 5 0 0 1 3 3c1 7 6 5 11 4 2-1 3-2 6 0s-1 3-2 5l-2 12Z" style="fill:#3f5446"/>
  <path d="M1829 746c-5-1-6-3-8-7 6-1 6 3 8 7Z" style="fill:#405547"/>
  <path d="M221 370a7 7 0 0 1-2 5c-4 4-3 7 0 11 4 7 5 15 6 22 1 1 0 2-1 2s-3 1-3-1c-4-11-14-17-22-25-2-2-3-5-1-8 2-6 4-11 8-15h5l4 2c6-1 6 4 6 7Z" style="fill:#310c61"/>
  <path d="m1738 729-7-1c-1 1-1 0-2-1s1-2 2-3c5-2 8-7 11-11a7 7 0 0 1 4-2 20 20 0 0 0 10-6c3-3 6-3 9 0a3 3 0 0 1 1 4 2 2 0 0 1-2 2c-6-2-8 3-11 6s-7 10-14 11l-1 1Z" style="fill:#4e4d50"/>
  <path d="m252 518-11-6c-6-5-6-11 0-16s9-11 10-19c9 5 12 14 7 22l-6 9c-2 3-4 6 1 9Z" style="fill:#404653"/>
  <path d="M1697 263c-5 0-7-4-9-8s0-6 1-8c6-9 14-17 24-21 3-2 6-1 9 1l1 2c-3 12-9 23-18 31-3 2-5 3-8 3Z" style="fill:#493258"/>
  <path d="m524 963-20 10c-4 2-6 5-8 8-4 5-9 5-14 5l-3-2 2-1c4-6 10-7 15-11l5-2a16 16 0 0 0 9-4c4-3 9-4 14-3Z" style="fill:#453a57"/>
  <path d="M1407 424c2 0 2 2 4 3 4 4 4 4 6-1 12 11 18 15 9 31 1-9-4-7-8-7a7 7 0 0 1-5-2c-4-4-7-4-9 1a4 4 0 0 1-1 2 2 2 0 0 1-2 1l-1-2c-1-5 2-10 7-11 3-1 4-2 2-5s-2-7-2-10Z" style="fill:#a935bb"/>
  <path d="m395 191-3-9-4 15a55 55 0 0 1-5-3c-4-2-5-5-1-8a79 79 0 0 1 14-10c1-1 1-2 2-1s2 2 1 3l-4 13Z" style="fill:#af40bb"/>
  <path d="M606 937c10 0 20 7 21 16 1 3-1 6-2 8-4 7-17 7-22 1s-4-10-11-12c0 0 0-6 3-9s7-5 11-4Z" style="fill:#3a533f"/>
  <path d="M1810 297c3 4 3 7 0 11a74 74 0 0 0-6 7c-2 3-5 1-7 0s-5 0-7 3-2 4-4 4-5-1-6-3 0-4 2-5 5-5 6-8c0-2 1-3 3-3l5-1a6 6 0 0 1 6-1c3 2 6-2 8-4Z" style="fill:#1a3e59"/>
  <path d="m1798 416 5-13a32 32 0 0 1 12-14c4-2 6-1 9 0s2 4 3 6a2 2 0 0 1 0 2c-6 4-8 10-12 15a6 6 0 0 1-4 2 14 14 0 0 0-8 4 3 3 0 0 1-4 1l-1-3Z" style="fill:#393755"/>
  <path d="M861 121c2-5 7-2 9-6l2 2a15 15 0 0 0 6 6l-12 3c-7 1-8-1-7-8v-6c0-2-1-5 1-7l1 16Z" style="fill:#a859b3"/>
  <path d="M852 116V99c2 3 3 11 0 17Z" style="fill:#8248ac"/>
  <path d="M856 121v-18a65 65 0 0 1 1 18Z" style="fill:#aa65d6"/>
  <path d="m606 611 1 11h1v-17c2 2 1 4 2 6s0 5 3 5 1-2 2-4l1-2c0 7 2 14 1 21l-2 2c-1 1 0-3-2-3l-1 8c-3-2 0-6-3-8a14 14 0 0 0-1 2c1 2 0 3-2 3s-2-1-2-3v-21Z" style="fill:#9e27bd"/>
  <path d="M205 262c-2-5 2-10 4-15 2-3 22-5 24-3s4 7 1 10c-6 6-12 12-21 14s-8 3-8-6Z" style="fill:#3e2d59"/>
  <path d="M1490 1008c-6-1-11-2-13-9-1-1-2-3 0-5a5 5 0 0 1 5-2c3 1 6 1 8-1s1-1 2-1c4 3 8 2 12 1a10 10 0 0 1 6 0 5 5 0 0 1 2 1c1 1-2 12-4 12l-18 4Z" style="fill:#4a4f4e"/>
  <path d="m351 643-4 8c-2 3-5 4-8 2-8-6-16-10-23-17-3-3-3-7-2-10 0-2 2-2 3-1a2 2 0 0 1 1 1c7 8 17 12 28 12 3 0 4 2 5 5Z" style="fill:#2f0664"/>
  <path d="m107 540-1 8c0 6-4 9-10 7-10-4-11-11-9-21l2-5c1-2 2-6 6-4a6 6 0 0 0 3 0c6-2 8 0 9 6v9Z" style="fill:#3e4054"/>
  <path d="m516 515 2-3h1l-4 12a23 23 0 0 0-4 7c0 4-3 6-7 5s-5-5-9-3l-7 6-1-4c-1-3-3-6 1-8 3-1 4-5 8-4s8-1 9-6c1-2 2-4 5-4s2-4 5-5l1 7Z" style="fill:#ab4ab7"/>
  <path d="M1756 810c1 1 4 0 6 3l2 3c1 1 7 3 4 8-1 2-1 6-4 8-2 1-2 3-2 4a4 4 0 0 1-4 4c-10-1-14-5-16-15a6 6 0 0 1 2-6l9-8a3 3 0 0 1 3-1Z" style="fill:#36533e"/>
  <path d="M512 638c-8 1-13 6-18 9s-16 5-24 5c-3 1-2-3-1-4a58 58 0 0 0 10-14l2-1c7 3 11-1 16-5v4c0 4 3 5 5 3 5-5 7-2 10 3Z" style="fill:#a487a8"/>
  <path d="m1446 984-3-1c-4-5-10-3-14-2-3 1-4 0-5-2s2-3 3-3a30 30 0 0 0 9-3c6-3 12-2 18 0 2 1 2 4 2 5s0 3-2 4l-8 2Z" style="fill:#2a5537"/>
  <path d="M609 758c0 5 2 9 5 11s4 5 3 7c-1 4-5 5-8 2a33 33 0 0 0-8-7 5 5 0 0 1-3-5c0-3 3-2 4-2 4 0 5-3 7-6Z" style="fill:#3e5340"/>
  <path d="M399 516v19c-3-3-5-4-8 1s-6 3-8 0l-3-9c-1-1 0-2 1-2l9-6 2-1c4 4 5 0 7-2Z" style="fill:#a52cbd"/>
  <path d="M402 520c2 6 1 13 0 19Z" style="fill:#622c99"/>
  <path d="M1641 466c-3 0-4-1-4-4 1-6 3-12 2-18l2-2a52 52 0 0 1 8-3c2-1 6-1 4 4s0 7 1 10c2 6 0 9-5 10-2 1-4 4-8 3Z" style="fill:#433258"/>
  <path d="m466 287-2-5c-2 0-3 2-4 3-3 2-6 4-9 0l-7-1c-7 1-5-5-6-8s1-2 3-3c7-3 16-5 23-10 2-2 2 0 2 2Z" style="fill:#ae5fb2"/>
  <path d="M108 319c0-4 0-8 6-7 2 0 5-1 6-4s5-3 7-4 2 3 2 4c4 8 1 14-6 19a13 13 0 0 0-2 3c-3 5-5 5-8 0s-5-7-5-11Z" style="fill:#4b3d54"/>
  <path d="M346 386a354 354 0 0 0 2-15c5-2 7-6 9-10 3 3 7 3 11 4s6 3 5 8l-1 7c0 5-4 7-8 4l-9-3c-3 0-6 4-9 5Z" style="fill:#a929bd"/>
  <path d="m1257 353-1 11c-1 0 0-2-2-3-3 5-6 11-13 10-1-3-2-7 0-11 1-1 1-2 3-1 8 4 8 4 11-5l1-1Z" style="fill:#ae37bd"/>
  <path d="m1235 374-4-5v-2l4-2c2 0 1 2 1 3l-1 6Z" style="fill:#9f27c4"/>
  <path d="M1088 22c2 7 1 14 2 21-4-7-2-14-2-21Z" style="fill:#7628b2"/>
  <path d="M328 1001c2 0 4 0 4-2 1-5 4-2 6-1s3 3 1 6l-5 4c-6 2-11 7-18 9-3 0-3-1-2-3s2-4 3-4c5 0 6-4 7-7s2-3 4-2Z" style="fill:#353458"/>
  <path d="m285 918-4-1-13-8c-2-2-3-4-1-6s4-6 8-4a15 15 0 0 0 6 1c6 0 9 2 11 8 3 9 3 10-7 10Z" style="fill:#4b4653"/>
  <path d="M1458 876c3 2 7 2 11 1 7-1 9 1 8 8 0 3-1 6 4 7 2 1 1 3 0 5s-2 3-4 1-6-4-9-4a4 4 0 0 1-1-1l-10-16Z" style="fill:#335439"/>
  <path d="M126 379c-4 1-6-1-8-5a17 17 0 0 0-4-5c-4-4-2-7 0-10s5-3 8-1 7 4 12 4 3 2 4 4 3 6 0 9-7 5-12 4Z" style="fill:#423358"/>
  <path d="M1593 421c1-6 5-10 8-14h3c1 1 4 0 5-1s2-3 4-1 3 2 2 4v1c2 10-7 13-13 18-3 3-9-1-9-7Z" style="fill:#493258"/>
  <path d="M1888 650c1 3 0 4-4 5-9 2-17-2-22-10-2-4 2-6 4-9s2 1 4 1c4 3 10 4 15 7 3 1 4 3 3 6Z" style="fill:#4a4f4d"/>
  <path d="M1799 612c8 4 15 7 23 7 4 0 5 3 4 6s-2 6-7 4-7-4-9-8c-2-3-3-5-7-4s-3-3-4-5Z" style="fill:#12592e"/>
  <path d="M601 456c2 6 1 12 1 17h-1Z" style="fill:#612094"/>
  <path d="M146 590a9 9 0 0 1-1 6c-2 2-4 2-5 1-3-4-7-4-11-5s-8-9-8-12 0-4 2-5 4-1 6 1a11 11 0 0 1 3 3c2 4 6 5 10 6s5 1 4 5Z" style="fill:#513b55"/>
  <path d="m1328 384-2-5-2-5-5 9c0 1 0 3-2 2a4 4 0 0 1-3-4c0-3 0-7-2-11 3 3 4 2 5 0l4-11c2 3 2 7 7 6l1 6-1 13Z" style="fill:#a51dc2"/>
  <path d="m1628 904-5-2c-2-1-3-4-1-6 5-6 10-11 16-15 4-3 5-3 5 3l1 4c0 2 0 4-2 4-5 0-6 4-7 7s-3 5-7 5Z" style="fill:#4a4653"/>
  <path d="M1664 433c-2 0-2-2-1-3s4-6 0-10c-2-1 1-9 4-10h1c4-1 8-4 10 1s-3 8-6 9c-5 2-5 5-4 9 0 2-1 4-4 4Z" style="fill:#404355"/>
  <path d="M94 902c1-6 4-8 9-12 7-5 11 1 15 4s0 5-2 7c-4 5-10 6-15 8-3 1-7-3-7-7Z" style="fill:#302d59"/>
  <path d="m203 573-13-18c-2-2 1-4 3-4l7-1c6-1 7 1 6 7l-3 16Z" style="fill:#432c5a"/>
  <path d="M142 446c2 4 3 8 8 6 3-1 8 9 7 12s-3 3-6 1-1-3-2-3c-9-2-6-9-7-16Z" style="fill:#483359"/>
  <path d="m488 444-14 8a2 2 0 0 1-2 0c-5-3-7 1-10 3a20 20 0 0 1-8 5c5-6 9-12 12-19 2 7 5 6 9 4a15 15 0 0 1 13-1Z" style="fill:#aa43bd"/>
  <path d="M1276 433c-1 6 5 9 6 15 0 1 4 1 3 4l-2 2c-6 0-8-2-8-8v-14Z" style="fill:#a930c2"/>
  <path d="M1272 430c2 8 1 15 1 23-3-7-1-15-1-23Z" style="fill:#8d30bd"/>
  <path d="M1646 348c3 0 3 1 2 4l-6 9c-2 3-3 1-4 1-4-2-8-2-11 0-1 1-3 1-3-1s-3-4 0-5c7-3 14-7 22-8Z" style="fill:#2c245c"/>
  <path d="M295 724c-1-7-1-7 6-6a33 33 0 0 0 9 1c3-1 5 1 6 4s1 4-1 5-1 5-3 8-7 4-11 1-8-7-6-13Z" style="fill:#303059"/>
  <path d="M1678 102c0-3 1-6 5-6a9 9 0 0 0 6-3c4-4 9-2 13-4l1 2c0 3-2 6-4 6-4 1-7 5-10 7a10 10 0 0 1-5 3c-3 0-6-2-6-5Z" style="fill:#49305a"/>
  <path d="m282 106 8 7c2 3-1 3-2 4l-3 7a9 9 0 0 1-8 6c-4 0-5-3-6-6a10 10 0 0 1 0-9l10-9h1Z" style="fill:#431c5d"/>
  <path d="M253 198c-1 3-2 6-4 6-6 1-10 5-14 7-3 1-6 2-8 0s-2-7 2-10 6-3 9-4a14 14 0 0 0 5-3c2-2 3-4 6-3s3 5 4 7Z" style="fill:#310b63"/>
  <path d="M755 522c-1 6-4 12-8 18-2 3-5 1-6 0-4-6 1-21 7-24s7-3 7 6Z" style="fill:#300a63"/>
  <path d="m107 824-11-4c-1-1-3-2-1-4s3-5 7-6 10 2 11 5c3 5 0 9-6 9Z" style="fill:#46514c"/>
  <path d="m1586 957-4-2-3-14v-2c1-1 2 1 2 1 4 5 8 6 13 6a5 5 0 0 1 5 3c2 4 2 5-3 6l-10 2Z" style="fill:#4d4b52"/>
  <path d="m255 388 7-14a7 7 0 0 1 3-3l9-4c3-2 5-1 7 0s2 3 1 5l-1 9c-1 7-5 11-12 12a4 4 0 0 1-2 0 29 29 0 0 0-12-5Z" style="fill:#a28ea5"/>
  <path d="M320 818c-7 1-7-5-10-9s0-6 2-8 6-4 9-3 7 3 6 8l-2 7c0 4-2 6-5 5Z" style="fill:#4d4a51"/>
  <path d="M1426 1075c-3 0-5-1-4-5-5-4-1-8-1-12s2-3 4-2a62 62 0 0 1 9 6c3 2 2 5 1 7a8 8 0 0 1-9 6Z" style="fill:#533558"/>
  <path d="M330 930c5-1 11 3 11 6s-5 7-11 7a21 21 0 0 1-10-4c-4-2-4-5 0-7s7-3 10-2Z" style="fill:#415246"/>
  <path d="m452 109 2-9 2 1c0 9 1 17-3 26-2 4-6 5-9 6s-6-3-8-4-1-4 0-6a66 66 0 0 1 9-16h3Z" style="fill:#96a1a1"/>
  <path d="M807 19c0 8 1 15-6 20-3 2-5 3-10 2s-7-3-8-7c-1-2-1-3 1-4 3-2 7-5 11-6a43 43 0 0 0 12-5Z" style="fill:#aa67b1"/>
  <path d="M54 315c-2 0-4 0-4-3a41 41 0 0 1-1-18c0-2 1-2 2-1l11 6c3 2 0 5 0 7 1 6-2 9-8 9Z" style="fill:#4a5149"/>
  <path d="M769 261c4 4 6 9 9 14 1 2 0 3-1 4l-8 6a3 3 0 0 1-3 0c-8-4-9-4-4-12l2-4 5-8Z" style="fill:#ad43b9"/>
  <path d="M1583 879c-1 0-4 0-4-3s0-4 3-6c5-3 12-3 18-6a1 1 0 0 1 1 1v4c-6 3-9 9-16 10Z" style="fill:#425345"/>
  <path d="M155 843c0 9-4 14-12 14-2 0-4 0-5-3s0-3 2-5l9-8 4-3 2 5Z" style="fill:#36543e"/>
  <path d="M1736 908a13 13 0 0 0 2-2c1-2 2-2 4-1l1 1-4 2h-3Z" style="fill:#55495b"/>
  <path d="M1701 42h-8c-3 0-3-1-3-2l1-4a35 35 0 0 1 17-6l5 2c2 1 1 1 0 2-4 7-6 8-12 8Z" style="fill:#420664"/>
  <path d="M283 590c-2 5-1 11-5 15-2 2-3 2-5-1l-3-5c-1-2-4-4-3-7s4-6 7-8 10 2 9 6Z" style="fill:#290663"/>
  <path d="M1897 422c2 7-3 13-4 19l-2 1c-2-2-6-3-6-6s-1-6 2-8l10-6Z" style="fill:#3a5345"/>
  <path d="M451 957h-2v-3c6-2 8-8 14-9l3 1c1 1 0 2-1 2-4 2-6 6-9 8l-5 1Z" style="fill:#535353"/>
  <path d="M278 474c8 4 10 11 12 19a2 2 0 0 1 0 2c-4 3-6 8-11 10-2-10-1-20-1-31Z" style="fill:#9f86a7"/>
  <path d="M240 630c-4 0-7-1-9-5a101 101 0 0 0-7-7c-1-1-2-2-1-3h2c8 2 13 7 15 15Z" style="fill:#3f5451"/>
  <path d="M192 683c0 3-4 6-7 5l-11-5a3 3 0 0 1-1-4c0-2 1-4 3-5s14 4 16 8Z" style="fill:#3e5249"/>
  <path d="m67 203-11 9c-4 2-5 1-6-3l-2-4c-1-6 0-8 6-6l13 4Z" style="fill:#4d3f54"/>
  <path d="M1511 732c-4 0-6-2-8-3s-1-2 1-3a26 26 0 0 1 14-5c2 0 3 2 4 3s-2 2-3 2a21 21 0 0 0-4 3 7 7 0 0 1-4 3Z" style="fill:#425353"/>
  <path d="M392 733c1-4 6-6 9-5 7 3 8 6 5 12-1 3-3 4-6 1s-3-5-7-5c-2-1-1-2-1-3Z" style="fill:#41315a"/>
  <path d="M530 875c-3 5-8 6-13 6l-2-1 2-3c4-2 8-3 13-2Z" style="fill:#3b4258"/>
  <path d="M1336 315c1 5-1 10 4 13-7-1-15 5-22-1 2-2 5-3 6-7l3-1c3-1 6-1 9-4Z" style="fill:#a416c2"/>
  <path d="M1478 129c0 5 3 5 6 6a7 7 0 0 1 5 8 6 6 0 0 1-2 2l-7 10c-2 3-4 1-5-1-2-8-1-17 3-25Z" style="fill:#a678ab"/>
  <path d="M321 260a19 19 0 0 1 1-6c1-6 2-6 7-3a11 11 0 0 0 7 3c3 0 4 0 2 3-4 5-9 7-14 10-1 1-2 0-3-1v-6Z" style="fill:#2e0165"/>
  <path d="M1729 522c0-4-1-5-4-6s-2-2 0-3l8-5 3 1v3l-7 10Z" style="fill:#3e3e56"/>
  <path d="M1426 744c-4 2-8 1-11 5-1 1-6-3-6-5l1-4c4 7 11-2 16 4Z" style="fill:#540c67"/>
  <path d="M1190 425c9 4 7 12 8 19 0 2-1 2-3 1-3 0-6-1-9 1l-1-12v-2c8 1 3-5 5-7Z" style="fill:#ac4eb6"/>
  <path d="M1196 577a24 24 0 0 1 3-11c2-3 4-5 8-4s4 2 5 5-1 4-2 5c-3 4-6 8-11 9-2 0-4 0-3-4Z" style="fill:#2c1160"/>
  <path d="M308 376c-2 1-2-1-3-2s-2-5 0-7c5-6 13-9 19-15 1-1 2 0 3 1s2 1 2 3c-1 7-12 19-19 20Z" style="fill:#2c0064"/>
  <path d="m357 489-2-5c-2-10-2-10 8-15 2-1 2 0 3 2l1 5c2 4 3 8-4 9-2 0-4 3-6 4Z" style="fill:#ac2ebd"/>
  <path d="m72 895-7 8c-3 2-6-5-7-8s7-9 9-9 5 7 5 9Z" style="fill:#424c53"/>
  <path d="M1410 651c-2 0-4 1-4-2s-4-4-1-7a53 53 0 0 1 9-9c2-1 12 4 12 6 0 4-3 7-6 9s-6 3-10 3Z" style="fill:#a781aa"/>
  <path d="M163 526c0 4 1 9-4 9s-4-4-5-7-3-5-1-7 5-1 8-2 1 1 1 2l1 5Z" style="fill:#4f3e55"/>
  <path d="m395 768-7 5c-2 2-2 0-3-1-4-2-7-5-10-9-1-1-4-3-3-5s5-5 7-6 7 2 10 4 4 8 6 12Z" style="fill:#a490a5"/>
  <path d="M298 277c-4 8 2 16-1 23-2 5-4 6-8 6s-5-2-5-5-5-6 0-9l2-3c2-7 8-8 12-12Z" style="fill:#280066"/>
  <path d="M712 193c6-7 15-8 19-16l1 1a2 2 0 0 1 1 1c0 4 1 9-1 11s-7 1-11 2l-9 1" style="fill:#b146bb"/>
  <path d="M46 391c0-3 3-9 6-10s5 4 5 7a20 20 0 0 1-4 9c-1 1-3 3-4 2a5 5 0 0 1-3-4v-4Z" style="fill:#39553a"/>
  <path d="M1167 523c1 3-6 11-9 11s-4-2-5-3c-3-7-3-8 4-11l4-1c4-2 6 0 6 4Z" style="fill:#3b185e"/>
  <path d="M407 1060c-7 6-12 17-24 13 1-8 7-13 14-18h2l8 5Z" style="fill:#a493a5"/>
  <path d="m1892 532-5-2c-2 0-4 1-3-2s2-5 5-4 7 3 11 1c1 0 2 1 1 2-2 2-4 6-9 5Z" style="fill:#514354"/>
  <path d="M1407 534c-3 0-4-1-3-4a11 11 0 0 0 1-11c-2-4 1-5 2-8s4-1 6 0a15 15 0 0 1 11 11c1 3-4 9-8 10l-9 2Z" style="fill:#280061"/>
  <path d="M445 655c-1 5-1 11-8 13-2 0-3 2-5 0s-5-4-3-8 8-7 12-9c3-1 3 1 4 4Z" style="fill:#260365"/>
  <path d="m458 806-9-2-1-1c0-5 5-13 10-14 3-1 6 1 8 3s3 6-1 9l-7 5Z" style="fill:#aa7bab"/>
  <path d="M1812 790c0 3-4 8-6 7s-8-7-7-8 2-5 5-6c5 0 9 3 8 7Z" style="fill:#415342"/>
  <path d="M1294 694c2-6 7-11 14-13l3-1c1 0 6 0 6 4 0 6-4 10-8 11h-15v-1Z" style="fill:#a489a8"/>
  <path d="M1697 798c-1-2-5-3-4-6s0-8 4-8 10 4 10 6-7 8-10 8Z" style="fill:#473f55"/>
  <path d="M317 884c-2 0-5-5-4-7a19 19 0 0 1 7-7c3-1 4 1 6 3s0 3-2 4l-5 5-2 2Z" style="fill:#4d4b52"/>
  <path d="M1839 339c1-1 0-4 2-4s9 2 10 6c0 1-5 6-7 6s-4-5-5-8Z" style="fill:#454455"/>
  <path d="M1703 376c0 3-3 4-6 4-2 1-9-7-8-8 2-3 5-6 9-6s5 2 5 10Z" style="fill:#441c5e"/>
  <path d="M1688 291c0 3-5 8-8 8s-3-2-3-3c2-3 1-8 5-9 1-1 5 1 6 4Z" style="fill:#473559"/>
  <path d="M1448 655c3-4 7-5 11-6s5-1 4 4a12 12 0 0 1-2 5c-1 2-3 4-6 0s-4-2-7-3Z" style="fill:#300a64"/>
  <path d="M1775 71v8c0 2-2 3-4 3s-2 1-3 0a5 5 0 0 1 2-5l5-6Z" style="fill:#47235e"/>
  <path d="m1290 483-3-14 1-2a2 2 0 0 1 2 2l1 14Z" style="fill:#9f12b2"/>
  <path d="M1179 592c-3 3-7 4-10 5-1 1-3 2-4 1a7 7 0 0 1 0-7c1-2 4-3 5-2l9 3Z" style="fill:#420d64"/>
  <path d="m954 55 2 1c2 0 4-3 5 0s-1 6-4 8-2 0-2 0l-4-5c-1-2-2-2-1-3l4-1Z" style="fill:#4e4056"/>
  <path d="M844 112V95h1v17Z" style="fill:#41225a"/>
  <path d="m837 113 4-13c0 4 3 9-4 13" style="fill:#b03ac6"/>
  <path d="M510 784c-2 0-4 0-4-2s-1-4 1-5l3-3c2-1 3-3 6-2a5 5 0 0 1 2 5c0 2-2 5-5 6a16 16 0 0 1-3 1Z" style="fill:#2c1d5e"/>
  <path d="M1828 271c2 0 7 5 7 7s-2 6-5 7c-2 0-6-6-6-9s0-5 4-5Z" style="fill:#3d3458"/>
  <path d="M1614 568v-6c-1-2 1-4 4-4s4 1 5 3 0 1 0 2c-3 2-5 4-9 5Z" style="fill:#415345"/>
  <path d="m622 688-6 1c-2 2-2 4-4 1s-1-6 1-8 3-2 4-1 2 1 2 2a5 5 0 0 0 3 5Z" style="fill:#40175f"/>
  <path d="M271 772c5-5 9-6 12-2 1 1 2 1 2 3s-2 1-3 1Z" style="fill:#413d58"/>
  <path d="M1745 928c7-5 9-4 11 2 0 3-2 3-4 4s-1-1-2-2l-5-4Z" style="fill:#425442"/>
  <path d="M1433 709c-3 0-5-1-6 2s-3 2-5 1-3-1-2-3 1-4 3-3l10 3Z" style="fill:#431b60"/>
  <path d="M381 97c-1-2 0-3 2-4a21 21 0 0 0 9-4c1 0 2-2 3-1v3c-1 4 2 9-4 12s-10 0-10-6Z" style="fill:#a778ac"/>
  <path d="M407 284a7 7 0 0 1 3 6c0 5-3 9-6 9s-8-6-8-8 8-7 11-7Z" style="fill:#230166"/>
  <path d="m1692 551 6 9c2 3 0 2-2 3s-2 0-2-1c-1-3-3-6-2-11Z" style="fill:#445848"/>
  <path d="M1864 618c-6-2-7-5-4-9 1-1 2-3 3-2s4 2 2 5 0 4-1 6Z" style="fill:#425345"/>
  <path d="M1347 154c2 1 6 0 7 3s0 9-2 13" style="fill:#ac5bb4"/>
  <path d="M481 77a119 119 0 0 0 8-13c2 3 5 5 3 9-2 7-8 2-11 4Z" style="fill:#ae3cbb"/>
  <path d="M1748 431c4 7 4 15-2 20-2 3-6 0-8-1s-1-3 0-4c2-7 3-7 10-15Z" style="fill:#99a09d"/>
  <path d="M440 687c3 2 7 2 9 5s-1 5-2 7l-6 5c-2 3-4 2-5 0s0-14 3-17Z" style="fill:#9ba2a0"/>
  <path d="M752 69a21 21 0 0 1-1-12c2 4 1 8 1 12Z" style="fill:#8237b2"/>
  <path d="M1784 859c0 2-1 3-2 3-3 0-6-2-6-5s0-7 3-7 3 6 5 9Z" style="fill:#485250"/>
  <path d="M158 639c4-1 8 1 11 2s0 3-1 4a2 2 0 0 1-4 0 31 31 0 0 0-6-6Z" style="fill:#384657"/>
  <path d="m615 201-2-3-5-7 10-6a2 2 0 0 1 2 0v2c-2 1-2 4-3 6l-2 8Z" style="fill:#ab52b5"/>
  <path d="M87 38a48 48 0 0 1 3 7c0 3 3 5 0 8a12 12 0 0 1-13 0c-1 0-2-1-1-2 3-5 5-10 11-13Z" style="fill:#a493a5"/>
  <path d="M1279 527c3 3 9 6 2 11l-2-5c0-2-2 2-4 2Z" style="fill:#a542b7"/>
  <path d="M356 812c0 2-2 2-3 3-8 3-8 3-10-4l-1-1c0-3 2-4 3-6s2 1 3 2a29 29 0 0 0 6 2 3 3 0 0 1 2 4Z" style="fill:#a782ac"/>
  <path d="M1510 965c-2-1-6-1-6-4a3 3 0 0 1 3-4l6 6-3 2Z" style="fill:#30375d"/>
  <path d="M639 132v12l-13-6Z" style="fill:#b141bd"/>
  <path d="M435 758c-1 4 1 9-4 11-1-4 2-7 4-11Z" style="fill:#395a45"/>
  <path d="M1514 291h-2v-4a73 73 0 0 1 10-4c3-1 2 1 2 3-2 5-6 5-10 5Z" style="fill:#2e0d64"/>
  <path d="m1347 530 12-10c0 9-8 7-12 10" style="fill:#9810c3"/>
  <path d="M1824 71c1 3 0 4-3 4-2 0-4 0-4-2s2-6 5-7 2 3 2 5Z" style="fill:#425443"/>
  <path d="M510 993c2-4 4-9 9-11 2-1 3-3 5-1s2 4 0 6c-4 5-8 8-14 6Z" style="fill:#96a39a"/>
  <path d="m1284 222-3 8c-1 5-4 4-7 5-1 0-2-1-1-2s-1-4 1-5Z" style="fill:#b149b8"/>
  <path d="m312 444 3 2c6 1 6 4 4 8-1 1-1 3-3 3s-3-2-4-3-2-6 0-10Z" style="fill:#310067"/>
  <path d="M1845 880c4-1 6 1 9 1s2 1 1 2-1 2-2 1-5-1-8-4Z" style="fill:#525054"/>
  <path d="M209 173c-3 2-5 4-7 3s-1-4 0-5 4 1 7 2Z" style="fill:#3e4258"/>
  <path d="m402 683 5-13 1 5c1 6 1 6-6 8Z" style="fill:#a84db8"/>
  <path d="M338 606c5 8 5 8 0 15Z" style="fill:#a96ab9"/>
  <path d="M1710 755c7 1 6 6 5 10s-4 5-7 4-1-2-1-3v-1Z" style="fill:#8da593"/>
  <path d="M1417 564c0 2-3 2-5 3s-2-1-3-2l-1-3c-1-4 2-8 6-8l1 1 2 9Z" style="fill:#a591a7"/>
  <path d="M1295 219c1-4 4-5 6-7s3 0 4 1-1 2-1 3c-1 6-5 4-9 3Z" style="fill:#af6eb5"/>
  <path d="M351 272c3-1 4-6 7-3s3 5 1 6-5-2-8-3Z" style="fill:#b14fb8"/>
  <path d="m1224 370-5 8c-2-2-1-5 5-8Z" style="fill:#b115d3"/>
  <path d="M297 518c3 5 3 5 4 12-2-1-4 0-6-3s-1-7 2-9Z" style="fill:#af73b1"/>
  <path d="M458 192c1 6-3 7-6 9-1 1-2 0-3-1a3 3 0 0 1-1-4 55 55 0 0 1 6-6 5 5 0 0 1 4 0v2Z" style="fill:#1d0067"/>
  <path d="M1870 264c0 2-6 6-9 6s-2-3-2-4 8-6 9-6l2 4Z" style="fill:#89a58d"/>
  <path d="m518 551 4-9c2 5 2 5-4 9Z" style="fill:#a728c2"/>
  <path d="m1736 81 5-9c2 4 1 7-5 9Z" style="fill:#b278be"/>
  <path d="M507 849c0 6-1 9-7 8Z" style="fill:#74b37b"/>
  <path d="M64 90c5 5 5 5-2 9Z" style="fill:#75b07a"/>
  <path d="M511 810v8c-5-6-5-6 0-8Z" style="fill:#bd63bb"/>
  <path d="M596 799c-8-2-8-2-2-7Z" style="fill:#87a893"/>
  <path d="M1309 211c2-3 2-5 4-5s1 2 1 2c0 4-2 2-5 3Z" style="fill:#915a9d"/>
  <path d="M166 1067c-4 0-7-2-11-1a1 1 0 0 1-1 0v-1c0-3 0-7 2-8 5-4 7-10 11-15 2-1 3-3 5-1l3 1c7 1 12 9 11 16a2 2 0 0 1-1 2c-6 3-12 6-19 7Z" style="fill:#2b5436"/>
</svg>
