<svg id="Background" xmlns="http://www.w3.org/2000/svg" viewBox="0 0 1919.2 1080"><path d="M266.8,1080.8h-66c.5-5.5,4.9-8,9-9.6,7.4-3.1,12.5-7.8,15-15.5.7-2.2,2.3-3.9,4-5.6s4-11.1,2-14.2a6.8,6.8,0,0,0-3.9-3c-8.2-2.1-16.5-3.9-24.9-.5-3.1,1.3-5.8,1.9-6.7-2.6a1.3,1.3,0,0,0-.9-1.1c-5.6-.7-4.7-5-5.1-8.7-.1-1.2.3-2.5-.5-3.4-3-3.9-1.2-6.1,2.7-7.2-.2-.9-.7-1.1-1-1.5s-4.3-.1-4.8-2.8-2.1-6-1-8.8-1-4.6-3.7-4.9a156.3,156.3,0,0,1-30.9-7.4,39.2,39.2,0,0,1-8.9-4.5,5.6,5.6,0,0,0-6.5-.4c-6,3.7-9.4,9.7-13.4,15.1-.7.9.1,1.6.7,2.2a4.6,4.6,0,0,1-.2,4.9c-1.3,1.6-1,3.4,1.5,4.3,4.9,1.8,10.1,3,14.6,5.8,2.5,1.5,5.1,1.1,7.5-.6,4.9-3.6,10.6-2.9,15.9-2s5.6,5.4,6.7,9.2-1.9,4.2-4.1,5.4-4.3,4.1-6,6.5c-5.4,7.5-13.6,9.1-21.9,10.4-2.8.5-5.4-1.2-7.3-3.6-4-5.2-9.1-9.2-14.4-13-.8-.6-1.6-1.5-2.6-1.3-4.4.9-5.8-2-7.1-5.3-3.7-9.1-10.3-12.5-20.1-10.5a54.9,54.9,0,0,0-7.8,1.8c-6.1,2.2-10.2-1-14.4-4.4-2.5-2-2.2-4,.6-5.4s6.1-3.1,9.2-.4c1.2-3.3,3-5.6,6.6-6.7s8.5-5.1,13.8-4.9c1,0,1.2-1.2,1.3-1.9a10.7,10.7,0,0,1,5.5-8.4c1.5-.9,1.8-2.8,2.5-4.3,2.6-5.5,4.8-11.4,9.7-15.5,1.3-1,2.7-2.8,4.2-2.3,6.5,2.3,7.8-3.7,12.3-6.9a62.4,62.4,0,0,1-18.3,1c-2.1-.3-4-.5-5.7-1.8s-5.4-3.7-8.7-.7c-1.4,1.3-3.2-.3-4.8-.5a54,54,0,0,0-18.8,0c-3.3.6-5.4-.2-4.6-4.1.4-1.7-.4-2.3-1.8-2.9-7.6-3.5-14.4-8.3-22.4-10.8-.3-.1-.8-.2-.9-.4-4.5-6-11.2-4.1-17.1-4.7-3.7-.4-5.3-1.9-5.5-5.6-.4-7.8,2.9-13.9,8.4-18.9a20,20,0,0,0,3.6-4.1c1.3-1.7.9-2.8-.8-4.1-5.3-4-5.9-9.8-1.6-15a5,5,0,0,0,1.4-3.5c-.2-5.1,2.5-9,5.9-12.3s5.6-7.3,8.2-11.2c1-1.6,1.5-3.1,0-4.5s-2.3-3.6-4.9-2.6-5.2-.9-6.1-4.1-1.5-9.2-4.4-13.1-3.7-3.8-7-3.3-8,.1-11-3.3a10.2,10.2,0,0,1,.4-14.3l1.6-1.2a15,15,0,0,1,12.3-2.5,7.2,7.2,0,0,0,4.8-.4c5.4-2.3,7.2-4.5,7.1-10s-3.1-6.5-7-8.6c-7.3-3.9-15.5-3.6-23.1-5.8s-7.2-3-4.7-9.3c.1-.4.7-1,.5-1.3-4.4-5.3.3-9.7,1.5-14.4s1.7-6.2-1.8-8.7-1.5-3.8.7-5.3c4.9-3.4,10.5-4.1,16.2-3.6,1.9.2,3.4.9,4.5-1.4s1.5-3.7-.2-5.9a59.8,59.8,0,0,0-6.8-7.9c-5.1-4.7-6.3-10.8-7.6-16.9-.3-1.5-.3-3.1-1.3-4.3s-2.7-4,.5-6c1.2-.7.7-2-.5-2.9-3.9-2.8-4.3-7-3.7-11.2A9.2,9.2,0,0,0,2,666.7a10.6,10.6,0,0,1-2.6-7.8c.1-4,.3-8-.6-11.9-1.7-7.4,1.9-13.7,4.1-20.2a14.4,14.4,0,0,0,.6-8.7c-2.2-9.3,0-18.5,1.4-27.6.6-4.6,2.8-5.7,7.4-5.2s8.8,1.5,13.2,2.1a7.6,7.6,0,0,1,5.5,3.1c1,1.3,1.9,3.8,4.1,1.4s3.8-3.6,1-6.3c-5-4.9-9.6-10.2-15.1-14.5s-7.1-6.8-8.2-12.1a25.1,25.1,0,0,0-7.5-13.2C-.9,539.6.1,531.4.8,523.7c.6-5.9,2-11.9,5.1-17.1,1.4-2.4.5-4.3-.8-6.4a21.1,21.1,0,0,1,3.8-25.9c.5-.5.9-1.1,1.5-1.3,9.1-3.4,15.3-11.9,25.1-14.1,4.3-1,6.4-3.9,6-8.5a10.2,10.2,0,0,1,.5-3.9c.6-2.2,1.9-2.6,3.7-1.3s2.2,3.4,4.4,2.8a12.4,12.4,0,0,0,6-4.3c2.8-3.9,3.9-8.7,6.6-12.8,1.2-1.9-.9-4.4-1.3-6.6s-3-2.9-5.4-2.5a6.8,6.8,0,0,1-3.4-.6c-5.3-2-9.2-.1-10.9,5.3-1,3.3-1.7,6.7-3.2,9.9-2.3,4.7-5.5,4.9-8.2.5-.9-1.4-1.7-2.2-3.5-1.8a13.3,13.3,0,0,1-4,.2c-7.2-.6-13.8-1.9-16.6-10.1-1.4-4.2-4.9-7.5-6.3-11.8-.7-2.2-1.5-4.3-1-6.4,2.2-8.2,2.9-17.1,9.1-23.8,3.4-3.7,4.8-7,1.6-12.3C5.3,363.7,3.3,355,3,346.6c-.2-5.4,1.3-11.1,1.7-16.7a48.2,48.2,0,0,0,0-9.3c-.4-3.9-1.5-7.9-.4-11.9.5-1.9-.5-3.3-1.5-5s-3.7-6.3.3-9.2c1.5-1.2.7-2.4.2-3.6-3.4-7.4-3.2-15.2-2.8-23,.2-4.4,1.7-7.5,6.4-8.9a89.2,89.2,0,0,0,12.3-4.2c2.4-1.1,4.9-2,6.4-4.4.3-.4.6-1,1.1-1,7.1-.7,2.3-6.1,3.5-9.1.3-.7-.3-1.4-1.3-1.7-5.8-2.2-9.9-7-15.5-9.7S7.9,222.7,8.6,218c.2-1.1.5-2.3.8-3.4.9-5,.6-8.9-3.9-12.7S3,192.7,4,188.2s2.4-9.5,7.2-12.1c1.5-.7,1.5-2,1.3-3.4-.5-4.8-1.5-9.5-1.2-14.4a3.4,3.4,0,0,0-1.2-2.6c-2.4-2.3-2.3-5-1.3-7.9s1.3-4.5-1-6.3a2.2,2.2,0,0,1-.8-1.3c-.2-5-1.1-9.6-6.5-11.9A2.8,2.8,0,0,1-.4,126c.9-5.5.1-11.3,1.8-16.7.3-1.1,1.4-2,.9-3.3-1.9-4.8,1.2-4.1,4.1-3.6,5,.9,9.8,1.5,12.8,7s5.9,3.4,7.5-1.2a23.7,23.7,0,0,1,3-6.2c3.4-5.3,3.2-8.1-.4-12.9-2-2.6-4.9-2.3-7.3-2.5-4.2-.3-8.3-1-12.4-1.2S3.4,84.1,3.4,79c.1-13.9-1.3-28,3.1-41.6a9.4,9.4,0,0,0-.4-6.8c-1.6-4-3.1-8-2.8-12.5a2.6,2.6,0,0,0-.9-2.7A6.7,6.7,0,0,1,.2,6.9C1.3,4.3-1.4,3-1.2.9h69c1.1,1.3.5,2.5-.2,3.6-3.1,5.1-5.3,10.7-9.8,15s-5.1,7.3-6.5,11.6-1.6,5.8-3.9,8-.9,3.6-.7,5.5c.5,5.8,2.7,11.4,1.5,17.2-.3,1.5.2,3.9-2,4.1s-2.5-1.8-3.1-3.4a4.6,4.6,0,0,0-1.2-2.4c-1.4,1.4-1.4,3.3-1.7,5a5.6,5.6,0,0,1-2.1,3.8c-1.2.9-4,.7-3.3,2.9a9,9,0,0,0,4.5,5.1c5.8,2.5,11.4.1,13.8-5.6.9-2.1,1-3.7-1.1-4.5-4.1-1.7-4.1-4.8-3.3-8.3.4-1.9.9-3.9,1.4-5.8s.6-2.4,1.5-2.5c7.6-.9,8.1-8.7,12.3-12.9s5.2-7.6,8.7-10.8,1.8-6.6,2.6-9.9,1.4-5.6,3.6-7.4,4.5-5.7,7-8.3h79c1,3-1.1,4.8-3,6.3-4.3,3.4-9.1,6.4-14.6,7s-10.2,5.9-14,10.3c-1.8,2,.5,4.9,1.8,6.7s4.4,1.8,6.4.4c5.3-3.6,11.2-6.6,15.1-12,2-2.8,4.3-4,7.7-3.2s4.2.3,4.5-2.9a3.2,3.2,0,0,1,3.3-3.2h.5c5.8.3,10.4-1.3,12.7-7.2.5-1.2,1.7-1.6,2.6-2.3h83c1.5,4.7,6.3,7.6,6.6,13,.1,2.2,1.7,1.5,2.6.2a26.1,26.1,0,0,0,3.2-5.6c.8-2.4-2.1-3.1-2.9-4.9S279.2,2,279.8.9h112c.7,1.5-.2,2.7-1.2,3.5-4.4,3.5-6.7,8.6-10.4,12.6-.4.3-1.1.5-1,1,1.6,8.3-6,8.9-10.4,11.7-2.2,1.4-4.1,2.2-5,4.8a49.2,49.2,0,0,1-2.3,6c-.6,1.6-.4,4.5-3.6,3,1.4,2.3.6,5.4,3.1,7.4,4.5,3.9,4.2,6.3-.8,9.3a7.9,7.9,0,0,0-2.2,1.9A61.5,61.5,0,0,1,346,74c-1.2,1-2.5,2-.9,3.7s2.4,3.8,4.8,2.3c4.1-2.6,5.7-1,6.3,3.1.3,1.7,1.4,1.6,2.6,1.1,2.8-1.2,5.1-2.5,6.3-5.8,1.8-5.2,4-10.2,3.3-15.9-.1-1.3,0-3,1.2-3.7,5.9-3.3,6.6-11.6,13.3-14.2,1.9-.7,2.1-3,2.5-4.7,2.3-9.2,7.2-17.4,11.3-25.9.7-1.5,1.4-3.1,2.8-4,3.6-2.2,5.7-5.4,7.3-9.1h106c1.2,1.6.2,2.8-.7,4a14.6,14.6,0,0,1-3.4,3.6,59.2,59.2,0,0,0-17.2,17.7c-2.7,3.9-7.3,3.5-11.4,3.8-1.7.2-3.6-.8-5.4,1.3,6.3,0,12.3.9,18-1.7a8.2,8.2,0,0,1,4.3-.9c9.7.4,16.2-4.9,21.7-12a83.6,83.6,0,0,0,7.1-11.4c1.1-1.8,2.1-3.5,4-4.4h14c.3.4.7,1.1.4,1.3-5,5-2.4,11.3-2.9,17-.2,1.9.6,3.7,2.8,2.6s6.2-2.1,9.1-3.8c5.2-3,6.1-7.4,4.6-12.8-.4-1.4-.9-2.8,0-4.3h666.9c.3,2.6-1.6,2.2-3.2,2.6a6,6,0,0,0-4.6,7.1c.1.4.3.8.4,1.2s1.8,1.3,2.6.2a8.2,8.2,0,0,1,6.7-3.6c1.6-.1,1.9-1.7,2.6-2.7s1-3.5,2.5-4.8h84c2.4,2.7,1.6,6.1,1.3,9-.6,5.7,2.7,9.9,4.4,14.5,1.8.1,1.8-1.1,2.1-2,1.2-3.7,3.2-5.8,7.3-3.8,2.1,1,2.9-.1,3.5-2,1.5-5,1-9.1-3.7-12.1-1.2-.8-2.5-1.7-1.9-3.6h322.9c.8,2.2.8,4.5,1.6,6.7,1.7,4.8,2.9,5.6,7.6,4.5l4.3-1c4.2-1.2,8.2-2.4,7.3-8.1-.1-.8.7-1.5,1.2-2.1h234c3.8,3.3,3.8,7.7,2.9,11.9a28,28,0,0,0,.4,13.2,88.9,88.9,0,0,1,3.2,24.6,44.5,44.5,0,0,0,1.3,10.9c1.5,5.9-.9,10.4-3.7,14.9s-8,4-13.4,2.3c-1.9-.7-3.7-1.7-5.6-2s-4.9-1.5-6.5,1.5a2.9,2.9,0,0,1-1.3.8c-1.6.8-4.7-.8-4.7,2.3s-1.2,7.3,1.7,10.5,5,5.3,8.9,5.7a7.5,7.5,0,0,1,4,1.9c2.8,2.1,5.7,2.3,9,1.5,5.8-1.3,7-.1,8.5,5.7s.9,10,.7,14.9c-.3,6.9,1,13.6,2.1,20.3,1.8,9.7.7,19.6.9,29.4,0,2.2-1,4.2-1.9,6.1-2.4,5.2-2.3,10.5-1.4,16.1s.2,11.9,1.2,17.9c.4,2.4-1.4,4.4-2.7,6.3s-1.9,2.8-.8,4.5c4.5,6.9,2.9,15.2,4.7,22.7,2.6,10.7-.9,21.1-1.1,31.6a67.5,67.5,0,0,0,1,11.9,47.6,47.6,0,0,1-7.6,37c-.8,1.3-1.6,2.8-3.3,2.5s-1.8-1.8-2-3.1c-1.1-6.4-4.4-10.4-10.9-12.1-4.9-1.2-7.4-5.4-9.7-9.5-.7-1.2-1.1-2.7-.4-3.8,3.1-5.6,3.7-12,5.6-18.4-3.4.9-6.8,1.3-9.5-1.8-1.1-1.3-2.3-.7-3.5.2-4.9,3.8-6.3,9.5-2.6,15.9s4.5,10.3,5.8,15.8c.9,3.9,1.8,7.7,4.2,11.1.8,1.1,1.6,2.6,1,3.7-2.2,4.2.1,7.3,1.9,10.8a29.2,29.2,0,0,0,8.2,9.9c2.3,1.7,3.5,4.4,5.8,6.1.5-.2.2-.7.3-1.1.6-3.1,1.2-6.3,5.3-5.7s5.7,4.8,4.3,8.3a8.3,8.3,0,0,0,.3,7.8c3.4,7.2.6,16.7-5.8,21.5l-6.4,4.4c0,.6.1.9.4,1.1,11.9,6.6,15.7,17.6,16.8,30.2.9,10.6,3.1,21,2.9,31.7a86.4,86.4,0,0,1-2.2,18.3,9.4,9.4,0,0,1-3.7,6.3c-3.3,2.2-6.7,4.1-9,7.6a2.6,2.6,0,0,1-2.6,1c-.9-.1-2.2-2.1-2.7.3s1,1.9,2.2,2c6.6.5,10.2,4.5,13.1,10.1s2,9.3,1.4,14.1a24,24,0,0,1-1.2,5.3c-2.2,7.5,0,14.7,2.3,21.6s1.3,18.5-4,24.3c-1.2,1.3-2.6,2.4-4.3,2.1-7.1-1.3-13.7,1.9-20.8,1.7-3.7-.1-4.7,2.4-2.2,5.3a27,27,0,0,1,6,10.2c.9,2.7,3.3,2.4,5.4,2.5s6.5-1.1,9.9-1.2c7-.1,11.8,2.6,13.9,9.5v3c-.4,13.2-6.3,25.6-5.6,39.1.2,3.7.5,7.1,3.1,10.1s1.5,3.9,2.5,5.8v1c-1.3,9.7-3.2,19.2-4.8,28.8-1.3,7.7-5,14.7-12.8,18.5-3.4,1.7-5.6,4-6.2,8.2a17.7,17.7,0,0,1-6.1,10.5c-4,3.2-3.3,7.6-3.3,11.8,0,1.8,1.5,2.8,3.6,2a8.7,8.7,0,0,1,7.2.2c2.4,1.3,2.5-1,3.4-2.1a11,11,0,0,1,15.6-2,9.5,9.5,0,0,1,2,2c1,1.3.8,2.8.9,4.3s-.5,5.9.5,8.8v5c-1.1,6-4.4,10.7-8.9,14.6a9.3,9.3,0,0,0-2.8,2.8c-5,9.4-13.6,8.7-22.1,7.8-2.4-.3-3.6.1-4.9,2.1s-4,2.5-5.3-.3c-2.4-5.1-7.5-4.2-11.6-5.4-1.4-.4-2.4.8-2.9,2.2a44.6,44.6,0,0,1-2.2,5c-1.5,3-.3,3.8,2.6,3.8s6.2-1.1,9.4-1.3c7.2-.5,13.3,2,18.6,6.6,1.5,1.3,2.2,3.3-.8,3.9s-2.3,2.2-3.2,3.6c-3.8,6.2-8.4,11.2-16.7,10.2-2.6-.3-5.2.9-7.9.9s-5.4-.2-7.8-2.3-6.1-.3-9.1-.8c-.2-.1-.4.2-.4.2.4,3.6-2.5,6.4-2.5,9.8s2.6,4.1,4.3,5.8,1.3,1.2,2.2.9c8.5-2.9,17.9-.7,26.2-4.7,2.3-1.1,4.6-1.8,6.7-3.3,5.3-3.8,11.1-6.7,17.7-7.5a15.2,15.2,0,0,0,4.2-1.6c7.4-3.2,16.6,3.2,15.4,11.4a36.7,36.7,0,0,1-9.7,19.3,5.2,5.2,0,0,1-3.6,1.6c-11.9,1.3-22.1,7.8-33.5,11-2,.5-3.1,1.3-2.2,3.9s-.9,3.9-3.5,3.1-5.3-1.4-7.3-3.1c-6-4.7-12.3-4.4-18.8-1.7-4.2,1.8-7.8.8-11.4-1.2a4.1,4.1,0,0,1-2.3-2.5c-.9-3.8-4.1-5.5-7-7.4a3.4,3.4,0,0,0-4.7,1,5,5,0,0,0-.5,1.3c-.7,3.2,2.6,8.3,5.8,8.3s4.8,2,5,5.3c.3,6.2.1,12.3-3.2,17.9-.6,1-.9,2.7-1.9,2.8-5.8.5-7.9,7.3-13,8.1s-10.6,1.2-15.9,1.7c-1.6.2-2.8-.7-4.1-1.5s-4.9-3.5-7.2-5.4c-5.1-4.2-8-3.2-9.4,3.3-.9,3.9-1,7.9,3.3,10.5a25,25,0,0,1,7.3,7.9c3.5,5.7,8.4,5.8,14.2,3.8,10.3-3.6,18-11.1,27.1-16.5s17.5-7.7,26.4-6.2c1.8,0,.8-1,1.1-.4s-.1.2-.4.2c-2.9,0-5.7.1-8.5,0s-5.1-1.5-4.4-5.2,4.5-8.4,8.6-8.5,8.1-1.8,11.8-3.6a21.6,21.6,0,0,1,14-1.9,21.5,21.5,0,0,0,12.3-.8,38.7,38.7,0,0,1,8.8-2,7.5,7.5,0,0,0,6.5-3.8,10.9,10.9,0,0,1,5.5-4.9c3.7-1.6,5.2-1,6.2,3,.4,1.6,1.2,1.8,2.4,1.9,4.1.3,4.8,3.2,4.2,6.4s-.3,8.9-.2,13.3a14.8,14.8,0,0,1-6.7,12.7,100,100,0,0,1-17.2,8.9c-2.9,1.3-4.1,3.2-3.6,6.2,1,5.1-1.6,8.8-5.7,10.5s-9.9,5.7-15.8,5.8c-.7,0-1.7,0-1.9.5-1.8,6.6-10.5,10.5-7,19.5,1.9,4.8.2,9.6-5.1,12.7s-7.2,11.9-5.3,17.8a30,30,0,0,0,1.8,4.1c1.8,3.6,1.2,6-2.8,7.4s-4.2,3.6-5.4,6.2a8.8,8.8,0,0,1-8,4.8h-16.5c-2.6-.1-4.4.5-5.1,3.4s-.5,5.5,2.3,7.4a25,25,0,0,0,17.6,4.4c5.8-.7,7.9-2.6,8-8.4v-1c.1-2.1-.7-4.8,1.4-6s4.1,1,5.6,2.3c3.3,2.8,6.9,2.6,10.4,1.4,5.7-2.1,10.3-.1,14.8,3.3,2.3,1.8,3.4,3.6,1.2,6.2s-1.6,2.8.8,3.6a1.8,1.8,0,0,1,1.5,2.2h0a2.4,2.4,0,0,1-2.6,1.9c-6.8.1-13.5,1-20.3,1.5-3.6.3-4.9-2.2-4.8-8a44.1,44.1,0,0,1-15.4,4.9c-2.4.3-1.1,1.8-.4,2.9,2.8,4.7,5.3,9.8,11.8,10.4a2.4,2.4,0,0,1,2.4,2.4v.3c-.4,1.5-2,1.5-3.3,1.7s-3.6-1.4-5.3,0l-1.1.9c-6.6,3.3-14,2.5-20.9,4.2-9.6,2.3-17.6-1.1-24.4-7.9a19.7,19.7,0,0,0-4.3-3.3c-4-2.5-6.9-1.7-7.8,2.8s-3.3,5.6-7.4,5.5-8.2-.3-12.2,1.4-7.5-.6-9.3-4.2c-.5-1-.8-1.7-2.1-1.7-4.1-.1-7-3-10-5.2a11.7,11.7,0,0,1-2.8-16.4h0c2.1-3.2,2.6.1,3.8,1,.5-1.8,1.2-3.4,1.7-5.1,2.3-6.7,2.3-6.7,9.2-5a7.7,7.7,0,0,0,3,.3c13.4-2.9,27.3-.5,40.7-3.5.7.3-.3-.4,0,.3s0,.2-.3.2a74.1,74.1,0,0,0-14.9.9c-4.4.6-8.7.1-12.4-2.8-2.2-1.7-4.4-1.7-6.9-.1-4.7,3-9.7,1.6-14.3-.4-2.1-.9-4.1-2.7-6.3-3.7s-3.5-2.6-3-5.1.4-4.6-2.6-5.6a1.7,1.7,0,0,1-1-2.2c0-.1.1-.2.1-.3s2.5-1.1,3.8-1.2c-3-.5-6,.2-9.2.7-6,.8-11.2-2.6-15.6-6.4a39.8,39.8,0,0,0-10-7.2c-5.5-2.6-6.7-7.4-3.8-12.5s7.3-11.5,13.1-15.4c.5-.4-.2,0,.4-.3,2.7-1.7,3.1-5,5-7.3s6.2.9,8.4-2.6a20.3,20.3,0,0,1-4.3-6.2c-.6-1.7-2.5-3.3-3.7-1.8-3.4,4.2-8.4,3.5-12.6,5.1a14.5,14.5,0,0,0-8.7,8.1,75,75,0,0,1-12.2,19.3c-3.2,3.7-7.3,6.3-12.7,5.1a8.5,8.5,0,0,0-8.9,3c-4,4.8-9.4,7.5-15.3,9.1s-10,5.6-13.5,10.4c-1.9,2.5-3.4,5.4-6.1,7.2s-4.4,6-5.3,9.7c-.2,1-.6,2.2.5,2.7a2.3,2.3,0,0,0,2.9-1.4c1.3-3.6,4.5-5.3,7-7.9,7.9-8,18.3-9.7,28.3-12.5,2.1-.6,4.2.3,6.2,1.3a63.6,63.6,0,0,0,5.9,2.8c6.5,2.6,7,3,6.9,10.1-.1,4.9,2.5,9.8-.2,14.7-.6,1.2,1.4,2.1,2.3,3s2.5,2.1,1.7,3.8-2.6,1.7-4.3,1.8a13.5,13.5,0,0,1-2.8-.4c6.4,5.5,16.7,4.2,23,11.4,1.6,1.9,4.3,1.4,6.6,1.7s3.5,2.2,1.9,4.5-3.8,4.6-4,7.8c-.1.2-.2.4-.3.4-3.8,2.6-7.8,4.8-11,8.2s-8.4,1.4-12.7.5c-1.7-.4-3.3-1.1-5.3-.7-8.1,1.7-13.5-2.7-13.7-11.1,0-3.2-.8-6.3-1.2-9.4s-2-4.8-5.6-3-8.7.3-12.9-1.3a3.2,3.2,0,0,1-1.9-2.3c-.1-4.5-4-6.2-6.6-8.7s-5.3-2.2-7.4.5a82.5,82.5,0,0,0-7.1,11.3c1.7,1.4,3.7.9,5.2,2s4,2.6,3.7,5.4a6.6,6.6,0,0,0,5.5,6.9,20.7,20.7,0,0,1,6.9,2.7c7.5,4.5,5.7,12,5.8,18.7,0,5.1.8,6.3,5.7,4.7a67.7,67.7,0,0,1,26-3.6c5.1.4,8.4,3.8,12.1,6.6a2.1,2.1,0,0,1,.5,2.9l-.3.3c-2.8,2.3-3.7,6.4-7.1,8.2a12.4,12.4,0,0,0-5.2,5.2c-1.6,2.7-3.7,3.7-6.7,1.9-1.4-.9-3-1.6-4.7-1s-5.5,1.8-7-2c-.5-1.1-1.7-.7-2.7-.5s-4.2,1-6.3,1.3-3.9,2.5-1.8,5.2a2.2,2.2,0,0,1-.2,1.4c-7.2-1.3-14.2-1.8-21.4.1-2.6.7-5.9-.4-8.8-1.1s-3.9-1.1-4.5-2.9c-2-6.3-7.8-8.9-12.5-12.3a18.8,18.8,0,0,1-4.2-26.1c.4-.5,1-.9,1-1.8s-2.8-.2-4.2.2l-9.5,2.8c-6.5,2.1-11.8-.4-16.7-4-3.2-2.4-3.6-5.5-1.5-9.2,4.2-7.3,4.2-7.2,11.4-3.1a12.5,12.5,0,0,0,8.2,1.6c5.2-.8,10.9.4,14.5-3.5-3.5.7-4.9-2-5.3-5.8a36.6,36.6,0,0,1-.2-7.4c.5-3.4-1.7-5-3.9-6.3s-4.1,1-5.6,2.3c-3.7,3.2-5.6,7.7-7.8,12-.7,1.5-1,3.5-3,3.7s-2-2.2-3.1-3.3c-3.7-4.1-7.8-8.2-13.5-8.6s-6.8-3.2-9.5-5.8-4.6-3.3-8.2.2-1.1,4.7,1.1,6.6,3.6,4.1-.2,6.5-2.9,4,.2,5.8a2.3,2.3,0,0,1,.7.7c5.3,4.9,5.5,5.2,1.8,11.1-2.4,3.7-3.9,8.3-8.7,9.9-1.7.6-1.4,1.8-.2,2.6a37.1,37.1,0,0,0,4.1,2.8c1.1.5,2,1.4,1.5,2.7a2.5,2.5,0,0,1-2.9,1.4,87.6,87.6,0,0,0-14.5-.3c-2.4,0-4.1-1.3-5.8-2.6-6.5-4.5-13.8-6.1-21.6-6.6-2.7-.1-4.3.8-5.3,3.4a26.4,26.4,0,0,1-1.7,4.7c-1.8,3.5-1,5.4,3,6.9,6.5,2.5,7.2,4.5,5.4,11.1a20.5,20.5,0,0,0-.5,2.4c-.4,6.9-1.7,8.4-8.3,10.1h-124c-2.1-4-3.7-8.1-7.7-10.7a4.5,4.5,0,0,1-1.6-3.5c-.3-7.2-1.8-14.2-1.2-21.4.2-1.5-.2-3.4,1-4.3,3.6-2.9,1.8-6.3,1.8-9.8-.1-6.8-.6-14,7-18.2,4-2.2,2.1-7.3,5.1-10.9-7.6-.2-13.7-3.1-20.1-4.2-1.8-.3-3.2-1.6-4.7-2.8s-4.3-1.8-5.8,1.7-.9,7.7,0,11.6,1.7,7.8-.6,11.6a3.1,3.1,0,0,0-.6,1.9c2.3,10.6-1.9,21.2,0,31.7,1.4,7.7.2,15.5,1.5,23.1a4.3,4.3,0,0,1-1.1,4.2h-5c-1.9-1.9-1.5-4.3-1.5-6.6-.1-14.8,1.1-29.8-.3-44.5-1.5-16.6-1.5-33.1-2.4-49.7-.7-12.9-2.1-25.8-3.4-38.7-.8-8.4-2.1-16.7-3.1-25.1-.3-2-.7-4.4-3.7-4.6s-2.9-2.1-3.1-4c-1.1-13.1-3.2-26.1-4.9-39.1-2.3-17.6-4.5-35.2-8.4-52.5-1.3-5.8-4.5-11.1-6.2-16.9a22.1,22.1,0,0,1-1-10.8,22.3,22.3,0,0,0-1.4-14.6c-6.7-13.6-10.2-28.4-17.3-41.9a151.3,151.3,0,0,0-21.5-31.1c-6.8-7.4-15.1-13.5-23.9-18.7a491.9,491.9,0,0,0-91.8-42.2,252.3,252.3,0,0,1-31-13.8c-3.1-1.6-5.7-2.6-7.4,1.9-1,2.8-3.3,2.7-5.2.8-4.5-4.4-9-8.6-12-14.5-3.8-7.5-8.9-14.4-16.2-19.1a10.3,10.3,0,0,1-3.4-3.5c-1.1-2.2-2.5-3.5-5-3.4s-2.5-.3-2.8-1.7.8-1.6,1.6-2.2c3.6-2.7,4.9-6.3,5-10.8,0-7.3-1.7-14.6-1.1-21.9.1-2-.4-4.1,1.2-5.7a1.8,1.8,0,0,1,1.6-.2c2.8,2.5,2.7,6,2.9,9.2s1.6,4.9,4.6,5.5l3.3.9c5.7,1.7,11.5.1,13.3-5.3,3.4-10.3,10.6-18.5,14.1-28.6,2.5-7,3.5-14.5,6-21.6a50.1,50.1,0,0,1,6.8-13.2c5.5-7.2,9-15.1,8.2-24.4-.5-6.1,3.4-10.6,5.6-15.8,4-9.5,9-18.7,8.4-29.6a33.8,33.8,0,0,1,0-4.5,49.2,49.2,0,0,0-7.6-32.3c-2.6-4.1-2.8-9.4-2.3-14,1.7-12.6-3.8-22.3-11.2-31.3-6.2-7.5-11.2-15.8-16.8-23.6-8.1-11.2-18.1-18.8-32.3-20a41.8,41.8,0,0,1-12.4-3.5,80.1,80.1,0,0,0-24.1-5.8c-1.8-.9-4.5,0-5.1-2.9a2.7,2.7,0,0,1,1.2-.9c.6-.2.5-.3-.1-.1-7,2.1-11-3.1-15.7-6.5a43.2,43.2,0,0,0-30.3-8.3c-5.1.4-10.2,1.6-15.4,1.2-2.4-.2-4.3.6-4.8,3.2s1.1,3.6,3,4.6c3.6,1.9,7.5,2.5,11.5,3,2.3.9,4.5,1.9,3.8,5-1.9,1.4-3.9.5-5.7-.1-8.5-2.8-17-5.8-25.5-8.4a14.6,14.6,0,0,0-7.2-.5c-3.3.6-6.7.3-10,.2-5.2-.2-9.8.2-14.3,4s-9.9,3.4-15,4.7c-3.6.9-6,2.4-7.5,5.7-.7,1.4-1.7,2.5-2.3,3.9a21.3,21.3,0,0,1-12.6,12c-3.3,1.1-5.3,3.5-6.7,6.8s.5,3.5,2.7,3.9l3.9.6c1.3.1,5,.9,3.9,4.5a8.8,8.8,0,0,1-3.9,1.5c-2.1-.3-3.7,2.7-6.1,1.1a2.4,2.4,0,0,1-.5-1.4c.1-.5-.1-.6-.1-.4-.2,3-3.9,5.1-2.3,8.5a2.1,2.1,0,0,1,.5,2c-7.1,4.8-8.9,12.8-12,20-1.3,3-.9,6.2-.5,9.3s1.4,5,5.5,4,5.1.9,4.3,4.8-2.2,9.4-2.2,14.2c.1,1.9,0,3.7,2,4.7a3,3,0,0,1,.9,2.8c-3.8,2.9-8.2,3.1-12.7,3.2a5.9,5.9,0,0,1-1.8-1.3c-3.6-2.1-6.9.1-9.9,1.4s.6,2.4.4,3.7c-1,3.7-4.3,5.1-7.1,6.6s-5.5,5.3-5.9,10.2c-.9,10,3.4,18.5,6.5,27.3.9,2.9,3.7,3.5,6.3,4.2s5.8,1.1,6.2,4.8c-1.4,1.9-3.2,1-4.9.5s-3.7-1.5-5.7-.9c-2.3,3.7-1.5,7.6-.2,11.3s2.2,4.5,3,6.9c3.2,8.4,1.5,14.4-6,19.3-2.8,1.8-3.4,3.7-2.3,6.6s.7,6.2-3.8,7.4-5.4,5-7,8.5-1.5,5.1-2.3,7.6.2,4.4,3.6,3.9c12.4-1.9,18.6-9.9,18.7-22.5,0-3.6.7-6.1,3.8-7.8a14.8,14.8,0,0,0,5.5-5.6c.7-1.3,2.3-3.1,3.5-1.6,3.7,4.5,4.3.3,5.8-1.7a4.7,4.7,0,0,1,1-1c4.1-.1,2.7,2.5,2.1,4.4-1.4,4.5-4.5,8.6-3.6,13.7.2,1.6-.8,3.7,1,4.5s3.9,0,5.4-1.5a7.1,7.1,0,0,1,2.3-1.9c2-.8,3.2-.4,3.2,2.1.2,8.7-2.2,11.2-10.9,11.5-5.7.1-6.4.9-4.8,5.1a10.9,10.9,0,0,1,1.7,1.3c1,3.6-2,5-3.8,7-3.1,3.5-3.2,3.4,1,5,1.3.5,2.6.8,3.5,1.9s-2,2.8-3.1,4.2a21.5,21.5,0,0,0-8.5,14.7,5.9,5.9,0,0,1,1,1.7c-.2,2.9-1.9,5.3-2.6,8.1,1.7-8.9,7.8-14.9,13.9-20.8,1.1-1,2-2.6,3.7-1.8s.9,2.5,1,3.9-1.6,3.8-.2,5.7c1.9.2,3.1-3.1,5.3-.8.2,3.4-2.8,5.1-4.5,7.4-2.6,3.9-1.5,10.5,2.8,12.5s9,6.9,12.9,10.9c2.2,2.2,1.8,4-1.1,5.3a99.2,99.2,0,0,0-9.1,4.7c3.4.1,6.5.2,9.5.1s6,.8,7.2,4.1,2.8,2.7,4.4,2.7c4.1,0,8.4,1.9,12.5-.5a1.9,1.9,0,0,1,1.9.2c1,3.8-1.2,5.9-4.2,6.5s-3.9,2.7-4.6,5.4-.2,7.9-4.9,9.4a2.3,2.3,0,0,1-1.4-.1c-1.6-1.4-.8-3.2-.7-5-2.1,1.7-.6,4.2-1.8,6s-4.2,1.3-5.7,3c2.6,2.3,4.4,5.2,8.6,5.4s2.2,3,.6,4.1c-4.3,3.1-2.5,4.5.4,7.8a29.5,29.5,0,0,0,14,8.7c2.3.6,4.1,2.2,5.9,3.7s3,3.6,1.8,6.2a10.5,10.5,0,0,0-.6,2.4c-.3,1.6,1,4-1.4,4.8s-4.1-.9-5.7-2.5a143.2,143.2,0,0,1-15-18c-2.9-4-16.1-4.8-19.7-1.3-1.3,1.3-.7,2.7-.5,4.2.6,5.2-.5,6.3-5.7,6.7s-8.8,3.8-12.7,6.5c-2.1,1.4-.9,3.6.3,5.3,2.7,4,2.7,4.3-1.6,6.3-6.1,2.9-12.6,4.1-19.1,5.8-10.9,2.9-21.9,5.6-32.3,10a44.4,44.4,0,0,0-7.6,3.7c-3.3,2.1-6.5,3.9-10.6,3.5s-5.6,2-8.5,2.7c-14.5,3.8-23.6,14.2-31.6,25.8-9.5,13.7-16.3,28.5-19.4,45-1.7,9.3-5.5,18.1-8.4,27.1-4.7,14.9-9.4,29.9-11.1,45.4a161,161,0,0,1-4.5,23.8c-.8,3.2-.6,5.2,3.3,5.4,1.8,0,3.6.7,5.4.8,4.4.4,5.2,1.8,3.7,6-.8,2.2-2,4.2-2.7,6.4s0,4.5,3.2,4.6h2c7.4.1,7.2.1,5.6,7.5-.9,4.2-1.2,8.6,1.8,12.4,1.1,1.4,2.7,3.2,1.5,4.9s-3.7.3-5.5-.1c-4-.9-7.6-2.2-6.1-7.6.4-1.5-.7-2.3-2-2.2s-4.5-2.4-6.3.6c-6.5,10.8-12.6,21.7-11.8,34.9.5,8.1-1.1,15.8-3.9,23.4a34.4,34.4,0,0,0-2.2,13.1c.2,4.9-.1,9.7.1,14.5.3,7.7-.1,15.3-3.2,22.5-1.3,3-.9,4.4,2.7,4.1a10.1,10.1,0,0,1,4.9.6,3.3,3.3,0,0,1,1.6,2.5c-1.9,5.3-.9,10.8-.9,16.2,0,2.8,1.9,2.9,3.7,1.3s5.6-5.7,8.8-8,1-3.2-.2-4.7a2.3,2.3,0,0,1,.3-2.9c5-.7,9.4.4,12.7,4.6,1.3,1.5,2.2,3.4,3.7,4.7,3.3,2.9,4.2,6.6,3.9,10.8s.3,6.3-.4,9.4a3.8,3.8,0,0,1-.9,1.3c-1.9,1.5-4.5.7-6.6,1.7s-2.2.2-2.7,1.1-1.3,4.3-3.8,4-6.5-1.4-8.3-4-6-3.3-9.2-2.1-4.9.5-6.4-2.4a41.8,41.8,0,0,0-3.7-6.5c-2.3-3.3-2.9-6.5.4-9.7s.4-4.4-2.1-6.4c-.3,5.9-.8,11.3-.1,16.8a7,7,0,0,0,2.6,4.1c1.4,1.1,3.1,2,3.4,4.1a5.7,5.7,0,0,1-.4,1.4c-3.7,6.5-7.5,12.9-7.5,20.7a2.4,2.4,0,0,1-.7,1.8h-38c-.7-2.2,1.1-3,2.4-3.8a22.3,22.3,0,0,0,6.6-6c3.9-4.9,1.9-10.4-4.3-12-7.9-2.1-7.7-2.1-11,5.3-1.8,4.1-2.4,7.7.7,11.5,1.1,1.3,2,3.1.6,5h-40c-1-3.6-.4-7.3-.3-10.9.1-1.5.1-4.2,3.2-2.4.4.3.5.1.7-.8,1.2-7.8,9.1-15.3,17.3-16.4,3.9-.5,8.2-3.8,8.4-7.4a152.4,152.4,0,0,0-.4-23.4c-2.3,3-4.7,3.2-7.9,2.2s-6.9-1.2-9.6,2.1c-4.1,4.9-10.7,3.8-15.8,6.4-1.2.7-2.5-.5-3.2-1.7-3.5-5.3-5-11.2-6.3-17.2-.4-1.8.7-3.1,1.6-4.6,3.6-5.3,3.7-11.6,4.4-17.6.1-.6-.1-1.3-.5-1.3-4.3-.3-7.4-5-12.1-3.1a14.1,14.1,0,0,1-9.3.2c-4-1.2-8-.6-11.9-.5s-8.4,6.7-8.3,9.1,1.1,2,2,2.6a60.2,60.2,0,0,0,6.7,3.4,20.8,20.8,0,0,1,10.3,9.1c1.3,2.3,2.7,4.4,5.4,5.6s2.8,4.5,1.2,6.8c-3.5,4.7-7.3,9-11.1,13.4a6,6,0,0,1-5.1,1.8c-3.3-.3-6.2.9-9,2.5s-4.4,6.4-3.9,8.8.8,1.3,1.8,1.2c7.2-.6,14.4-2.2,21.6-3.2,3.2-.5,5.9-2.9,8.2-5.4s4.1-2.4,5.7.1,3.7,3.1,5.8,4.4c4.3,2.5,6.2,6.9,6.7,11.6s.1,8.7.2,13c0,1.9-.5,3.5-2.5,3.6-5.3.3-9.4,3.3-13.5,6.1-1.4.9-3.1,1-4.5,1.9h-68c-2-1.3-2.5-4-4.6-5.1-4.1-2.2-7.9-5.1-13.1-1.6-2.9,1.9-6.7,2.4-10.5,2.3s-6.9,3.5-10.8,4.4h-35c.2-3.2-3.4-7.6,2.8-8.8.9-.2.5-1.1.6-1.7a15.4,15.4,0,0,1,3.6-8c1.2-1.3,1.5-2.5.3-3.9s-1.4-3.6-3-3.7-2.1,2.2-3.2,3.4a11.1,11.1,0,0,0-1.7,3c-3.6,11.6-12.5,16.9-23.4,19.7h-41c-2.1-1.6-2.3-3.8-2.6-6.1s-1.3-4-4.2-2.7a18.3,18.3,0,0,1-5.7,1.4c-1.6.1-2.7.2-2.2,2.7s-2.4,3.5-4.3,4.7h-25c-2.2-1.6-1.1-3.3.6-3.7,3.2-.7,4.7-2.4,5.3-5.5.2-1.2,1.5-1.8,2.6-2.1a11.9,11.9,0,0,0,4.4-3.2c1.2-1.4,4.3-5.6,8.9-4.7,2.5.4,3.3-2.3,4.3-4.2s2-4.2,4.8-4.5c4.7-.6,6.5-5,3.8-9a28,28,0,0,0-6.4-6.9c-3.6-2.8-7.2-2.6-11.1-.8l-8.4,4.4c-6.1,3.2-12.4,3.8-18.7,1.1s-11.9-1.1-17.2,2.7c-.1.4.1.6.4.9s4.2,1.7,3.6,4.1-3.2,2-5,2.5a10.7,10.7,0,0,1-4,.3c-2.5-.2-3.7.8-3.5,3.4a10.2,10.2,0,0,1-1,3.9c-1.2,2.8-.1,4.5,2.9,3.7s6.7-.1,9.9.3a10.3,10.3,0,0,1,9.1,11.5c-.3,1.7.1,2.3,1.5,3s2.6,1,2.2,2.8h-28a5.5,5.5,0,0,0-2.8-.9c-1.5-.3-3.2-.6-3.2-2.5s1.7-1.9,3-2c3.2-.2,2.4-4.2,5.8-5.3a39.8,39.8,0,0,1-6.9,0c-2.1-.2-3.5-1-2.8-3.6s-.2-4.1-2.8-4.2c-8-.3-16-.8-23.1,5.2,1.3,1.2,2.1,2.7,4.2,2.9a13.4,13.4,0,0,1,7.8,3.8c2.4,2.1,6,1.3,9,2.3S267.9,1077.3,266.8,1080.8Z" transform="translate(1.6 -0.9)"/></svg>