<svg viewBox="0 0 1545.03 1572.14" version="1.1" xmlns="http://www.w3.org/2000/svg">
  
  <defs>
    <style>
      .st0 {
        fill: #fff;
      }
    </style>
  </defs>
  <g id="Layer_1_xA0_Image">
    <path d="M342.8,721.52c2.68-5.02,1.12-11.35,1.51-16.88,1.13-16.14,5.82-47.56,17.26-59.31,13.6-13.96,47.26-11.47,55.17,7.88.73,1.78,3.25,11.51,3.25,13.13,0,2.55-3.1,8.84-1.98,10.74,5.67,4.39,11.51,6.03,18.62,6.9.92-4.06.9-8.25.79-12.42-.38-14.91-2.45-23.54-.02-38.99,2.83-18.01,9.93-34.98,13.16-52.15,2.39-12.68-.38-12.93-3.36-23.74-5.26-19.06-11.29-42.69-12.81-62.26-1.08-13.85-.25-28.07-2.45-41.84-.72-4.49-3.16-10.35-3.5-14.55-.64-7.84,8.98-38.81,11.94-47.96,13.01-40.3,38.11-81.44,80.76-94.9,13.79-4.36,21.55-2.97,35.23-3.81,25.73-1.58,74.5-10.2,97.22-.37,3.3,1.43,8.23,6.58,10.92,7.1,5.29,1.02,13.78,1.22,19.45,1.57,25.64,1.56,50.99.76,76.38,5.44,5.57,1.03,15.02,4.59,19.85,4.77,3.22.12,8.96-1.78,12.66-1.98,14.67-.82,30.46,3.62,45.04,4.49,19.41,1.15,30.38-5.04,48.41-8.63,45.99-9.16,109.65,5.28,150.91,27.02,10.56,5.56,23.23,12.37,25.66,25.02,11.28.95,20.91,7.41,25.2,17.96s7.12,21.51,12.05,32.24c4.96,10.8,16.53,27.33,16.52,38.9,0,4.27-3.69,11.56-3.56,15.69.15,4.68,3.58,13.24,4.34,18.93,2.3,17.17-1.91,33.49-6.12,49.99-.76,2.98-4.82,13.57-4.75,15.24.05,1.23,3.42,5.27,4.25,7.46,3.31,8.77,3.63,18.21-.23,26.87-1.54,3.45-5.5,7.15-7.46,10.56-8.25,14.41-2.32,31.83-14.83,44.47-1.99,2.01-4.64,3.27-6.7,5.2,10.77,21.93,16.14,54.33-10.2,67.23l-4.16,13.9c3.12,3.45,7.41,6.05,9.4,10.86,1.68-.15,2-2.19,3.41-3.35,14.07-11.57,37.93-9.83,46.51,7.46,1.84,3.72,1.99,10.6,3.71,13.37,1.37,2.2,8.17,6.77,8.86,10.85,11.72,53.94,43.8,147.1-16.22,183.07-5.47,3.28-22.97,9.03-29.07,9.22-2.94.09-7.18-2.13-10.24-2.45-.65-.07-1.04-.79-1.69.24-5.18,16.45-.59,35.98-6.77,51.81-1.66,4.25-5.39,9.27-7.52,13.5-11.67,23.22-22.67,45.98-32.99,69.85-5.17,11.95-8.12,27.63-20.71,34.09-4.53,2.33-10.08,1.98-14.15,4.6.82,5.16,3.74,11.28,3.74,16.46,0,5.82-4.31,19.9-7.25,25.09-3.4,5.99-10.6,12.79-13.21,18.32-2.03,4.3-1.99,9.53-3.58,13.68-2.86,7.47-20.75,22.73-28.01,26.79-2.03,1.13-7.44,2.54-7.9,2.99-.68.68-1.53,5.39-2.28,7.1-6.66,15-14.17,23.13-31.29,25.01l-20.13-2.16c-9.56,13.26-17.19,25.89-31.64,34.46-6.09,3.61-10.93,3.4-15.95,5.82-10.47,5.06-18.58,14.2-31.97,19.07-18.35,6.67-30.99,1.64-44.6-11.3-32.88,1.76-71.74-8.11-99.69-25.61-2.93-1.84-12.68-9.68-14.59-10.21-1.35-.38-6.8,1.35-10.08,1.09-19.05-1.51-59.44-30.23-75.14-42.72-18.55-14.76-48.2-44.68-59.11-65.51-1.11-2.12-1.55-6.04-2.31-7.07-.48-.66-4.18-2.67-5.77-4.36-11.17-11.94-26.82-35.68-35.62-49.96-26.61-43.21-40.96-101.22-23.07-150.56,1.64-4.53,5.42-8.99,9.02-12.03l-.65-9.26c-7.83,4.67-21.89,9.02-30.94,8.05-53.13-5.68-60.86-70.77-66.54-112.88-3.33-24.72-5.69-50.06-6.89-74.93-.3-6.26,1.26-13.46-1.47-19.17v-8.26Z"/>
    <path d="M772.52,1548.33c-102.67,0-202.27-20.11-296.04-59.77-90.57-38.31-171.9-93.14-241.74-162.98-69.84-69.84-124.68-151.18-162.98-241.74-39.66-93.77-59.77-193.37-59.77-296.04s20.11-202.27,59.77-296.04c38.31-90.57,93.14-171.9,162.98-241.74,69.84-69.84,151.18-124.68,241.74-162.98,93.77-39.66,193.37-59.77,296.04-59.77s202.27,20.11,296.04,59.77c90.57,38.31,171.9,93.14,241.74,162.98,69.84,69.84,124.68,151.18,162.98,241.74,39.66,93.77,59.77,193.37,59.77,296.04s-20.11,202.27-59.77,296.04c-38.31,90.57-93.14,171.9-162.98,241.74-69.84,69.84-151.18,124.68-241.74,162.98-93.77,39.66-193.37,59.77-296.04,59.77ZM772.52,52.26c-99.3,0-195.63,19.45-286.3,57.8-87.59,37.05-166.25,90.08-233.8,157.64-67.55,67.55-120.59,146.22-157.64,233.8-38.35,90.67-57.8,187-57.8,286.3s19.45,195.63,57.8,286.3c37.05,87.58,90.08,166.25,157.64,233.8,67.55,67.55,146.22,120.59,233.8,157.64,90.67,38.35,187,57.8,286.3,57.8s195.63-19.45,286.3-57.8c87.58-37.04,166.25-90.08,233.8-157.64,67.55-67.55,120.59-146.22,157.64-233.8,38.35-90.67,57.8-187,57.8-286.3s-19.45-195.63-57.8-286.3c-37.04-87.59-90.08-166.25-157.64-233.8-67.55-67.55-146.22-120.59-233.8-157.64-90.67-38.35-187-57.8-286.3-57.8Z"/>
  </g>
  <g id="Layer_3">
    <g>
      <path d="M843.12,1068.93v-14.14c-5.7-4.52-18.94-1.49-28.29-2.36-6.01-6.56-6.81-18.33-21.21-16.5-.72,7.92,3.15,20.43-7.07,18.86.38-7.45.08-14.23-4.71-16.5-2.72,10.64-17.85,8.87-18.86,21.21,9.38,28.91,53.24,10.41,80.14,9.43Z" class="st0"/>
      <path d="M819.54,988.79c-.34,5.85-.44,11.44,4.72,11.78.34-5.85.44-11.44-4.72-11.78Z" class="st0"/>
      <path d="M748.83,1054.79c3.49,1.22,5.94,3.49,9.43,4.71.66-5.37-.57-8.86-4.71-9.43-.03,3.11-4.13,2.16-4.71,4.72Z" class="st0"/>
      <path d="M760.62,977c1.55,1.55-.99-.99,0,0h0Z" class="st0"/>
      <path d="M772.41,988.79c-2.4,3.1-2.31,8.69-4.72,11.78,7.01,2.81,10.12-9.93,4.72-11.78Z" class="st0"/>
      <path d="M767.69,974.65c.35,3.14-9.59,7.11-2.36,9.43,2.99-3.27,11.52-6.68,2.36-9.43Z" class="st0"/>
      <path d="M935.04,1184.42c.16,6.35,5.39,11.33,9.43,7.07.72-6.21-3.26-7.74-9.43-7.07Z" class="st0"/>
      <path d="M781.83,986.43c-1.39,12.17-12.72,20.92-7.07,33,8.21,1.14,8.24-5.91,11.79-9.43,6.51,5.69,5.38,3.73,9.43-2.36,2.08,5.79,2.12,13.59,9.43,14.14,8.27-4.3,7.47-17.67,7.07-30.64-3.42-3.64-12.07-2.08-18.86-2.35-5.36,1.71,2.17,16.31-7.07,14.14.39-7.71,5.45-15.24-4.71-16.5Z" class="st0"/>
      <path d="M1100.03,748.37c-4.77,20.66,1.56-6.77,0,0h0Z" class="st0"/>
      <path d="M402.58,717.73c-4.43-3.43-.29-15.43-4.72-18.86-11.89-.89-4.95,17.05-14.14,18.86-8.51-22.17-4.2-33.11,2.36-54.21h-7.07c-17.71,25.25-5.93,146.28,4.71,197.99,6.9,33.52,28.09,57.76,51.86,35.36,6.91-77.82-14.55-125.34-16.5-188.56-8.34.14-8.63,16.11-16.5,9.43Z" class="st0"/>
      <path d="M1076.46,826.15c-60.45,22.87-141.58,20.32-202.71,11.79-19.6-25.97-38.7-52.44-44.79-91.93-6.69-5.09-11.86-11.71-21.21-14.14,7.18-4.61,9.74-13.82,23.57-11.79,12.82-37.99,68.21-42.07,78.01-75.43,2.1,1.83,5.32,2.54,9.43,2.36,1.43-7.21,5-12.28,7.07-18.86-6.02-2.54-8.25,10.15-11.78,2.36,3.5-13.78,19.07-15.5,28.28-23.57,24.13,21.6,81-14.12,103.71-9.43,9.06,1.87,15.65,18.91,21.21,11.78.75-15.68,4.99-35.85,16.5-47.14-3.1-10.28-12.21,3.56-16.5-7.07,13.85-28.12,31.44-68.66,11.79-103.71.73-5.56,8.18-4.38,7.07-11.78-10.61-17.68-19.51-37.05-25.93-58.93-14.72-.8-29.8-9.11-25.93-21.21-42.2-25.88-118.37-46.56-169.7-23.57-25.51,8.07-63.09-8.26-87.21,0-35.97-13.52-83.46-7.55-129.64-14.14-6.39-1.46-5.87-9.85-14.14-9.43-37.41-2.06-65.61,5.1-101.35,4.71-49.18,15.24-65,63.85-77.78,115.5,10.25,27.94.65,72.27,16.5,99-3.84,9.55,6.24,19.76,7.07,30.64,1.52,19.93-12.28,48.76-14.14,68.36-.6,6.27,7.21,24.76-2.36,14.14,3.05,26.3,2.42,32.69,0,58.93,4.09,6.12,17.78,4.78,28.05,4.72,14.76-17.22,11.53-34.75.23-56.57,10.96-11.8,18.2-51.71,40.07-30.64,1.83-5.24,1.36-12.78,7.07-14.14,54.65-15.72,89.97-.22,153.21,4.71-1.71,13.49,5.75,17.82,9.43,25.93,3.87,5.22,10.5,16.07,4.71,23.57,24.59,13.91,52.85,26.27,58.69,58.93,17.71-2.78,18.88,10.97,30.64,14.14h-14.14c-16.02,50.15-49.62,117.2-115.5,94.28,39.9-.97,79.03-15.24,77.78-49.5-1.05,2.1-2.07,4.22-4.72,4.71-16.05-22.27-3.42-39.54,2.36-63.64-16.95,7.25-21.48-13.88-42.43-7.07,2.09,6.55,8.75,8.53,9.43,16.5-4.68.03-3,6.43-9.43,4.72v-14.14c-22.1-1.47-22.39-24.76-42.43-28.29,21.45,54.75-71.16,64.09-56.57,2.36-13.98.95-13.23,16.62-16.5,28.29-4.17-2.07-6.88-7.47-11.79-2.36,12.07,35.54,58.58,24.65,89.57,33,9.68-3.68,8.21-18.51,16.5-23.57-2.67,16.05,14.66-.18,14.14,4.72.72,13.63-9.64,3.91-11.79,11.78,4.52,3.02.79,11.22,0,11.79-9.24,5.48-8.76-2.88-18.86-2.36,4.05,7.81-1.42,10.23-7.07,14.14-20.22-2.57-48.9-18.61-75.42-7.07-6.26-14.16-13.13-27.72-21.21-40.07-25.42,10.81-20.82-23.29-35.36-30.64-39.29,17.95-19.19,103.92,9.43,117.85-33.85-6.21-37.75-42.38-40.07-80.14h-23.34c-12.89,70.35,10.58,143.3,9.43,221.56-7.99,4.34-5.28,5.73-11.78,9.43-19.81,74.56,21.45,126.74,53.98,169.71,4.14,1.36,13.85-2.85,14.14,2.36-2.71,2.78-2.67,8.33-2.36,14.14,27.35,41.01,64.66,72.05,110.78,94.28,6.13-.94,7.11-7.04,14.14-7.07,23.63,26.9,66.56,42.39,103.71,42.43,7.66-5.7,7.02-19.7,16.5-23.57,4.14,1.36,13.85-2.85,14.14,2.36,3.38,12.81-12.11,6.75-11.79,16.5,4.11,7.68,8.24,15.34,16.5,18.86,14.85-7.47,22.26-7.76,30.64-21.22,27.01,4.02,35.54-30.3,51.85-44.78,12.77,3.64,15.89,2.22,33,4.71,4.43-9.45,9.97-16.11,2.36-25.93,11.68,6.66,13.95-6.67,23.57-4.71-1.93-14.29-16.92-2.05-18.85-14.15,8.34.27,13.72-3.23,18.85-9.43,6.85,1.8,6.11,11.17,16.5,9.43-1.5-22.97,33.05-34.19,16.5-56.57-8.87,3.7-8.88,16.26-21.21,16.5-9.62-16.31-19.72-32.14-40.07-37.71-8.72,6.99-11.05,20.37-25.93,21.21-3.55-2.05.65-3.53-2.36-9.43-10.17,3.97-22.24,6.05-33,9.43-1.71-5.36-2.1-12.04-4.71-16.5-48.93-5.97-102.53-13.35-153.21-14.14-35.15-18.03-60.23,8.49-82.5,18.86-12.5-4.06-18.97-18.41-35.36-11.79,1.77-8.84-9-5.14-9.43-11.79,9.89-1.25,14.86-11.81,25.93-9.43-1.81-8.88,2.87-11.27,2.36-18.86,21.03-6.47,25.32-29.68,44.78-37.71,16.08,7.73,17.23-8.03,30.64-9.43.3,4.23-2.89,4.97-2.36,9.43,10.43-2.58,11.72,3.99,18.86,4.72,5.94-4.27,4.94-15.48,11.79-18.86,3.49,1.23,5.94,3.49,9.43,4.71,7.57-21.85,56.96-12.89,54.21-51.86-9.22-2.56-17.29-6.28-30.64-4.72-3.27,1.45-.36,9.08-4.72,9.43-9.03-1.98-17.68-4.32-18.86-14.14,19.07.75,31.93-19.53,54.21-9.43,5.04,2.28,7.29,9.51,11.78,11.79,10.23,5.17,33.08,9.3,42.43,9.43,19.95.27,24.91-11.17,44.78-25.93,8.88,3.69,24.9.25,33,4.71-.46-6.75-.29-12.86,7.07-11.79,13.82,31.66-18.67,68.6-42.43,47.15-6.04,29.81,37.35,30.08,42.43,56.57,28.49-9.66,58.62-11.41,75.42,9.43,3.2,21.16,16.9,31.81,28.29,44.78,14.24-37.61,30.99-72.72,49.5-106.07-1.93-60.85,29.66-98.36,28.29-160.28Z" class="st0"/>
      <path d="M680.48,1066.57c-.99-.99,1.55,1.55,0,0h0Z" class="st0"/>
      <path d="M866.69,979.36c.71-6.21-3.27-7.73-9.43-7.07-.71,6.21,3.27,7.73,9.43,7.07Z" class="st0"/>
      <path d="M1097.68,769.58h-2.36c.97,5.68-4.3,5.12-2.35,11.79,3.5-2,5.06-5.93,4.71-11.79Z" class="st0"/>
      <path d="M1060.19,675.3c1.27-13.05-3.16-20.4-7.07-28.29-29.8-5.9-42.47,4.19-61.28,14.14,23.52,3.62,42.09,27.75,68.35,14.14Z" class="st0"/>
      <path d="M1059.96,807.3c-3.82-17.24,1.24-47.47-9.43-63.64-21.61,16.09-22.28,52.16-49.5,58.93-54.14,13.47-81.26-19.8-110.78-37.71-4.45.26-1.64,7.79-7.07,7.07-5.91-1.95-7.45-8.26-11.79-11.79-55.51,87.03,138.46,80.45,202.71,58.93,2.94-10.42,13.84-12.88,14.14-25.93-10.02,6.55-10.48,21.2-28.28,14.14Z" class="st0"/>
      <path d="M1097.68,769.58c7.2-5.18-2.72-15.09,0,0h0Z" class="st0"/>
      <path d="M1111.82,769.58c-5.72,30.28,14.14,59.44,0,82.5-7.19-15.38-2.12-39.32-9.43-58.93-12.55,5.66-7.78,37.99,0,44.78-14.32,14.36-9.65,56.66-9.43,82.5,60.78-10.24,27.44-108.18,18.85-150.85Z" class="st0"/>
      <path d="M586.43,656.45c9.93-1.86,24.94,1.37,25.93-9.43-21.63-33.24-75.87-13.93-106.07-7.07-5.96,15.75,8.5,26.7-2.36,37.71,35.24.66,58.64-10.5,82.5-21.21Z" class="st0"/>
      <path d="M1092.96,781.37h-2.36c.96,5.68-4.3,5.12-2.36,11.78,3.5-2,5.07-5.93,4.72-11.78Z" class="st0"/>
      <path d="M746.48,713.01c-.13,4.06,1.81,6.04,4.71,7.07.12-4.06-1.82-6.04-4.71-7.07Z" class="st0"/>
      <path d="M626.27,698.87c-.66,5.37.57,8.86,4.72,9.43,3.71-3.5,2.63-10.53-4.72-9.43Z" class="st0"/>
      <path d="M958.61,717.73c-2.36,0-2.81-1.91-4.72-2.36,0,2.37-1.91,2.8-2.36,4.71,2.37,0,2.81,1.91,4.72,2.36,0-2.37,1.91-2.8,2.36-4.72Z" class="st0"/>
      <path d="M1079.05,555.09c1.55,1.54-.99-.99,0,0h0Z" class="st0"/>
      <path d="M998.68,720.09c-5.11-7.46-11.47-13.67-21.22-16.5,38.01,55.92-71.3,70.49-51.86,7.07-15.52,8.83-25.68,23.02-42.42,30.64-1.06-12.06,9.09-12.9,9.43-23.57-15.18-.25-11.85,18.01-25.93,18.86-1.37,7.65,1.6,10.97,2.35,16.5,9.28,3.78.82-10.18,7.07-9.43,4.15,7.06,17.3,18.65,25.93,7.07-4.82.62-10.91-9.15-7.07-9.43,11.36,5.16,28.78-2.12,25.93,16.5,34.32,11.13,75.99,9.81,77.78-37.71Z" class="st0"/>
    </g>
  </g>
</svg>